<svg width="229" height="227" viewBox="0 0 229 227" fill="none" xmlns="http://www.w3.org/2000/svg">
<rect width="229" height="227" rx="32" fill="white"/>
<path d="M120.26 46.265H115.811C115.007 46.2675 115.037 47.4656 115.811 47.4586H120.26V48.0711H115.811C115.012 48.064 115.041 49.2615 115.811 49.2647H120.26V49.8906H115.811C115.012 49.8906 115.041 51.0874 115.811 51.0842H120.26V51.6807H115.811C115.028 51.6864 115.041 52.8845 115.811 52.8883H120.26V53.4861H115.811C115.028 53.4835 115.025 54.6797 115.811 54.6797H120.26V55.2762H115.811C115.028 55.2787 115.025 56.4762 115.811 56.4704H120.26V57.0816H115.811C115.028 57.0746 115.025 58.2707 115.811 58.2752H120.26V58.8704H115.811C115.028 58.8698 115.041 60.0685 115.811 60.0647H120.26V71.6864C120.262 73.4573 122.952 73.4253 122.96 71.6864V44.4896C122.952 43.6807 122.288 42.6579 121.195 42.6547H115.811C115.007 42.6554 115.037 43.8535 115.811 43.8483L120.26 43.8631V44.4583H115.811C115.008 44.4544 115.039 45.6519 115.811 45.6525H120.26V46.265ZM115.505 66.8691C115.503 64.8019 113.36 62.5786 110.8 64.0186V56.112L109.144 43.072C109.11 42.7271 108.817 42.6458 108.621 42.64C108.418 42.6458 108.011 42.7271 107.967 43.072L106.32 56.112V64.0186C103.76 62.5786 101.686 64.816 101.686 66.8531C101.686 68.6656 103.081 70.1543 104.969 70.1498C106.871 70.1543 108.24 68.4858 108.24 66.8531V58.64H108.88V66.8531C108.88 68.681 110.295 70.0339 111.869 70.1197C111.842 71.1219 112.169 72.5517 112.785 73.1187C113.507 73.7843 114.367 72.9331 114.014 72.24C113.673 71.5949 113.339 71.2128 113.611 69.8042C114.745 69.2794 115.503 68.1747 115.505 66.8691ZM105.042 68.4954C104.611 68.4954 104.197 68.3239 103.892 68.0188C103.587 67.7136 103.415 67.2997 103.415 66.8682C103.415 66.4366 103.587 66.0227 103.892 65.7176C104.197 65.4124 104.611 65.241 105.042 65.241C105.929 65.2461 106.652 65.9738 106.658 66.8691C106.657 67.2982 106.486 67.7094 106.184 68.0138C105.882 68.3182 105.471 68.4912 105.042 68.4954ZM110.528 66.8691C110.529 66.4398 110.7 66.0282 111.002 65.7236C111.305 65.4189 111.715 65.2455 112.144 65.241C112.574 65.2452 112.984 65.4185 113.287 65.7232C113.589 66.028 113.759 66.4397 113.76 66.8691C113.76 67.2985 113.59 67.7102 113.287 68.0147C112.984 68.3193 112.574 68.492 112.144 68.4954C111.715 68.4913 111.305 68.3184 111.002 68.014C110.7 67.7096 110.529 67.2983 110.528 66.8691Z" fill="#E88383"/>
<path d="M29.704 107V90.2H36.28C37.464 90.2 38.448 90.384 39.232 90.752C40.032 91.12 40.632 91.632 41.032 92.288C41.432 92.928 41.632 93.672 41.632 94.52C41.632 95.368 41.448 96.08 41.08 96.656C40.712 97.232 40.224 97.672 39.616 97.976C39.024 98.28 38.376 98.464 37.672 98.528L38.032 98.264C38.784 98.28 39.456 98.48 40.048 98.864C40.656 99.248 41.136 99.752 41.488 100.376C41.84 100.984 42.016 101.664 42.016 102.416C42.016 103.296 41.8 104.088 41.368 104.792C40.952 105.48 40.336 106.024 39.52 106.424C38.704 106.808 37.704 107 36.52 107H29.704ZM32.584 104.648H36.088C37.032 104.648 37.768 104.424 38.296 103.976C38.824 103.528 39.088 102.904 39.088 102.104C39.088 101.304 38.816 100.672 38.272 100.208C37.728 99.728 36.984 99.488 36.04 99.488H32.584V104.648ZM32.584 97.304H35.872C36.8 97.304 37.504 97.096 37.984 96.68C38.464 96.248 38.704 95.656 38.704 94.904C38.704 94.168 38.464 93.592 37.984 93.176C37.504 92.744 36.792 92.528 35.848 92.528H32.584V97.304ZM50.3423 107.288C49.1423 107.288 48.0863 107.032 47.1743 106.52C46.2623 105.992 45.5503 105.256 45.0383 104.312C44.5263 103.368 44.2703 102.28 44.2703 101.048C44.2703 99.768 44.5183 98.648 45.0143 97.688C45.5263 96.728 46.2383 95.976 47.1503 95.432C48.0783 94.888 49.1503 94.616 50.3663 94.616C51.5503 94.616 52.5823 94.88 53.4623 95.408C54.3423 95.936 55.0223 96.648 55.5023 97.544C55.9823 98.424 56.2223 99.416 56.2223 100.52C56.2223 100.68 56.2223 100.856 56.2223 101.048C56.2223 101.24 56.2063 101.44 56.1743 101.648H46.3343V99.8H53.3183C53.2863 98.92 52.9903 98.232 52.4303 97.736C51.8703 97.224 51.1743 96.968 50.3423 96.968C49.7503 96.968 49.2063 97.104 48.7103 97.376C48.2143 97.648 47.8223 98.056 47.5343 98.6C47.2463 99.128 47.1023 99.8 47.1023 100.616V101.312C47.1023 102.064 47.2383 102.712 47.5103 103.256C47.7983 103.8 48.1823 104.216 48.6623 104.504C49.1583 104.776 49.7103 104.912 50.3183 104.912C50.9903 104.912 51.5423 104.768 51.9743 104.48C52.4223 104.192 52.7503 103.808 52.9583 103.328H55.8863C55.6623 104.08 55.2943 104.76 54.7823 105.368C54.2703 105.96 53.6383 106.432 52.8863 106.784C52.1343 107.12 51.2863 107.288 50.3423 107.288ZM62.9134 107.288C61.9214 107.288 61.0974 107.12 60.4414 106.784C59.7854 106.448 59.2974 106 58.9774 105.44C58.6574 104.88 58.4974 104.272 58.4974 103.616C58.4974 102.848 58.6894 102.184 59.0734 101.624C59.4734 101.064 60.0574 100.632 60.8254 100.328C61.5934 100.008 62.5374 99.848 63.6574 99.848H66.7054C66.7054 99.208 66.6174 98.68 66.4414 98.264C66.2654 97.832 65.9934 97.512 65.6254 97.304C65.2574 97.096 64.7854 96.992 64.2094 96.992C63.5534 96.992 62.9934 97.144 62.5294 97.448C62.0654 97.736 61.7774 98.184 61.6654 98.792H58.8334C58.9294 97.928 59.2174 97.192 59.6974 96.584C60.1774 95.96 60.8094 95.48 61.5934 95.144C62.3934 94.792 63.2654 94.616 64.2094 94.616C65.3454 94.616 66.3134 94.816 67.1134 95.216C67.9134 95.6 68.5214 96.16 68.9374 96.896C69.3694 97.616 69.5854 98.488 69.5854 99.512V107H67.1374L66.8494 105.056C66.6894 105.376 66.4814 105.672 66.2254 105.944C65.9854 106.216 65.7054 106.456 65.3854 106.664C65.0654 106.856 64.6974 107.008 64.2814 107.12C63.8814 107.232 63.4254 107.288 62.9134 107.288ZM63.5614 105.008C64.0254 105.008 64.4334 104.928 64.7854 104.768C65.1534 104.592 65.4654 104.352 65.7214 104.048C65.9934 103.728 66.2014 103.376 66.3454 102.992C66.4894 102.608 66.5854 102.2 66.6334 101.768V101.72H63.9694C63.4094 101.72 62.9454 101.792 62.5774 101.936C62.2094 102.064 61.9454 102.256 61.7854 102.512C61.6254 102.768 61.5454 103.064 61.5454 103.4C61.5454 103.736 61.6254 104.024 61.7854 104.264C61.9454 104.504 62.1774 104.688 62.4814 104.816C62.7854 104.944 63.1454 105.008 63.5614 105.008ZM77.1507 107.288C76.1747 107.288 75.3347 107.096 74.6307 106.712C73.9427 106.312 73.4147 105.72 73.0467 104.936C72.6787 104.136 72.4947 103.152 72.4947 101.984V94.904H75.3747V101.696C75.3747 102.736 75.5907 103.528 76.0227 104.072C76.4707 104.6 77.1427 104.864 78.0387 104.864C78.6147 104.864 79.1267 104.728 79.5747 104.456C80.0387 104.184 80.3987 103.792 80.6547 103.28C80.9267 102.752 81.0627 102.112 81.0627 101.36V94.904H83.9427V107H81.3987L81.1827 104.984C80.8147 105.688 80.2787 106.248 79.5747 106.664C78.8867 107.08 78.0787 107.288 77.1507 107.288ZM92.4031 107C91.5871 107 90.8751 106.872 90.2671 106.616C89.6751 106.36 89.2111 105.936 88.8751 105.344C88.5391 104.752 88.3711 103.952 88.3711 102.944V97.328H86.3071V94.904H88.3711L88.7071 91.712H91.2511V94.904H94.5391V97.328H91.2511V102.944C91.2511 103.552 91.3791 103.976 91.6351 104.216C91.9071 104.44 92.3551 104.552 92.9791 104.552H94.4671V107H92.4031ZM98.7126 112.28L101.665 105.656H100.945L96.1206 94.904H99.2646L102.865 103.112L106.273 94.904H109.321L101.761 112.28H98.7126ZM123 107.288C121.784 107.288 120.704 107.072 119.76 106.64C118.816 106.208 118.08 105.592 117.552 104.792C117.024 103.992 116.752 103.04 116.736 101.936H119.784C119.784 102.496 119.912 103 120.168 103.448C120.44 103.88 120.808 104.224 121.272 104.48C121.752 104.736 122.328 104.864 123 104.864C123.576 104.864 124.072 104.776 124.488 104.6C124.92 104.408 125.248 104.144 125.472 103.808C125.712 103.456 125.832 103.048 125.832 102.584C125.832 102.056 125.704 101.624 125.448 101.288C125.208 100.936 124.872 100.64 124.44 100.4C124.008 100.16 123.512 99.952 122.952 99.776C122.392 99.584 121.8 99.384 121.176 99.176C119.848 98.728 118.848 98.16 118.176 97.472C117.504 96.768 117.168 95.832 117.168 94.664C117.168 93.688 117.4 92.848 117.864 92.144C118.328 91.44 118.976 90.896 119.808 90.512C120.656 90.112 121.632 89.912 122.736 89.912C123.856 89.912 124.832 90.112 125.664 90.512C126.512 90.912 127.176 91.472 127.656 92.192C128.152 92.896 128.408 93.744 128.424 94.736H125.352C125.336 94.32 125.224 93.936 125.016 93.584C124.808 93.216 124.504 92.92 124.104 92.696C123.72 92.456 123.248 92.336 122.688 92.336C122.208 92.32 121.776 92.4 121.392 92.576C121.024 92.736 120.728 92.976 120.504 93.296C120.296 93.6 120.192 93.984 120.192 94.448C120.192 94.896 120.288 95.272 120.48 95.576C120.688 95.864 120.984 96.112 121.368 96.32C121.752 96.512 122.2 96.696 122.712 96.872C123.224 97.048 123.784 97.24 124.392 97.448C125.224 97.72 125.976 98.056 126.648 98.456C127.336 98.84 127.88 99.344 128.28 99.968C128.68 100.592 128.88 101.4 128.88 102.392C128.88 103.256 128.656 104.064 128.208 104.816C127.76 105.552 127.104 106.152 126.24 106.616C125.376 107.064 124.296 107.288 123 107.288ZM137.249 107.288C136.049 107.288 134.993 107.032 134.081 106.52C133.169 105.992 132.457 105.256 131.945 104.312C131.433 103.368 131.177 102.28 131.177 101.048C131.177 99.768 131.425 98.648 131.921 97.688C132.433 96.728 133.145 95.976 134.057 95.432C134.985 94.888 136.057 94.616 137.273 94.616C138.457 94.616 139.489 94.88 140.369 95.408C141.249 95.936 141.929 96.648 142.409 97.544C142.889 98.424 143.129 99.416 143.129 100.52C143.129 100.68 143.129 100.856 143.129 101.048C143.129 101.24 143.113 101.44 143.081 101.648H133.241V99.8H140.225C140.193 98.92 139.897 98.232 139.337 97.736C138.777 97.224 138.081 96.968 137.249 96.968C136.657 96.968 136.113 97.104 135.617 97.376C135.121 97.648 134.729 98.056 134.441 98.6C134.153 99.128 134.009 99.8 134.009 100.616V101.312C134.009 102.064 134.145 102.712 134.417 103.256C134.705 103.8 135.089 104.216 135.569 104.504C136.065 104.776 136.617 104.912 137.225 104.912C137.897 104.912 138.449 104.768 138.881 104.48C139.329 104.192 139.657 103.808 139.865 103.328H142.793C142.569 104.08 142.201 104.76 141.689 105.368C141.177 105.96 140.545 106.432 139.793 106.784C139.041 107.12 138.193 107.288 137.249 107.288ZM145.788 107V94.904H148.356L148.62 97.16C148.908 96.632 149.268 96.184 149.7 95.816C150.132 95.432 150.636 95.136 151.212 94.928C151.804 94.72 152.452 94.616 153.156 94.616V97.664H152.148C151.668 97.664 151.212 97.728 150.78 97.856C150.348 97.968 149.972 98.16 149.652 98.432C149.348 98.688 149.108 99.048 148.932 99.512C148.756 99.96 148.668 100.528 148.668 101.216V107H145.788ZM158.639 107L154.175 94.904H157.199L160.391 104.264L163.583 94.904H166.559L162.095 107H158.639ZM168.736 107V94.904H171.616V107H168.736ZM170.176 92.984C169.648 92.984 169.208 92.824 168.856 92.504C168.52 92.168 168.352 91.76 168.352 91.28C168.352 90.784 168.52 90.384 168.856 90.08C169.208 89.76 169.648 89.6 170.176 89.6C170.704 89.6 171.136 89.76 171.472 90.08C171.824 90.384 172 90.784 172 91.28C172 91.76 171.824 92.168 171.472 92.504C171.136 92.824 170.704 92.984 170.176 92.984ZM180.68 107.288C179.496 107.288 178.432 107.024 177.488 106.496C176.56 105.952 175.832 105.208 175.304 104.264C174.792 103.304 174.536 102.216 174.536 101C174.536 99.736 174.792 98.632 175.304 97.688C175.832 96.728 176.56 95.976 177.488 95.432C178.432 94.888 179.504 94.616 180.704 94.616C182.208 94.616 183.472 95.016 184.496 95.816C185.52 96.6 186.176 97.68 186.464 99.056H183.44C183.28 98.448 182.944 97.968 182.432 97.616C181.936 97.264 181.344 97.088 180.656 97.088C180.064 97.088 179.52 97.24 179.024 97.544C178.544 97.848 178.16 98.288 177.872 98.864C177.6 99.44 177.464 100.136 177.464 100.952C177.464 101.576 177.544 102.128 177.704 102.608C177.864 103.088 178.088 103.496 178.376 103.832C178.68 104.152 179.024 104.4 179.408 104.576C179.792 104.752 180.208 104.84 180.656 104.84C181.12 104.84 181.536 104.768 181.904 104.624C182.288 104.464 182.608 104.232 182.864 103.928C183.136 103.624 183.328 103.264 183.44 102.848H186.464C186.176 104.192 185.52 105.272 184.496 106.088C183.472 106.888 182.2 107.288 180.68 107.288ZM194.905 107.288C193.705 107.288 192.649 107.032 191.737 106.52C190.825 105.992 190.113 105.256 189.601 104.312C189.089 103.368 188.833 102.28 188.833 101.048C188.833 99.768 189.081 98.648 189.577 97.688C190.089 96.728 190.801 95.976 191.713 95.432C192.641 94.888 193.713 94.616 194.929 94.616C196.113 94.616 197.145 94.88 198.025 95.408C198.905 95.936 199.585 96.648 200.065 97.544C200.545 98.424 200.785 99.416 200.785 100.52C200.785 100.68 200.785 100.856 200.785 101.048C200.785 101.24 200.769 101.44 200.737 101.648H190.897V99.8H197.881C197.849 98.92 197.553 98.232 196.993 97.736C196.433 97.224 195.737 96.968 194.905 96.968C194.313 96.968 193.769 97.104 193.273 97.376C192.777 97.648 192.385 98.056 192.097 98.6C191.809 99.128 191.665 99.8 191.665 100.616V101.312C191.665 102.064 191.801 102.712 192.073 103.256C192.361 103.8 192.745 104.216 193.225 104.504C193.721 104.776 194.273 104.912 194.881 104.912C195.553 104.912 196.105 104.768 196.537 104.48C196.985 104.192 197.313 103.808 197.521 103.328H200.449C200.225 104.08 199.857 104.76 199.345 105.368C198.833 105.96 198.201 106.432 197.449 106.784C196.697 107.12 195.849 107.288 194.905 107.288Z" fill="#4D4E4E"/>
<path d="M39.5508 143.192C38.7294 143.192 38.0094 143.048 37.3908 142.76C36.7721 142.461 36.2921 142.045 35.9508 141.512C35.6094 140.979 35.4388 140.355 35.4388 139.64H37.1188C37.1294 140.045 37.2254 140.419 37.4068 140.76C37.5988 141.091 37.8708 141.357 38.2228 141.56C38.5854 141.752 39.0281 141.848 39.5508 141.848C39.9988 141.848 40.3828 141.773 40.7028 141.624C41.0334 141.475 41.2841 141.272 41.4548 141.016C41.6254 140.749 41.7108 140.445 41.7108 140.104C41.7108 139.709 41.6201 139.384 41.4388 139.128C41.2574 138.872 41.0121 138.664 40.7028 138.504C40.4041 138.333 40.0521 138.184 39.6468 138.056C39.2521 137.928 38.8361 137.789 38.3988 137.64C37.5134 137.352 36.8521 136.979 36.4148 136.52C35.9881 136.061 35.7747 135.464 35.7747 134.728C35.7747 134.099 35.9241 133.555 36.2228 133.096C36.5214 132.627 36.9374 132.264 37.4708 132.008C38.0148 131.741 38.6548 131.608 39.3908 131.608C40.1161 131.608 40.7508 131.741 41.2948 132.008C41.8388 132.275 42.2654 132.643 42.5748 133.112C42.8841 133.581 43.0388 134.131 43.0388 134.76H41.3428C41.3428 134.472 41.2681 134.189 41.1188 133.912C40.9694 133.635 40.7454 133.411 40.4468 133.24C40.1481 133.059 39.7801 132.968 39.3428 132.968C38.9801 132.957 38.6548 133.016 38.3668 133.144C38.0788 133.272 37.8548 133.459 37.6948 133.704C37.5348 133.949 37.4548 134.243 37.4548 134.584C37.4548 134.925 37.5241 135.203 37.6628 135.416C37.8121 135.619 38.0254 135.795 38.3028 135.944C38.5801 136.093 38.9001 136.232 39.2628 136.36C39.6361 136.477 40.0468 136.611 40.4948 136.76C41.0494 136.941 41.5401 137.165 41.9668 137.432C42.4041 137.688 42.7454 138.024 42.9908 138.44C43.2468 138.845 43.3748 139.368 43.3748 140.008C43.3748 140.563 43.2308 141.08 42.9427 141.56C42.6548 142.04 42.2281 142.435 41.6628 142.744C41.0974 143.043 40.3934 143.192 39.5508 143.192ZM47.8694 143.192C47.208 143.192 46.6587 143.08 46.2214 142.856C45.784 142.632 45.4587 142.333 45.2454 141.96C45.032 141.576 44.9254 141.165 44.9254 140.728C44.9254 140.195 45.064 139.741 45.3414 139.368C45.6187 138.984 46.0134 138.691 46.5254 138.488C47.0374 138.285 47.6507 138.184 48.3654 138.184H50.4614C50.4614 137.715 50.392 137.325 50.2534 137.016C50.1147 136.707 49.9067 136.477 49.6294 136.328C49.3627 136.168 49.0214 136.088 48.6054 136.088C48.1254 136.088 47.7147 136.205 47.3734 136.44C47.032 136.664 46.8187 137 46.7334 137.448H45.1334C45.1974 136.883 45.3894 136.403 45.7094 136.008C46.04 135.603 46.4614 135.293 46.9734 135.08C47.4854 134.856 48.0294 134.744 48.6054 134.744C49.3627 134.744 49.9974 134.877 50.5094 135.144C51.0214 135.411 51.4054 135.789 51.6614 136.28C51.928 136.76 52.0614 137.336 52.0614 138.008V143H50.6694L50.5414 141.64C50.424 141.853 50.2854 142.056 50.1254 142.248C49.9654 142.44 49.7734 142.605 49.5494 142.744C49.336 142.883 49.0854 142.989 48.7974 143.064C48.52 143.149 48.2107 143.192 47.8694 143.192ZM48.1734 141.896C48.5147 141.896 48.824 141.827 49.1014 141.688C49.3787 141.549 49.6134 141.363 49.8054 141.128C50.008 140.883 50.1574 140.611 50.2534 140.312C50.36 140.003 50.4187 139.688 50.4294 139.368V139.32H48.5254C48.0667 139.32 47.6934 139.379 47.4054 139.496C47.128 139.603 46.9254 139.752 46.7974 139.944C46.6694 140.136 46.6054 140.36 46.6054 140.616C46.6054 140.883 46.664 141.112 46.7814 141.304C46.9094 141.485 47.0907 141.629 47.3254 141.736C47.56 141.843 47.8427 141.896 48.1734 141.896ZM54.1036 143V131.48H55.7036V143H54.1036ZM61.5805 143.192C60.8232 143.192 60.1405 143.016 59.5325 142.664C58.9352 142.312 58.4605 141.821 58.1085 141.192C57.7672 140.552 57.5965 139.816 57.5965 138.984C57.5965 138.131 57.7725 137.389 58.1245 136.76C58.4765 136.12 58.9565 135.624 59.5645 135.272C60.1725 134.92 60.8552 134.744 61.6125 134.744C62.3805 134.744 63.0632 134.92 63.6605 135.272C64.2578 135.624 64.7272 136.115 65.0685 136.744C65.4205 137.373 65.5965 138.115 65.5965 138.968C65.5965 139.821 65.4205 140.563 65.0685 141.192C64.7272 141.821 64.2525 142.312 63.6445 142.664C63.0365 143.016 62.3485 143.192 61.5805 143.192ZM61.5805 141.816C62.0178 141.816 62.4125 141.709 62.7645 141.496C63.1272 141.283 63.4152 140.968 63.6285 140.552C63.8525 140.125 63.9645 139.597 63.9645 138.968C63.9645 138.339 63.8578 137.816 63.6445 137.4C63.4312 136.973 63.1432 136.653 62.7805 136.44C62.4285 136.227 62.0392 136.12 61.6125 136.12C61.1858 136.12 60.7912 136.227 60.4285 136.44C60.0658 136.653 59.7725 136.973 59.5485 137.4C59.3352 137.816 59.2285 138.339 59.2285 138.968C59.2285 139.597 59.3352 140.125 59.5485 140.552C59.7725 140.968 60.0605 141.283 60.4125 141.496C60.7752 141.709 61.1645 141.816 61.5805 141.816ZM67.4786 143V134.936H68.9186L69.0146 136.312C69.2706 135.832 69.6333 135.453 70.1026 135.176C70.572 134.888 71.1106 134.744 71.7186 134.744C72.3586 134.744 72.908 134.872 73.3666 135.128C73.8253 135.384 74.1826 135.773 74.4386 136.296C74.6946 136.808 74.8226 137.453 74.8226 138.232V143H73.2226V138.392C73.2226 137.645 73.0573 137.08 72.7266 136.696C72.396 136.312 71.916 136.12 71.2866 136.12C70.8706 136.12 70.4973 136.221 70.1666 136.424C69.836 136.616 69.5693 136.904 69.3666 137.288C69.1746 137.672 69.0786 138.141 69.0786 138.696V143H67.4786ZM76.9653 138.952V137.608H83.4293V138.952H76.9653ZM92.0814 146.52V141.752C91.8254 142.157 91.4627 142.499 90.9934 142.776C90.5347 143.053 89.9694 143.192 89.2974 143.192C88.5294 143.192 87.8467 143.011 87.2494 142.648C86.6627 142.275 86.204 141.773 85.8734 141.144C85.5534 140.504 85.3934 139.779 85.3934 138.968C85.3934 138.157 85.5587 137.437 85.8894 136.808C86.22 136.168 86.6787 135.667 87.2654 135.304C87.852 134.931 88.5294 134.744 89.2974 134.744C89.7347 134.744 90.1294 134.808 90.4814 134.936C90.844 135.053 91.1587 135.219 91.4254 135.432C91.692 135.645 91.9107 135.896 92.0814 136.184L92.2414 134.936H93.6814V146.52H92.0814ZM89.5374 141.8C90.0387 141.8 90.4814 141.683 90.8654 141.448C91.2494 141.213 91.5427 140.883 91.7454 140.456C91.9587 140.029 92.0654 139.533 92.0654 138.968C92.0654 138.403 91.9587 137.912 91.7454 137.496C91.5427 137.069 91.2494 136.739 90.8654 136.504C90.4814 136.259 90.0387 136.136 89.5374 136.136C89.0574 136.136 88.6254 136.259 88.2414 136.504C87.8574 136.739 87.5587 137.069 87.3454 137.496C87.132 137.912 87.0254 138.403 87.0254 138.968C87.0254 139.533 87.132 140.029 87.3454 140.456C87.5587 140.883 87.8574 141.213 88.2414 141.448C88.6254 141.683 89.0574 141.8 89.5374 141.8ZM98.8293 143.192C98.1999 143.192 97.6506 143.064 97.1813 142.808C96.7226 142.552 96.3653 142.168 96.1093 141.656C95.8639 141.144 95.7413 140.499 95.7413 139.72V134.936H97.3413V139.544C97.3413 140.301 97.5066 140.872 97.8373 141.256C98.1679 141.64 98.6426 141.832 99.2613 141.832C99.6773 141.832 100.051 141.731 100.381 141.528C100.723 141.325 100.989 141.032 101.181 140.648C101.373 140.264 101.469 139.795 101.469 139.24V134.936H103.069V143H101.645L101.533 141.624C101.288 142.115 100.931 142.499 100.461 142.776C99.9919 143.053 99.4479 143.192 98.8293 143.192ZM107.932 143.192C107.271 143.192 106.721 143.08 106.284 142.856C105.847 142.632 105.521 142.333 105.308 141.96C105.095 141.576 104.988 141.165 104.988 140.728C104.988 140.195 105.127 139.741 105.404 139.368C105.681 138.984 106.076 138.691 106.588 138.488C107.1 138.285 107.713 138.184 108.428 138.184H110.524C110.524 137.715 110.455 137.325 110.316 137.016C110.177 136.707 109.969 136.477 109.692 136.328C109.425 136.168 109.084 136.088 108.668 136.088C108.188 136.088 107.777 136.205 107.436 136.44C107.095 136.664 106.881 137 106.796 137.448H105.196C105.26 136.883 105.452 136.403 105.772 136.008C106.103 135.603 106.524 135.293 107.036 135.08C107.548 134.856 108.092 134.744 108.668 134.744C109.425 134.744 110.06 134.877 110.572 135.144C111.084 135.411 111.468 135.789 111.724 136.28C111.991 136.76 112.124 137.336 112.124 138.008V143H110.732L110.604 141.64C110.487 141.853 110.348 142.056 110.188 142.248C110.028 142.44 109.836 142.605 109.612 142.744C109.399 142.883 109.148 142.989 108.86 143.064C108.583 143.149 108.273 143.192 107.932 143.192ZM108.236 141.896C108.577 141.896 108.887 141.827 109.164 141.688C109.441 141.549 109.676 141.363 109.868 141.128C110.071 140.883 110.22 140.611 110.316 140.312C110.423 140.003 110.481 139.688 110.492 139.368V139.32H108.588C108.129 139.32 107.756 139.379 107.468 139.496C107.191 139.603 106.988 139.752 106.86 139.944C106.732 140.136 106.668 140.36 106.668 140.616C106.668 140.883 106.727 141.112 106.844 141.304C106.972 141.485 107.153 141.629 107.388 141.736C107.623 141.843 107.905 141.896 108.236 141.896ZM114.166 143V131.48H115.766V143H114.166ZM118.075 143V134.936H119.675V143H118.075ZM118.891 133.416C118.582 133.416 118.326 133.32 118.123 133.128C117.931 132.936 117.835 132.691 117.835 132.392C117.835 132.104 117.931 131.869 118.123 131.688C118.326 131.496 118.582 131.4 118.891 131.4C119.19 131.4 119.44 131.496 119.643 131.688C119.846 131.869 119.947 132.104 119.947 132.392C119.947 132.691 119.846 132.936 119.643 133.128C119.44 133.32 119.19 133.416 118.891 133.416ZM125.291 143C124.779 143 124.336 142.92 123.963 142.76C123.59 142.6 123.302 142.333 123.099 141.96C122.896 141.587 122.795 141.08 122.795 140.44V136.296H121.403V134.936H122.795L122.987 132.92H124.395V134.936H126.683V136.296H124.395V140.456C124.395 140.915 124.491 141.229 124.683 141.4C124.875 141.56 125.206 141.64 125.675 141.64H126.603V143H125.291ZM129.375 146.52L131.343 142.104H130.879L127.695 134.936H129.423L131.951 140.792L134.495 134.936H136.175L131.055 146.52H129.375ZM145.41 143.192C144.631 143.192 143.938 143.016 143.33 142.664C142.722 142.301 142.242 141.805 141.89 141.176C141.548 140.547 141.378 139.816 141.378 138.984C141.378 138.141 141.548 137.405 141.89 136.776C142.242 136.136 142.722 135.64 143.33 135.288C143.938 134.925 144.631 134.744 145.41 134.744C146.391 134.744 147.212 135 147.874 135.512C148.535 136.024 148.956 136.717 149.138 137.592H147.474C147.367 137.123 147.122 136.76 146.738 136.504C146.364 136.248 145.916 136.12 145.394 136.12C144.967 136.12 144.572 136.232 144.21 136.456C143.847 136.669 143.554 136.989 143.33 137.416C143.116 137.832 143.01 138.349 143.01 138.968C143.01 139.427 143.074 139.837 143.202 140.2C143.33 140.552 143.5 140.851 143.714 141.096C143.938 141.341 144.194 141.528 144.482 141.656C144.77 141.773 145.074 141.832 145.394 141.832C145.746 141.832 146.06 141.779 146.338 141.672C146.626 141.555 146.866 141.384 147.058 141.16C147.26 140.936 147.399 140.669 147.474 140.36H149.138C148.956 141.213 148.535 141.901 147.874 142.424C147.212 142.936 146.391 143.192 145.41 143.192ZM153.682 143.192C153.021 143.192 152.471 143.08 152.034 142.856C151.597 142.632 151.271 142.333 151.058 141.96C150.845 141.576 150.738 141.165 150.738 140.728C150.738 140.195 150.877 139.741 151.154 139.368C151.431 138.984 151.826 138.691 152.338 138.488C152.85 138.285 153.463 138.184 154.178 138.184H156.274C156.274 137.715 156.205 137.325 156.066 137.016C155.927 136.707 155.719 136.477 155.442 136.328C155.175 136.168 154.834 136.088 154.418 136.088C153.938 136.088 153.527 136.205 153.186 136.44C152.845 136.664 152.631 137 152.546 137.448H150.946C151.01 136.883 151.202 136.403 151.522 136.008C151.853 135.603 152.274 135.293 152.786 135.08C153.298 134.856 153.842 134.744 154.418 134.744C155.175 134.744 155.81 134.877 156.322 135.144C156.834 135.411 157.218 135.789 157.474 136.28C157.741 136.76 157.874 137.336 157.874 138.008V143H156.482L156.354 141.64C156.237 141.853 156.098 142.056 155.938 142.248C155.778 142.44 155.586 142.605 155.362 142.744C155.149 142.883 154.898 142.989 154.61 143.064C154.333 143.149 154.023 143.192 153.682 143.192ZM153.986 141.896C154.327 141.896 154.637 141.827 154.914 141.688C155.191 141.549 155.426 141.363 155.618 141.128C155.821 140.883 155.97 140.611 156.066 140.312C156.173 140.003 156.231 139.688 156.242 139.368V139.32H154.338C153.879 139.32 153.506 139.379 153.218 139.496C152.941 139.603 152.738 139.752 152.61 139.944C152.482 140.136 152.418 140.36 152.418 140.616C152.418 140.883 152.477 141.112 152.594 141.304C152.722 141.485 152.903 141.629 153.138 141.736C153.373 141.843 153.655 141.896 153.986 141.896ZM159.916 143V134.936H161.356L161.5 136.456C161.681 136.093 161.916 135.789 162.204 135.544C162.492 135.288 162.828 135.091 163.212 134.952C163.607 134.813 164.055 134.744 164.556 134.744V136.44H163.98C163.649 136.44 163.335 136.483 163.036 136.568C162.737 136.643 162.471 136.776 162.236 136.968C162.012 137.16 161.836 137.421 161.708 137.752C161.58 138.083 161.516 138.493 161.516 138.984V143H159.916ZM169.439 143.192C168.671 143.192 167.988 143.016 167.391 142.664C166.794 142.312 166.324 141.821 165.983 141.192C165.652 140.563 165.487 139.832 165.487 139C165.487 138.147 165.652 137.405 165.983 136.776C166.324 136.136 166.794 135.64 167.391 135.288C167.988 134.925 168.682 134.744 169.471 134.744C170.26 134.744 170.938 134.92 171.503 135.272C172.068 135.624 172.506 136.093 172.815 136.68C173.124 137.256 173.279 137.896 173.279 138.6C173.279 138.707 173.274 138.824 173.263 138.952C173.263 139.069 173.258 139.203 173.247 139.352H166.655V138.216H171.679C171.647 137.544 171.423 137.021 171.007 136.648C170.591 136.264 170.074 136.072 169.455 136.072C169.018 136.072 168.618 136.173 168.255 136.376C167.892 136.568 167.599 136.856 167.375 137.24C167.162 137.613 167.055 138.088 167.055 138.664V139.112C167.055 139.709 167.162 140.216 167.375 140.632C167.599 141.037 167.892 141.347 168.255 141.56C168.618 141.763 169.012 141.864 169.439 141.864C169.951 141.864 170.372 141.752 170.703 141.528C171.034 141.304 171.279 141 171.439 140.616H173.039C172.9 141.107 172.666 141.549 172.335 141.944C172.004 142.328 171.594 142.632 171.103 142.856C170.623 143.08 170.068 143.192 169.439 143.192ZM181.823 143.192C181.161 143.192 180.612 143.08 180.174 142.856C179.737 142.632 179.412 142.333 179.199 141.96C178.985 141.576 178.879 141.165 178.879 140.728C178.879 140.195 179.017 139.741 179.295 139.368C179.572 138.984 179.967 138.691 180.479 138.488C180.991 138.285 181.604 138.184 182.319 138.184H184.415C184.415 137.715 184.345 137.325 184.207 137.016C184.068 136.707 183.86 136.477 183.583 136.328C183.316 136.168 182.975 136.088 182.559 136.088C182.079 136.088 181.668 136.205 181.327 136.44C180.985 136.664 180.772 137 180.687 137.448H179.087C179.151 136.883 179.343 136.403 179.663 136.008C179.993 135.603 180.415 135.293 180.927 135.08C181.439 134.856 181.983 134.744 182.559 134.744C183.316 134.744 183.951 134.877 184.463 135.144C184.975 135.411 185.359 135.789 185.615 136.28C185.881 136.76 186.015 137.336 186.015 138.008V143H184.623L184.495 141.64C184.377 141.853 184.239 142.056 184.079 142.248C183.919 142.44 183.727 142.605 183.503 142.744C183.289 142.883 183.039 142.989 182.751 143.064C182.473 143.149 182.164 143.192 181.823 143.192ZM182.127 141.896C182.468 141.896 182.777 141.827 183.055 141.688C183.332 141.549 183.567 141.363 183.759 141.128C183.961 140.883 184.111 140.611 184.207 140.312C184.313 140.003 184.372 139.688 184.383 139.368V139.32H182.479C182.02 139.32 181.647 139.379 181.359 139.496C181.081 139.603 180.879 139.752 180.751 139.944C180.623 140.136 180.559 140.36 180.559 140.616C180.559 140.883 180.617 141.112 180.735 141.304C180.863 141.485 181.044 141.629 181.279 141.736C181.513 141.843 181.796 141.896 182.127 141.896ZM191.213 143C190.701 143 190.258 142.92 189.885 142.76C189.512 142.6 189.224 142.333 189.021 141.96C188.818 141.587 188.717 141.08 188.717 140.44V136.296H187.325V134.936H188.717L188.909 132.92H190.317V134.936H192.605V136.296H190.317V140.456C190.317 140.915 190.413 141.229 190.605 141.4C190.797 141.56 191.128 141.64 191.597 141.64H192.525V143H191.213ZM75.8441 167.52L77.8121 163.104H77.3481L74.1641 155.936H75.8921L78.4201 161.792L80.9641 155.936H82.6441L77.5241 167.52H75.8441ZM87.0024 164.192C86.245 164.192 85.5624 164.016 84.9544 163.664C84.357 163.312 83.8824 162.821 83.5304 162.192C83.189 161.552 83.0184 160.816 83.0184 159.984C83.0184 159.131 83.1944 158.389 83.5464 157.76C83.8984 157.12 84.3784 156.624 84.9864 156.272C85.5944 155.92 86.277 155.744 87.0344 155.744C87.8024 155.744 88.485 155.92 89.0824 156.272C89.6797 156.624 90.149 157.115 90.4904 157.744C90.8424 158.373 91.0184 159.115 91.0184 159.968C91.0184 160.821 90.8424 161.563 90.4904 162.192C90.149 162.821 89.6744 163.312 89.0664 163.664C88.4584 164.016 87.7704 164.192 87.0024 164.192ZM87.0024 162.816C87.4397 162.816 87.8344 162.709 88.1864 162.496C88.549 162.283 88.837 161.968 89.0504 161.552C89.2744 161.125 89.3864 160.597 89.3864 159.968C89.3864 159.339 89.2797 158.816 89.0664 158.4C88.853 157.973 88.565 157.653 88.2024 157.44C87.8504 157.227 87.461 157.12 87.0344 157.12C86.6077 157.12 86.213 157.227 85.8504 157.44C85.4877 157.653 85.1944 157.973 84.9704 158.4C84.757 158.816 84.6504 159.339 84.6504 159.968C84.6504 160.597 84.757 161.125 84.9704 161.552C85.1944 161.968 85.4824 162.283 85.8344 162.496C86.197 162.709 86.5864 162.816 87.0024 162.816ZM95.8605 164.192C95.2312 164.192 94.6818 164.064 94.2125 163.808C93.7538 163.552 93.3965 163.168 93.1405 162.656C92.8952 162.144 92.7725 161.499 92.7725 160.72V155.936H94.3725V160.544C94.3725 161.301 94.5378 161.872 94.8685 162.256C95.1992 162.64 95.6738 162.832 96.2925 162.832C96.7085 162.832 97.0818 162.731 97.4125 162.528C97.7538 162.325 98.0205 162.032 98.2125 161.648C98.4045 161.264 98.5005 160.795 98.5005 160.24V155.936H100.101V164H98.6765L98.5645 162.624C98.3192 163.115 97.9618 163.499 97.4925 163.776C97.0232 164.053 96.4792 164.192 95.8605 164.192ZM102.291 164V155.936H103.731L103.875 157.456C104.056 157.093 104.291 156.789 104.579 156.544C104.867 156.288 105.203 156.091 105.587 155.952C105.982 155.813 106.43 155.744 106.931 155.744V157.44H106.355C106.024 157.44 105.71 157.483 105.411 157.568C105.112 157.643 104.846 157.776 104.611 157.968C104.387 158.16 104.211 158.421 104.083 158.752C103.955 159.083 103.891 159.493 103.891 159.984V164H102.291ZM112.494 164V152.48H114.094V157.248C114.361 156.779 114.729 156.411 115.198 156.144C115.678 155.877 116.206 155.744 116.782 155.744C117.422 155.744 117.972 155.877 118.43 156.144C118.889 156.4 119.241 156.789 119.486 157.312C119.732 157.824 119.854 158.469 119.854 159.248V164H118.27V159.408C118.27 158.661 118.11 158.096 117.79 157.712C117.47 157.317 116.996 157.12 116.366 157.12C115.94 157.12 115.556 157.221 115.214 157.424C114.873 157.627 114.601 157.925 114.398 158.32C114.196 158.704 114.094 159.173 114.094 159.728V164H112.494ZM125.581 164.192C124.823 164.192 124.141 164.016 123.533 163.664C122.935 163.312 122.461 162.821 122.109 162.192C121.767 161.552 121.597 160.816 121.597 159.984C121.597 159.131 121.773 158.389 122.125 157.76C122.477 157.12 122.957 156.624 123.565 156.272C124.173 155.92 124.855 155.744 125.613 155.744C126.381 155.744 127.063 155.92 127.661 156.272C128.258 156.624 128.727 157.115 129.069 157.744C129.421 158.373 129.597 159.115 129.597 159.968C129.597 160.821 129.421 161.563 129.069 162.192C128.727 162.821 128.253 163.312 127.645 163.664C127.037 164.016 126.349 164.192 125.581 164.192ZM125.581 162.816C126.018 162.816 126.413 162.709 126.765 162.496C127.127 162.283 127.415 161.968 127.629 161.552C127.853 161.125 127.965 160.597 127.965 159.968C127.965 159.339 127.858 158.816 127.645 158.4C127.431 157.973 127.143 157.653 126.781 157.44C126.429 157.227 126.039 157.12 125.613 157.12C125.186 157.12 124.791 157.227 124.429 157.44C124.066 157.653 123.773 157.973 123.549 158.4C123.335 158.816 123.229 159.339 123.229 159.968C123.229 160.597 123.335 161.125 123.549 161.552C123.773 161.968 124.061 162.283 124.413 162.496C124.775 162.709 125.165 162.816 125.581 162.816ZM131.479 164V155.936H132.919L133.031 157.072C133.287 156.656 133.628 156.331 134.055 156.096C134.481 155.861 134.961 155.744 135.495 155.744C135.9 155.744 136.268 155.803 136.599 155.92C136.929 156.027 137.223 156.192 137.479 156.416C137.735 156.64 137.943 156.917 138.103 157.248C138.391 156.779 138.775 156.411 139.255 156.144C139.745 155.877 140.263 155.744 140.807 155.744C141.457 155.744 142.017 155.877 142.487 156.144C142.956 156.4 143.313 156.789 143.559 157.312C143.804 157.824 143.927 158.464 143.927 159.232V164H142.343V159.392C142.343 158.645 142.188 158.08 141.879 157.696C141.58 157.312 141.137 157.12 140.551 157.12C140.156 157.12 139.804 157.221 139.495 157.424C139.185 157.627 138.94 157.92 138.759 158.304C138.588 158.688 138.503 159.157 138.503 159.712V164H136.903V159.392C136.903 158.645 136.748 158.08 136.439 157.696C136.14 157.312 135.697 157.12 135.111 157.12C134.737 157.12 134.396 157.221 134.087 157.424C133.777 157.627 133.532 157.92 133.351 158.304C133.169 158.688 133.079 159.157 133.079 159.712V164H131.479ZM149.642 164.192C148.874 164.192 148.192 164.016 147.594 163.664C146.997 163.312 146.528 162.821 146.186 162.192C145.856 161.563 145.69 160.832 145.69 160C145.69 159.147 145.856 158.405 146.186 157.776C146.528 157.136 146.997 156.64 147.594 156.288C148.192 155.925 148.885 155.744 149.674 155.744C150.464 155.744 151.141 155.92 151.706 156.272C152.272 156.624 152.709 157.093 153.018 157.68C153.328 158.256 153.482 158.896 153.482 159.6C153.482 159.707 153.477 159.824 153.466 159.952C153.466 160.069 153.461 160.203 153.45 160.352H146.858V159.216H151.882C151.85 158.544 151.626 158.021 151.21 157.648C150.794 157.264 150.277 157.072 149.658 157.072C149.221 157.072 148.821 157.173 148.458 157.376C148.096 157.568 147.802 157.856 147.578 158.24C147.365 158.613 147.258 159.088 147.258 159.664V160.112C147.258 160.709 147.365 161.216 147.578 161.632C147.802 162.037 148.096 162.347 148.458 162.56C148.821 162.763 149.216 162.864 149.642 162.864C150.154 162.864 150.576 162.752 150.906 162.528C151.237 162.304 151.482 162 151.642 161.616H153.242C153.104 162.107 152.869 162.549 152.538 162.944C152.208 163.328 151.797 163.632 151.306 163.856C150.826 164.08 150.272 164.192 149.642 164.192Z" fill="#919292"/>
</svg>
