<svg width="229" height="227" viewBox="0 0 229 227" fill="none" xmlns="http://www.w3.org/2000/svg">
<rect width="229" height="227" rx="32" fill="white"/>
<path d="M116.741 69.344L112.075 64.6587L113.872 62.8107L103.005 47.2773L107.333 42.9493L125.252 60.8587L116.741 69.344ZM116.767 67.4493L123.349 60.8667L120.533 58.0187L113.919 64.6333L116.767 67.4493Z" fill="#53A5E4"/>
<path d="M63.168 105.288C61.504 105.288 60.064 104.928 58.848 104.208C57.648 103.472 56.72 102.456 56.064 101.16C55.424 99.848 55.104 98.336 55.104 96.624C55.104 94.896 55.424 93.384 56.064 92.088C56.72 90.776 57.648 89.752 58.848 89.016C60.064 88.28 61.504 87.912 63.168 87.912C65.168 87.912 66.8 88.408 68.064 89.4C69.328 90.376 70.128 91.76 70.464 93.552H67.296C67.072 92.608 66.616 91.864 65.928 91.32C65.24 90.776 64.312 90.504 63.144 90.504C62.088 90.504 61.176 90.752 60.408 91.248C59.656 91.728 59.072 92.432 58.656 93.36C58.256 94.272 58.056 95.36 58.056 96.624C58.056 97.888 58.256 98.976 58.656 99.888C59.072 100.784 59.656 101.48 60.408 101.976C61.176 102.456 62.088 102.696 63.144 102.696C64.312 102.696 65.24 102.448 65.928 101.952C66.616 101.44 67.072 100.736 67.296 99.84H70.464C70.144 101.536 69.344 102.872 68.064 103.848C66.8 104.808 65.168 105.288 63.168 105.288ZM77.2181 105.288C76.2261 105.288 75.4021 105.12 74.7461 104.784C74.0901 104.448 73.6021 104 73.2821 103.44C72.9621 102.88 72.8021 102.272 72.8021 101.616C72.8021 100.848 72.9941 100.184 73.3781 99.624C73.7781 99.064 74.3621 98.632 75.1301 98.328C75.8981 98.008 76.8421 97.848 77.9621 97.848H81.0101C81.0101 97.208 80.9221 96.68 80.7461 96.264C80.5701 95.832 80.2981 95.512 79.9301 95.304C79.5621 95.096 79.0901 94.992 78.5141 94.992C77.8581 94.992 77.2981 95.144 76.8341 95.448C76.3701 95.736 76.0821 96.184 75.9701 96.792H73.1381C73.2341 95.928 73.5221 95.192 74.0021 94.584C74.4821 93.96 75.1141 93.48 75.8981 93.144C76.6981 92.792 77.5701 92.616 78.5141 92.616C79.6501 92.616 80.6181 92.816 81.4181 93.216C82.2181 93.6 82.8261 94.16 83.2421 94.896C83.6741 95.616 83.8901 96.488 83.8901 97.512V105H81.4421L81.1541 103.056C80.9941 103.376 80.7861 103.672 80.5301 103.944C80.2901 104.216 80.0101 104.456 79.6901 104.664C79.3701 104.856 79.0021 105.008 78.5861 105.12C78.1861 105.232 77.7301 105.288 77.2181 105.288ZM77.8661 103.008C78.3301 103.008 78.7381 102.928 79.0901 102.768C79.4581 102.592 79.7701 102.352 80.0261 102.048C80.2981 101.728 80.5061 101.376 80.6501 100.992C80.7941 100.608 80.8901 100.2 80.9381 99.768V99.72H78.2741C77.7141 99.72 77.2501 99.792 76.8821 99.936C76.5141 100.064 76.2501 100.256 76.0901 100.512C75.9301 100.768 75.8501 101.064 75.8501 101.4C75.8501 101.736 75.9301 102.024 76.0901 102.264C76.2501 102.504 76.4821 102.688 76.7861 102.816C77.0901 102.944 77.4501 103.008 77.8661 103.008ZM86.9674 105V92.904H89.5354L89.7994 95.16C90.0874 94.632 90.4474 94.184 90.8794 93.816C91.3114 93.432 91.8154 93.136 92.3914 92.928C92.9834 92.72 93.6314 92.616 94.3354 92.616V95.664H93.3274C92.8474 95.664 92.3914 95.728 91.9594 95.856C91.5274 95.968 91.1514 96.16 90.8314 96.432C90.5274 96.688 90.2874 97.048 90.1114 97.512C89.9354 97.96 89.8474 98.528 89.8474 99.216V105H86.9674ZM96.5064 110.28V92.904H99.0744L99.3864 94.656C99.6424 94.304 99.9464 93.976 100.298 93.672C100.666 93.352 101.106 93.096 101.618 92.904C102.146 92.712 102.746 92.616 103.418 92.616C104.554 92.616 105.554 92.896 106.418 93.456C107.298 94.016 107.986 94.776 108.482 95.736C108.978 96.68 109.226 97.76 109.226 98.976C109.226 100.192 108.97 101.28 108.458 102.24C107.962 103.184 107.274 103.928 106.394 104.472C105.53 105.016 104.538 105.288 103.418 105.288C102.506 105.288 101.706 105.12 101.018 104.784C100.346 104.432 99.8024 103.936 99.3864 103.296V110.28H96.5064ZM102.818 102.792C103.49 102.792 104.09 102.632 104.618 102.312C105.146 101.992 105.554 101.544 105.842 100.968C106.146 100.392 106.298 99.728 106.298 98.976C106.298 98.208 106.146 97.536 105.842 96.96C105.554 96.384 105.146 95.936 104.618 95.616C104.09 95.296 103.49 95.136 102.818 95.136C102.13 95.136 101.522 95.296 100.994 95.616C100.482 95.936 100.074 96.384 99.7704 96.96C99.4824 97.536 99.3384 98.2 99.3384 98.952C99.3384 99.72 99.4824 100.392 99.7704 100.968C100.074 101.528 100.482 101.976 100.994 102.312C101.522 102.632 102.13 102.792 102.818 102.792ZM117.686 105.288C116.486 105.288 115.43 105.032 114.518 104.52C113.606 103.992 112.894 103.256 112.382 102.312C111.87 101.368 111.614 100.28 111.614 99.048C111.614 97.768 111.862 96.648 112.358 95.688C112.87 94.728 113.582 93.976 114.494 93.432C115.422 92.888 116.494 92.616 117.71 92.616C118.894 92.616 119.926 92.88 120.806 93.408C121.686 93.936 122.366 94.648 122.846 95.544C123.326 96.424 123.566 97.416 123.566 98.52C123.566 98.68 123.566 98.856 123.566 99.048C123.566 99.24 123.55 99.44 123.518 99.648H113.678V97.8H120.662C120.63 96.92 120.334 96.232 119.774 95.736C119.214 95.224 118.518 94.968 117.686 94.968C117.094 94.968 116.55 95.104 116.054 95.376C115.558 95.648 115.166 96.056 114.878 96.6C114.59 97.128 114.446 97.8 114.446 98.616V99.312C114.446 100.064 114.582 100.712 114.854 101.256C115.142 101.8 115.526 102.216 116.006 102.504C116.502 102.776 117.054 102.912 117.662 102.912C118.334 102.912 118.886 102.768 119.318 102.48C119.766 102.192 120.094 101.808 120.302 101.328H123.23C123.006 102.08 122.638 102.76 122.126 103.368C121.614 103.96 120.982 104.432 120.23 104.784C119.478 105.12 118.63 105.288 117.686 105.288ZM126.225 105V92.904H128.769L128.985 94.92C129.353 94.216 129.881 93.656 130.569 93.24C131.257 92.824 132.073 92.616 133.017 92.616C133.993 92.616 134.825 92.824 135.513 93.24C136.201 93.64 136.729 94.232 137.097 95.016C137.481 95.8 137.673 96.776 137.673 97.944V105H134.793V98.208C134.793 97.2 134.569 96.424 134.121 95.88C133.673 95.336 133.009 95.064 132.129 95.064C131.553 95.064 131.033 95.2 130.569 95.472C130.121 95.744 129.761 96.144 129.489 96.672C129.233 97.184 129.105 97.808 129.105 98.544V105H126.225ZM145.966 105C145.15 105 144.438 104.872 143.83 104.616C143.238 104.36 142.774 103.936 142.438 103.344C142.102 102.752 141.934 101.952 141.934 100.944V95.328H139.87V92.904H141.934L142.27 89.712H144.814V92.904H148.102V95.328H144.814V100.944C144.814 101.552 144.942 101.976 145.198 102.216C145.47 102.44 145.918 102.552 146.542 102.552H148.03V105H145.966ZM150.811 105V92.904H153.379L153.643 95.16C153.931 94.632 154.291 94.184 154.723 93.816C155.155 93.432 155.659 93.136 156.235 92.928C156.827 92.72 157.475 92.616 158.179 92.616V95.664H157.171C156.691 95.664 156.235 95.728 155.803 95.856C155.371 95.968 154.995 96.16 154.675 96.432C154.371 96.688 154.131 97.048 153.955 97.512C153.779 97.96 153.691 98.528 153.691 99.216V105H150.811ZM161.814 110.28L164.766 103.656H164.046L159.222 92.904H162.366L165.966 101.112L169.374 92.904H172.422L164.862 110.28H161.814Z" fill="#4D4E4E"/>
<path d="M47.8847 142.192C46.786 142.192 45.8367 141.952 45.0367 141.472C44.2474 140.981 43.634 140.304 43.1967 139.44C42.77 138.565 42.5567 137.552 42.5567 136.4C42.5567 135.259 42.77 134.251 43.1967 133.376C43.634 132.501 44.2474 131.824 45.0367 131.344C45.8367 130.853 46.786 130.608 47.8847 130.608C49.1967 130.608 50.258 130.923 51.0687 131.552C51.89 132.181 52.4127 133.067 52.6367 134.208H50.8767C50.7167 133.547 50.386 133.019 49.8847 132.624C49.394 132.229 48.7274 132.032 47.8847 132.032C47.1274 132.032 46.4714 132.208 45.9167 132.56C45.362 132.912 44.9354 133.413 44.6367 134.064C44.338 134.715 44.1887 135.493 44.1887 136.4C44.1887 137.307 44.338 138.091 44.6367 138.752C44.9354 139.403 45.362 139.904 45.9167 140.256C46.4714 140.597 47.1274 140.768 47.8847 140.768C48.7274 140.768 49.394 140.581 49.8847 140.208C50.386 139.824 50.7167 139.307 50.8767 138.656H52.6367C52.4127 139.765 51.89 140.635 51.0687 141.264C50.258 141.883 49.1967 142.192 47.8847 142.192ZM57.4308 142.192C56.8015 142.192 56.2521 142.064 55.7828 141.808C55.3241 141.552 54.9668 141.168 54.7108 140.656C54.4655 140.144 54.3428 139.499 54.3428 138.72V133.936H55.9428V138.544C55.9428 139.301 56.1081 139.872 56.4388 140.256C56.7695 140.64 57.2441 140.832 57.8628 140.832C58.2788 140.832 58.6521 140.731 58.9828 140.528C59.3241 140.325 59.5908 140.032 59.7828 139.648C59.9748 139.264 60.0708 138.795 60.0708 138.24V133.936H61.6708V142H60.2468L60.1348 140.624C59.8895 141.115 59.5321 141.499 59.0628 141.776C58.5935 142.053 58.0495 142.192 57.4308 142.192ZM66.9814 142.192C66.2988 142.192 65.7014 142.08 65.1894 141.856C64.6774 141.632 64.2721 141.317 63.9734 140.912C63.6748 140.507 63.4934 140.032 63.4294 139.488H65.0614C65.1148 139.744 65.2161 139.979 65.3654 140.192C65.5254 140.405 65.7388 140.576 66.0054 140.704C66.2828 140.832 66.6081 140.896 66.9814 140.896C67.3334 140.896 67.6214 140.848 67.8454 140.752C68.0801 140.645 68.2508 140.507 68.3574 140.336C68.4641 140.155 68.5174 139.963 68.5174 139.76C68.5174 139.461 68.4428 139.237 68.2934 139.088C68.1548 138.928 67.9414 138.805 67.6534 138.72C67.3761 138.624 67.0401 138.539 66.6454 138.464C66.2721 138.4 65.9094 138.315 65.5574 138.208C65.2161 138.091 64.9068 137.947 64.6294 137.776C64.3628 137.605 64.1494 137.392 63.9894 137.136C63.8294 136.869 63.7494 136.544 63.7494 136.16C63.7494 135.701 63.8721 135.291 64.1174 134.928C64.3628 134.555 64.7094 134.267 65.1574 134.064C65.6161 133.851 66.1548 133.744 66.7734 133.744C67.6694 133.744 68.3894 133.957 68.9334 134.384C69.4774 134.811 69.7974 135.413 69.8934 136.192H68.3414C68.2988 135.829 68.1388 135.552 67.8614 135.36C67.5841 135.157 67.2161 135.056 66.7574 135.056C66.2988 135.056 65.9468 135.147 65.7014 135.328C65.4561 135.509 65.3334 135.749 65.3334 136.048C65.3334 136.24 65.4028 136.411 65.5414 136.56C65.6801 136.709 65.8828 136.837 66.1494 136.944C66.4268 137.04 66.7628 137.131 67.1574 137.216C67.7228 137.323 68.2294 137.456 68.6774 137.616C69.1254 137.776 69.4828 138.011 69.7494 138.32C70.0161 138.629 70.1494 139.072 70.1494 139.648C70.1601 140.149 70.0321 140.592 69.7654 140.976C69.5094 141.36 69.1414 141.659 68.6614 141.872C68.1921 142.085 67.6321 142.192 66.9814 142.192ZM75.0332 142C74.5212 142 74.0785 141.92 73.7052 141.76C73.3319 141.6 73.0439 141.333 72.8412 140.96C72.6385 140.587 72.5372 140.08 72.5372 139.44V135.296H71.1452V133.936H72.5372L72.7292 131.92H74.1372V133.936H76.4252V135.296H74.1372V139.456C74.1372 139.915 74.2332 140.229 74.4252 140.4C74.6172 140.56 74.9479 140.64 75.4172 140.64H76.3452V142H75.0332ZM81.6508 142.192C80.8935 142.192 80.2108 142.016 79.6028 141.664C79.0055 141.312 78.5308 140.821 78.1788 140.192C77.8375 139.552 77.6668 138.816 77.6668 137.984C77.6668 137.131 77.8428 136.389 78.1948 135.76C78.5468 135.12 79.0268 134.624 79.6348 134.272C80.2428 133.92 80.9255 133.744 81.6828 133.744C82.4508 133.744 83.1335 133.92 83.7308 134.272C84.3281 134.624 84.7975 135.115 85.1388 135.744C85.4908 136.373 85.6668 137.115 85.6668 137.968C85.6668 138.821 85.4908 139.563 85.1388 140.192C84.7975 140.821 84.3228 141.312 83.7148 141.664C83.1068 142.016 82.4188 142.192 81.6508 142.192ZM81.6508 140.816C82.0881 140.816 82.4828 140.709 82.8348 140.496C83.1975 140.283 83.4855 139.968 83.6988 139.552C83.9228 139.125 84.0348 138.597 84.0348 137.968C84.0348 137.339 83.9281 136.816 83.7148 136.4C83.5015 135.973 83.2135 135.653 82.8508 135.44C82.4988 135.227 82.1095 135.12 81.6828 135.12C81.2561 135.12 80.8615 135.227 80.4988 135.44C80.1361 135.653 79.8428 135.973 79.6188 136.4C79.4055 136.816 79.2988 137.339 79.2988 137.968C79.2988 138.597 79.4055 139.125 79.6188 139.552C79.8428 139.968 80.1308 140.283 80.4828 140.496C80.8455 140.709 81.2348 140.816 81.6508 140.816ZM87.5489 142V133.936H88.9889L89.1009 135.072C89.3569 134.656 89.6983 134.331 90.1249 134.096C90.5516 133.861 91.0316 133.744 91.5649 133.744C91.9703 133.744 92.3383 133.803 92.6689 133.92C92.9996 134.027 93.2929 134.192 93.5489 134.416C93.8049 134.64 94.0129 134.917 94.1729 135.248C94.4609 134.779 94.8449 134.411 95.3249 134.144C95.8156 133.877 96.3329 133.744 96.8769 133.744C97.5276 133.744 98.0876 133.877 98.5569 134.144C99.0263 134.4 99.3836 134.789 99.6289 135.312C99.8743 135.824 99.9969 136.464 99.9969 137.232V142H98.4129V137.392C98.4129 136.645 98.2583 136.08 97.9489 135.696C97.6503 135.312 97.2076 135.12 96.6209 135.12C96.2263 135.12 95.8743 135.221 95.5649 135.424C95.2556 135.627 95.0103 135.92 94.8289 136.304C94.6583 136.688 94.5729 137.157 94.5729 137.712V142H92.9729V137.392C92.9729 136.645 92.8183 136.08 92.5089 135.696C92.2103 135.312 91.7676 135.12 91.1809 135.12C90.8076 135.12 90.4663 135.221 90.1569 135.424C89.8476 135.627 89.6023 135.92 89.4209 136.304C89.2396 136.688 89.1489 137.157 89.1489 137.712V142H87.5489ZM107.79 142L105.422 133.936H107.006L108.766 140.656L108.462 140.64L110.414 133.936H112.206L114.158 140.64L113.854 140.656L115.598 133.936H117.214L114.846 142H113.198L111.15 135.008H111.47L109.422 142H107.79ZM122.057 142.192C121.3 142.192 120.617 142.016 120.009 141.664C119.412 141.312 118.937 140.821 118.585 140.192C118.244 139.552 118.073 138.816 118.073 137.984C118.073 137.131 118.249 136.389 118.601 135.76C118.953 135.12 119.433 134.624 120.041 134.272C120.649 133.92 121.332 133.744 122.089 133.744C122.857 133.744 123.54 133.92 124.137 134.272C124.734 134.624 125.204 135.115 125.545 135.744C125.897 136.373 126.073 137.115 126.073 137.968C126.073 138.821 125.897 139.563 125.545 140.192C125.204 140.821 124.729 141.312 124.121 141.664C123.513 142.016 122.825 142.192 122.057 142.192ZM122.057 140.816C122.494 140.816 122.889 140.709 123.241 140.496C123.604 140.283 123.892 139.968 124.105 139.552C124.329 139.125 124.441 138.597 124.441 137.968C124.441 137.339 124.334 136.816 124.121 136.4C123.908 135.973 123.62 135.653 123.257 135.44C122.905 135.227 122.516 135.12 122.089 135.12C121.662 135.12 121.268 135.227 120.905 135.44C120.542 135.653 120.249 135.973 120.025 136.4C119.812 136.816 119.705 137.339 119.705 137.968C119.705 138.597 119.812 139.125 120.025 139.552C120.249 139.968 120.537 140.283 120.889 140.496C121.252 140.709 121.641 140.816 122.057 140.816ZM131.635 142.192C130.878 142.192 130.195 142.016 129.587 141.664C128.99 141.312 128.515 140.821 128.163 140.192C127.822 139.552 127.651 138.816 127.651 137.984C127.651 137.131 127.827 136.389 128.179 135.76C128.531 135.12 129.011 134.624 129.619 134.272C130.227 133.92 130.91 133.744 131.667 133.744C132.435 133.744 133.118 133.92 133.715 134.272C134.313 134.624 134.782 135.115 135.123 135.744C135.475 136.373 135.651 137.115 135.651 137.968C135.651 138.821 135.475 139.563 135.123 140.192C134.782 140.821 134.307 141.312 133.699 141.664C133.091 142.016 132.403 142.192 131.635 142.192ZM131.635 140.816C132.073 140.816 132.467 140.709 132.819 140.496C133.182 140.283 133.47 139.968 133.683 139.552C133.907 139.125 134.019 138.597 134.019 137.968C134.019 137.339 133.913 136.816 133.699 136.4C133.486 135.973 133.198 135.653 132.835 135.44C132.483 135.227 132.094 135.12 131.667 135.12C131.241 135.12 130.846 135.227 130.483 135.44C130.121 135.653 129.827 135.973 129.603 136.4C129.39 136.816 129.283 137.339 129.283 137.968C129.283 138.597 129.39 139.125 129.603 139.552C129.827 139.968 130.115 140.283 130.467 140.496C130.83 140.709 131.219 140.816 131.635 140.816ZM141.117 142.192C140.349 142.192 139.672 142.011 139.085 141.648C138.499 141.275 138.04 140.773 137.709 140.144C137.389 139.504 137.229 138.779 137.229 137.968C137.229 137.147 137.389 136.421 137.709 135.792C138.04 135.163 138.499 134.667 139.085 134.304C139.683 133.931 140.365 133.744 141.133 133.744C141.763 133.744 142.317 133.872 142.797 134.128C143.277 134.373 143.651 134.725 143.917 135.184V130.48H145.517V142H144.077L143.917 140.752C143.757 140.997 143.549 141.232 143.293 141.456C143.037 141.669 142.728 141.845 142.365 141.984C142.003 142.123 141.587 142.192 141.117 142.192ZM141.373 140.8C141.875 140.8 142.317 140.683 142.701 140.448C143.085 140.213 143.379 139.883 143.581 139.456C143.795 139.029 143.901 138.533 143.901 137.968C143.901 137.403 143.795 136.912 143.581 136.496C143.379 136.069 143.085 135.739 142.701 135.504C142.317 135.259 141.875 135.136 141.373 135.136C140.893 135.136 140.461 135.259 140.077 135.504C139.693 135.739 139.395 136.069 139.181 136.496C138.968 136.912 138.861 137.403 138.861 137.968C138.861 138.533 138.968 139.029 139.181 139.456C139.395 139.883 139.693 140.213 140.077 140.448C140.461 140.683 140.893 140.8 141.373 140.8ZM149.337 142L146.969 133.936H148.553L150.313 140.656L150.009 140.64L151.961 133.936H153.753L155.705 140.64L155.401 140.656L157.145 133.936H158.761L156.393 142H154.745L152.697 135.008H153.017L150.969 142H149.337ZM163.604 142.192C162.847 142.192 162.164 142.016 161.556 141.664C160.959 141.312 160.484 140.821 160.132 140.192C159.791 139.552 159.62 138.816 159.62 137.984C159.62 137.131 159.796 136.389 160.148 135.76C160.5 135.12 160.98 134.624 161.588 134.272C162.196 133.92 162.879 133.744 163.636 133.744C164.404 133.744 165.087 133.92 165.684 134.272C166.281 134.624 166.751 135.115 167.092 135.744C167.444 136.373 167.62 137.115 167.62 137.968C167.62 138.821 167.444 139.563 167.092 140.192C166.751 140.821 166.276 141.312 165.668 141.664C165.06 142.016 164.372 142.192 163.604 142.192ZM163.604 140.816C164.041 140.816 164.436 140.709 164.788 140.496C165.151 140.283 165.439 139.968 165.652 139.552C165.876 139.125 165.988 138.597 165.988 137.968C165.988 137.339 165.881 136.816 165.668 136.4C165.455 135.973 165.167 135.653 164.804 135.44C164.452 135.227 164.063 135.12 163.636 135.12C163.209 135.12 162.815 135.227 162.452 135.44C162.089 135.653 161.796 135.973 161.572 136.4C161.359 136.816 161.252 137.339 161.252 137.968C161.252 138.597 161.359 139.125 161.572 139.552C161.796 139.968 162.084 140.283 162.436 140.496C162.799 140.709 163.188 140.816 163.604 140.816ZM169.502 142V133.936H170.942L171.086 135.456C171.267 135.093 171.502 134.789 171.79 134.544C172.078 134.288 172.414 134.091 172.798 133.952C173.193 133.813 173.641 133.744 174.142 133.744V135.44H173.566C173.235 135.44 172.921 135.483 172.622 135.568C172.323 135.643 172.057 135.776 171.822 135.968C171.598 136.16 171.422 136.421 171.294 136.752C171.166 137.083 171.102 137.493 171.102 137.984V142H169.502ZM180.683 142L176.971 137.584L180.331 133.936H182.267L178.267 138.208V137.008L182.699 142H180.683ZM175.611 142V130.48H177.211V142H175.611ZM183.121 143.968L184.033 140.272H185.649L184.193 143.968H183.121ZM52.4318 163V154.936H53.8718L54.0158 156.456C54.1971 156.093 54.4318 155.789 54.7198 155.544C55.0078 155.288 55.3438 155.091 55.7278 154.952C56.1224 154.813 56.5704 154.744 57.0718 154.744V156.44H56.4958C56.1651 156.44 55.8504 156.483 55.5518 156.568C55.2531 156.643 54.9864 156.776 54.7518 156.968C54.5278 157.16 54.3518 157.421 54.2238 157.752C54.0958 158.083 54.0318 158.493 54.0318 158.984V163H52.4318ZM61.9548 163.192C61.1868 163.192 60.5041 163.016 59.9068 162.664C59.3094 162.312 58.8401 161.821 58.4988 161.192C58.1681 160.563 58.0028 159.832 58.0028 159C58.0028 158.147 58.1681 157.405 58.4988 156.776C58.8401 156.136 59.3094 155.64 59.9068 155.288C60.5041 154.925 61.1974 154.744 61.9868 154.744C62.7761 154.744 63.4534 154.92 64.0188 155.272C64.5841 155.624 65.0214 156.093 65.3308 156.68C65.6401 157.256 65.7948 157.896 65.7948 158.6C65.7948 158.707 65.7894 158.824 65.7788 158.952C65.7788 159.069 65.7734 159.203 65.7628 159.352H59.1708V158.216H64.1948C64.1628 157.544 63.9388 157.021 63.5228 156.648C63.1068 156.264 62.5894 156.072 61.9708 156.072C61.5334 156.072 61.1334 156.173 60.7708 156.376C60.4081 156.568 60.1148 156.856 59.8908 157.24C59.6774 157.613 59.5707 158.088 59.5707 158.664V159.112C59.5707 159.709 59.6774 160.216 59.8908 160.632C60.1148 161.037 60.4081 161.347 60.7708 161.56C61.1334 161.763 61.5281 161.864 61.9548 161.864C62.4668 161.864 62.8881 161.752 63.2188 161.528C63.5494 161.304 63.7948 161 63.9548 160.616H65.5548C65.4161 161.107 65.1814 161.549 64.8508 161.944C64.5201 162.328 64.1094 162.632 63.6188 162.856C63.1388 163.08 62.5841 163.192 61.9548 163.192ZM67.5724 166.52V154.936H69.0124L69.1724 156.184C69.343 155.939 69.5564 155.709 69.8124 155.496C70.0684 155.272 70.3724 155.091 70.7244 154.952C71.087 154.813 71.5084 154.744 71.9884 154.744C72.7564 154.744 73.4284 154.931 74.0044 155.304C74.591 155.677 75.0444 156.184 75.3644 156.824C75.695 157.453 75.8604 158.173 75.8604 158.984C75.8604 159.795 75.695 160.52 75.3644 161.16C75.0337 161.789 74.575 162.285 73.9884 162.648C73.4124 163.011 72.7404 163.192 71.9724 163.192C71.343 163.192 70.7884 163.069 70.3084 162.824C69.8284 162.568 69.4497 162.216 69.1724 161.768V166.52H67.5724ZM71.7164 161.8C72.207 161.8 72.639 161.683 73.0124 161.448C73.3964 161.213 73.695 160.883 73.9084 160.456C74.1324 160.029 74.2444 159.533 74.2444 158.968C74.2444 158.403 74.1324 157.912 73.9084 157.496C73.695 157.069 73.3964 156.739 73.0124 156.504C72.639 156.259 72.207 156.136 71.7164 156.136C71.215 156.136 70.7724 156.259 70.3884 156.504C70.015 156.739 69.7217 157.069 69.5084 157.496C69.295 157.912 69.1884 158.403 69.1884 158.968C69.1884 159.533 69.295 160.029 69.5084 160.456C69.7217 160.883 70.015 161.213 70.3884 161.448C70.7724 161.683 71.215 161.8 71.7164 161.8ZM80.4006 163.192C79.7393 163.192 79.19 163.08 78.7526 162.856C78.3153 162.632 77.99 162.333 77.7766 161.96C77.5633 161.576 77.4566 161.165 77.4566 160.728C77.4566 160.195 77.5953 159.741 77.8726 159.368C78.15 158.984 78.5446 158.691 79.0566 158.488C79.5686 158.285 80.182 158.184 80.8966 158.184H82.9926C82.9926 157.715 82.9233 157.325 82.7846 157.016C82.646 156.707 82.438 156.477 82.1606 156.328C81.894 156.168 81.5526 156.088 81.1366 156.088C80.6566 156.088 80.246 156.205 79.9046 156.44C79.5633 156.664 79.35 157 79.2646 157.448H77.6646C77.7286 156.883 77.9206 156.403 78.2406 156.008C78.5713 155.603 78.9926 155.293 79.5046 155.08C80.0166 154.856 80.5606 154.744 81.1366 154.744C81.894 154.744 82.5286 154.877 83.0406 155.144C83.5526 155.411 83.9366 155.789 84.1926 156.28C84.4593 156.76 84.5926 157.336 84.5926 158.008V163H83.2006L83.0726 161.64C82.9553 161.853 82.8166 162.056 82.6566 162.248C82.4966 162.44 82.3046 162.605 82.0806 162.744C81.8673 162.883 81.6166 162.989 81.3286 163.064C81.0513 163.149 80.742 163.192 80.4006 163.192ZM80.7046 161.896C81.046 161.896 81.3553 161.827 81.6326 161.688C81.91 161.549 82.1446 161.363 82.3366 161.128C82.5393 160.883 82.6886 160.611 82.7846 160.312C82.8913 160.003 82.95 159.688 82.9606 159.368V159.32H81.0566C80.598 159.32 80.2246 159.379 79.9366 159.496C79.6593 159.603 79.4566 159.752 79.3286 159.944C79.2006 160.136 79.1366 160.36 79.1366 160.616C79.1366 160.883 79.1953 161.112 79.3126 161.304C79.4406 161.485 79.622 161.629 79.8566 161.736C80.0913 161.843 80.374 161.896 80.7046 161.896ZM86.7469 163V154.936H88.3469V163H86.7469ZM87.5629 153.416C87.2535 153.416 86.9975 153.32 86.7949 153.128C86.6029 152.936 86.5069 152.691 86.5069 152.392C86.5069 152.104 86.6029 151.869 86.7949 151.688C86.9975 151.496 87.2535 151.4 87.5629 151.4C87.8615 151.4 88.1122 151.496 88.3149 151.688C88.5175 151.869 88.6189 152.104 88.6189 152.392C88.6189 152.691 88.5175 152.936 88.3149 153.128C88.1122 153.32 87.8615 153.416 87.5629 153.416ZM90.6349 163V154.936H92.0749L92.2189 156.456C92.4002 156.093 92.6349 155.789 92.9229 155.544C93.2109 155.288 93.5469 155.091 93.9309 154.952C94.3255 154.813 94.7735 154.744 95.2749 154.744V156.44H94.6989C94.3682 156.44 94.0535 156.483 93.7549 156.568C93.4562 156.643 93.1895 156.776 92.9549 156.968C92.7309 157.16 92.5549 157.421 92.4269 157.752C92.2989 158.083 92.2349 158.493 92.2349 158.984V163H90.6349ZM99.8643 163.192C99.1816 163.192 98.5843 163.08 98.0723 162.856C97.5603 162.632 97.1549 162.317 96.8563 161.912C96.5576 161.507 96.3763 161.032 96.3123 160.488H97.9443C97.9976 160.744 98.0989 160.979 98.2483 161.192C98.4083 161.405 98.6216 161.576 98.8883 161.704C99.1656 161.832 99.4909 161.896 99.8643 161.896C100.216 161.896 100.504 161.848 100.728 161.752C100.963 161.645 101.134 161.507 101.24 161.336C101.347 161.155 101.4 160.963 101.4 160.76C101.4 160.461 101.326 160.237 101.176 160.088C101.038 159.928 100.824 159.805 100.536 159.72C100.259 159.624 99.9229 159.539 99.5283 159.464C99.1549 159.4 98.7923 159.315 98.4403 159.208C98.0989 159.091 97.7896 158.947 97.5123 158.776C97.2456 158.605 97.0323 158.392 96.8723 158.136C96.7123 157.869 96.6323 157.544 96.6323 157.16C96.6323 156.701 96.7549 156.291 97.0003 155.928C97.2456 155.555 97.5923 155.267 98.0403 155.064C98.4989 154.851 99.0376 154.744 99.6562 154.744C100.552 154.744 101.272 154.957 101.816 155.384C102.36 155.811 102.68 156.413 102.776 157.192H101.224C101.182 156.829 101.022 156.552 100.744 156.36C100.467 156.157 100.099 156.056 99.6403 156.056C99.1816 156.056 98.8296 156.147 98.5843 156.328C98.3389 156.509 98.2163 156.749 98.2163 157.048C98.2163 157.24 98.2856 157.411 98.4243 157.56C98.5629 157.709 98.7656 157.837 99.0323 157.944C99.3096 158.04 99.6456 158.131 100.04 158.216C100.606 158.323 101.112 158.456 101.56 158.616C102.008 158.776 102.366 159.011 102.632 159.32C102.899 159.629 103.032 160.072 103.032 160.648C103.043 161.149 102.915 161.592 102.648 161.976C102.392 162.36 102.024 162.659 101.544 162.872C101.075 163.085 100.515 163.192 99.8643 163.192ZM103.988 164.968L104.9 161.272H106.516L105.06 164.968H103.988ZM112.676 163V153.848C112.676 153.293 112.767 152.84 112.948 152.488C113.14 152.136 113.418 151.88 113.78 151.72C114.143 151.56 114.58 151.48 115.092 151.48H116.036V152.84H115.348C114.964 152.84 114.687 152.92 114.516 153.08C114.356 153.229 114.276 153.496 114.276 153.88V163H112.676ZM111.492 156.296V154.936H116.212V156.296H111.492ZM120.798 163.192C120.169 163.192 119.619 163.064 119.15 162.808C118.691 162.552 118.334 162.168 118.078 161.656C117.833 161.144 117.71 160.499 117.71 159.72V154.936H119.31V159.544C119.31 160.301 119.475 160.872 119.806 161.256C120.137 161.64 120.611 161.832 121.23 161.832C121.646 161.832 122.019 161.731 122.35 161.528C122.691 161.325 122.958 161.032 123.15 160.648C123.342 160.264 123.438 159.795 123.438 159.24V154.936H125.038V163H123.614L123.502 161.624C123.257 162.115 122.899 162.499 122.43 162.776C121.961 163.053 121.417 163.192 120.798 163.192ZM127.229 163V154.936H128.669L128.813 156.456C128.994 156.093 129.229 155.789 129.517 155.544C129.805 155.288 130.141 155.091 130.525 154.952C130.919 154.813 131.367 154.744 131.869 154.744V156.44H131.293C130.962 156.44 130.647 156.483 130.349 156.568C130.05 156.643 129.783 156.776 129.549 156.968C129.325 157.16 129.149 157.421 129.021 157.752C128.893 158.083 128.829 158.493 128.829 158.984V163H127.229ZM133.338 163V154.936H134.778L134.874 156.312C135.13 155.832 135.493 155.453 135.962 155.176C136.431 154.888 136.97 154.744 137.578 154.744C138.218 154.744 138.767 154.872 139.226 155.128C139.685 155.384 140.042 155.773 140.298 156.296C140.554 156.808 140.682 157.453 140.682 158.232V163H139.082V158.392C139.082 157.645 138.917 157.08 138.586 156.696C138.255 156.312 137.775 156.12 137.146 156.12C136.73 156.12 136.357 156.221 136.026 156.424C135.695 156.616 135.429 156.904 135.226 157.288C135.034 157.672 134.938 158.141 134.938 158.696V163H133.338ZM142.841 163V154.936H144.441V163H142.841ZM143.657 153.416C143.347 153.416 143.091 153.32 142.889 153.128C142.697 152.936 142.601 152.691 142.601 152.392C142.601 152.104 142.697 151.869 142.889 151.688C143.091 151.496 143.347 151.4 143.657 151.4C143.955 151.4 144.206 151.496 144.409 151.688C144.611 151.869 144.713 152.104 144.713 152.392C144.713 152.691 144.611 152.936 144.409 153.128C144.206 153.32 143.955 153.416 143.657 153.416ZM150.057 163C149.545 163 149.102 162.92 148.729 162.76C148.355 162.6 148.067 162.333 147.865 161.96C147.662 161.587 147.561 161.08 147.561 160.44V156.296H146.169V154.936H147.561L147.753 152.92H149.161V154.936H151.449V156.296H149.161V160.456C149.161 160.915 149.257 161.229 149.449 161.4C149.641 161.56 149.971 161.64 150.441 161.64H151.369V163H150.057ZM156.173 163.192C155.544 163.192 154.994 163.064 154.525 162.808C154.066 162.552 153.709 162.168 153.453 161.656C153.208 161.144 153.085 160.499 153.085 159.72V154.936H154.685V159.544C154.685 160.301 154.85 160.872 155.181 161.256C155.512 161.64 155.986 161.832 156.605 161.832C157.021 161.832 157.394 161.731 157.725 161.528C158.066 161.325 158.333 161.032 158.525 160.648C158.717 160.264 158.813 159.795 158.813 159.24V154.936H160.413V163H158.989L158.877 161.624C158.632 162.115 158.274 162.499 157.805 162.776C157.336 163.053 156.792 163.192 156.173 163.192ZM162.604 163V154.936H164.044L164.188 156.456C164.369 156.093 164.604 155.789 164.892 155.544C165.18 155.288 165.516 155.091 165.9 154.952C166.294 154.813 166.742 154.744 167.244 154.744V156.44H166.668C166.337 156.44 166.022 156.483 165.724 156.568C165.425 156.643 165.158 156.776 164.924 156.968C164.7 157.16 164.524 157.421 164.396 157.752C164.268 158.083 164.204 158.493 164.204 158.984V163H162.604ZM172.127 163.192C171.359 163.192 170.676 163.016 170.079 162.664C169.481 162.312 169.012 161.821 168.671 161.192C168.34 160.563 168.175 159.832 168.175 159C168.175 158.147 168.34 157.405 168.671 156.776C169.012 156.136 169.481 155.64 170.079 155.288C170.676 154.925 171.369 154.744 172.159 154.744C172.948 154.744 173.625 154.92 174.191 155.272C174.756 155.624 175.193 156.093 175.503 156.68C175.812 157.256 175.967 157.896 175.967 158.6C175.967 158.707 175.961 158.824 175.951 158.952C175.951 159.069 175.945 159.203 175.935 159.352H169.343V158.216H174.367C174.335 157.544 174.111 157.021 173.695 156.648C173.279 156.264 172.761 156.072 172.143 156.072C171.705 156.072 171.305 156.173 170.943 156.376C170.58 156.568 170.287 156.856 170.063 157.24C169.849 157.613 169.743 158.088 169.743 158.664V159.112C169.743 159.709 169.849 160.216 170.063 160.632C170.287 161.037 170.58 161.347 170.943 161.56C171.305 161.763 171.7 161.864 172.127 161.864C172.639 161.864 173.06 161.752 173.391 161.528C173.721 161.304 173.967 161 174.127 160.616H175.727C175.588 161.107 175.353 161.549 175.023 161.944C174.692 162.328 174.281 162.632 173.791 162.856C173.311 163.08 172.756 163.192 172.127 163.192ZM81.6975 184.192C81.0362 184.192 80.4868 184.08 80.0495 183.856C79.6122 183.632 79.2868 183.333 79.0735 182.96C78.8602 182.576 78.7535 182.165 78.7535 181.728C78.7535 181.195 78.8922 180.741 79.1695 180.368C79.4468 179.984 79.8415 179.691 80.3535 179.488C80.8655 179.285 81.4788 179.184 82.1935 179.184H84.2895C84.2895 178.715 84.2202 178.325 84.0815 178.016C83.9428 177.707 83.7348 177.477 83.4575 177.328C83.1908 177.168 82.8495 177.088 82.4335 177.088C81.9535 177.088 81.5428 177.205 81.2015 177.44C80.8602 177.664 80.6468 178 80.5615 178.448H78.9615C79.0255 177.883 79.2175 177.403 79.5375 177.008C79.8682 176.603 80.2895 176.293 80.8015 176.08C81.3135 175.856 81.8575 175.744 82.4335 175.744C83.1908 175.744 83.8255 175.877 84.3375 176.144C84.8495 176.411 85.2335 176.789 85.4895 177.28C85.7562 177.76 85.8895 178.336 85.8895 179.008V184H84.4975L84.3695 182.64C84.2522 182.853 84.1135 183.056 83.9535 183.248C83.7935 183.44 83.6015 183.605 83.3775 183.744C83.1642 183.883 82.9135 183.989 82.6255 184.064C82.3482 184.149 82.0388 184.192 81.6975 184.192ZM82.0015 182.896C82.3428 182.896 82.6522 182.827 82.9295 182.688C83.2068 182.549 83.4415 182.363 83.6335 182.128C83.8362 181.883 83.9855 181.611 84.0815 181.312C84.1882 181.003 84.2468 180.688 84.2575 180.368V180.32H82.3535C81.8948 180.32 81.5215 180.379 81.2335 180.496C80.9562 180.603 80.7535 180.752 80.6255 180.944C80.4975 181.136 80.4335 181.36 80.4335 181.616C80.4335 181.883 80.4922 182.112 80.6095 182.304C80.7375 182.485 80.9188 182.629 81.1535 182.736C81.3882 182.843 81.6708 182.896 82.0015 182.896ZM91.0518 184.192C90.3691 184.192 89.7718 184.08 89.2598 183.856C88.7478 183.632 88.3424 183.317 88.0438 182.912C87.7451 182.507 87.5638 182.032 87.4998 181.488H89.1318C89.1851 181.744 89.2864 181.979 89.4358 182.192C89.5958 182.405 89.8091 182.576 90.0758 182.704C90.3531 182.832 90.6784 182.896 91.0518 182.896C91.4038 182.896 91.6918 182.848 91.9158 182.752C92.1504 182.645 92.3211 182.507 92.4278 182.336C92.5344 182.155 92.5878 181.963 92.5878 181.76C92.5878 181.461 92.5131 181.237 92.3638 181.088C92.2251 180.928 92.0118 180.805 91.7238 180.72C91.4464 180.624 91.1104 180.539 90.7158 180.464C90.3424 180.4 89.9798 180.315 89.6278 180.208C89.2864 180.091 88.9771 179.947 88.6998 179.776C88.4331 179.605 88.2198 179.392 88.0598 179.136C87.8998 178.869 87.8198 178.544 87.8198 178.16C87.8198 177.701 87.9424 177.291 88.1878 176.928C88.4331 176.555 88.7798 176.267 89.2278 176.064C89.6864 175.851 90.2251 175.744 90.8438 175.744C91.7398 175.744 92.4598 175.957 93.0038 176.384C93.5478 176.811 93.8678 177.413 93.9638 178.192H92.4118C92.3691 177.829 92.2091 177.552 91.9318 177.36C91.6544 177.157 91.2864 177.056 90.8278 177.056C90.3691 177.056 90.0171 177.147 89.7718 177.328C89.5264 177.509 89.4038 177.749 89.4038 178.048C89.4038 178.24 89.4731 178.411 89.6118 178.56C89.7504 178.709 89.9531 178.837 90.2198 178.944C90.4971 179.04 90.8331 179.131 91.2278 179.216C91.7931 179.323 92.2998 179.456 92.7478 179.616C93.1958 179.776 93.5531 180.011 93.8198 180.32C94.0864 180.629 94.2198 181.072 94.2198 181.648C94.2304 182.149 94.1024 182.592 93.8358 182.976C93.5798 183.36 93.2118 183.659 92.7318 183.872C92.2624 184.085 91.7024 184.192 91.0518 184.192ZM99.2236 184.192C98.541 184.192 97.9436 184.08 97.4316 183.856C96.9196 183.632 96.5143 183.317 96.2156 182.912C95.917 182.507 95.7356 182.032 95.6716 181.488H97.3036C97.357 181.744 97.4583 181.979 97.6076 182.192C97.7676 182.405 97.981 182.576 98.2476 182.704C98.525 182.832 98.8503 182.896 99.2236 182.896C99.5756 182.896 99.8636 182.848 100.088 182.752C100.322 182.645 100.493 182.507 100.6 182.336C100.706 182.155 100.76 181.963 100.76 181.76C100.76 181.461 100.685 181.237 100.536 181.088C100.397 180.928 100.184 180.805 99.8956 180.72C99.6183 180.624 99.2823 180.539 98.8876 180.464C98.5143 180.4 98.1516 180.315 97.7996 180.208C97.4583 180.091 97.149 179.947 96.8716 179.776C96.605 179.605 96.3916 179.392 96.2316 179.136C96.0716 178.869 95.9916 178.544 95.9916 178.16C95.9916 177.701 96.1143 177.291 96.3596 176.928C96.605 176.555 96.9516 176.267 97.3996 176.064C97.8583 175.851 98.397 175.744 99.0156 175.744C99.9116 175.744 100.632 175.957 101.176 176.384C101.72 176.811 102.04 177.413 102.136 178.192H100.584C100.541 177.829 100.381 177.552 100.104 177.36C99.8263 177.157 99.4583 177.056 98.9996 177.056C98.541 177.056 98.189 177.147 97.9436 177.328C97.6983 177.509 97.5756 177.749 97.5756 178.048C97.5756 178.24 97.645 178.411 97.7836 178.56C97.9223 178.709 98.125 178.837 98.3916 178.944C98.669 179.04 99.005 179.131 99.3996 179.216C99.965 179.323 100.472 179.456 100.92 179.616C101.368 179.776 101.725 180.011 101.992 180.32C102.258 180.629 102.392 181.072 102.392 181.648C102.402 182.149 102.274 182.592 102.008 182.976C101.752 183.36 101.384 183.659 100.904 183.872C100.434 184.085 99.8743 184.192 99.2236 184.192ZM107.924 184.192C107.156 184.192 106.473 184.016 105.876 183.664C105.278 183.312 104.809 182.821 104.468 182.192C104.137 181.563 103.972 180.832 103.972 180C103.972 179.147 104.137 178.405 104.468 177.776C104.809 177.136 105.278 176.64 105.876 176.288C106.473 175.925 107.166 175.744 107.956 175.744C108.745 175.744 109.422 175.92 109.988 176.272C110.553 176.624 110.99 177.093 111.3 177.68C111.609 178.256 111.764 178.896 111.764 179.6C111.764 179.707 111.758 179.824 111.748 179.952C111.748 180.069 111.742 180.203 111.732 180.352H105.14V179.216H110.164C110.132 178.544 109.908 178.021 109.492 177.648C109.076 177.264 108.558 177.072 107.94 177.072C107.502 177.072 107.102 177.173 106.74 177.376C106.377 177.568 106.084 177.856 105.86 178.24C105.646 178.613 105.539 179.088 105.539 179.664V180.112C105.539 180.709 105.646 181.216 105.86 181.632C106.084 182.037 106.377 182.347 106.74 182.56C107.102 182.763 107.497 182.864 107.924 182.864C108.436 182.864 108.857 182.752 109.188 182.528C109.518 182.304 109.764 182 109.924 181.616H111.524C111.385 182.107 111.15 182.549 110.82 182.944C110.489 183.328 110.078 183.632 109.588 183.856C109.108 184.08 108.553 184.192 107.924 184.192ZM113.541 184V175.936H114.981L115.093 177.072C115.349 176.656 115.69 176.331 116.117 176.096C116.544 175.861 117.024 175.744 117.557 175.744C117.962 175.744 118.33 175.803 118.661 175.92C118.992 176.027 119.285 176.192 119.541 176.416C119.797 176.64 120.005 176.917 120.165 177.248C120.453 176.779 120.837 176.411 121.317 176.144C121.808 175.877 122.325 175.744 122.869 175.744C123.52 175.744 124.08 175.877 124.549 176.144C125.018 176.4 125.376 176.789 125.621 177.312C125.866 177.824 125.989 178.464 125.989 179.232V184H124.405V179.392C124.405 178.645 124.25 178.08 123.941 177.696C123.642 177.312 123.2 177.12 122.613 177.12C122.218 177.12 121.866 177.221 121.557 177.424C121.248 177.627 121.002 177.92 120.821 178.304C120.65 178.688 120.565 179.157 120.565 179.712V184H118.965V179.392C118.965 178.645 118.81 178.08 118.501 177.696C118.202 177.312 117.76 177.12 117.173 177.12C116.8 177.12 116.458 177.221 116.149 177.424C115.84 177.627 115.594 177.92 115.413 178.304C115.232 178.688 115.141 179.157 115.141 179.712V184H113.541ZM132.457 184.192C132.019 184.192 131.619 184.128 131.257 184C130.905 183.883 130.595 183.717 130.329 183.504C130.062 183.291 129.838 183.045 129.657 182.768L129.497 184H128.057V172.48H129.657V177.2C129.913 176.795 130.27 176.453 130.729 176.176C131.198 175.888 131.774 175.744 132.457 175.744C133.225 175.744 133.902 175.931 134.489 176.304C135.075 176.667 135.529 177.168 135.849 177.808C136.179 178.437 136.345 179.163 136.345 179.984C136.345 180.784 136.179 181.504 135.849 182.144C135.529 182.784 135.075 183.285 134.489 183.648C133.902 184.011 133.225 184.192 132.457 184.192ZM132.201 182.8C132.691 182.8 133.123 182.683 133.497 182.448C133.881 182.213 134.179 181.883 134.393 181.456C134.617 181.029 134.729 180.533 134.729 179.968C134.729 179.403 134.617 178.912 134.393 178.496C134.179 178.069 133.881 177.739 133.497 177.504C133.123 177.259 132.691 177.136 132.201 177.136C131.699 177.136 131.257 177.259 130.873 177.504C130.499 177.739 130.206 178.069 129.993 178.496C129.779 178.912 129.673 179.403 129.673 179.968C129.673 180.533 129.779 181.029 129.993 181.456C130.206 181.883 130.499 182.213 130.873 182.448C131.257 182.683 131.699 182.8 132.201 182.8ZM138.213 184V172.48H139.813V184H138.213ZM142.938 187.52L144.906 183.104H144.442L141.258 175.936H142.986L145.514 181.792L148.058 175.936H149.738L144.618 187.52H142.938Z" fill="#919292"/>
</svg>
