<svg width="229" height="227" viewBox="0 0 229 227" fill="none" xmlns="http://www.w3.org/2000/svg">
<rect width="229" height="227" rx="32" fill="white"/>
<path fill-rule="evenodd" clip-rule="evenodd" d="M108.062 51.602L97.33 31.416C97.2683 31.3 97.2301 31.1731 97.2175 31.0424C97.205 30.9116 97.2182 30.7797 97.2566 30.6541C97.3342 30.4005 97.5093 30.188 97.7435 30.0635C97.9777 29.939 98.2517 29.9126 98.5054 29.9901C98.631 30.0285 98.7478 30.0913 98.8491 30.1748C98.9504 30.2584 99.0343 30.361 99.096 30.477L109.829 50.663L111.351 49.853C111.815 49.6064 112.323 49.4536 112.846 49.4033C113.369 49.353 113.896 49.4062 114.399 49.5599C114.901 49.7136 115.368 49.9647 115.774 50.299C116.179 50.6332 116.514 51.0441 116.761 51.508L117.409 52.727L124.279 62.781L115.541 67.426L112.514 61.443L110.73 62.346L113.775 68.366L110.029 70.357L105.534 59.039L104.887 57.821C104.64 57.3572 104.487 56.8493 104.437 56.3264C104.387 55.8035 104.44 55.2758 104.593 54.7734C104.747 54.271 104.998 53.8038 105.332 53.3985C105.666 52.9932 106.077 52.6576 106.541 52.411L108.062 51.602ZM112.289 51.62L107.479 54.177C107.247 54.3003 107.042 54.4681 106.875 54.6708C106.708 54.8734 106.582 55.107 106.505 55.3582C106.428 55.6094 106.402 55.8733 106.427 56.1347C106.452 56.3962 106.529 56.6501 106.652 56.882L107.299 58.1L115.642 53.664L114.994 52.447C114.871 52.2151 114.703 52.0097 114.5 51.8426C114.298 51.6755 114.064 51.55 113.813 51.4732C113.562 51.3964 113.298 51.3699 113.036 51.3951C112.775 51.4202 112.521 51.4967 112.289 51.62Z" fill="#53A5E4"/>
<path d="M103.768 61.36C103.598 61.1562 103.355 61.0282 103.091 61.004C102.827 60.9798 102.564 61.0615 102.36 61.231H102.362L102.351 61.239L102.289 61.287C102.199 61.3542 102.107 61.4189 102.014 61.481C101.766 61.646 101.396 61.871 100.92 62.097C99.6965 62.6851 98.3575 62.9935 97 63C96.7348 63 96.4804 63.1054 96.2929 63.2929C96.1054 63.4804 96 63.7348 96 64C96 64.2652 96.1054 64.5196 96.2929 64.7071C96.4804 64.8946 96.7348 65 97 65C98.655 64.9936 100.288 64.6189 101.78 63.903C102.245 63.6821 102.694 63.4288 103.124 63.145C103.285 63.0374 103.441 62.924 103.594 62.805L103.624 62.782L103.634 62.774L103.637 62.77H103.639L103.64 62.768C103.844 62.5982 103.971 62.3545 103.995 62.0905C104.019 61.8265 103.938 61.5637 103.768 61.36ZM105.832 66.445C105.905 66.5543 105.956 66.6768 105.981 66.8056C106.007 66.9345 106.007 67.0671 105.981 67.1959C105.955 67.3247 105.904 67.4472 105.831 67.5563C105.758 67.6654 105.664 67.7591 105.555 67.832L105.553 67.834L105.549 67.836L105.539 67.842L105.508 67.862L105.394 67.935C104.795 68.3018 104.173 68.6289 103.532 68.914C102.35 69.439 100.701 70 99 70C98.7348 70 98.4804 69.8946 98.2929 69.7071C98.1054 69.5196 98 69.2652 98 69C98 68.7348 98.1054 68.4804 98.2929 68.2929C98.4804 68.1054 98.7348 68 99 68C100.298 68 101.65 67.561 102.719 67.086C103.276 66.8382 103.817 66.5543 104.337 66.236C104.376 66.2127 104.405 66.1947 104.423 66.182L104.443 66.17L104.445 66.168C104.554 66.0951 104.677 66.0444 104.806 66.0189C104.934 65.9934 105.067 65.9935 105.196 66.0192C105.325 66.0449 105.447 66.0958 105.556 66.1688C105.665 66.2419 105.759 66.3357 105.832 66.445Z" fill="#53A5E4"/>
<path d="M72.1719 105.288C70.5079 105.288 69.0679 104.928 67.8519 104.208C66.6519 103.472 65.7239 102.456 65.0679 101.16C64.4279 99.848 64.1079 98.336 64.1079 96.624C64.1079 94.896 64.4279 93.384 65.0679 92.088C65.7239 90.776 66.6519 89.752 67.8519 89.016C69.0679 88.28 70.5079 87.912 72.1719 87.912C74.1719 87.912 75.8039 88.408 77.0679 89.4C78.3319 90.376 79.1319 91.76 79.4679 93.552H76.2999C76.0759 92.608 75.6199 91.864 74.9319 91.32C74.2439 90.776 73.3159 90.504 72.1479 90.504C71.0919 90.504 70.1799 90.752 69.4119 91.248C68.6599 91.728 68.0759 92.432 67.6599 93.36C67.2599 94.272 67.0599 95.36 67.0599 96.624C67.0599 97.888 67.2599 98.976 67.6599 99.888C68.0759 100.784 68.6599 101.48 69.4119 101.976C70.1799 102.456 71.0919 102.696 72.1479 102.696C73.3159 102.696 74.2439 102.448 74.9319 101.952C75.6199 101.44 76.0759 100.736 76.2999 99.84H79.4679C79.1479 101.536 78.3479 102.872 77.0679 103.848C75.8039 104.808 74.1719 105.288 72.1719 105.288ZM82.19 105V87.72H85.07V105H82.19ZM93.9478 105.288C92.7478 105.288 91.6918 105.032 90.7798 104.52C89.8678 103.992 89.1558 103.256 88.6438 102.312C88.1318 101.368 87.8758 100.28 87.8758 99.048C87.8758 97.768 88.1238 96.648 88.6198 95.688C89.1318 94.728 89.8438 93.976 90.7558 93.432C91.6838 92.888 92.7558 92.616 93.9718 92.616C95.1558 92.616 96.1878 92.88 97.0678 93.408C97.9478 93.936 98.6278 94.648 99.1078 95.544C99.5878 96.424 99.8278 97.416 99.8278 98.52C99.8278 98.68 99.8278 98.856 99.8278 99.048C99.8278 99.24 99.8118 99.44 99.7798 99.648H89.9398V97.8H96.9238C96.8918 96.92 96.5958 96.232 96.0358 95.736C95.4758 95.224 94.7798 94.968 93.9478 94.968C93.3558 94.968 92.8118 95.104 92.3158 95.376C91.8198 95.648 91.4278 96.056 91.1398 96.6C90.8518 97.128 90.7078 97.8 90.7078 98.616V99.312C90.7078 100.064 90.8438 100.712 91.1158 101.256C91.4038 101.8 91.7878 102.216 92.2678 102.504C92.7638 102.776 93.3158 102.912 93.9238 102.912C94.5958 102.912 95.1478 102.768 95.5798 102.48C96.0278 102.192 96.3558 101.808 96.5638 101.328H99.4918C99.2678 102.08 98.8998 102.76 98.3878 103.368C97.8758 103.96 97.2438 104.432 96.4918 104.784C95.7398 105.12 94.8918 105.288 93.9478 105.288ZM106.519 105.288C105.527 105.288 104.703 105.12 104.047 104.784C103.391 104.448 102.903 104 102.583 103.44C102.263 102.88 102.103 102.272 102.103 101.616C102.103 100.848 102.295 100.184 102.679 99.624C103.079 99.064 103.663 98.632 104.431 98.328C105.199 98.008 106.143 97.848 107.263 97.848H110.311C110.311 97.208 110.223 96.68 110.047 96.264C109.871 95.832 109.599 95.512 109.231 95.304C108.863 95.096 108.391 94.992 107.815 94.992C107.159 94.992 106.599 95.144 106.135 95.448C105.671 95.736 105.383 96.184 105.271 96.792H102.439C102.535 95.928 102.823 95.192 103.303 94.584C103.783 93.96 104.415 93.48 105.199 93.144C105.999 92.792 106.871 92.616 107.815 92.616C108.951 92.616 109.919 92.816 110.719 93.216C111.519 93.6 112.127 94.16 112.543 94.896C112.975 95.616 113.191 96.488 113.191 97.512V105H110.743L110.455 103.056C110.295 103.376 110.087 103.672 109.831 103.944C109.591 104.216 109.311 104.456 108.991 104.664C108.671 104.856 108.303 105.008 107.887 105.12C107.487 105.232 107.031 105.288 106.519 105.288ZM107.167 103.008C107.631 103.008 108.039 102.928 108.391 102.768C108.759 102.592 109.071 102.352 109.327 102.048C109.599 101.728 109.807 101.376 109.951 100.992C110.095 100.608 110.191 100.2 110.239 99.768V99.72H107.575C107.015 99.72 106.551 99.792 106.183 99.936C105.815 100.064 105.551 100.256 105.391 100.512C105.231 100.768 105.151 101.064 105.151 101.4C105.151 101.736 105.231 102.024 105.391 102.264C105.551 102.504 105.783 102.688 106.087 102.816C106.391 102.944 106.751 103.008 107.167 103.008ZM116.268 105V92.904H118.812L119.028 94.92C119.396 94.216 119.924 93.656 120.612 93.24C121.3 92.824 122.116 92.616 123.06 92.616C124.036 92.616 124.868 92.824 125.556 93.24C126.244 93.64 126.772 94.232 127.14 95.016C127.524 95.8 127.716 96.776 127.716 97.944V105H124.836V98.208C124.836 97.2 124.612 96.424 124.164 95.88C123.716 95.336 123.052 95.064 122.172 95.064C121.596 95.064 121.076 95.2 120.612 95.472C120.164 95.744 119.804 96.144 119.532 96.672C119.276 97.184 119.148 97.808 119.148 98.544V105H116.268ZM130.873 105V92.904H133.753V105H130.873ZM132.313 90.984C131.785 90.984 131.345 90.824 130.993 90.504C130.657 90.168 130.489 89.76 130.489 89.28C130.489 88.784 130.657 88.384 130.993 88.08C131.345 87.76 131.785 87.6 132.313 87.6C132.841 87.6 133.273 87.76 133.609 88.08C133.961 88.384 134.137 88.784 134.137 89.28C134.137 89.76 133.961 90.168 133.609 90.504C133.273 90.824 132.841 90.984 132.313 90.984ZM137.081 105V92.904H139.625L139.841 94.92C140.209 94.216 140.737 93.656 141.425 93.24C142.113 92.824 142.929 92.616 143.873 92.616C144.849 92.616 145.681 92.824 146.369 93.24C147.057 93.64 147.585 94.232 147.953 95.016C148.337 95.8 148.529 96.776 148.529 97.944V105H145.649V98.208C145.649 97.2 145.425 96.424 144.977 95.88C144.529 95.336 143.865 95.064 142.985 95.064C142.409 95.064 141.889 95.2 141.425 95.472C140.977 95.744 140.617 96.144 140.345 96.672C140.089 97.184 139.961 97.808 139.961 98.544V105H137.081ZM156.653 110.568C155.517 110.568 154.517 110.424 153.653 110.136C152.805 109.864 152.141 109.44 151.661 108.864C151.197 108.304 150.965 107.6 150.965 106.752C150.965 106.256 151.085 105.768 151.325 105.288C151.581 104.824 151.957 104.392 152.453 103.992C152.965 103.576 153.613 103.216 154.397 102.912L155.669 104.304C154.901 104.576 154.365 104.904 154.061 105.288C153.757 105.672 153.605 106.064 153.605 106.464C153.605 106.88 153.733 107.224 153.989 107.496C154.261 107.784 154.621 108 155.069 108.144C155.533 108.288 156.053 108.36 156.629 108.36C157.189 108.36 157.677 108.28 158.093 108.12C158.509 107.976 158.829 107.768 159.053 107.496C159.293 107.224 159.413 106.896 159.413 106.512C159.413 106.032 159.245 105.64 158.909 105.336C158.573 105.048 157.909 104.872 156.917 104.808C156.069 104.744 155.325 104.656 154.685 104.544C154.045 104.416 153.493 104.272 153.029 104.112C152.581 103.952 152.197 103.776 151.877 103.584C151.557 103.376 151.293 103.168 151.085 102.96V102.408L153.605 99.768L155.741 100.464L152.909 103.224L153.653 101.832C153.813 101.944 153.973 102.048 154.133 102.144C154.309 102.24 154.525 102.328 154.781 102.408C155.053 102.472 155.405 102.536 155.837 102.6C156.269 102.664 156.829 102.728 157.517 102.792C158.589 102.872 159.461 103.064 160.133 103.368C160.805 103.672 161.301 104.08 161.621 104.592C161.941 105.104 162.101 105.72 162.101 106.44C162.101 107.144 161.901 107.808 161.501 108.432C161.117 109.056 160.525 109.568 159.725 109.968C158.925 110.368 157.901 110.568 156.653 110.568ZM156.653 101.376C155.645 101.376 154.773 101.184 154.037 100.8C153.317 100.4 152.765 99.872 152.381 99.216C151.997 98.544 151.805 97.808 151.805 97.008C151.805 96.192 151.997 95.456 152.381 94.8C152.765 94.144 153.317 93.616 154.037 93.216C154.773 92.816 155.645 92.616 156.653 92.616C157.661 92.616 158.525 92.816 159.245 93.216C159.965 93.616 160.517 94.144 160.901 94.8C161.285 95.456 161.477 96.192 161.477 97.008C161.477 97.808 161.285 98.544 160.901 99.216C160.517 99.872 159.965 100.4 159.245 100.8C158.525 101.184 157.661 101.376 156.653 101.376ZM156.653 99.144C157.341 99.144 157.893 98.96 158.309 98.592C158.725 98.224 158.933 97.696 158.933 97.008C158.933 96.32 158.725 95.8 158.309 95.448C157.893 95.08 157.341 94.896 156.653 94.896C155.965 94.896 155.405 95.08 154.973 95.448C154.541 95.8 154.325 96.32 154.325 97.008C154.325 97.696 154.541 98.224 154.973 98.592C155.405 98.96 155.965 99.144 156.653 99.144ZM158.645 95.016L158.093 92.904H163.061V94.704L158.645 95.016Z" fill="#4D4E4E"/>
<path d="M41.8114 143V131.8H43.4114V143H41.8114ZM34.6914 143V131.8H36.2914V143H34.6914ZM36.0194 137.944V136.632H42.1634V137.944H36.0194ZM49.3539 143.192C48.5966 143.192 47.9139 143.016 47.3059 142.664C46.7086 142.312 46.2339 141.821 45.8819 141.192C45.5406 140.552 45.3699 139.816 45.3699 138.984C45.3699 138.131 45.5459 137.389 45.8979 136.76C46.2499 136.12 46.7299 135.624 47.3379 135.272C47.9459 134.92 48.6286 134.744 49.3859 134.744C50.1539 134.744 50.8366 134.92 51.4339 135.272C52.0313 135.624 52.5006 136.115 52.8419 136.744C53.1939 137.373 53.3699 138.115 53.3699 138.968C53.3699 139.821 53.1939 140.563 52.8419 141.192C52.5006 141.821 52.0259 142.312 51.4179 142.664C50.8099 143.016 50.1219 143.192 49.3539 143.192ZM49.3539 141.816C49.7913 141.816 50.1859 141.709 50.5379 141.496C50.9006 141.283 51.1886 140.968 51.4019 140.552C51.6259 140.125 51.7379 139.597 51.7379 138.968C51.7379 138.339 51.6313 137.816 51.4179 137.4C51.2046 136.973 50.9166 136.653 50.5539 136.44C50.2019 136.227 49.8126 136.12 49.3859 136.12C48.9593 136.12 48.5646 136.227 48.2019 136.44C47.8393 136.653 47.5459 136.973 47.3219 137.4C47.1086 137.816 47.0019 138.339 47.0019 138.968C47.0019 139.597 47.1086 140.125 47.3219 140.552C47.5459 140.968 47.8339 141.283 48.1859 141.496C48.5486 141.709 48.9379 141.816 49.3539 141.816ZM58.2121 143.192C57.5827 143.192 57.0334 143.064 56.5641 142.808C56.1054 142.552 55.7481 142.168 55.4921 141.656C55.2467 141.144 55.1241 140.499 55.1241 139.72V134.936H56.7241V139.544C56.7241 140.301 56.8894 140.872 57.2201 141.256C57.5507 141.64 58.0254 141.832 58.6441 141.832C59.0601 141.832 59.4334 141.731 59.7641 141.528C60.1054 141.325 60.3721 141.032 60.5641 140.648C60.7561 140.264 60.8521 139.795 60.8521 139.24V134.936H62.4521V143H61.0281L60.9161 141.624C60.6707 142.115 60.3134 142.499 59.8441 142.776C59.3747 143.053 58.8307 143.192 58.2121 143.192ZM67.7627 143.192C67.08 143.192 66.4827 143.08 65.9707 142.856C65.4587 142.632 65.0534 142.317 64.7547 141.912C64.456 141.507 64.2747 141.032 64.2107 140.488H65.8427C65.896 140.744 65.9974 140.979 66.1467 141.192C66.3067 141.405 66.52 141.576 66.7867 141.704C67.064 141.832 67.3894 141.896 67.7627 141.896C68.1147 141.896 68.4027 141.848 68.6267 141.752C68.8614 141.645 69.032 141.507 69.1387 141.336C69.2454 141.155 69.2987 140.963 69.2987 140.76C69.2987 140.461 69.224 140.237 69.0747 140.088C68.936 139.928 68.7227 139.805 68.4347 139.72C68.1574 139.624 67.8214 139.539 67.4267 139.464C67.0534 139.4 66.6907 139.315 66.3387 139.208C65.9974 139.091 65.688 138.947 65.4107 138.776C65.144 138.605 64.9307 138.392 64.7707 138.136C64.6107 137.869 64.5307 137.544 64.5307 137.16C64.5307 136.701 64.6534 136.291 64.8987 135.928C65.144 135.555 65.4907 135.267 65.9387 135.064C66.3974 134.851 66.936 134.744 67.5547 134.744C68.4507 134.744 69.1707 134.957 69.7147 135.384C70.2587 135.811 70.5787 136.413 70.6747 137.192H69.1227C69.08 136.829 68.92 136.552 68.6427 136.36C68.3654 136.157 67.9974 136.056 67.5387 136.056C67.08 136.056 66.728 136.147 66.4827 136.328C66.2374 136.509 66.1147 136.749 66.1147 137.048C66.1147 137.24 66.184 137.411 66.3227 137.56C66.4614 137.709 66.664 137.837 66.9307 137.944C67.208 138.04 67.544 138.131 67.9387 138.216C68.504 138.323 69.0107 138.456 69.4587 138.616C69.9067 138.776 70.264 139.011 70.5307 139.32C70.7974 139.629 70.9307 140.072 70.9307 140.648C70.9414 141.149 70.8134 141.592 70.5467 141.976C70.2907 142.36 69.9227 142.659 69.4427 142.872C68.9734 143.085 68.4134 143.192 67.7627 143.192ZM76.4626 143.192C75.6946 143.192 75.0119 143.016 74.4146 142.664C73.8172 142.312 73.3479 141.821 73.0066 141.192C72.6759 140.563 72.5106 139.832 72.5106 139C72.5106 138.147 72.6759 137.405 73.0066 136.776C73.3479 136.136 73.8172 135.64 74.4146 135.288C75.0119 134.925 75.7052 134.744 76.4946 134.744C77.2839 134.744 77.9612 134.92 78.5266 135.272C79.0919 135.624 79.5292 136.093 79.8386 136.68C80.1479 137.256 80.3026 137.896 80.3026 138.6C80.3026 138.707 80.2972 138.824 80.2866 138.952C80.2866 139.069 80.2812 139.203 80.2706 139.352H73.6786V138.216H78.7026C78.6706 137.544 78.4466 137.021 78.0306 136.648C77.6146 136.264 77.0972 136.072 76.4786 136.072C76.0412 136.072 75.6412 136.173 75.2786 136.376C74.9159 136.568 74.6226 136.856 74.3986 137.24C74.1852 137.613 74.0786 138.088 74.0786 138.664V139.112C74.0786 139.709 74.1852 140.216 74.3986 140.632C74.6226 141.037 74.9159 141.347 75.2786 141.56C75.6412 141.763 76.0359 141.864 76.4626 141.864C76.9746 141.864 77.3959 141.752 77.7266 141.528C78.0572 141.304 78.3026 141 78.4626 140.616H80.0626C79.9239 141.107 79.6892 141.549 79.3586 141.944C79.0279 142.328 78.6172 142.632 78.1266 142.856C77.6466 143.08 77.0919 143.192 76.4626 143.192ZM89.9019 143.192C89.1233 143.192 88.4299 143.016 87.8219 142.664C87.2139 142.301 86.7339 141.805 86.3819 141.176C86.0406 140.547 85.8699 139.816 85.8699 138.984C85.8699 138.141 86.0406 137.405 86.3819 136.776C86.7339 136.136 87.2139 135.64 87.8219 135.288C88.4299 134.925 89.1233 134.744 89.9019 134.744C90.8833 134.744 91.7046 135 92.3659 135.512C93.0273 136.024 93.4486 136.717 93.6299 137.592H91.9659C91.8593 137.123 91.6139 136.76 91.2299 136.504C90.8566 136.248 90.4086 136.12 89.8859 136.12C89.4593 136.12 89.0646 136.232 88.7019 136.456C88.3393 136.669 88.0459 136.989 87.8219 137.416C87.6086 137.832 87.5019 138.349 87.5019 138.968C87.5019 139.427 87.5659 139.837 87.6939 140.2C87.8219 140.552 87.9926 140.851 88.2059 141.096C88.4299 141.341 88.6859 141.528 88.9739 141.656C89.2619 141.773 89.5659 141.832 89.8859 141.832C90.2379 141.832 90.5526 141.779 90.8299 141.672C91.1179 141.555 91.3579 141.384 91.5499 141.16C91.7526 140.936 91.8913 140.669 91.9659 140.36H93.6299C93.4486 141.213 93.0273 141.901 92.3659 142.424C91.7046 142.936 90.8833 143.192 89.9019 143.192ZM95.5021 143V131.48H97.1021V143H95.5021ZM102.947 143.192C102.179 143.192 101.496 143.016 100.899 142.664C100.302 142.312 99.8323 141.821 99.4909 141.192C99.1603 140.563 98.9949 139.832 98.9949 139C98.9949 138.147 99.1603 137.405 99.4909 136.776C99.8323 136.136 100.302 135.64 100.899 135.288C101.496 134.925 102.19 134.744 102.979 134.744C103.768 134.744 104.446 134.92 105.011 135.272C105.576 135.624 106.014 136.093 106.323 136.68C106.632 137.256 106.787 137.896 106.787 138.6C106.787 138.707 106.782 138.824 106.771 138.952C106.771 139.069 106.766 139.203 106.755 139.352H100.163V138.216H105.187C105.155 137.544 104.931 137.021 104.515 136.648C104.099 136.264 103.582 136.072 102.963 136.072C102.526 136.072 102.126 136.173 101.763 136.376C101.4 136.568 101.107 136.856 100.883 137.24C100.67 137.613 100.563 138.088 100.563 138.664V139.112C100.563 139.709 100.67 140.216 100.883 140.632C101.107 141.037 101.4 141.347 101.763 141.56C102.126 141.763 102.52 141.864 102.947 141.864C103.459 141.864 103.88 141.752 104.211 141.528C104.542 141.304 104.787 141 104.947 140.616H106.547C106.408 141.107 106.174 141.549 105.843 141.944C105.512 142.328 105.102 142.632 104.611 142.856C104.131 143.08 103.576 143.192 102.947 143.192ZM111.237 143.192C110.575 143.192 110.026 143.08 109.589 142.856C109.151 142.632 108.826 142.333 108.613 141.96C108.399 141.576 108.293 141.165 108.293 140.728C108.293 140.195 108.431 139.741 108.709 139.368C108.986 138.984 109.381 138.691 109.893 138.488C110.405 138.285 111.018 138.184 111.733 138.184H113.829C113.829 137.715 113.759 137.325 113.621 137.016C113.482 136.707 113.274 136.477 112.997 136.328C112.73 136.168 112.389 136.088 111.973 136.088C111.493 136.088 111.082 136.205 110.741 136.44C110.399 136.664 110.186 137 110.101 137.448H108.501C108.565 136.883 108.757 136.403 109.077 136.008C109.407 135.603 109.829 135.293 110.341 135.08C110.853 134.856 111.397 134.744 111.973 134.744C112.73 134.744 113.365 134.877 113.877 135.144C114.389 135.411 114.773 135.789 115.029 136.28C115.295 136.76 115.429 137.336 115.429 138.008V143H114.037L113.909 141.64C113.791 141.853 113.653 142.056 113.493 142.248C113.333 142.44 113.141 142.605 112.917 142.744C112.703 142.883 112.453 142.989 112.165 143.064C111.887 143.149 111.578 143.192 111.237 143.192ZM111.541 141.896C111.882 141.896 112.191 141.827 112.469 141.688C112.746 141.549 112.981 141.363 113.173 141.128C113.375 140.883 113.525 140.611 113.621 140.312C113.727 140.003 113.786 139.688 113.797 139.368V139.32H111.893C111.434 139.32 111.061 139.379 110.773 139.496C110.495 139.603 110.293 139.752 110.165 139.944C110.037 140.136 109.973 140.36 109.973 140.616C109.973 140.883 110.031 141.112 110.149 141.304C110.277 141.485 110.458 141.629 110.693 141.736C110.927 141.843 111.21 141.896 111.541 141.896ZM117.471 143V134.936H118.911L119.007 136.312C119.263 135.832 119.625 135.453 120.095 135.176C120.564 134.888 121.103 134.744 121.711 134.744C122.351 134.744 122.9 134.872 123.359 135.128C123.817 135.384 124.175 135.773 124.431 136.296C124.687 136.808 124.815 137.453 124.815 138.232V143H123.215V138.392C123.215 137.645 123.049 137.08 122.719 136.696C122.388 136.312 121.908 136.12 121.279 136.12C120.863 136.12 120.489 136.221 120.159 136.424C119.828 136.616 119.561 136.904 119.359 137.288C119.167 137.672 119.071 138.141 119.071 138.696V143H117.471ZM126.973 143V134.936H128.573V143H126.973ZM127.789 133.416C127.48 133.416 127.224 133.32 127.021 133.128C126.829 132.936 126.733 132.691 126.733 132.392C126.733 132.104 126.829 131.869 127.021 131.688C127.224 131.496 127.48 131.4 127.789 131.4C128.088 131.4 128.339 131.496 128.541 131.688C128.744 131.869 128.845 132.104 128.845 132.392C128.845 132.691 128.744 132.936 128.541 133.128C128.339 133.32 128.088 133.416 127.789 133.416ZM130.861 143V134.936H132.301L132.397 136.312C132.653 135.832 133.016 135.453 133.485 135.176C133.955 134.888 134.493 134.744 135.101 134.744C135.741 134.744 136.291 134.872 136.749 135.128C137.208 135.384 137.565 135.773 137.821 136.296C138.077 136.808 138.205 137.453 138.205 138.232V143H136.605V138.392C136.605 137.645 136.44 137.08 136.109 136.696C135.779 136.312 135.299 136.12 134.669 136.12C134.253 136.12 133.88 136.221 133.549 136.424C133.219 136.616 132.952 136.904 132.749 137.288C132.557 137.672 132.461 138.141 132.461 138.696V143H130.861ZM143.532 146.712C142.796 146.712 142.145 146.616 141.58 146.424C141.015 146.243 140.577 145.96 140.268 145.576C139.959 145.192 139.804 144.723 139.804 144.168C139.804 143.88 139.868 143.587 139.996 143.288C140.124 143 140.332 142.723 140.62 142.456C140.908 142.189 141.297 141.949 141.788 141.736L142.684 142.456C142.14 142.659 141.772 142.899 141.58 143.176C141.399 143.464 141.308 143.741 141.308 144.008C141.308 144.328 141.404 144.595 141.596 144.808C141.788 145.021 142.049 145.181 142.38 145.288C142.721 145.395 143.105 145.448 143.532 145.448C143.948 145.448 144.311 145.389 144.62 145.272C144.929 145.155 145.169 144.989 145.34 144.776C145.511 144.563 145.596 144.312 145.596 144.024C145.596 143.683 145.468 143.395 145.212 143.16C144.956 142.936 144.465 142.803 143.74 142.76C143.132 142.717 142.615 142.659 142.188 142.584C141.772 142.509 141.415 142.419 141.116 142.312C140.828 142.205 140.583 142.088 140.38 141.96C140.188 141.832 140.023 141.699 139.884 141.56V141.192L141.484 139.544L142.78 139.992L141.036 141.608L141.372 140.888C141.489 140.963 141.601 141.037 141.708 141.112C141.815 141.176 141.959 141.235 142.14 141.288C142.321 141.341 142.567 141.389 142.876 141.432C143.185 141.475 143.591 141.517 144.092 141.56C144.817 141.613 145.399 141.741 145.836 141.944C146.284 142.147 146.609 142.419 146.812 142.76C147.015 143.101 147.116 143.507 147.116 143.976C147.116 144.435 146.988 144.872 146.732 145.288C146.487 145.704 146.097 146.045 145.564 146.312C145.041 146.579 144.364 146.712 143.532 146.712ZM143.532 140.52C142.849 140.52 142.268 140.392 141.788 140.136C141.319 139.88 140.956 139.533 140.7 139.096C140.455 138.659 140.332 138.173 140.332 137.64C140.332 137.096 140.455 136.611 140.7 136.184C140.956 135.747 141.324 135.4 141.804 135.144C142.284 134.877 142.86 134.744 143.532 134.744C144.204 134.744 144.775 134.877 145.244 135.144C145.724 135.4 146.087 135.747 146.332 136.184C146.588 136.611 146.716 137.096 146.716 137.64C146.716 138.173 146.588 138.659 146.332 139.096C146.087 139.533 145.724 139.88 145.244 140.136C144.775 140.392 144.204 140.52 143.532 140.52ZM143.532 139.24C144.055 139.24 144.471 139.107 144.78 138.84C145.089 138.563 145.244 138.163 145.244 137.64C145.244 137.117 145.089 136.723 144.78 136.456C144.471 136.179 144.055 136.04 143.532 136.04C143.009 136.04 142.588 136.179 142.268 136.456C141.948 136.723 141.788 137.117 141.788 137.64C141.788 138.163 141.948 138.563 142.268 138.84C142.588 139.107 143.009 139.24 143.532 139.24ZM144.844 136.2L144.46 134.936H147.772V136.04L144.844 136.2ZM148.449 144.968L149.361 141.272H150.977L149.521 144.968H148.449ZM160.289 143.192C159.521 143.192 158.844 143.011 158.257 142.648C157.671 142.275 157.212 141.773 156.881 141.144C156.561 140.504 156.401 139.779 156.401 138.968C156.401 138.147 156.561 137.421 156.881 136.792C157.212 136.163 157.671 135.667 158.257 135.304C158.855 134.931 159.537 134.744 160.305 134.744C160.935 134.744 161.489 134.872 161.969 135.128C162.449 135.373 162.823 135.725 163.089 136.184V131.48H164.689V143H163.249L163.089 141.752C162.929 141.997 162.721 142.232 162.465 142.456C162.209 142.669 161.9 142.845 161.537 142.984C161.175 143.123 160.759 143.192 160.289 143.192ZM160.545 141.8C161.047 141.8 161.489 141.683 161.873 141.448C162.257 141.213 162.551 140.883 162.753 140.456C162.967 140.029 163.073 139.533 163.073 138.968C163.073 138.403 162.967 137.912 162.753 137.496C162.551 137.069 162.257 136.739 161.873 136.504C161.489 136.259 161.047 136.136 160.545 136.136C160.065 136.136 159.633 136.259 159.249 136.504C158.865 136.739 158.567 137.069 158.353 137.496C158.14 137.912 158.033 138.403 158.033 138.968C158.033 139.533 158.14 140.029 158.353 140.456C158.567 140.883 158.865 141.213 159.249 141.448C159.633 141.683 160.065 141.8 160.545 141.8ZM170.525 143.192C169.757 143.192 169.074 143.016 168.477 142.664C167.88 142.312 167.41 141.821 167.069 141.192C166.738 140.563 166.573 139.832 166.573 139C166.573 138.147 166.738 137.405 167.069 136.776C167.41 136.136 167.88 135.64 168.477 135.288C169.074 134.925 169.768 134.744 170.557 134.744C171.346 134.744 172.024 134.92 172.589 135.272C173.154 135.624 173.592 136.093 173.901 136.68C174.21 137.256 174.365 137.896 174.365 138.6C174.365 138.707 174.36 138.824 174.349 138.952C174.349 139.069 174.344 139.203 174.333 139.352H167.741V138.216H172.765C172.733 137.544 172.509 137.021 172.093 136.648C171.677 136.264 171.16 136.072 170.541 136.072C170.104 136.072 169.704 136.173 169.341 136.376C168.978 136.568 168.685 136.856 168.461 137.24C168.248 137.613 168.141 138.088 168.141 138.664V139.112C168.141 139.709 168.248 140.216 168.461 140.632C168.685 141.037 168.978 141.347 169.341 141.56C169.704 141.763 170.098 141.864 170.525 141.864C171.037 141.864 171.458 141.752 171.789 141.528C172.12 141.304 172.365 141 172.525 140.616H174.125C173.986 141.107 173.752 141.549 173.421 141.944C173.09 142.328 172.68 142.632 172.189 142.856C171.709 143.08 171.154 143.192 170.525 143.192ZM179.791 143.192C179.023 143.192 178.34 143.016 177.743 142.664C177.145 142.312 176.676 141.821 176.335 141.192C176.004 140.563 175.839 139.832 175.839 139C175.839 138.147 176.004 137.405 176.335 136.776C176.676 136.136 177.145 135.64 177.743 135.288C178.34 134.925 179.033 134.744 179.823 134.744C180.612 134.744 181.289 134.92 181.855 135.272C182.42 135.624 182.857 136.093 183.167 136.68C183.476 137.256 183.631 137.896 183.631 138.6C183.631 138.707 183.625 138.824 183.615 138.952C183.615 139.069 183.609 139.203 183.599 139.352H177.007V138.216H182.031C181.999 137.544 181.775 137.021 181.359 136.648C180.943 136.264 180.425 136.072 179.807 136.072C179.369 136.072 178.969 136.173 178.607 136.376C178.244 136.568 177.951 136.856 177.727 137.24C177.513 137.613 177.407 138.088 177.407 138.664V139.112C177.407 139.709 177.513 140.216 177.727 140.632C177.951 141.037 178.244 141.347 178.607 141.56C178.969 141.763 179.364 141.864 179.791 141.864C180.303 141.864 180.724 141.752 181.055 141.528C181.385 141.304 181.631 141 181.791 140.616H183.391C183.252 141.107 183.017 141.549 182.687 141.944C182.356 142.328 181.945 142.632 181.455 142.856C180.975 143.08 180.42 143.192 179.791 143.192ZM185.408 146.52V134.936H186.848L187.008 136.184C187.179 135.939 187.392 135.709 187.648 135.496C187.904 135.272 188.208 135.091 188.56 134.952C188.923 134.813 189.344 134.744 189.824 134.744C190.592 134.744 191.264 134.931 191.84 135.304C192.427 135.677 192.88 136.184 193.2 136.824C193.531 137.453 193.696 138.173 193.696 138.984C193.696 139.795 193.531 140.52 193.2 141.16C192.87 141.789 192.411 142.285 191.824 142.648C191.248 143.011 190.576 143.192 189.808 143.192C189.179 143.192 188.624 143.069 188.144 142.824C187.664 142.568 187.286 142.216 187.008 141.768V146.52H185.408ZM189.552 141.8C190.043 141.8 190.475 141.683 190.848 141.448C191.232 141.213 191.531 140.883 191.744 140.456C191.968 140.029 192.08 139.533 192.08 138.968C192.08 138.403 191.968 137.912 191.744 137.496C191.531 137.069 191.232 136.739 190.848 136.504C190.475 136.259 190.043 136.136 189.552 136.136C189.051 136.136 188.608 136.259 188.224 136.504C187.851 136.739 187.558 137.069 187.344 137.496C187.131 137.912 187.024 138.403 187.024 138.968C187.024 139.533 187.131 140.029 187.344 140.456C187.558 140.883 187.851 141.213 188.224 141.448C188.608 141.683 189.051 141.8 189.552 141.8ZM40.941 164.192C40.1623 164.192 39.469 164.016 38.861 163.664C38.253 163.301 37.773 162.805 37.421 162.176C37.0797 161.547 36.909 160.816 36.909 159.984C36.909 159.141 37.0797 158.405 37.421 157.776C37.773 157.136 38.253 156.64 38.861 156.288C39.469 155.925 40.1623 155.744 40.941 155.744C41.9223 155.744 42.7437 156 43.405 156.512C44.0663 157.024 44.4877 157.717 44.669 158.592H43.005C42.8983 158.123 42.653 157.76 42.269 157.504C41.8957 157.248 41.4477 157.12 40.925 157.12C40.4983 157.12 40.1037 157.232 39.741 157.456C39.3783 157.669 39.085 157.989 38.861 158.416C38.6477 158.832 38.541 159.349 38.541 159.968C38.541 160.427 38.605 160.837 38.733 161.2C38.861 161.552 39.0317 161.851 39.245 162.096C39.469 162.341 39.725 162.528 40.013 162.656C40.301 162.773 40.605 162.832 40.925 162.832C41.277 162.832 41.5917 162.779 41.869 162.672C42.157 162.555 42.397 162.384 42.589 162.16C42.7917 161.936 42.9303 161.669 43.005 161.36H44.669C44.4877 162.213 44.0663 162.901 43.405 163.424C42.7437 163.936 41.9223 164.192 40.941 164.192ZM46.5411 164V152.48H48.1411V164H46.5411ZM53.986 164.192C53.218 164.192 52.5353 164.016 51.938 163.664C51.3407 163.312 50.8713 162.821 50.53 162.192C50.1993 161.563 50.034 160.832 50.034 160C50.034 159.147 50.1993 158.405 50.53 157.776C50.8713 157.136 51.3407 156.64 51.938 156.288C52.5353 155.925 53.2287 155.744 54.018 155.744C54.8073 155.744 55.4847 155.92 56.05 156.272C56.6153 156.624 57.0527 157.093 57.362 157.68C57.6713 158.256 57.826 158.896 57.826 159.6C57.826 159.707 57.8207 159.824 57.81 159.952C57.81 160.069 57.8047 160.203 57.794 160.352H51.202V159.216H56.226C56.194 158.544 55.97 158.021 55.554 157.648C55.138 157.264 54.6207 157.072 54.002 157.072C53.5647 157.072 53.1647 157.173 52.802 157.376C52.4393 157.568 52.146 157.856 51.922 158.24C51.7087 158.613 51.602 159.088 51.602 159.664V160.112C51.602 160.709 51.7087 161.216 51.922 161.632C52.146 162.037 52.4393 162.347 52.802 162.56C53.1647 162.763 53.5593 162.864 53.986 162.864C54.498 162.864 54.9193 162.752 55.25 162.528C55.5807 162.304 55.826 162 55.986 161.616H57.586C57.4473 162.107 57.2127 162.549 56.882 162.944C56.5513 163.328 56.1407 163.632 55.65 163.856C55.17 164.08 54.6153 164.192 53.986 164.192ZM62.2756 164.192C61.6143 164.192 61.065 164.08 60.6276 163.856C60.1903 163.632 59.865 163.333 59.6516 162.96C59.4383 162.576 59.3316 162.165 59.3316 161.728C59.3316 161.195 59.4703 160.741 59.7476 160.368C60.025 159.984 60.4196 159.691 60.9316 159.488C61.4436 159.285 62.057 159.184 62.7716 159.184H64.8676C64.8676 158.715 64.7983 158.325 64.6596 158.016C64.521 157.707 64.313 157.477 64.0356 157.328C63.769 157.168 63.4276 157.088 63.0116 157.088C62.5316 157.088 62.121 157.205 61.7796 157.44C61.4383 157.664 61.225 158 61.1396 158.448H59.5396C59.6036 157.883 59.7956 157.403 60.1156 157.008C60.4463 156.603 60.8676 156.293 61.3796 156.08C61.8916 155.856 62.4356 155.744 63.0116 155.744C63.769 155.744 64.4036 155.877 64.9156 156.144C65.4276 156.411 65.8116 156.789 66.0676 157.28C66.3343 157.76 66.4676 158.336 66.4676 159.008V164H65.0756L64.9476 162.64C64.8303 162.853 64.6916 163.056 64.5316 163.248C64.3716 163.44 64.1796 163.605 63.9556 163.744C63.7423 163.883 63.4916 163.989 63.2036 164.064C62.9263 164.149 62.617 164.192 62.2756 164.192ZM62.5796 162.896C62.921 162.896 63.2303 162.827 63.5076 162.688C63.785 162.549 64.0196 162.363 64.2116 162.128C64.4143 161.883 64.5636 161.611 64.6596 161.312C64.7663 161.003 64.825 160.688 64.8356 160.368V160.32H62.9316C62.473 160.32 62.0996 160.379 61.8116 160.496C61.5343 160.603 61.3316 160.752 61.2036 160.944C61.0756 161.136 61.0116 161.36 61.0116 161.616C61.0116 161.883 61.0703 162.112 61.1876 162.304C61.3156 162.485 61.497 162.629 61.7316 162.736C61.9663 162.843 62.249 162.896 62.5796 162.896ZM68.5099 164V155.936H69.9499L70.0459 157.312C70.3019 156.832 70.6645 156.453 71.1339 156.176C71.6032 155.888 72.1419 155.744 72.7499 155.744C73.3899 155.744 73.9392 155.872 74.3979 156.128C74.8565 156.384 75.2139 156.773 75.4699 157.296C75.7259 157.808 75.8539 158.453 75.8539 159.232V164H74.2539V159.392C74.2539 158.645 74.0885 158.08 73.7579 157.696C73.4272 157.312 72.9472 157.12 72.3179 157.12C71.9019 157.12 71.5285 157.221 71.1979 157.424C70.8672 157.616 70.6005 157.904 70.3979 158.288C70.2059 158.672 70.1099 159.141 70.1099 159.696V164H68.5099ZM78.0125 164V155.936H79.6125V164H78.0125ZM78.8285 154.416C78.5192 154.416 78.2632 154.32 78.0605 154.128C77.8685 153.936 77.7725 153.691 77.7725 153.392C77.7725 153.104 77.8685 152.869 78.0605 152.688C78.2632 152.496 78.5192 152.4 78.8285 152.4C79.1272 152.4 79.3778 152.496 79.5805 152.688C79.7832 152.869 79.8845 153.104 79.8845 153.392C79.8845 153.691 79.7832 153.936 79.5805 154.128C79.3778 154.32 79.1272 154.416 78.8285 154.416ZM81.9005 164V155.936H83.3405L83.4365 157.312C83.6925 156.832 84.0552 156.453 84.5245 156.176C84.9938 155.888 85.5325 155.744 86.1405 155.744C86.7805 155.744 87.3298 155.872 87.7885 156.128C88.2472 156.384 88.6045 156.773 88.8605 157.296C89.1165 157.808 89.2445 158.453 89.2445 159.232V164H87.6445V159.392C87.6445 158.645 87.4792 158.08 87.1485 157.696C86.8178 157.312 86.3378 157.12 85.7085 157.12C85.2925 157.12 84.9192 157.221 84.5885 157.424C84.2578 157.616 83.9912 157.904 83.7885 158.288C83.5965 158.672 83.5005 159.141 83.5005 159.696V164H81.9005ZM94.5711 167.712C93.8351 167.712 93.1845 167.616 92.6191 167.424C92.0538 167.243 91.6165 166.96 91.3071 166.576C90.9978 166.192 90.8431 165.723 90.8431 165.168C90.8431 164.88 90.9071 164.587 91.0351 164.288C91.1631 164 91.3711 163.723 91.6591 163.456C91.9471 163.189 92.3365 162.949 92.8271 162.736L93.7231 163.456C93.1791 163.659 92.8111 163.899 92.6191 164.176C92.4378 164.464 92.3471 164.741 92.3471 165.008C92.3471 165.328 92.4431 165.595 92.6351 165.808C92.8271 166.021 93.0885 166.181 93.4191 166.288C93.7605 166.395 94.1445 166.448 94.5711 166.448C94.9871 166.448 95.3498 166.389 95.6591 166.272C95.9685 166.155 96.2085 165.989 96.3791 165.776C96.5498 165.563 96.6351 165.312 96.6351 165.024C96.6351 164.683 96.5071 164.395 96.2511 164.16C95.9951 163.936 95.5045 163.803 94.7791 163.76C94.1711 163.717 93.6538 163.659 93.2271 163.584C92.8111 163.509 92.4538 163.419 92.1551 163.312C91.8671 163.205 91.6218 163.088 91.4191 162.96C91.2271 162.832 91.0618 162.699 90.9231 162.56V162.192L92.5231 160.544L93.8191 160.992L92.0751 162.608L92.4111 161.888C92.5285 161.963 92.6405 162.037 92.7471 162.112C92.8538 162.176 92.9978 162.235 93.1791 162.288C93.3605 162.341 93.6058 162.389 93.9151 162.432C94.2245 162.475 94.6298 162.517 95.1311 162.56C95.8565 162.613 96.4378 162.741 96.8751 162.944C97.3231 163.147 97.6485 163.419 97.8511 163.76C98.0538 164.101 98.1551 164.507 98.1551 164.976C98.1551 165.435 98.0271 165.872 97.7711 166.288C97.5258 166.704 97.1365 167.045 96.6031 167.312C96.0805 167.579 95.4031 167.712 94.5711 167.712ZM94.5711 161.52C93.8885 161.52 93.3071 161.392 92.8271 161.136C92.3578 160.88 91.9951 160.533 91.7391 160.096C91.4938 159.659 91.3711 159.173 91.3711 158.64C91.3711 158.096 91.4938 157.611 91.7391 157.184C91.9951 156.747 92.3631 156.4 92.8431 156.144C93.3231 155.877 93.8991 155.744 94.5711 155.744C95.2431 155.744 95.8138 155.877 96.2831 156.144C96.7631 156.4 97.1258 156.747 97.3711 157.184C97.6271 157.611 97.7551 158.096 97.7551 158.64C97.7551 159.173 97.6271 159.659 97.3711 160.096C97.1258 160.533 96.7631 160.88 96.2831 161.136C95.8138 161.392 95.2431 161.52 94.5711 161.52ZM94.5711 160.24C95.0938 160.24 95.5098 160.107 95.8191 159.84C96.1285 159.563 96.2831 159.163 96.2831 158.64C96.2831 158.117 96.1285 157.723 95.8191 157.456C95.5098 157.179 95.0938 157.04 94.5711 157.04C94.0485 157.04 93.6271 157.179 93.3071 157.456C92.9871 157.723 92.8271 158.117 92.8271 158.64C92.8271 159.163 92.9871 159.563 93.3071 159.84C93.6271 160.107 94.0485 160.24 94.5711 160.24ZM95.8831 157.2L95.4991 155.936H98.8111V157.04L95.8831 157.2ZM99.4881 165.968L100.4 162.272H102.016L100.56 165.968H99.4881ZM107.744 167.52V155.936H109.184L109.344 157.184C109.515 156.939 109.728 156.709 109.984 156.496C110.24 156.272 110.544 156.091 110.896 155.952C111.259 155.813 111.68 155.744 112.16 155.744C112.928 155.744 113.6 155.931 114.176 156.304C114.763 156.677 115.216 157.184 115.536 157.824C115.867 158.453 116.032 159.173 116.032 159.984C116.032 160.795 115.867 161.52 115.536 162.16C115.206 162.789 114.747 163.285 114.16 163.648C113.584 164.011 112.912 164.192 112.144 164.192C111.515 164.192 110.96 164.069 110.48 163.824C110 163.568 109.622 163.216 109.344 162.768V167.52H107.744ZM111.888 162.8C112.379 162.8 112.811 162.683 113.184 162.448C113.568 162.213 113.867 161.883 114.08 161.456C114.304 161.029 114.416 160.533 114.416 159.968C114.416 159.403 114.304 158.912 114.08 158.496C113.867 158.069 113.568 157.739 113.184 157.504C112.811 157.259 112.379 157.136 111.888 157.136C111.387 157.136 110.944 157.259 110.56 157.504C110.187 157.739 109.894 158.069 109.68 158.496C109.467 158.912 109.36 159.403 109.36 159.968C109.36 160.533 109.467 161.029 109.68 161.456C109.894 161.883 110.187 162.213 110.56 162.448C110.944 162.683 111.387 162.8 111.888 162.8ZM121.581 164.192C120.823 164.192 120.141 164.016 119.533 163.664C118.935 163.312 118.461 162.821 118.109 162.192C117.767 161.552 117.597 160.816 117.597 159.984C117.597 159.131 117.773 158.389 118.125 157.76C118.477 157.12 118.957 156.624 119.565 156.272C120.173 155.92 120.855 155.744 121.613 155.744C122.381 155.744 123.063 155.92 123.661 156.272C124.258 156.624 124.727 157.115 125.069 157.744C125.421 158.373 125.597 159.115 125.597 159.968C125.597 160.821 125.421 161.563 125.069 162.192C124.727 162.821 124.253 163.312 123.645 163.664C123.037 164.016 122.349 164.192 121.581 164.192ZM121.581 162.816C122.018 162.816 122.413 162.709 122.765 162.496C123.127 162.283 123.415 161.968 123.629 161.552C123.853 161.125 123.965 160.597 123.965 159.968C123.965 159.339 123.858 158.816 123.645 158.4C123.431 157.973 123.143 157.653 122.781 157.44C122.429 157.227 122.039 157.12 121.613 157.12C121.186 157.12 120.791 157.227 120.429 157.44C120.066 157.653 119.773 157.973 119.549 158.4C119.335 158.816 119.229 159.339 119.229 159.968C119.229 160.597 119.335 161.125 119.549 161.552C119.773 161.968 120.061 162.283 120.413 162.496C120.775 162.709 121.165 162.816 121.581 162.816ZM130.599 164.192C129.916 164.192 129.319 164.08 128.807 163.856C128.295 163.632 127.889 163.317 127.591 162.912C127.292 162.507 127.111 162.032 127.047 161.488H128.679C128.732 161.744 128.833 161.979 128.983 162.192C129.143 162.405 129.356 162.576 129.623 162.704C129.9 162.832 130.225 162.896 130.599 162.896C130.951 162.896 131.239 162.848 131.463 162.752C131.697 162.645 131.868 162.507 131.975 162.336C132.081 162.155 132.135 161.963 132.135 161.76C132.135 161.461 132.06 161.237 131.911 161.088C131.772 160.928 131.559 160.805 131.271 160.72C130.993 160.624 130.657 160.539 130.263 160.464C129.889 160.4 129.527 160.315 129.175 160.208C128.833 160.091 128.524 159.947 128.247 159.776C127.98 159.605 127.767 159.392 127.607 159.136C127.447 158.869 127.367 158.544 127.367 158.16C127.367 157.701 127.489 157.291 127.735 156.928C127.98 156.555 128.327 156.267 128.775 156.064C129.233 155.851 129.772 155.744 130.391 155.744C131.287 155.744 132.007 155.957 132.551 156.384C133.095 156.811 133.415 157.413 133.511 158.192H131.959C131.916 157.829 131.756 157.552 131.479 157.36C131.201 157.157 130.833 157.056 130.375 157.056C129.916 157.056 129.564 157.147 129.319 157.328C129.073 157.509 128.951 157.749 128.951 158.048C128.951 158.24 129.02 158.411 129.159 158.56C129.297 158.709 129.5 158.837 129.767 158.944C130.044 159.04 130.38 159.131 130.775 159.216C131.34 159.323 131.847 159.456 132.295 159.616C132.743 159.776 133.1 160.011 133.367 160.32C133.633 160.629 133.767 161.072 133.767 161.648C133.777 162.149 133.649 162.592 133.383 162.976C133.127 163.36 132.759 163.659 132.279 163.872C131.809 164.085 131.249 164.192 130.599 164.192ZM138.65 164C138.138 164 137.696 163.92 137.322 163.76C136.949 163.6 136.661 163.333 136.458 162.96C136.256 162.587 136.154 162.08 136.154 161.44V157.296H134.762V155.936H136.154L136.346 153.92H137.754V155.936H140.042V157.296H137.754V161.456C137.754 161.915 137.85 162.229 138.042 162.4C138.234 162.56 138.565 162.64 139.034 162.64H139.962V164H138.65ZM141.903 159.952V158.608H148.367V159.952H141.903ZM154.283 164.192C153.515 164.192 152.832 164.016 152.235 163.664C151.638 163.312 151.168 162.821 150.827 162.192C150.496 161.563 150.331 160.832 150.331 160C150.331 159.147 150.496 158.405 150.827 157.776C151.168 157.136 151.638 156.64 152.235 156.288C152.832 155.925 153.526 155.744 154.315 155.744C155.104 155.744 155.782 155.92 156.347 156.272C156.912 156.624 157.35 157.093 157.659 157.68C157.968 158.256 158.123 158.896 158.123 159.6C158.123 159.707 158.118 159.824 158.107 159.952C158.107 160.069 158.102 160.203 158.091 160.352H151.499V159.216H156.523C156.491 158.544 156.267 158.021 155.851 157.648C155.435 157.264 154.918 157.072 154.299 157.072C153.862 157.072 153.462 157.173 153.099 157.376C152.736 157.568 152.443 157.856 152.219 158.24C152.006 158.613 151.899 159.088 151.899 159.664V160.112C151.899 160.709 152.006 161.216 152.219 161.632C152.443 162.037 152.736 162.347 153.099 162.56C153.462 162.763 153.856 162.864 154.283 162.864C154.795 162.864 155.216 162.752 155.547 162.528C155.878 162.304 156.123 162 156.283 161.616H157.883C157.744 162.107 157.51 162.549 157.179 162.944C156.848 163.328 156.438 163.632 155.947 163.856C155.467 164.08 154.912 164.192 154.283 164.192ZM161.876 164L158.852 155.936H160.532L162.82 162.464L165.124 155.936H166.772L163.764 164H161.876ZM171.47 164.192C170.702 164.192 170.02 164.016 169.422 163.664C168.825 163.312 168.356 162.821 168.014 162.192C167.684 161.563 167.518 160.832 167.518 160C167.518 159.147 167.684 158.405 168.014 157.776C168.356 157.136 168.825 156.64 169.422 156.288C170.02 155.925 170.713 155.744 171.502 155.744C172.292 155.744 172.969 155.92 173.534 156.272C174.1 156.624 174.537 157.093 174.846 157.68C175.156 158.256 175.31 158.896 175.31 159.6C175.31 159.707 175.305 159.824 175.294 159.952C175.294 160.069 175.289 160.203 175.278 160.352H168.686V159.216H173.71C173.678 158.544 173.454 158.021 173.038 157.648C172.622 157.264 172.105 157.072 171.486 157.072C171.049 157.072 170.649 157.173 170.286 157.376C169.924 157.568 169.63 157.856 169.406 158.24C169.193 158.613 169.086 159.088 169.086 159.664V160.112C169.086 160.709 169.193 161.216 169.406 161.632C169.63 162.037 169.924 162.347 170.286 162.56C170.649 162.763 171.044 162.864 171.47 162.864C171.982 162.864 172.404 162.752 172.734 162.528C173.065 162.304 173.31 162 173.47 161.616H175.07C174.932 162.107 174.697 162.549 174.366 162.944C174.036 163.328 173.625 163.632 173.134 163.856C172.654 164.08 172.1 164.192 171.47 164.192ZM177.088 164V155.936H178.528L178.624 157.312C178.88 156.832 179.243 156.453 179.712 156.176C180.181 155.888 180.72 155.744 181.328 155.744C181.968 155.744 182.517 155.872 182.976 156.128C183.435 156.384 183.792 156.773 184.048 157.296C184.304 157.808 184.432 158.453 184.432 159.232V164H182.832V159.392C182.832 158.645 182.667 158.08 182.336 157.696C182.005 157.312 181.525 157.12 180.896 157.12C180.48 157.12 180.107 157.221 179.776 157.424C179.445 157.616 179.179 157.904 178.976 158.288C178.784 158.672 178.688 159.141 178.688 159.696V164H177.088ZM189.807 164C189.295 164 188.852 163.92 188.479 163.76C188.105 163.6 187.817 163.333 187.615 162.96C187.412 162.587 187.311 162.08 187.311 161.44V157.296H185.919V155.936H187.311L187.503 153.92H188.911V155.936H191.199V157.296H188.911V161.456C188.911 161.915 189.007 162.229 189.199 162.4C189.391 162.56 189.721 162.64 190.191 162.64H191.119V164H189.807ZM84.6129 185.192C83.8342 185.192 83.1409 185.016 82.5329 184.664C81.9249 184.301 81.4449 183.805 81.0929 183.176C80.7515 182.547 80.5809 181.816 80.5809 180.984C80.5809 180.141 80.7515 179.405 81.0929 178.776C81.4449 178.136 81.9249 177.64 82.5329 177.288C83.1409 176.925 83.8342 176.744 84.6129 176.744C85.5942 176.744 86.4155 177 87.0769 177.512C87.7382 178.024 88.1595 178.717 88.3409 179.592H86.6769C86.5702 179.123 86.3249 178.76 85.9409 178.504C85.5675 178.248 85.1195 178.12 84.5969 178.12C84.1702 178.12 83.7755 178.232 83.4129 178.456C83.0502 178.669 82.7569 178.989 82.5329 179.416C82.3195 179.832 82.2129 180.349 82.2129 180.968C82.2129 181.427 82.2769 181.837 82.4049 182.2C82.5329 182.552 82.7035 182.851 82.9169 183.096C83.1409 183.341 83.3969 183.528 83.6849 183.656C83.9729 183.773 84.2769 183.832 84.5969 183.832C84.9489 183.832 85.2635 183.779 85.5409 183.672C85.8289 183.555 86.0689 183.384 86.2609 183.16C86.4635 182.936 86.6022 182.669 86.6769 182.36H88.3409C88.1595 183.213 87.7382 183.901 87.0769 184.424C86.4155 184.936 85.5942 185.192 84.6129 185.192ZM90.213 185V173.48H91.813V185H90.213ZM97.6579 185.192C96.8899 185.192 96.2072 185.016 95.6099 184.664C95.0125 184.312 94.5432 183.821 94.2019 183.192C93.8712 182.563 93.7059 181.832 93.7059 181C93.7059 180.147 93.8712 179.405 94.2019 178.776C94.5432 178.136 95.0125 177.64 95.6099 177.288C96.2072 176.925 96.9005 176.744 97.6899 176.744C98.4792 176.744 99.1565 176.92 99.7219 177.272C100.287 177.624 100.725 178.093 101.034 178.68C101.343 179.256 101.498 179.896 101.498 180.6C101.498 180.707 101.493 180.824 101.482 180.952C101.482 181.069 101.477 181.203 101.466 181.352H94.8739V180.216H99.8979C99.8659 179.544 99.6419 179.021 99.2259 178.648C98.8099 178.264 98.2925 178.072 97.6739 178.072C97.2365 178.072 96.8365 178.173 96.4739 178.376C96.1112 178.568 95.8179 178.856 95.5939 179.24C95.3805 179.613 95.2739 180.088 95.2739 180.664V181.112C95.2739 181.709 95.3805 182.216 95.5939 182.632C95.8179 183.037 96.1112 183.347 96.4739 183.56C96.8365 183.763 97.2312 183.864 97.6579 183.864C98.1699 183.864 98.5912 183.752 98.9219 183.528C99.2525 183.304 99.4979 183 99.6579 182.616H101.258C101.119 183.107 100.885 183.549 100.554 183.944C100.223 184.328 99.8125 184.632 99.3219 184.856C98.8419 185.08 98.2872 185.192 97.6579 185.192ZM105.948 185.192C105.286 185.192 104.737 185.08 104.299 184.856C103.862 184.632 103.537 184.333 103.324 183.96C103.11 183.576 103.004 183.165 103.004 182.728C103.004 182.195 103.142 181.741 103.42 181.368C103.697 180.984 104.092 180.691 104.604 180.488C105.116 180.285 105.729 180.184 106.444 180.184H108.54C108.54 179.715 108.47 179.325 108.332 179.016C108.193 178.707 107.985 178.477 107.708 178.328C107.441 178.168 107.1 178.088 106.684 178.088C106.204 178.088 105.793 178.205 105.452 178.44C105.11 178.664 104.897 179 104.812 179.448H103.212C103.276 178.883 103.468 178.403 103.788 178.008C104.118 177.603 104.54 177.293 105.052 177.08C105.564 176.856 106.108 176.744 106.684 176.744C107.441 176.744 108.076 176.877 108.588 177.144C109.1 177.411 109.484 177.789 109.74 178.28C110.006 178.76 110.14 179.336 110.14 180.008V185H108.748L108.62 183.64C108.502 183.853 108.364 184.056 108.204 184.248C108.044 184.44 107.852 184.605 107.628 184.744C107.414 184.883 107.164 184.989 106.876 185.064C106.598 185.149 106.289 185.192 105.948 185.192ZM106.252 183.896C106.593 183.896 106.902 183.827 107.18 183.688C107.457 183.549 107.692 183.363 107.884 183.128C108.086 182.883 108.236 182.611 108.332 182.312C108.438 182.003 108.497 181.688 108.508 181.368V181.32H106.604C106.145 181.32 105.772 181.379 105.484 181.496C105.206 181.603 105.004 181.752 104.876 181.944C104.748 182.136 104.684 182.36 104.684 182.616C104.684 182.883 104.742 183.112 104.86 183.304C104.988 183.485 105.169 183.629 105.404 183.736C105.638 183.843 105.921 183.896 106.252 183.896ZM112.182 185V176.936H113.622L113.718 178.312C113.974 177.832 114.336 177.453 114.806 177.176C115.275 176.888 115.814 176.744 116.422 176.744C117.062 176.744 117.611 176.872 118.07 177.128C118.528 177.384 118.886 177.773 119.142 178.296C119.398 178.808 119.526 179.453 119.526 180.232V185H117.926V180.392C117.926 179.645 117.76 179.08 117.43 178.696C117.099 178.312 116.619 178.12 115.99 178.12C115.574 178.12 115.2 178.221 114.87 178.424C114.539 178.616 114.272 178.904 114.07 179.288C113.878 179.672 113.782 180.141 113.782 180.696V185H112.182ZM124.532 185.192C123.903 185.192 123.354 185.064 122.884 184.808C122.426 184.552 122.068 184.168 121.812 183.656C121.567 183.144 121.444 182.499 121.444 181.72V176.936H123.044V181.544C123.044 182.301 123.21 182.872 123.54 183.256C123.871 183.64 124.346 183.832 124.964 183.832C125.38 183.832 125.754 183.731 126.084 183.528C126.426 183.325 126.692 183.032 126.884 182.648C127.076 182.264 127.172 181.795 127.172 181.24V176.936H128.772V185H127.348L127.236 183.624C126.991 184.115 126.634 184.499 126.164 184.776C125.695 185.053 125.151 185.192 124.532 185.192ZM130.963 188.52V176.936H132.403L132.563 178.184C132.734 177.939 132.947 177.709 133.203 177.496C133.459 177.272 133.763 177.091 134.115 176.952C134.478 176.813 134.899 176.744 135.379 176.744C136.147 176.744 136.819 176.931 137.395 177.304C137.982 177.677 138.435 178.184 138.755 178.824C139.086 179.453 139.251 180.173 139.251 180.984C139.251 181.795 139.086 182.52 138.755 183.16C138.424 183.789 137.966 184.285 137.379 184.648C136.803 185.011 136.131 185.192 135.363 185.192C134.734 185.192 134.179 185.069 133.699 184.824C133.219 184.568 132.84 184.216 132.563 183.768V188.52H130.963ZM135.107 183.8C135.598 183.8 136.03 183.683 136.403 183.448C136.787 183.213 137.086 182.883 137.299 182.456C137.523 182.029 137.635 181.533 137.635 180.968C137.635 180.403 137.523 179.912 137.299 179.496C137.086 179.069 136.787 178.739 136.403 178.504C136.03 178.259 135.598 178.136 135.107 178.136C134.606 178.136 134.163 178.259 133.779 178.504C133.406 178.739 133.112 179.069 132.899 179.496C132.686 179.912 132.579 180.403 132.579 180.968C132.579 181.533 132.686 182.029 132.899 182.456C133.112 182.883 133.406 183.213 133.779 183.448C134.163 183.683 134.606 183.8 135.107 183.8ZM144.239 185.192C143.557 185.192 142.959 185.08 142.447 184.856C141.935 184.632 141.53 184.317 141.231 183.912C140.933 183.507 140.751 183.032 140.687 182.488H142.319C142.373 182.744 142.474 182.979 142.623 183.192C142.783 183.405 142.997 183.576 143.263 183.704C143.541 183.832 143.866 183.896 144.239 183.896C144.591 183.896 144.879 183.848 145.103 183.752C145.338 183.645 145.509 183.507 145.615 183.336C145.722 183.155 145.775 182.963 145.775 182.76C145.775 182.461 145.701 182.237 145.551 182.088C145.413 181.928 145.199 181.805 144.911 181.72C144.634 181.624 144.298 181.539 143.903 181.464C143.53 181.4 143.167 181.315 142.815 181.208C142.474 181.091 142.165 180.947 141.887 180.776C141.621 180.605 141.407 180.392 141.247 180.136C141.087 179.869 141.007 179.544 141.007 179.16C141.007 178.701 141.13 178.291 141.375 177.928C141.621 177.555 141.967 177.267 142.415 177.064C142.874 176.851 143.413 176.744 144.031 176.744C144.927 176.744 145.647 176.957 146.191 177.384C146.735 177.811 147.055 178.413 147.151 179.192H145.599C145.557 178.829 145.397 178.552 145.119 178.36C144.842 178.157 144.474 178.056 144.015 178.056C143.557 178.056 143.205 178.147 142.959 178.328C142.714 178.509 142.591 178.749 142.591 179.048C142.591 179.24 142.661 179.411 142.799 179.56C142.938 179.709 143.141 179.837 143.407 179.944C143.685 180.04 144.021 180.131 144.415 180.216C144.981 180.323 145.487 180.456 145.935 180.616C146.383 180.776 146.741 181.011 147.007 181.32C147.274 181.629 147.407 182.072 147.407 182.648C147.418 183.149 147.29 183.592 147.023 183.976C146.767 184.36 146.399 184.659 145.919 184.872C145.45 185.085 144.89 185.192 144.239 185.192Z" fill="#919292"/>
</svg>
