<svg width="229" height="227" viewBox="0 0 229 227" fill="none" xmlns="http://www.w3.org/2000/svg">
<rect width="229" height="227" rx="32" fill="white"/>
<path d="M128.493 45.6625C128.166 44.9154 127.696 44.2396 127.109 43.673C126.517 43.0991 125.82 42.6441 125.057 42.3325C124.259 42.006 123.406 41.8389 122.544 41.8405C121.673 41.8405 120.826 42.006 120.031 42.3325C119.268 42.6441 118.571 43.0991 117.979 43.673C117.391 44.2387 116.921 44.9148 116.596 45.6625C116.259 46.4305 116.086 47.26 116.087 48.0985V59.741C116.087 62.206 114.019 64.2115 111.476 64.2115C108.934 64.2115 106.865 62.2055 106.865 59.741V54.3765H108.322C108.628 54.3765 108.876 54.137 108.876 53.84V51.854C110.47 50.8995 111.532 49.19 111.532 47.2405V44.9865H112.335C112.64 44.9865 112.887 44.747 112.887 44.45V42.358C112.887 42.11 112.714 41.901 112.479 41.84H109.236V36.5365C109.238 36.2405 108.99 36 108.684 36H107.946C107.639 36 107.392 36.2405 107.392 36.5365V41.84H104.497V36.5365C104.497 36.2405 104.248 36 103.943 36H103.205C102.9 36 102.652 36.2405 102.652 36.5365V41.84H99.409C99.2931 41.869 99.19 41.9356 99.116 42.0294C99.042 42.1233 99.0012 42.239 99 42.3585V44.45C99 44.747 99.248 44.9865 99.5525 44.9865H100.355V47.2405C100.355 49.1905 101.416 50.899 103.011 51.854V53.84C103.011 54.137 103.259 54.3765 103.564 54.3765H105.022V59.741C105.022 60.586 105.193 61.4055 105.529 62.1775C105.856 62.9246 106.326 63.6004 106.913 64.167C107.504 64.7412 108.201 65.1966 108.965 65.5085C109.76 65.835 110.607 66 111.477 66C112.348 66 113.196 65.835 113.991 65.5085C114.754 65.1966 115.45 64.7412 116.042 64.167C116.63 63.6013 117.1 62.9253 117.426 62.1775C117.762 61.4093 117.935 60.5796 117.934 59.741V48.0985C117.934 45.634 120.001 43.628 122.545 43.628C125.087 43.628 127.156 45.6345 127.156 48.0985V66H129V48.0985C129 47.2545 128.829 46.434 128.493 45.6625Z" fill="#C7AD14"/>
<path d="M61.9931 99V82.2H72.8411V84.528H64.8731V89.352H72.1211V91.632H64.8731V96.672H72.8411V99H61.9931ZM75.7721 99V81.72H78.6521V99H75.7721ZM87.5298 99.288C86.3298 99.288 85.2738 99.032 84.3618 98.52C83.4498 97.992 82.7378 97.256 82.2258 96.312C81.7138 95.368 81.4578 94.28 81.4578 93.048C81.4578 91.768 81.7058 90.648 82.2018 89.688C82.7138 88.728 83.4258 87.976 84.3378 87.432C85.2658 86.888 86.3378 86.616 87.5538 86.616C88.7378 86.616 89.7698 86.88 90.6498 87.408C91.5298 87.936 92.2098 88.648 92.6898 89.544C93.1698 90.424 93.4098 91.416 93.4098 92.52C93.4098 92.68 93.4098 92.856 93.4098 93.048C93.4098 93.24 93.3938 93.44 93.3618 93.648H83.5218V91.8H90.5058C90.4738 90.92 90.1778 90.232 89.6178 89.736C89.0578 89.224 88.3618 88.968 87.5298 88.968C86.9378 88.968 86.3938 89.104 85.8978 89.376C85.4018 89.648 85.0098 90.056 84.7218 90.6C84.4338 91.128 84.2898 91.8 84.2898 92.616V93.312C84.2898 94.064 84.4258 94.712 84.6978 95.256C84.9858 95.8 85.3698 96.216 85.8498 96.504C86.3458 96.776 86.8978 96.912 87.5058 96.912C88.1778 96.912 88.7298 96.768 89.1618 96.48C89.6098 96.192 89.9378 95.808 90.1458 95.328H93.0738C92.8498 96.08 92.4818 96.76 91.9698 97.368C91.4578 97.96 90.8258 98.432 90.0738 98.784C89.3218 99.12 88.4738 99.288 87.5298 99.288ZM101.805 99.288C100.621 99.288 99.5569 99.024 98.6129 98.496C97.6849 97.952 96.9569 97.208 96.4289 96.264C95.9169 95.304 95.6609 94.216 95.6609 93C95.6609 91.736 95.9169 90.632 96.4289 89.688C96.9569 88.728 97.6849 87.976 98.6129 87.432C99.5569 86.888 100.629 86.616 101.829 86.616C103.333 86.616 104.597 87.016 105.621 87.816C106.645 88.6 107.301 89.68 107.589 91.056H104.565C104.405 90.448 104.069 89.968 103.557 89.616C103.061 89.264 102.469 89.088 101.781 89.088C101.189 89.088 100.645 89.24 100.149 89.544C99.6689 89.848 99.2849 90.288 98.9969 90.864C98.7249 91.44 98.5889 92.136 98.5889 92.952C98.5889 93.576 98.6689 94.128 98.8289 94.608C98.9889 95.088 99.2129 95.496 99.5009 95.832C99.8049 96.152 100.149 96.4 100.533 96.576C100.917 96.752 101.333 96.84 101.781 96.84C102.245 96.84 102.661 96.768 103.029 96.624C103.413 96.464 103.733 96.232 103.989 95.928C104.261 95.624 104.453 95.264 104.565 94.848H107.589C107.301 96.192 106.645 97.272 105.621 98.088C104.597 98.888 103.325 99.288 101.805 99.288ZM115.434 99C114.618 99 113.906 98.872 113.298 98.616C112.706 98.36 112.242 97.936 111.906 97.344C111.57 96.752 111.402 95.952 111.402 94.944V89.328H109.338V86.904H111.402L111.738 83.712H114.282V86.904H117.57V89.328H114.282V94.944C114.282 95.552 114.41 95.976 114.666 96.216C114.938 96.44 115.386 96.552 116.01 96.552H117.498V99H115.434ZM120.28 99V86.904H122.848L123.112 89.16C123.4 88.632 123.76 88.184 124.192 87.816C124.624 87.432 125.128 87.136 125.704 86.928C126.296 86.72 126.944 86.616 127.648 86.616V89.664H126.64C126.16 89.664 125.704 89.728 125.272 89.856C124.84 89.968 124.464 90.16 124.144 90.432C123.84 90.688 123.6 91.048 123.424 91.512C123.248 91.96 123.16 92.528 123.16 93.216V99H120.28ZM129.939 99V86.904H132.819V99H129.939ZM131.379 84.984C130.851 84.984 130.411 84.824 130.059 84.504C129.723 84.168 129.555 83.76 129.555 83.28C129.555 82.784 129.723 82.384 130.059 82.08C130.411 81.76 130.851 81.6 131.379 81.6C131.907 81.6 132.339 81.76 132.675 82.08C133.027 82.384 133.203 82.784 133.203 83.28C133.203 83.76 133.027 84.168 132.675 84.504C132.339 84.824 131.907 84.984 131.379 84.984ZM141.883 99.288C140.699 99.288 139.635 99.024 138.691 98.496C137.763 97.952 137.035 97.208 136.507 96.264C135.995 95.304 135.739 94.216 135.739 93C135.739 91.736 135.995 90.632 136.507 89.688C137.035 88.728 137.763 87.976 138.691 87.432C139.635 86.888 140.707 86.616 141.907 86.616C143.411 86.616 144.675 87.016 145.699 87.816C146.723 88.6 147.379 89.68 147.667 91.056H144.643C144.483 90.448 144.147 89.968 143.635 89.616C143.139 89.264 142.547 89.088 141.859 89.088C141.267 89.088 140.723 89.24 140.227 89.544C139.747 89.848 139.363 90.288 139.075 90.864C138.803 91.44 138.667 92.136 138.667 92.952C138.667 93.576 138.747 94.128 138.907 94.608C139.067 95.088 139.291 95.496 139.579 95.832C139.883 96.152 140.227 96.4 140.611 96.576C140.995 96.752 141.411 96.84 141.859 96.84C142.323 96.84 142.739 96.768 143.107 96.624C143.491 96.464 143.811 96.232 144.067 95.928C144.339 95.624 144.531 95.264 144.643 94.848H147.667C147.379 96.192 146.723 97.272 145.699 98.088C144.675 98.888 143.403 99.288 141.883 99.288ZM154.476 99.288C153.484 99.288 152.66 99.12 152.004 98.784C151.348 98.448 150.86 98 150.54 97.44C150.22 96.88 150.06 96.272 150.06 95.616C150.06 94.848 150.252 94.184 150.636 93.624C151.036 93.064 151.62 92.632 152.388 92.328C153.156 92.008 154.1 91.848 155.22 91.848H158.268C158.268 91.208 158.18 90.68 158.004 90.264C157.828 89.832 157.556 89.512 157.188 89.304C156.82 89.096 156.348 88.992 155.772 88.992C155.116 88.992 154.556 89.144 154.092 89.448C153.628 89.736 153.34 90.184 153.228 90.792H150.396C150.492 89.928 150.78 89.192 151.26 88.584C151.74 87.96 152.372 87.48 153.156 87.144C153.956 86.792 154.828 86.616 155.772 86.616C156.908 86.616 157.876 86.816 158.676 87.216C159.476 87.6 160.084 88.16 160.5 88.896C160.932 89.616 161.148 90.488 161.148 91.512V99H158.7L158.412 97.056C158.252 97.376 158.044 97.672 157.788 97.944C157.548 98.216 157.268 98.456 156.948 98.664C156.628 98.856 156.26 99.008 155.844 99.12C155.444 99.232 154.988 99.288 154.476 99.288ZM155.124 97.008C155.588 97.008 155.996 96.928 156.348 96.768C156.716 96.592 157.028 96.352 157.284 96.048C157.556 95.728 157.764 95.376 157.908 94.992C158.052 94.608 158.148 94.2 158.196 93.768V93.72H155.532C154.972 93.72 154.508 93.792 154.14 93.936C153.772 94.064 153.508 94.256 153.348 94.512C153.188 94.768 153.108 95.064 153.108 95.4C153.108 95.736 153.188 96.024 153.348 96.264C153.508 96.504 153.74 96.688 154.044 96.816C154.348 96.944 154.708 97.008 155.124 97.008ZM164.225 99V81.72H167.105V99H164.225ZM72.4729 130.288C71.2569 130.288 70.1769 130.072 69.2329 129.64C68.2889 129.208 67.5529 128.592 67.0249 127.792C66.4969 126.992 66.2249 126.04 66.2089 124.936H69.2569C69.2569 125.496 69.3849 126 69.6409 126.448C69.9129 126.88 70.2809 127.224 70.7449 127.48C71.2249 127.736 71.8009 127.864 72.4729 127.864C73.0489 127.864 73.5449 127.776 73.9609 127.6C74.3929 127.408 74.7209 127.144 74.9449 126.808C75.1849 126.456 75.3049 126.048 75.3049 125.584C75.3049 125.056 75.1769 124.624 74.9209 124.288C74.6809 123.936 74.3449 123.64 73.9129 123.4C73.4809 123.16 72.9849 122.952 72.4249 122.776C71.8649 122.584 71.2729 122.384 70.6489 122.176C69.3209 121.728 68.3209 121.16 67.6489 120.472C66.9769 119.768 66.6409 118.832 66.6409 117.664C66.6409 116.688 66.8729 115.848 67.3369 115.144C67.8009 114.44 68.4489 113.896 69.2809 113.512C70.1289 113.112 71.1049 112.912 72.2089 112.912C73.3289 112.912 74.3049 113.112 75.1369 113.512C75.9849 113.912 76.6489 114.472 77.1289 115.192C77.6249 115.896 77.8809 116.744 77.8969 117.736H74.8249C74.8089 117.32 74.6969 116.936 74.4889 116.584C74.2809 116.216 73.9769 115.92 73.5769 115.696C73.1929 115.456 72.7209 115.336 72.1609 115.336C71.6809 115.32 71.2489 115.4 70.8649 115.576C70.4969 115.736 70.2009 115.976 69.9769 116.296C69.7689 116.6 69.6649 116.984 69.6649 117.448C69.6649 117.896 69.7609 118.272 69.9529 118.576C70.1609 118.864 70.4569 119.112 70.8409 119.32C71.2249 119.512 71.6729 119.696 72.1849 119.872C72.6969 120.048 73.2569 120.24 73.8649 120.448C74.6969 120.72 75.4489 121.056 76.1209 121.456C76.8089 121.84 77.3529 122.344 77.7529 122.968C78.1529 123.592 78.3529 124.4 78.3529 125.392C78.3529 126.256 78.1289 127.064 77.6809 127.816C77.2329 128.552 76.5769 129.152 75.7129 129.616C74.8489 130.064 73.7689 130.288 72.4729 130.288ZM86.7212 130.288C85.5212 130.288 84.4652 130.032 83.5532 129.52C82.6412 128.992 81.9292 128.256 81.4172 127.312C80.9052 126.368 80.6492 125.28 80.6492 124.048C80.6492 122.768 80.8972 121.648 81.3932 120.688C81.9052 119.728 82.6172 118.976 83.5292 118.432C84.4572 117.888 85.5292 117.616 86.7452 117.616C87.9292 117.616 88.9612 117.88 89.8412 118.408C90.7212 118.936 91.4012 119.648 91.8812 120.544C92.3612 121.424 92.6012 122.416 92.6012 123.52C92.6012 123.68 92.6012 123.856 92.6012 124.048C92.6012 124.24 92.5852 124.44 92.5532 124.648H82.7132V122.8H89.6972C89.6652 121.92 89.3692 121.232 88.8092 120.736C88.2492 120.224 87.5532 119.968 86.7212 119.968C86.1292 119.968 85.5852 120.104 85.0892 120.376C84.5932 120.648 84.2012 121.056 83.9132 121.6C83.6252 122.128 83.4812 122.8 83.4812 123.616V124.312C83.4812 125.064 83.6172 125.712 83.8892 126.256C84.1772 126.8 84.5612 127.216 85.0412 127.504C85.5372 127.776 86.0892 127.912 86.6972 127.912C87.3692 127.912 87.9212 127.768 88.3532 127.48C88.8012 127.192 89.1292 126.808 89.3372 126.328H92.2652C92.0412 127.08 91.6732 127.76 91.1612 128.368C90.6492 128.96 90.0172 129.432 89.2652 129.784C88.5132 130.12 87.6652 130.288 86.7212 130.288ZM95.2603 130V117.904H97.8283L98.0923 120.16C98.3803 119.632 98.7403 119.184 99.1723 118.816C99.6043 118.432 100.108 118.136 100.684 117.928C101.276 117.72 101.924 117.616 102.628 117.616V120.664H101.62C101.14 120.664 100.684 120.728 100.252 120.856C99.8203 120.968 99.4443 121.16 99.1243 121.432C98.8203 121.688 98.5803 122.048 98.4043 122.512C98.2283 122.96 98.1403 123.528 98.1403 124.216V130H95.2603ZM108.111 130L103.647 117.904H106.671L109.863 127.264L113.055 117.904H116.031L111.567 130H108.111ZM118.208 130V117.904H121.088V130H118.208ZM119.648 115.984C119.12 115.984 118.68 115.824 118.328 115.504C117.992 115.168 117.824 114.76 117.824 114.28C117.824 113.784 117.992 113.384 118.328 113.08C118.68 112.76 119.12 112.6 119.648 112.6C120.176 112.6 120.608 112.76 120.944 113.08C121.296 113.384 121.472 113.784 121.472 114.28C121.472 114.76 121.296 115.168 120.944 115.504C120.608 115.824 120.176 115.984 119.648 115.984ZM130.153 130.288C128.969 130.288 127.905 130.024 126.961 129.496C126.033 128.952 125.305 128.208 124.777 127.264C124.265 126.304 124.009 125.216 124.009 124C124.009 122.736 124.265 121.632 124.777 120.688C125.305 119.728 126.033 118.976 126.961 118.432C127.905 117.888 128.977 117.616 130.177 117.616C131.681 117.616 132.945 118.016 133.969 118.816C134.993 119.6 135.649 120.68 135.937 122.056H132.913C132.753 121.448 132.417 120.968 131.905 120.616C131.409 120.264 130.817 120.088 130.129 120.088C129.537 120.088 128.993 120.24 128.497 120.544C128.017 120.848 127.633 121.288 127.345 121.864C127.073 122.44 126.937 123.136 126.937 123.952C126.937 124.576 127.017 125.128 127.177 125.608C127.337 126.088 127.561 126.496 127.849 126.832C128.153 127.152 128.497 127.4 128.881 127.576C129.265 127.752 129.681 127.84 130.129 127.84C130.593 127.84 131.009 127.768 131.377 127.624C131.761 127.464 132.081 127.232 132.337 126.928C132.609 126.624 132.801 126.264 132.913 125.848H135.937C135.649 127.192 134.993 128.272 133.969 129.088C132.945 129.888 131.673 130.288 130.153 130.288ZM144.377 130.288C143.177 130.288 142.121 130.032 141.209 129.52C140.297 128.992 139.585 128.256 139.073 127.312C138.561 126.368 138.305 125.28 138.305 124.048C138.305 122.768 138.553 121.648 139.049 120.688C139.561 119.728 140.273 118.976 141.185 118.432C142.113 117.888 143.185 117.616 144.401 117.616C145.585 117.616 146.617 117.88 147.497 118.408C148.377 118.936 149.057 119.648 149.537 120.544C150.017 121.424 150.257 122.416 150.257 123.52C150.257 123.68 150.257 123.856 150.257 124.048C150.257 124.24 150.241 124.44 150.209 124.648H140.369V122.8H147.353C147.321 121.92 147.025 121.232 146.465 120.736C145.905 120.224 145.209 119.968 144.377 119.968C143.785 119.968 143.241 120.104 142.745 120.376C142.249 120.648 141.857 121.056 141.569 121.6C141.281 122.128 141.137 122.8 141.137 123.616V124.312C141.137 125.064 141.273 125.712 141.545 126.256C141.833 126.8 142.217 127.216 142.697 127.504C143.193 127.776 143.745 127.912 144.353 127.912C145.025 127.912 145.577 127.768 146.009 127.48C146.457 127.192 146.785 126.808 146.993 126.328H149.921C149.697 127.08 149.329 127.76 148.817 128.368C148.305 128.96 147.673 129.432 146.921 129.784C146.169 130.12 145.321 130.288 144.377 130.288ZM157.741 130.288C156.669 130.288 155.733 130.12 154.933 129.784C154.149 129.432 153.525 128.952 153.061 128.344C152.613 127.72 152.349 127.008 152.269 126.208H155.149C155.229 126.544 155.373 126.856 155.581 127.144C155.789 127.416 156.069 127.632 156.421 127.792C156.789 127.952 157.221 128.032 157.717 128.032C158.197 128.032 158.589 127.968 158.893 127.84C159.197 127.696 159.421 127.512 159.565 127.288C159.709 127.064 159.781 126.824 159.781 126.568C159.781 126.184 159.677 125.888 159.469 125.68C159.261 125.472 158.957 125.312 158.557 125.2C158.173 125.072 157.709 124.952 157.165 124.84C156.589 124.728 156.029 124.592 155.485 124.432C154.957 124.256 154.477 124.04 154.045 123.784C153.629 123.528 153.293 123.2 153.037 122.8C152.797 122.4 152.677 121.912 152.677 121.336C152.677 120.632 152.861 120 153.229 119.44C153.613 118.88 154.157 118.44 154.861 118.12C155.581 117.784 156.437 117.616 157.429 117.616C158.837 117.616 159.957 117.944 160.789 118.6C161.637 119.24 162.133 120.144 162.277 121.312H159.541C159.461 120.864 159.237 120.52 158.869 120.28C158.501 120.024 158.013 119.896 157.405 119.896C156.781 119.896 156.301 120.016 155.965 120.256C155.645 120.48 155.485 120.784 155.485 121.168C155.485 121.408 155.581 121.632 155.773 121.84C155.981 122.032 156.277 122.2 156.661 122.344C157.045 122.472 157.517 122.6 158.077 122.728C158.973 122.904 159.765 123.112 160.453 123.352C161.141 123.592 161.685 123.944 162.085 124.408C162.485 124.872 162.685 125.528 162.685 126.376C162.701 127.144 162.501 127.824 162.085 128.416C161.685 129.008 161.117 129.472 160.381 129.808C159.645 130.128 158.765 130.288 157.741 130.288Z" fill="#4D4E4E"/>
<path d="M27.0966 153L24.0566 141.8H25.7686L28.0406 151.128L30.6486 141.8H32.4246L34.9526 151.16L37.2566 141.8H38.9686L35.8806 153H34.0086L31.4966 144.088L28.9206 153H27.0966ZM40.5906 153V144.936H42.1906V153H40.5906ZM41.4066 143.416C41.0973 143.416 40.8413 143.32 40.6386 143.128C40.4466 142.936 40.3506 142.691 40.3506 142.392C40.3506 142.104 40.4466 141.869 40.6386 141.688C40.8413 141.496 41.0973 141.4 41.4066 141.4C41.7053 141.4 41.956 141.496 42.1586 141.688C42.3613 141.869 42.4626 142.104 42.4626 142.392C42.4626 142.691 42.3613 142.936 42.1586 143.128C41.956 143.32 41.7053 143.416 41.4066 143.416ZM44.4786 153V144.936H45.9186L46.0626 146.456C46.244 146.093 46.4786 145.789 46.7666 145.544C47.0546 145.288 47.3906 145.091 47.7746 144.952C48.1693 144.813 48.6173 144.744 49.1186 144.744V146.44H48.5426C48.212 146.44 47.8973 146.483 47.5986 146.568C47.3 146.643 47.0333 146.776 46.7986 146.968C46.5746 147.16 46.3986 147.421 46.2706 147.752C46.1426 148.083 46.0786 148.493 46.0786 148.984V153H44.4786ZM50.7 153V144.936H52.3V153H50.7ZM51.516 143.416C51.2067 143.416 50.9507 143.32 50.748 143.128C50.556 142.936 50.46 142.691 50.46 142.392C50.46 142.104 50.556 141.869 50.748 141.688C50.9507 141.496 51.2067 141.4 51.516 141.4C51.8147 141.4 52.0653 141.496 52.268 141.688C52.4707 141.869 52.572 142.104 52.572 142.392C52.572 142.691 52.4707 142.936 52.268 143.128C52.0653 143.32 51.8147 143.416 51.516 143.416ZM54.588 153V144.936H56.028L56.124 146.312C56.38 145.832 56.7427 145.453 57.212 145.176C57.6813 144.888 58.22 144.744 58.828 144.744C59.468 144.744 60.0173 144.872 60.476 145.128C60.9347 145.384 61.292 145.773 61.548 146.296C61.804 146.808 61.932 147.453 61.932 148.232V153H60.332V148.392C60.332 147.645 60.1667 147.08 59.836 146.696C59.5053 146.312 59.0253 146.12 58.396 146.12C57.98 146.12 57.6067 146.221 57.276 146.424C56.9453 146.616 56.6787 146.904 56.476 147.288C56.284 147.672 56.188 148.141 56.188 148.696V153H54.588ZM67.2586 156.712C66.5226 156.712 65.872 156.616 65.3066 156.424C64.7413 156.243 64.304 155.96 63.9946 155.576C63.6853 155.192 63.5306 154.723 63.5306 154.168C63.5306 153.88 63.5946 153.587 63.7226 153.288C63.8506 153 64.0586 152.723 64.3466 152.456C64.6346 152.189 65.024 151.949 65.5146 151.736L66.4106 152.456C65.8666 152.659 65.4986 152.899 65.3066 153.176C65.1253 153.464 65.0346 153.741 65.0346 154.008C65.0346 154.328 65.1306 154.595 65.3226 154.808C65.5146 155.021 65.776 155.181 66.1066 155.288C66.448 155.395 66.832 155.448 67.2586 155.448C67.6746 155.448 68.0373 155.389 68.3466 155.272C68.656 155.155 68.896 154.989 69.0666 154.776C69.2373 154.563 69.3226 154.312 69.3226 154.024C69.3226 153.683 69.1946 153.395 68.9386 153.16C68.6826 152.936 68.192 152.803 67.4666 152.76C66.8586 152.717 66.3413 152.659 65.9146 152.584C65.4986 152.509 65.1413 152.419 64.8426 152.312C64.5546 152.205 64.3093 152.088 64.1066 151.96C63.9146 151.832 63.7493 151.699 63.6106 151.56V151.192L65.2106 149.544L66.5066 149.992L64.7626 151.608L65.0986 150.888C65.216 150.963 65.328 151.037 65.4346 151.112C65.5413 151.176 65.6853 151.235 65.8666 151.288C66.048 151.341 66.2933 151.389 66.6026 151.432C66.912 151.475 67.3173 151.517 67.8186 151.56C68.544 151.613 69.1253 151.741 69.5626 151.944C70.0106 152.147 70.336 152.419 70.5386 152.76C70.7413 153.101 70.8426 153.507 70.8426 153.976C70.8426 154.435 70.7146 154.872 70.4586 155.288C70.2133 155.704 69.824 156.045 69.2906 156.312C68.768 156.579 68.0906 156.712 67.2586 156.712ZM67.2586 150.52C66.576 150.52 65.9946 150.392 65.5146 150.136C65.0453 149.88 64.6826 149.533 64.4266 149.096C64.1813 148.659 64.0586 148.173 64.0586 147.64C64.0586 147.096 64.1813 146.611 64.4266 146.184C64.6826 145.747 65.0506 145.4 65.5306 145.144C66.0106 144.877 66.5866 144.744 67.2586 144.744C67.9306 144.744 68.5013 144.877 68.9706 145.144C69.4506 145.4 69.8133 145.747 70.0586 146.184C70.3146 146.611 70.4426 147.096 70.4426 147.64C70.4426 148.173 70.3146 148.659 70.0586 149.096C69.8133 149.533 69.4506 149.88 68.9706 150.136C68.5013 150.392 67.9306 150.52 67.2586 150.52ZM67.2586 149.24C67.7813 149.24 68.1973 149.107 68.5066 148.84C68.816 148.563 68.9706 148.163 68.9706 147.64C68.9706 147.117 68.816 146.723 68.5066 146.456C68.1973 146.179 67.7813 146.04 67.2586 146.04C66.736 146.04 66.3146 146.179 65.9946 146.456C65.6746 146.723 65.5146 147.117 65.5146 147.64C65.5146 148.163 65.6746 148.563 65.9946 148.84C66.3146 149.107 66.736 149.24 67.2586 149.24ZM68.5706 146.2L68.1866 144.936H71.4986V146.04L68.5706 146.2ZM72.1756 154.968L73.0876 151.272H74.7036L73.2476 154.968H72.1756ZM83.1038 153.192C82.4424 153.192 81.8931 153.08 81.4557 152.856C81.0184 152.632 80.6931 152.333 80.4798 151.96C80.2664 151.576 80.1598 151.165 80.1598 150.728C80.1598 150.195 80.2984 149.741 80.5758 149.368C80.8531 148.984 81.2478 148.691 81.7598 148.488C82.2718 148.285 82.8851 148.184 83.5998 148.184H85.6958C85.6958 147.715 85.6264 147.325 85.4878 147.016C85.3491 146.707 85.1411 146.477 84.8638 146.328C84.5971 146.168 84.2558 146.088 83.8398 146.088C83.3598 146.088 82.9491 146.205 82.6078 146.44C82.2664 146.664 82.0531 147 81.9678 147.448H80.3678C80.4318 146.883 80.6238 146.403 80.9438 146.008C81.2744 145.603 81.6958 145.293 82.2078 145.08C82.7198 144.856 83.2638 144.744 83.8398 144.744C84.5971 144.744 85.2318 144.877 85.7438 145.144C86.2558 145.411 86.6398 145.789 86.8958 146.28C87.1624 146.76 87.2958 147.336 87.2958 148.008V153H85.9038L85.7758 151.64C85.6584 151.853 85.5198 152.056 85.3598 152.248C85.1998 152.44 85.0078 152.605 84.7838 152.744C84.5704 152.883 84.3198 152.989 84.0318 153.064C83.7544 153.149 83.4451 153.192 83.1038 153.192ZM83.4078 151.896C83.7491 151.896 84.0584 151.827 84.3358 151.688C84.6131 151.549 84.8478 151.363 85.0398 151.128C85.2424 150.883 85.3918 150.611 85.4878 150.312C85.5944 150.003 85.6531 149.688 85.6638 149.368V149.32H83.7598C83.3011 149.32 82.9278 149.379 82.6398 149.496C82.3624 149.603 82.1598 149.752 82.0318 149.944C81.9038 150.136 81.8398 150.36 81.8398 150.616C81.8398 150.883 81.8984 151.112 82.0158 151.304C82.1438 151.485 82.3251 151.629 82.5598 151.736C82.7944 151.843 83.0771 151.896 83.4078 151.896ZM89.338 156.52V144.936H90.778L90.938 146.184C91.1087 145.939 91.322 145.709 91.578 145.496C91.834 145.272 92.138 145.091 92.49 144.952C92.8527 144.813 93.274 144.744 93.754 144.744C94.522 144.744 95.194 144.931 95.77 145.304C96.3567 145.677 96.81 146.184 97.13 146.824C97.4607 147.453 97.626 148.173 97.626 148.984C97.626 149.795 97.4607 150.52 97.13 151.16C96.7993 151.789 96.3407 152.285 95.754 152.648C95.178 153.011 94.506 153.192 93.738 153.192C93.1087 153.192 92.554 153.069 92.074 152.824C91.594 152.568 91.2153 152.216 90.938 151.768V156.52H89.338ZM93.482 151.8C93.9727 151.8 94.4047 151.683 94.778 151.448C95.162 151.213 95.4607 150.883 95.674 150.456C95.898 150.029 96.01 149.533 96.01 148.968C96.01 148.403 95.898 147.912 95.674 147.496C95.4607 147.069 95.162 146.739 94.778 146.504C94.4047 146.259 93.9727 146.136 93.482 146.136C92.9807 146.136 92.538 146.259 92.154 146.504C91.7807 146.739 91.4873 147.069 91.274 147.496C91.0607 147.912 90.954 148.403 90.954 148.968C90.954 149.533 91.0607 150.029 91.274 150.456C91.4873 150.883 91.7807 151.213 92.154 151.448C92.538 151.683 92.9807 151.8 93.482 151.8ZM99.4943 156.52V144.936H100.934L101.094 146.184C101.265 145.939 101.478 145.709 101.734 145.496C101.99 145.272 102.294 145.091 102.646 144.952C103.009 144.813 103.43 144.744 103.91 144.744C104.678 144.744 105.35 144.931 105.926 145.304C106.513 145.677 106.966 146.184 107.286 146.824C107.617 147.453 107.782 148.173 107.782 148.984C107.782 149.795 107.617 150.52 107.286 151.16C106.956 151.789 106.497 152.285 105.91 152.648C105.334 153.011 104.662 153.192 103.894 153.192C103.265 153.192 102.71 153.069 102.23 152.824C101.75 152.568 101.372 152.216 101.094 151.768V156.52H99.4943ZM103.638 151.8C104.129 151.8 104.561 151.683 104.934 151.448C105.318 151.213 105.617 150.883 105.83 150.456C106.054 150.029 106.166 149.533 106.166 148.968C106.166 148.403 106.054 147.912 105.83 147.496C105.617 147.069 105.318 146.739 104.934 146.504C104.561 146.259 104.129 146.136 103.638 146.136C103.137 146.136 102.694 146.259 102.31 146.504C101.937 146.739 101.644 147.069 101.43 147.496C101.217 147.912 101.11 148.403 101.11 148.968C101.11 149.533 101.217 150.029 101.43 150.456C101.644 150.883 101.937 151.213 102.31 151.448C102.694 151.683 103.137 151.8 103.638 151.8ZM109.651 153V141.48H111.251V153H109.651ZM113.559 153V144.936H115.159V153H113.559ZM114.375 143.416C114.066 143.416 113.81 143.32 113.607 143.128C113.415 142.936 113.319 142.691 113.319 142.392C113.319 142.104 113.415 141.869 113.607 141.688C113.81 141.496 114.066 141.4 114.375 141.4C114.674 141.4 114.925 141.496 115.127 141.688C115.33 141.869 115.431 142.104 115.431 142.392C115.431 142.691 115.33 142.936 115.127 143.128C114.925 143.32 114.674 143.416 114.375 143.416ZM120.119 153.192C119.458 153.192 118.909 153.08 118.471 152.856C118.034 152.632 117.709 152.333 117.495 151.96C117.282 151.576 117.175 151.165 117.175 150.728C117.175 150.195 117.314 149.741 117.591 149.368C117.869 148.984 118.263 148.691 118.775 148.488C119.287 148.285 119.901 148.184 120.615 148.184H122.711C122.711 147.715 122.642 147.325 122.503 147.016C122.365 146.707 122.157 146.477 121.879 146.328C121.613 146.168 121.271 146.088 120.855 146.088C120.375 146.088 119.965 146.205 119.623 146.44C119.282 146.664 119.069 147 118.983 147.448H117.383C117.447 146.883 117.639 146.403 117.959 146.008C118.29 145.603 118.711 145.293 119.223 145.08C119.735 144.856 120.279 144.744 120.855 144.744C121.613 144.744 122.247 144.877 122.759 145.144C123.271 145.411 123.655 145.789 123.911 146.28C124.178 146.76 124.311 147.336 124.311 148.008V153H122.919L122.791 151.64C122.674 151.853 122.535 152.056 122.375 152.248C122.215 152.44 122.023 152.605 121.799 152.744C121.586 152.883 121.335 152.989 121.047 153.064C120.77 153.149 120.461 153.192 120.119 153.192ZM120.423 151.896C120.765 151.896 121.074 151.827 121.351 151.688C121.629 151.549 121.863 151.363 122.055 151.128C122.258 150.883 122.407 150.611 122.503 150.312C122.61 150.003 122.669 149.688 122.679 149.368V149.32H120.775C120.317 149.32 119.943 149.379 119.655 149.496C119.378 149.603 119.175 149.752 119.047 149.944C118.919 150.136 118.855 150.36 118.855 150.616C118.855 150.883 118.914 151.112 119.031 151.304C119.159 151.485 119.341 151.629 119.575 151.736C119.81 151.843 120.093 151.896 120.423 151.896ZM126.354 153V144.936H127.794L127.89 146.312C128.146 145.832 128.508 145.453 128.978 145.176C129.447 144.888 129.986 144.744 130.594 144.744C131.234 144.744 131.783 144.872 132.242 145.128C132.7 145.384 133.058 145.773 133.314 146.296C133.57 146.808 133.698 147.453 133.698 148.232V153H132.098V148.392C132.098 147.645 131.932 147.08 131.602 146.696C131.271 146.312 130.791 146.12 130.162 146.12C129.746 146.12 129.372 146.221 129.042 146.424C128.711 146.616 128.444 146.904 128.242 147.288C128.05 147.672 127.954 148.141 127.954 148.696V153H126.354ZM139.472 153.192C138.694 153.192 138 153.016 137.392 152.664C136.784 152.301 136.304 151.805 135.952 151.176C135.611 150.547 135.44 149.816 135.44 148.984C135.44 148.141 135.611 147.405 135.952 146.776C136.304 146.136 136.784 145.64 137.392 145.288C138 144.925 138.694 144.744 139.472 144.744C140.454 144.744 141.275 145 141.936 145.512C142.598 146.024 143.019 146.717 143.2 147.592H141.536C141.43 147.123 141.184 146.76 140.8 146.504C140.427 146.248 139.979 146.12 139.456 146.12C139.03 146.12 138.635 146.232 138.272 146.456C137.91 146.669 137.616 146.989 137.392 147.416C137.179 147.832 137.072 148.349 137.072 148.968C137.072 149.427 137.136 149.837 137.264 150.2C137.392 150.552 137.563 150.851 137.776 151.096C138 151.341 138.256 151.528 138.544 151.656C138.832 151.773 139.136 151.832 139.456 151.832C139.808 151.832 140.123 151.779 140.4 151.672C140.688 151.555 140.928 151.384 141.12 151.16C141.323 150.936 141.462 150.669 141.536 150.36H143.2C143.019 151.213 142.598 151.901 141.936 152.424C141.275 152.936 140.454 153.192 139.472 153.192ZM148.72 153.192C147.952 153.192 147.27 153.016 146.672 152.664C146.075 152.312 145.606 151.821 145.264 151.192C144.934 150.563 144.768 149.832 144.768 149C144.768 148.147 144.934 147.405 145.264 146.776C145.606 146.136 146.075 145.64 146.672 145.288C147.27 144.925 147.963 144.744 148.752 144.744C149.542 144.744 150.219 144.92 150.784 145.272C151.35 145.624 151.787 146.093 152.096 146.68C152.406 147.256 152.56 147.896 152.56 148.6C152.56 148.707 152.555 148.824 152.544 148.952C152.544 149.069 152.539 149.203 152.528 149.352H145.936V148.216H150.96C150.928 147.544 150.704 147.021 150.288 146.648C149.872 146.264 149.355 146.072 148.736 146.072C148.299 146.072 147.899 146.173 147.536 146.376C147.174 146.568 146.88 146.856 146.656 147.24C146.443 147.613 146.336 148.088 146.336 148.664V149.112C146.336 149.709 146.443 150.216 146.656 150.632C146.88 151.037 147.174 151.347 147.536 151.56C147.899 151.763 148.294 151.864 148.72 151.864C149.232 151.864 149.654 151.752 149.984 151.528C150.315 151.304 150.56 151 150.72 150.616H152.32C152.182 151.107 151.947 151.549 151.616 151.944C151.286 152.328 150.875 152.632 150.384 152.856C149.904 153.08 149.35 153.192 148.72 153.192ZM158.432 153V144.936H159.872L160.016 146.456C160.197 146.093 160.432 145.789 160.72 145.544C161.008 145.288 161.344 145.091 161.728 144.952C162.122 144.813 162.57 144.744 163.072 144.744V146.44H162.496C162.165 146.44 161.85 146.483 161.552 146.568C161.253 146.643 160.986 146.776 160.752 146.968C160.528 147.16 160.352 147.421 160.224 147.752C160.096 148.083 160.032 148.493 160.032 148.984V153H158.432ZM167.955 153.192C167.187 153.192 166.504 153.016 165.907 152.664C165.309 152.312 164.84 151.821 164.499 151.192C164.168 150.563 164.003 149.832 164.003 149C164.003 148.147 164.168 147.405 164.499 146.776C164.84 146.136 165.309 145.64 165.907 145.288C166.504 144.925 167.197 144.744 167.987 144.744C168.776 144.744 169.453 144.92 170.019 145.272C170.584 145.624 171.021 146.093 171.331 146.68C171.64 147.256 171.795 147.896 171.795 148.6C171.795 148.707 171.789 148.824 171.779 148.952C171.779 149.069 171.773 149.203 171.763 149.352H165.171V148.216H170.195C170.163 147.544 169.939 147.021 169.523 146.648C169.107 146.264 168.589 146.072 167.971 146.072C167.533 146.072 167.133 146.173 166.771 146.376C166.408 146.568 166.115 146.856 165.891 147.24C165.677 147.613 165.571 148.088 165.571 148.664V149.112C165.571 149.709 165.677 150.216 165.891 150.632C166.115 151.037 166.408 151.347 166.771 151.56C167.133 151.763 167.528 151.864 167.955 151.864C168.467 151.864 168.888 151.752 169.219 151.528C169.549 151.304 169.795 151 169.955 150.616H171.555C171.416 151.107 171.181 151.549 170.851 151.944C170.52 152.328 170.109 152.632 169.619 152.856C169.139 153.08 168.584 153.192 167.955 153.192ZM173.572 156.52V144.936H175.012L175.172 146.184C175.343 145.939 175.556 145.709 175.812 145.496C176.068 145.272 176.372 145.091 176.724 144.952C177.087 144.813 177.508 144.744 177.988 144.744C178.756 144.744 179.428 144.931 180.004 145.304C180.591 145.677 181.044 146.184 181.364 146.824C181.695 147.453 181.86 148.173 181.86 148.984C181.86 149.795 181.695 150.52 181.364 151.16C181.034 151.789 180.575 152.285 179.988 152.648C179.412 153.011 178.74 153.192 177.972 153.192C177.343 153.192 176.788 153.069 176.308 152.824C175.828 152.568 175.45 152.216 175.172 151.768V156.52H173.572ZM177.716 151.8C178.207 151.8 178.639 151.683 179.012 151.448C179.396 151.213 179.695 150.883 179.908 150.456C180.132 150.029 180.244 149.533 180.244 148.968C180.244 148.403 180.132 147.912 179.908 147.496C179.695 147.069 179.396 146.739 179.012 146.504C178.639 146.259 178.207 146.136 177.716 146.136C177.215 146.136 176.772 146.259 176.388 146.504C176.015 146.739 175.722 147.069 175.508 147.496C175.295 147.912 175.188 148.403 175.188 148.968C175.188 149.533 175.295 150.029 175.508 150.456C175.722 150.883 176.015 151.213 176.388 151.448C176.772 151.683 177.215 151.8 177.716 151.8ZM186.401 153.192C185.739 153.192 185.19 153.08 184.753 152.856C184.315 152.632 183.99 152.333 183.777 151.96C183.563 151.576 183.457 151.165 183.457 150.728C183.457 150.195 183.595 149.741 183.873 149.368C184.15 148.984 184.545 148.691 185.057 148.488C185.569 148.285 186.182 148.184 186.897 148.184H188.993C188.993 147.715 188.923 147.325 188.785 147.016C188.646 146.707 188.438 146.477 188.161 146.328C187.894 146.168 187.553 146.088 187.137 146.088C186.657 146.088 186.246 146.205 185.905 146.44C185.563 146.664 185.35 147 185.265 147.448H183.665C183.729 146.883 183.921 146.403 184.241 146.008C184.571 145.603 184.993 145.293 185.505 145.08C186.017 144.856 186.561 144.744 187.137 144.744C187.894 144.744 188.529 144.877 189.041 145.144C189.553 145.411 189.937 145.789 190.193 146.28C190.459 146.76 190.593 147.336 190.593 148.008V153H189.201L189.073 151.64C188.955 151.853 188.817 152.056 188.657 152.248C188.497 152.44 188.305 152.605 188.081 152.744C187.867 152.883 187.617 152.989 187.329 153.064C187.051 153.149 186.742 153.192 186.401 153.192ZM186.705 151.896C187.046 151.896 187.355 151.827 187.633 151.688C187.91 151.549 188.145 151.363 188.337 151.128C188.539 150.883 188.689 150.611 188.785 150.312C188.891 150.003 188.95 149.688 188.961 149.368V149.32H187.057C186.598 149.32 186.225 149.379 185.937 149.496C185.659 149.603 185.457 149.752 185.329 149.944C185.201 150.136 185.137 150.36 185.137 150.616C185.137 150.883 185.195 151.112 185.313 151.304C185.441 151.485 185.622 151.629 185.857 151.736C186.091 151.843 186.374 151.896 186.705 151.896ZM192.747 153V144.936H194.347V153H192.747ZM193.563 143.416C193.254 143.416 192.998 143.32 192.795 143.128C192.603 142.936 192.507 142.691 192.507 142.392C192.507 142.104 192.603 141.869 192.795 141.688C192.998 141.496 193.254 141.4 193.563 141.4C193.862 141.4 194.112 141.496 194.315 141.688C194.518 141.869 194.619 142.104 194.619 142.392C194.619 142.691 194.518 142.936 194.315 143.128C194.112 143.32 193.862 143.416 193.563 143.416ZM196.635 153V144.936H198.075L198.219 146.456C198.4 146.093 198.635 145.789 198.923 145.544C199.211 145.288 199.547 145.091 199.931 144.952C200.326 144.813 200.774 144.744 201.275 144.744V146.44H200.699C200.368 146.44 200.054 146.483 199.755 146.568C199.456 146.643 199.19 146.776 198.955 146.968C198.731 147.16 198.555 147.421 198.427 147.752C198.299 148.083 198.235 148.493 198.235 148.984V153H196.635ZM201.285 154.968L202.197 151.272H203.813L202.357 154.968H201.285ZM73.6763 174V164.848C73.6763 164.293 73.7669 163.84 73.9483 163.488C74.1403 163.136 74.4176 162.88 74.7803 162.72C75.1429 162.56 75.5803 162.48 76.0923 162.48H77.0363V163.84H76.3483C75.9643 163.84 75.6869 163.92 75.5163 164.08C75.3563 164.229 75.2763 164.496 75.2763 164.88V174H73.6763ZM72.4923 167.296V165.936H77.2123V167.296H72.4923ZM81.798 174.192C81.1687 174.192 80.6193 174.064 80.15 173.808C79.6913 173.552 79.334 173.168 79.078 172.656C78.8327 172.144 78.71 171.499 78.71 170.72V165.936H80.31V170.544C80.31 171.301 80.4753 171.872 80.806 172.256C81.1367 172.64 81.6113 172.832 82.23 172.832C82.646 172.832 83.0193 172.731 83.35 172.528C83.6913 172.325 83.958 172.032 84.15 171.648C84.342 171.264 84.438 170.795 84.438 170.24V165.936H86.038V174H84.614L84.502 172.624C84.2567 173.115 83.8993 173.499 83.43 173.776C82.9607 174.053 82.4167 174.192 81.798 174.192ZM91.3486 174.192C90.666 174.192 90.0686 174.08 89.5566 173.856C89.0446 173.632 88.6393 173.317 88.3406 172.912C88.042 172.507 87.8606 172.032 87.7966 171.488H89.4286C89.482 171.744 89.5833 171.979 89.7326 172.192C89.8926 172.405 90.106 172.576 90.3726 172.704C90.65 172.832 90.9753 172.896 91.3486 172.896C91.7006 172.896 91.9886 172.848 92.2126 172.752C92.4473 172.645 92.618 172.507 92.7246 172.336C92.8313 172.155 92.8846 171.963 92.8846 171.76C92.8846 171.461 92.81 171.237 92.6606 171.088C92.522 170.928 92.3086 170.805 92.0206 170.72C91.7433 170.624 91.4073 170.539 91.0126 170.464C90.6393 170.4 90.2766 170.315 89.9246 170.208C89.5833 170.091 89.274 169.947 88.9966 169.776C88.73 169.605 88.5166 169.392 88.3566 169.136C88.1966 168.869 88.1166 168.544 88.1166 168.16C88.1166 167.701 88.2393 167.291 88.4846 166.928C88.73 166.555 89.0766 166.267 89.5246 166.064C89.9833 165.851 90.522 165.744 91.1406 165.744C92.0366 165.744 92.7566 165.957 93.3006 166.384C93.8446 166.811 94.1646 167.413 94.2606 168.192H92.7086C92.666 167.829 92.506 167.552 92.2286 167.36C91.9513 167.157 91.5833 167.056 91.1246 167.056C90.666 167.056 90.314 167.147 90.0686 167.328C89.8233 167.509 89.7006 167.749 89.7006 168.048C89.7006 168.24 89.77 168.411 89.9086 168.56C90.0473 168.709 90.25 168.837 90.5166 168.944C90.794 169.04 91.13 169.131 91.5246 169.216C92.09 169.323 92.5966 169.456 93.0446 169.616C93.4926 169.776 93.85 170.011 94.1166 170.32C94.3833 170.629 94.5166 171.072 94.5166 171.648C94.5273 172.149 94.3993 172.592 94.1326 172.976C93.8766 173.36 93.5086 173.659 93.0286 173.872C92.5593 174.085 91.9993 174.192 91.3486 174.192ZM100.049 174.192C99.2805 174.192 98.5978 174.016 98.0005 173.664C97.4032 173.312 96.9338 172.821 96.5925 172.192C96.2618 171.563 96.0965 170.832 96.0965 170C96.0965 169.147 96.2618 168.405 96.5925 167.776C96.9338 167.136 97.4032 166.64 98.0005 166.288C98.5978 165.925 99.2912 165.744 100.081 165.744C100.87 165.744 101.547 165.92 102.113 166.272C102.678 166.624 103.115 167.093 103.425 167.68C103.734 168.256 103.889 168.896 103.889 169.6C103.889 169.707 103.883 169.824 103.873 169.952C103.873 170.069 103.867 170.203 103.857 170.352H97.2645V169.216H102.289C102.257 168.544 102.033 168.021 101.617 167.648C101.201 167.264 100.683 167.072 100.065 167.072C99.6272 167.072 99.2272 167.173 98.8645 167.376C98.5018 167.568 98.2085 167.856 97.9845 168.24C97.7712 168.613 97.6645 169.088 97.6645 169.664V170.112C97.6645 170.709 97.7712 171.216 97.9845 171.632C98.2085 172.037 98.5018 172.347 98.8645 172.56C99.2272 172.763 99.6218 172.864 100.049 172.864C100.561 172.864 100.982 172.752 101.313 172.528C101.643 172.304 101.889 172 102.049 171.616H103.649C103.51 172.107 103.275 172.549 102.945 172.944C102.614 173.328 102.203 173.632 101.713 173.856C101.233 174.08 100.678 174.192 100.049 174.192ZM109.872 174V165.936H111.472V174H109.872ZM110.688 164.416C110.379 164.416 110.123 164.32 109.92 164.128C109.728 163.936 109.632 163.691 109.632 163.392C109.632 163.104 109.728 162.869 109.92 162.688C110.123 162.496 110.379 162.4 110.688 162.4C110.987 162.4 111.237 162.496 111.44 162.688C111.643 162.869 111.744 163.104 111.744 163.392C111.744 163.691 111.643 163.936 111.44 164.128C111.237 164.32 110.987 164.416 110.688 164.416ZM116.88 174.192C116.197 174.192 115.6 174.08 115.088 173.856C114.576 173.632 114.171 173.317 113.872 172.912C113.573 172.507 113.392 172.032 113.328 171.488H114.96C115.013 171.744 115.115 171.979 115.264 172.192C115.424 172.405 115.637 172.576 115.904 172.704C116.181 172.832 116.507 172.896 116.88 172.896C117.232 172.896 117.52 172.848 117.744 172.752C117.979 172.645 118.149 172.507 118.256 172.336C118.363 172.155 118.416 171.963 118.416 171.76C118.416 171.461 118.341 171.237 118.192 171.088C118.053 170.928 117.84 170.805 117.552 170.72C117.275 170.624 116.939 170.539 116.544 170.464C116.171 170.4 115.808 170.315 115.456 170.208C115.115 170.091 114.805 169.947 114.528 169.776C114.261 169.605 114.048 169.392 113.888 169.136C113.728 168.869 113.648 168.544 113.648 168.16C113.648 167.701 113.771 167.291 114.016 166.928C114.261 166.555 114.608 166.267 115.056 166.064C115.515 165.851 116.053 165.744 116.672 165.744C117.568 165.744 118.288 165.957 118.832 166.384C119.376 166.811 119.696 167.413 119.792 168.192H118.24C118.197 167.829 118.037 167.552 117.76 167.36C117.483 167.157 117.115 167.056 116.656 167.056C116.197 167.056 115.845 167.147 115.6 167.328C115.355 167.509 115.232 167.749 115.232 168.048C115.232 168.24 115.301 168.411 115.44 168.56C115.579 168.709 115.781 168.837 116.048 168.944C116.325 169.04 116.661 169.131 117.056 169.216C117.621 169.323 118.128 169.456 118.576 169.616C119.024 169.776 119.381 170.011 119.648 170.32C119.915 170.629 120.048 171.072 120.048 171.648C120.059 172.149 119.931 172.592 119.664 172.976C119.408 173.36 119.04 173.659 118.56 173.872C118.091 174.085 117.531 174.192 116.88 174.192ZM125.052 174.192C124.369 174.192 123.772 174.08 123.26 173.856C122.748 173.632 122.342 173.317 122.044 172.912C121.745 172.507 121.564 172.032 121.5 171.488H123.132C123.185 171.744 123.286 171.979 123.436 172.192C123.596 172.405 123.809 172.576 124.076 172.704C124.353 172.832 124.678 172.896 125.052 172.896C125.404 172.896 125.692 172.848 125.916 172.752C126.15 172.645 126.321 172.507 126.428 172.336C126.534 172.155 126.588 171.963 126.588 171.76C126.588 171.461 126.513 171.237 126.364 171.088C126.225 170.928 126.012 170.805 125.724 170.72C125.446 170.624 125.11 170.539 124.716 170.464C124.342 170.4 123.98 170.315 123.628 170.208C123.286 170.091 122.977 169.947 122.7 169.776C122.433 169.605 122.22 169.392 122.06 169.136C121.9 168.869 121.82 168.544 121.82 168.16C121.82 167.701 121.942 167.291 122.188 166.928C122.433 166.555 122.78 166.267 123.228 166.064C123.686 165.851 124.225 165.744 124.844 165.744C125.74 165.744 126.46 165.957 127.004 166.384C127.548 166.811 127.868 167.413 127.964 168.192H126.412C126.369 167.829 126.209 167.552 125.932 167.36C125.654 167.157 125.286 167.056 124.828 167.056C124.369 167.056 124.017 167.147 123.772 167.328C123.526 167.509 123.404 167.749 123.404 168.048C123.404 168.24 123.473 168.411 123.612 168.56C123.75 168.709 123.953 168.837 124.22 168.944C124.497 169.04 124.833 169.131 125.228 169.216C125.793 169.323 126.3 169.456 126.748 169.616C127.196 169.776 127.553 170.011 127.82 170.32C128.086 170.629 128.22 171.072 128.22 171.648C128.23 172.149 128.102 172.592 127.836 172.976C127.58 173.36 127.212 173.659 126.732 173.872C126.262 174.085 125.702 174.192 125.052 174.192ZM133.064 174.192C132.434 174.192 131.885 174.064 131.416 173.808C130.957 173.552 130.6 173.168 130.344 172.656C130.098 172.144 129.976 171.499 129.976 170.72V165.936H131.576V170.544C131.576 171.301 131.741 171.872 132.072 172.256C132.402 172.64 132.877 172.832 133.496 172.832C133.912 172.832 134.285 172.731 134.616 172.528C134.957 172.325 135.224 172.032 135.416 171.648C135.608 171.264 135.704 170.795 135.704 170.24V165.936H137.304V174H135.88L135.768 172.624C135.522 173.115 135.165 173.499 134.696 173.776C134.226 174.053 133.682 174.192 133.064 174.192ZM143.142 174.192C142.374 174.192 141.692 174.016 141.094 173.664C140.497 173.312 140.028 172.821 139.686 172.192C139.356 171.563 139.19 170.832 139.19 170C139.19 169.147 139.356 168.405 139.686 167.776C140.028 167.136 140.497 166.64 141.094 166.288C141.692 165.925 142.385 165.744 143.174 165.744C143.964 165.744 144.641 165.92 145.206 166.272C145.772 166.624 146.209 167.093 146.518 167.68C146.828 168.256 146.982 168.896 146.982 169.6C146.982 169.707 146.977 169.824 146.966 169.952C146.966 170.069 146.961 170.203 146.95 170.352H140.358V169.216H145.382C145.35 168.544 145.126 168.021 144.71 167.648C144.294 167.264 143.777 167.072 143.158 167.072C142.721 167.072 142.321 167.173 141.958 167.376C141.596 167.568 141.302 167.856 141.078 168.24C140.865 168.613 140.758 169.088 140.758 169.664V170.112C140.758 170.709 140.865 171.216 141.078 171.632C141.302 172.037 141.596 172.347 141.958 172.56C142.321 172.763 142.716 172.864 143.142 172.864C143.654 172.864 144.076 172.752 144.406 172.528C144.737 172.304 144.982 172 145.142 171.616H146.742C146.604 172.107 146.369 172.549 146.038 172.944C145.708 173.328 145.297 173.632 144.806 173.856C144.326 174.08 143.772 174.192 143.142 174.192ZM151.88 174.192C151.197 174.192 150.6 174.08 150.088 173.856C149.576 173.632 149.171 173.317 148.872 172.912C148.573 172.507 148.392 172.032 148.328 171.488H149.96C150.013 171.744 150.115 171.979 150.264 172.192C150.424 172.405 150.637 172.576 150.904 172.704C151.181 172.832 151.507 172.896 151.88 172.896C152.232 172.896 152.52 172.848 152.744 172.752C152.979 172.645 153.149 172.507 153.256 172.336C153.363 172.155 153.416 171.963 153.416 171.76C153.416 171.461 153.341 171.237 153.192 171.088C153.053 170.928 152.84 170.805 152.552 170.72C152.275 170.624 151.939 170.539 151.544 170.464C151.171 170.4 150.808 170.315 150.456 170.208C150.115 170.091 149.805 169.947 149.528 169.776C149.261 169.605 149.048 169.392 148.888 169.136C148.728 168.869 148.648 168.544 148.648 168.16C148.648 167.701 148.771 167.291 149.016 166.928C149.261 166.555 149.608 166.267 150.056 166.064C150.515 165.851 151.053 165.744 151.672 165.744C152.568 165.744 153.288 165.957 153.832 166.384C154.376 166.811 154.696 167.413 154.792 168.192H153.24C153.197 167.829 153.037 167.552 152.76 167.36C152.483 167.157 152.115 167.056 151.656 167.056C151.197 167.056 150.845 167.147 150.6 167.328C150.355 167.509 150.232 167.749 150.232 168.048C150.232 168.24 150.301 168.411 150.44 168.56C150.579 168.709 150.781 168.837 151.048 168.944C151.325 169.04 151.661 169.131 152.056 169.216C152.621 169.323 153.128 169.456 153.576 169.616C154.024 169.776 154.381 170.011 154.648 170.32C154.915 170.629 155.048 171.072 155.048 171.648C155.059 172.149 154.931 172.592 154.664 172.976C154.408 173.36 154.04 173.659 153.56 173.872C153.091 174.085 152.531 174.192 151.88 174.192Z" fill="#919292"/>
</svg>
