<svg width="32" height="32" viewBox="0 0 32 32" fill="none" xmlns="http://www.w3.org/2000/svg">
<path d="M16.0002 4.33331C16.2654 4.33331 16.5197 4.43867 16.7073 4.62621C16.8948 4.81374 17.0002 5.0681 17.0002 5.33331C17.0002 5.59853 16.8948 5.85288 16.7073 6.04042C16.5197 6.22796 16.2654 6.33331 16.0002 6.33331C13.4364 6.33331 10.9776 7.35176 9.1648 9.16461C7.35195 10.9775 6.3335 13.4362 6.3335 16C6.3335 18.5637 7.35195 21.0225 9.1648 22.8353C10.9776 24.6482 13.4364 25.6666 16.0002 25.6666C16.2654 25.6666 16.5197 25.772 16.7073 25.9595C16.8948 26.1471 17.0002 26.4014 17.0002 26.6666C17.0002 26.9319 16.8948 27.1862 16.7073 27.3738C16.5197 27.5613 16.2654 27.6666 16.0002 27.6666C12.906 27.6666 9.93851 26.4375 7.75058 24.2496C5.56266 22.0616 4.3335 19.0942 4.3335 16C4.3335 12.9058 5.56266 9.93832 7.75058 7.7504C9.93851 5.56248 12.906 4.33331 16.0002 4.33331Z" fill="#53A5E4"/>
<path d="M21.9602 12.7067C21.7835 12.5171 21.6874 12.2664 21.6919 12.0073C21.6965 11.7483 21.8015 11.5011 21.9847 11.3179C22.1679 11.1346 22.4151 11.0297 22.6741 11.0251C22.9332 11.0205 23.1839 11.1167 23.3735 11.2934L27.3735 15.2934C27.5608 15.4809 27.6659 15.735 27.6659 16C27.6659 16.265 27.5608 16.5192 27.3735 16.7067L23.3735 20.7067C23.2819 20.8049 23.1715 20.8837 23.0489 20.9384C22.9262 20.993 22.7938 21.0224 22.6595 21.0248C22.5253 21.0272 22.3919 21.0025 22.2674 20.9522C22.1428 20.9019 22.0297 20.827 21.9348 20.7321C21.8398 20.6371 21.765 20.524 21.7147 20.3995C21.6644 20.275 21.6397 20.1416 21.642 20.0073C21.6444 19.8731 21.6738 19.7406 21.7285 19.618C21.7831 19.4953 21.8619 19.3849 21.9602 19.2934L24.2535 17H13.3335C13.0683 17 12.8139 16.8947 12.6264 16.7071C12.4389 16.5196 12.3335 16.2652 12.3335 16C12.3335 15.7348 12.4389 15.4804 12.6264 15.2929C12.8139 15.1054 13.0683 15 13.3335 15H24.2535L21.9602 12.7067Z" fill="#53A5E4"/>
</svg>
