<svg width="167" height="59" viewBox="0 0 167 59" fill="none" xmlns="http://www.w3.org/2000/svg">
<path d="M26.3977 17.7273H31.3182V32.8409C31.3182 34.5379 30.9129 36.0227 30.1023 37.2955C29.2992 38.5682 28.1742 39.5606 26.7273 40.2727C25.2803 40.9773 23.5947 41.3295 21.6705 41.3295C19.7386 41.3295 18.0492 40.9773 16.6023 40.2727C15.1553 39.5606 14.0303 38.5682 13.2273 37.2955C12.4242 36.0227 12.0227 34.5379 12.0227 32.8409V17.7273H16.9432V32.4205C16.9432 33.3068 17.1364 34.0947 17.5227 34.7841C17.9167 35.4735 18.4697 36.0152 19.1818 36.4091C19.8939 36.803 20.7235 37 21.6705 37C22.625 37 23.4545 36.803 24.1591 36.4091C24.8712 36.0152 25.4205 35.4735 25.8068 34.7841C26.2008 34.0947 26.3977 33.3068 26.3977 32.4205V17.7273ZM35.2756 41V23.5455H39.9688V26.5909H40.1506C40.4688 25.5076 41.0028 24.6894 41.7528 24.1364C42.5028 23.5758 43.3665 23.2955 44.3438 23.2955C44.5862 23.2955 44.8475 23.3106 45.1278 23.3409C45.4081 23.3712 45.6544 23.4129 45.8665 23.4659V27.7614C45.6392 27.6932 45.3248 27.6326 44.9233 27.5795C44.5218 27.5265 44.1544 27.5 43.821 27.5C43.1089 27.5 42.4725 27.6553 41.9119 27.9659C41.3589 28.2689 40.9195 28.6932 40.5938 29.2386C40.2756 29.7841 40.1165 30.4129 40.1165 31.125V41H35.2756ZM48.4602 41V17.7273H53.3011V26.4773H53.4489C53.661 26.0076 53.9678 25.5303 54.3693 25.0455C54.7784 24.553 55.3087 24.1439 55.9602 23.8182C56.6193 23.4848 57.4375 23.3182 58.4148 23.3182C59.6875 23.3182 60.8617 23.6515 61.9375 24.3182C63.0133 24.9773 63.8731 25.9735 64.517 27.3068C65.161 28.6326 65.483 30.2955 65.483 32.2955C65.483 34.2424 65.1686 35.8864 64.5398 37.2273C63.9186 38.5606 63.0701 39.572 61.9943 40.2614C60.9261 40.9432 59.7292 41.2841 58.4034 41.2841C57.464 41.2841 56.6648 41.1288 56.0057 40.8182C55.3542 40.5076 54.8201 40.1174 54.4034 39.6477C53.9867 39.1705 53.6686 38.6894 53.4489 38.2045H53.233V41H48.4602ZM53.1989 32.2727C53.1989 33.3106 53.3428 34.2159 53.6307 34.9886C53.9186 35.7614 54.3352 36.3636 54.8807 36.7955C55.4261 37.2197 56.089 37.4318 56.8693 37.4318C57.6572 37.4318 58.3239 37.2159 58.8693 36.7841C59.4148 36.3447 59.8277 35.7386 60.108 34.9659C60.3958 34.1856 60.5398 33.2879 60.5398 32.2727C60.5398 31.2652 60.3996 30.3788 60.1193 29.6136C59.839 28.8485 59.4261 28.25 58.8807 27.8182C58.3352 27.3864 57.6648 27.1705 56.8693 27.1705C56.0814 27.1705 55.4148 27.3788 54.8693 27.7955C54.3314 28.2121 53.9186 28.803 53.6307 29.5682C53.3428 30.3333 53.1989 31.2348 53.1989 32.2727ZM73.6903 41.3295C72.5767 41.3295 71.5843 41.1364 70.7131 40.75C69.8419 40.3561 69.1525 39.7765 68.6449 39.0114C68.1449 38.2386 67.8949 37.2765 67.8949 36.125C67.8949 35.1553 68.0729 34.3409 68.429 33.6818C68.785 33.0227 69.2699 32.4924 69.8835 32.0909C70.4972 31.6894 71.1941 31.3864 71.9744 31.1818C72.7623 30.9773 73.5881 30.8333 74.4517 30.75C75.4669 30.6439 76.285 30.5455 76.9062 30.4545C77.5275 30.3561 77.9782 30.2121 78.2585 30.0227C78.5388 29.8333 78.679 29.553 78.679 29.1818V29.1136C78.679 28.3939 78.4517 27.8371 77.9972 27.4432C77.5502 27.0492 76.9138 26.8523 76.0881 26.8523C75.2169 26.8523 74.5237 27.0455 74.0085 27.4318C73.4934 27.8106 73.1525 28.2879 72.9858 28.8636L68.5085 28.5C68.7358 27.4394 69.1828 26.5227 69.8494 25.75C70.5161 24.9697 71.3759 24.3712 72.429 23.9545C73.4896 23.5303 74.7169 23.3182 76.1108 23.3182C77.0805 23.3182 78.0085 23.4318 78.8949 23.6591C79.7888 23.8864 80.5805 24.2386 81.2699 24.7159C81.9669 25.1932 82.5161 25.8068 82.9176 26.5568C83.3191 27.2992 83.5199 28.1894 83.5199 29.2273V41H78.929V38.5795H78.7926C78.5123 39.125 78.1373 39.6061 77.6676 40.0227C77.1979 40.4318 76.6335 40.7538 75.9744 40.9886C75.3153 41.2159 74.554 41.3295 73.6903 41.3295ZM75.0767 37.9886C75.7888 37.9886 76.4176 37.8485 76.9631 37.5682C77.5085 37.2803 77.9366 36.8939 78.2472 36.4091C78.5578 35.9242 78.7131 35.375 78.7131 34.7614V32.9091C78.5616 33.0076 78.3532 33.0985 78.0881 33.1818C77.8305 33.2576 77.5388 33.3295 77.2131 33.3977C76.8873 33.4583 76.5616 33.5152 76.2358 33.5682C75.91 33.6136 75.6146 33.6553 75.3494 33.6932C74.7813 33.7765 74.285 33.9091 73.8608 34.0909C73.4366 34.2727 73.107 34.5189 72.8722 34.8295C72.6373 35.1326 72.5199 35.5114 72.5199 35.9659C72.5199 36.625 72.7585 37.1288 73.2358 37.4773C73.7206 37.8182 74.3343 37.9886 75.0767 37.9886Z" fill="#53A5E4"/>
<path d="M98.4 17.5H93.6V19.9H91.2V22.3H88.8V24.7H86.4V27.1H84V29.5H86.4V41.5H94.8V34.3H97.2V41.5H105.6V29.5H108V27.1H105.6V24.7H103.2V22.3H100.8V19.9H98.4V17.5ZM98.4 19.9V22.3H100.8V24.7H103.2V27.1H105.6V29.5H103.2V39.1H99.6V31.9H92.4V39.1H88.8V29.5H86.4V27.1H88.8V24.7H91.2V22.3H93.6V19.9H98.4Z" fill="#53A5E4"/>
<path d="M118.928 31.656C118.928 32.168 118.768 32.672 118.448 33.168C118.128 33.648 117.704 34.112 117.176 34.56C116.648 34.992 116.064 35.4 115.424 35.784C114.784 36.168 114.144 36.504 113.504 36.792C112.864 37.08 112.28 37.312 111.752 37.488C111.624 38.112 111.56 38.664 111.56 39.144C111.56 39.448 111.632 39.664 111.776 39.792C111.92 39.92 112.144 39.984 112.448 39.984C113.12 39.984 113.832 39.864 114.584 39.624C115.336 39.384 116.104 39.072 116.888 38.688C117.672 38.304 118.424 37.896 119.144 37.464C119.864 37.032 120.52 36.624 121.112 36.24C121.72 35.856 122.224 35.544 122.624 35.304C123.024 35.064 123.288 34.944 123.416 34.944C123.608 34.944 123.752 35.008 123.848 35.136C123.96 35.248 124.016 35.384 124.016 35.544C124.016 35.672 123.816 35.92 123.416 36.288C123.032 36.656 122.512 37.088 121.856 37.584C121.2 38.064 120.464 38.56 119.648 39.072C118.832 39.584 117.984 40.064 117.104 40.512C116.24 40.96 115.4 41.32 114.584 41.592C113.784 41.864 113.064 42 112.424 42C111.592 42 110.944 41.688 110.48 41.064C110.016 40.44 109.784 39.472 109.784 38.16C109.784 37.28 109.896 36.392 110.12 35.496C110.36 34.6 110.68 33.744 111.08 32.928C111.496 32.096 111.952 31.36 112.448 30.72C112.96 30.064 113.496 29.552 114.056 29.184C114.616 28.8 115.16 28.608 115.688 28.608C116.696 28.608 117.488 28.888 118.064 29.448C118.64 30.008 118.928 30.744 118.928 31.656ZM112.256 35.64C112.752 35.336 113.264 35.016 113.792 34.68C114.32 34.344 114.808 34 115.256 33.648C115.704 33.296 116.064 32.928 116.336 32.544C116.624 32.144 116.768 31.736 116.768 31.32C116.768 30.728 116.448 30.432 115.808 30.432C115.408 30.432 114.984 30.688 114.536 31.2C114.104 31.696 113.688 32.344 113.288 33.144C112.888 33.944 112.544 34.776 112.256 35.64ZM123.907 42.624C123.299 42.624 122.795 42.344 122.395 41.784C122.011 41.208 121.819 40.464 121.819 39.552C121.819 38.704 122.027 37.864 122.443 37.032C122.875 36.2 123.443 35.4 124.147 34.632C124.851 33.864 125.619 33.16 126.451 32.52C127.283 31.864 128.115 31.296 128.947 30.816C129.795 30.336 130.571 29.96 131.275 29.688C131.979 29.416 132.539 29.28 132.955 29.28C133.179 29.28 133.363 29.328 133.507 29.424C133.651 29.504 133.723 29.656 133.723 29.88C133.723 30.024 133.667 30.16 133.555 30.288C133.571 30.288 133.587 30.288 133.603 30.288C133.955 30.288 134.131 30.496 134.131 30.912C134.131 31.056 134.075 31.352 133.963 31.8C133.851 32.232 133.723 32.776 133.579 33.432C133.435 34.088 133.307 34.816 133.195 35.616C133.083 36.4 133.027 37.2 133.027 38.016C133.027 38.704 133.291 39.048 133.819 39.048C134.411 39.048 135.011 38.912 135.619 38.64C136.227 38.368 136.819 38.04 137.395 37.656C137.971 37.256 138.499 36.864 138.979 36.48C139.459 36.08 139.867 35.744 140.203 35.472C140.539 35.2 140.779 35.064 140.923 35.064C141.051 35.064 141.163 35.104 141.259 35.184C141.355 35.264 141.403 35.392 141.403 35.568C141.403 35.728 141.243 36.016 140.923 36.432C140.603 36.848 140.179 37.32 139.651 37.848C139.123 38.376 138.531 38.888 137.875 39.384C137.219 39.88 136.547 40.288 135.859 40.608C135.171 40.928 134.515 41.088 133.891 41.088C133.411 41.088 132.971 40.944 132.571 40.656C132.187 40.352 131.875 39.84 131.635 39.12C131.411 38.4 131.299 37.408 131.299 36.144V35.544C130.515 36.84 129.691 38.024 128.827 39.096C127.979 40.168 127.131 41.024 126.283 41.664C125.451 42.304 124.659 42.624 123.907 42.624ZM132.499 31.008C132.419 31.04 132.307 31.088 132.163 31.152C131.427 31.488 130.659 31.904 129.859 32.4C129.075 32.896 128.307 33.448 127.555 34.056C126.819 34.664 126.155 35.296 125.563 35.952C124.971 36.608 124.499 37.272 124.147 37.944C123.795 38.616 123.619 39.272 123.619 39.912C123.619 40.12 123.659 40.28 123.739 40.392C123.835 40.504 123.995 40.56 124.219 40.56C124.539 40.56 124.955 40.36 125.467 39.96C125.979 39.544 126.539 39 127.147 38.328C127.771 37.656 128.395 36.912 129.019 36.096C129.643 35.28 130.235 34.456 130.795 33.624C131.371 32.792 131.867 32.024 132.283 31.32C132.347 31.208 132.419 31.104 132.499 31.008ZM143.086 42.528C142.734 42.528 142.462 42.424 142.27 42.216C142.094 42.024 142.006 41.8 142.006 41.544C142.006 41.32 142.102 41.112 142.294 40.92C142.502 40.712 142.782 40.528 143.134 40.368C143.774 40.032 144.374 39.696 144.934 39.36C145.51 39.024 145.974 38.664 146.326 38.28C146.678 37.896 146.854 37.488 146.854 37.056C146.854 36.688 146.734 36.408 146.494 36.216C146.254 36.008 145.926 35.904 145.51 35.904C145.27 35.904 144.934 35.952 144.502 36.048C144.07 36.128 143.598 36.224 143.086 36.336C142.59 36.432 142.102 36.528 141.622 36.624C141.142 36.704 140.734 36.744 140.398 36.744C139.79 36.744 139.334 36.6 139.03 36.312C138.726 36.008 138.574 35.6 138.574 35.088C138.574 34.832 138.726 34.448 139.03 33.936C139.334 33.424 139.734 32.856 140.23 32.232C140.742 31.592 141.302 30.952 141.91 30.312C142.518 29.672 143.134 29.08 143.758 28.536C144.398 27.992 144.99 27.552 145.534 27.216C146.094 26.88 146.558 26.712 146.926 26.712C147.294 26.712 147.574 26.832 147.766 27.072C147.958 27.312 148.054 27.616 148.054 27.984C148.054 28.272 148.006 28.52 147.91 28.728C147.814 28.92 147.614 29.072 147.31 29.184C147.022 29.296 146.574 29.36 145.966 29.376C145.342 29.872 144.678 30.44 143.974 31.08C143.286 31.704 142.654 32.352 142.078 33.024C141.518 33.68 141.11 34.312 140.854 34.92C141.382 34.744 142.022 34.592 142.774 34.464C143.542 34.32 144.318 34.248 145.102 34.248C146.334 34.248 147.246 34.528 147.838 35.088C148.446 35.632 148.75 36.352 148.75 37.248C148.75 37.824 148.566 38.424 148.198 39.048C147.846 39.656 147.382 40.224 146.806 40.752C146.23 41.28 145.614 41.704 144.958 42.024C144.302 42.36 143.678 42.528 143.086 42.528ZM160.951 31.656C160.951 32.168 160.791 32.672 160.471 33.168C160.151 33.648 159.727 34.112 159.199 34.56C158.671 34.992 158.087 35.4 157.447 35.784C156.807 36.168 156.167 36.504 155.527 36.792C154.887 37.08 154.303 37.312 153.775 37.488C153.647 38.112 153.583 38.664 153.583 39.144C153.583 39.448 153.655 39.664 153.799 39.792C153.943 39.92 154.167 39.984 154.471 39.984C155.143 39.984 155.855 39.864 156.607 39.624C157.359 39.384 158.127 39.072 158.911 38.688C159.695 38.304 160.447 37.896 161.167 37.464C161.887 37.032 162.543 36.624 163.135 36.24C163.743 35.856 164.247 35.544 164.647 35.304C165.047 35.064 165.311 34.944 165.439 34.944C165.631 34.944 165.775 35.008 165.871 35.136C165.983 35.248 166.039 35.384 166.039 35.544C166.039 35.672 165.839 35.92 165.439 36.288C165.055 36.656 164.535 37.088 163.879 37.584C163.223 38.064 162.487 38.56 161.671 39.072C160.855 39.584 160.007 40.064 159.127 40.512C158.263 40.96 157.423 41.32 156.607 41.592C155.807 41.864 155.087 42 154.447 42C153.615 42 152.967 41.688 152.503 41.064C152.039 40.44 151.807 39.472 151.807 38.16C151.807 37.28 151.919 36.392 152.143 35.496C152.383 34.6 152.703 33.744 153.103 32.928C153.519 32.096 153.975 31.36 154.471 30.72C154.983 30.064 155.519 29.552 156.079 29.184C156.639 28.8 157.183 28.608 157.711 28.608C158.719 28.608 159.511 28.888 160.087 29.448C160.663 30.008 160.951 30.744 160.951 31.656ZM154.279 35.64C154.775 35.336 155.287 35.016 155.815 34.68C156.343 34.344 156.831 34 157.279 33.648C157.727 33.296 158.087 32.928 158.359 32.544C158.647 32.144 158.791 31.736 158.791 31.32C158.791 30.728 158.471 30.432 157.831 30.432C157.431 30.432 157.007 30.688 156.559 31.2C156.127 31.696 155.711 32.344 155.311 33.144C154.911 33.944 154.567 34.776 154.279 35.64Z" fill="#53A5E4"/>
</svg>
