<svg width="229" height="227" viewBox="0 0 229 227" fill="none" xmlns="http://www.w3.org/2000/svg">
<rect width="229" height="227" rx="32" fill="white"/>
<path d="M96.6515 41C95.9483 41 95.2739 41.2742 94.7766 41.7623C94.2794 42.2503 94 42.9123 94 43.6026V48.0641C94 49.5007 95.1879 50.6667 96.6515 50.6667H111.803C112.506 50.6667 113.181 50.3925 113.678 49.9044C114.175 49.4163 114.455 48.7543 114.455 48.0641V46.9487H114.833C115.565 46.9487 116.068 47.0826 116.353 47.2655C116.565 47.4023 116.727 47.6001 116.727 48.0641V51.0385C116.727 52.0646 115.879 52.8974 114.833 52.8974H104.227C103.524 52.8974 102.85 53.1716 102.352 53.6597C101.855 54.1478 101.576 54.8098 101.576 55.5V67.3974C101.576 68.8341 102.764 70 104.227 70H105.742C106.044 70 106.333 69.8825 106.546 69.6733C106.759 69.4641 106.879 69.1804 106.879 68.8846C106.879 68.5888 106.759 68.3051 106.546 68.0959C106.333 67.8867 106.044 67.7692 105.742 67.7692H104.227C104.127 67.7692 104.03 67.7301 103.959 67.6603C103.888 67.5906 103.848 67.496 103.848 67.3974V55.5C103.848 55.4014 103.888 55.3068 103.959 55.2371C104.03 55.1674 104.127 55.1282 104.227 55.1282H114.833C115.938 55.1282 116.998 54.6973 117.78 53.9303C118.561 53.1634 119 52.1231 119 51.0385V48.0641C119 46.8863 118.485 45.9672 117.598 45.3991C116.786 44.8786 115.774 44.7179 114.833 44.7179H114.455V43.6026C114.455 42.9123 114.175 42.2503 113.678 41.7623C113.181 41.2742 112.506 41 111.803 41H96.6515Z" fill="#659965"/>
<path d="M61.704 107V90.2H67.752C69.096 90.2 70.208 90.432 71.088 90.896C71.968 91.344 72.624 91.952 73.056 92.72C73.488 93.488 73.704 94.368 73.704 95.36C73.704 96.288 73.496 97.144 73.08 97.928C72.664 98.696 72.016 99.32 71.136 99.8C70.256 100.264 69.128 100.496 67.752 100.496H64.584V107H61.704ZM64.584 98.144H67.584C68.72 98.144 69.536 97.896 70.032 97.4C70.528 96.888 70.776 96.208 70.776 95.36C70.776 94.48 70.528 93.792 70.032 93.296C69.536 92.8 68.72 92.552 67.584 92.552H64.584V98.144ZM79.3978 107.288C78.4058 107.288 77.5818 107.12 76.9258 106.784C76.2698 106.448 75.7818 106 75.4618 105.44C75.1418 104.88 74.9818 104.272 74.9818 103.616C74.9818 102.848 75.1738 102.184 75.5578 101.624C75.9578 101.064 76.5418 100.632 77.3098 100.328C78.0778 100.008 79.0218 99.848 80.1418 99.848H83.1898C83.1898 99.208 83.1018 98.68 82.9258 98.264C82.7498 97.832 82.4778 97.512 82.1098 97.304C81.7418 97.096 81.2698 96.992 80.6938 96.992C80.0378 96.992 79.4778 97.144 79.0138 97.448C78.5498 97.736 78.2618 98.184 78.1498 98.792H75.3178C75.4138 97.928 75.7018 97.192 76.1818 96.584C76.6618 95.96 77.2938 95.48 78.0778 95.144C78.8778 94.792 79.7498 94.616 80.6938 94.616C81.8298 94.616 82.7978 94.816 83.5978 95.216C84.3978 95.6 85.0058 96.16 85.4218 96.896C85.8538 97.616 86.0698 98.488 86.0698 99.512V107H83.6218L83.3338 105.056C83.1738 105.376 82.9658 105.672 82.7098 105.944C82.4698 106.216 82.1898 106.456 81.8698 106.664C81.5498 106.856 81.1818 107.008 80.7658 107.12C80.3658 107.232 79.9098 107.288 79.3978 107.288ZM80.0458 105.008C80.5098 105.008 80.9178 104.928 81.2698 104.768C81.6378 104.592 81.9498 104.352 82.2058 104.048C82.4778 103.728 82.6858 103.376 82.8298 102.992C82.9738 102.608 83.0698 102.2 83.1178 101.768V101.72H80.4538C79.8938 101.72 79.4298 101.792 79.0618 101.936C78.6938 102.064 78.4298 102.256 78.2698 102.512C78.1098 102.768 78.0298 103.064 78.0298 103.4C78.0298 103.736 78.1098 104.024 78.2698 104.264C78.4298 104.504 78.6618 104.688 78.9658 104.816C79.2698 104.944 79.6298 105.008 80.0458 105.008ZM89.2671 107V94.904H92.1471V107H89.2671ZM90.7071 92.984C90.1791 92.984 89.7391 92.824 89.3871 92.504C89.0511 92.168 88.8831 91.76 88.8831 91.28C88.8831 90.784 89.0511 90.384 89.3871 90.08C89.7391 89.76 90.1791 89.6 90.7071 89.6C91.2351 89.6 91.6671 89.76 92.0031 90.08C92.3551 90.384 92.5311 90.784 92.5311 91.28C92.5311 91.76 92.3551 92.168 92.0031 92.504C91.6671 92.824 91.2351 92.984 90.7071 92.984ZM95.4752 107V94.904H98.0192L98.2352 96.92C98.6032 96.216 99.1312 95.656 99.8192 95.24C100.507 94.824 101.323 94.616 102.267 94.616C103.243 94.616 104.075 94.824 104.763 95.24C105.451 95.64 105.979 96.232 106.347 97.016C106.731 97.8 106.923 98.776 106.923 99.944V107H104.043V100.208C104.043 99.2 103.819 98.424 103.371 97.88C102.923 97.336 102.259 97.064 101.379 97.064C100.803 97.064 100.283 97.2 99.8192 97.472C99.3712 97.744 99.0112 98.144 98.7392 98.672C98.4832 99.184 98.3552 99.808 98.3552 100.544V107H95.4752ZM115.216 107C114.4 107 113.688 106.872 113.08 106.616C112.488 106.36 112.024 105.936 111.688 105.344C111.352 104.752 111.184 103.952 111.184 102.944V97.328H109.12V94.904H111.184L111.52 91.712H114.064V94.904H117.352V97.328H114.064V102.944C114.064 103.552 114.192 103.976 114.448 104.216C114.72 104.44 115.168 104.552 115.792 104.552H117.28V107H115.216ZM120.181 107V94.904H123.061V107H120.181ZM121.621 92.984C121.093 92.984 120.653 92.824 120.301 92.504C119.965 92.168 119.797 91.76 119.797 91.28C119.797 90.784 119.965 90.384 120.301 90.08C120.653 89.76 121.093 89.6 121.621 89.6C122.149 89.6 122.581 89.76 122.917 90.08C123.269 90.384 123.445 90.784 123.445 91.28C123.445 91.76 123.269 92.168 122.917 92.504C122.581 92.824 122.149 92.984 121.621 92.984ZM126.389 107V94.904H128.933L129.149 96.92C129.517 96.216 130.045 95.656 130.733 95.24C131.421 94.824 132.237 94.616 133.181 94.616C134.157 94.616 134.989 94.824 135.677 95.24C136.365 95.64 136.893 96.232 137.261 97.016C137.645 97.8 137.837 98.776 137.837 99.944V107H134.957V100.208C134.957 99.2 134.733 98.424 134.285 97.88C133.837 97.336 133.173 97.064 132.293 97.064C131.717 97.064 131.197 97.2 130.733 97.472C130.285 97.744 129.925 98.144 129.653 98.672C129.397 99.184 129.269 99.808 129.269 100.544V107H126.389ZM145.962 112.568C144.826 112.568 143.826 112.424 142.962 112.136C142.114 111.864 141.45 111.44 140.97 110.864C140.506 110.304 140.274 109.6 140.274 108.752C140.274 108.256 140.394 107.768 140.634 107.288C140.89 106.824 141.266 106.392 141.762 105.992C142.274 105.576 142.922 105.216 143.706 104.912L144.978 106.304C144.21 106.576 143.674 106.904 143.37 107.288C143.066 107.672 142.914 108.064 142.914 108.464C142.914 108.88 143.042 109.224 143.298 109.496C143.57 109.784 143.93 110 144.378 110.144C144.842 110.288 145.362 110.36 145.938 110.36C146.498 110.36 146.986 110.28 147.402 110.12C147.818 109.976 148.138 109.768 148.362 109.496C148.602 109.224 148.722 108.896 148.722 108.512C148.722 108.032 148.554 107.64 148.218 107.336C147.882 107.048 147.218 106.872 146.226 106.808C145.378 106.744 144.634 106.656 143.994 106.544C143.354 106.416 142.802 106.272 142.338 106.112C141.89 105.952 141.506 105.776 141.186 105.584C140.866 105.376 140.602 105.168 140.394 104.96V104.408L142.914 101.768L145.05 102.464L142.218 105.224L142.962 103.832C143.122 103.944 143.282 104.048 143.442 104.144C143.618 104.24 143.834 104.328 144.09 104.408C144.362 104.472 144.714 104.536 145.146 104.6C145.578 104.664 146.138 104.728 146.826 104.792C147.898 104.872 148.77 105.064 149.442 105.368C150.114 105.672 150.61 106.08 150.93 106.592C151.25 107.104 151.41 107.72 151.41 108.44C151.41 109.144 151.21 109.808 150.81 110.432C150.426 111.056 149.834 111.568 149.034 111.968C148.234 112.368 147.21 112.568 145.962 112.568ZM145.962 103.376C144.954 103.376 144.082 103.184 143.346 102.8C142.626 102.4 142.074 101.872 141.69 101.216C141.306 100.544 141.114 99.808 141.114 99.008C141.114 98.192 141.306 97.456 141.69 96.8C142.074 96.144 142.626 95.616 143.346 95.216C144.082 94.816 144.954 94.616 145.962 94.616C146.97 94.616 147.834 94.816 148.554 95.216C149.274 95.616 149.826 96.144 150.21 96.8C150.594 97.456 150.786 98.192 150.786 99.008C150.786 99.808 150.594 100.544 150.21 101.216C149.826 101.872 149.274 102.4 148.554 102.8C147.834 103.184 146.97 103.376 145.962 103.376ZM145.962 101.144C146.65 101.144 147.202 100.96 147.618 100.592C148.034 100.224 148.242 99.696 148.242 99.008C148.242 98.32 148.034 97.8 147.618 97.448C147.202 97.08 146.65 96.896 145.962 96.896C145.274 96.896 144.714 97.08 144.282 97.448C143.85 97.8 143.634 98.32 143.634 99.008C143.634 99.696 143.85 100.224 144.282 100.592C144.714 100.96 145.274 101.144 145.962 101.144ZM147.954 97.016L147.402 94.904H152.37V96.704L147.954 97.016Z" fill="#4D4E4E"/>
<path d="M28.8036 143V131.8H30.4036V143H28.8036ZM21.6836 143V131.8H23.2836V143H21.6836ZM23.0116 137.944V136.632H29.1556V137.944H23.0116ZM36.3461 143.192C35.5888 143.192 34.9061 143.016 34.2981 142.664C33.7008 142.312 33.2261 141.821 32.8741 141.192C32.5328 140.552 32.3621 139.816 32.3621 138.984C32.3621 138.131 32.5381 137.389 32.8901 136.76C33.2421 136.12 33.7221 135.624 34.3301 135.272C34.9381 134.92 35.6208 134.744 36.3781 134.744C37.1461 134.744 37.8288 134.92 38.4261 135.272C39.0235 135.624 39.4928 136.115 39.8341 136.744C40.1861 137.373 40.3621 138.115 40.3621 138.968C40.3621 139.821 40.1861 140.563 39.8341 141.192C39.4928 141.821 39.0181 142.312 38.4101 142.664C37.8021 143.016 37.1141 143.192 36.3461 143.192ZM36.3461 141.816C36.7835 141.816 37.1781 141.709 37.5301 141.496C37.8928 141.283 38.1808 140.968 38.3941 140.552C38.6181 140.125 38.7301 139.597 38.7301 138.968C38.7301 138.339 38.6235 137.816 38.4101 137.4C38.1968 136.973 37.9088 136.653 37.5461 136.44C37.1941 136.227 36.8048 136.12 36.3781 136.12C35.9515 136.12 35.5568 136.227 35.1941 136.44C34.8315 136.653 34.5381 136.973 34.3141 137.4C34.1008 137.816 33.9941 138.339 33.9941 138.968C33.9941 139.597 34.1008 140.125 34.3141 140.552C34.5381 140.968 34.8261 141.283 35.1781 141.496C35.5408 141.709 35.9301 141.816 36.3461 141.816ZM42.2443 143V134.936H43.6843L43.7963 136.072C44.0523 135.656 44.3936 135.331 44.8203 135.096C45.2469 134.861 45.7269 134.744 46.2603 134.744C46.6656 134.744 47.0336 134.803 47.3643 134.92C47.6949 135.027 47.9883 135.192 48.2443 135.416C48.5003 135.64 48.7083 135.917 48.8683 136.248C49.1563 135.779 49.5403 135.411 50.0203 135.144C50.5109 134.877 51.0283 134.744 51.5723 134.744C52.2229 134.744 52.7829 134.877 53.2523 135.144C53.7216 135.4 54.0789 135.789 54.3243 136.312C54.5696 136.824 54.6923 137.464 54.6923 138.232V143H53.1083V138.392C53.1083 137.645 52.9536 137.08 52.6443 136.696C52.3456 136.312 51.9029 136.12 51.3163 136.12C50.9216 136.12 50.5696 136.221 50.2603 136.424C49.9509 136.627 49.7056 136.92 49.5243 137.304C49.3536 137.688 49.2683 138.157 49.2683 138.712V143H47.6683V138.392C47.6683 137.645 47.5136 137.08 47.2043 136.696C46.9056 136.312 46.4629 136.12 45.8763 136.12C45.5029 136.12 45.1616 136.221 44.8523 136.424C44.5429 136.627 44.2976 136.92 44.1163 137.304C43.9349 137.688 43.8443 138.157 43.8443 138.712V143H42.2443ZM60.4079 143.192C59.6399 143.192 58.9572 143.016 58.3599 142.664C57.7625 142.312 57.2932 141.821 56.9519 141.192C56.6212 140.563 56.4559 139.832 56.4559 139C56.4559 138.147 56.6212 137.405 56.9519 136.776C57.2932 136.136 57.7625 135.64 58.3599 135.288C58.9572 134.925 59.6505 134.744 60.4399 134.744C61.2292 134.744 61.9065 134.92 62.4719 135.272C63.0372 135.624 63.4745 136.093 63.7839 136.68C64.0932 137.256 64.2479 137.896 64.2479 138.6C64.2479 138.707 64.2425 138.824 64.2319 138.952C64.2319 139.069 64.2265 139.203 64.2159 139.352H57.6239V138.216H62.6479C62.6159 137.544 62.3919 137.021 61.9759 136.648C61.5599 136.264 61.0425 136.072 60.4239 136.072C59.9865 136.072 59.5865 136.173 59.2239 136.376C58.8612 136.568 58.5679 136.856 58.3439 137.24C58.1305 137.613 58.0239 138.088 58.0239 138.664V139.112C58.0239 139.709 58.1305 140.216 58.3439 140.632C58.5679 141.037 58.8612 141.347 59.2239 141.56C59.5865 141.763 59.9812 141.864 60.4079 141.864C60.9199 141.864 61.3412 141.752 61.6719 141.528C62.0025 141.304 62.2479 141 62.4079 140.616H64.0079C63.8692 141.107 63.6345 141.549 63.3039 141.944C62.9732 142.328 62.5625 142.632 62.0719 142.856C61.5919 143.08 61.0372 143.192 60.4079 143.192ZM70.2313 143V134.936H71.8313V143H70.2313ZM71.0473 133.416C70.7379 133.416 70.4819 133.32 70.2793 133.128C70.0873 132.936 69.9913 132.691 69.9913 132.392C69.9913 132.104 70.0873 131.869 70.2793 131.688C70.4819 131.496 70.7379 131.4 71.0473 131.4C71.3459 131.4 71.5966 131.496 71.7993 131.688C72.0019 131.869 72.1033 132.104 72.1033 132.392C72.1033 132.691 72.0019 132.936 71.7993 133.128C71.5966 133.32 71.3459 133.416 71.0473 133.416ZM74.1193 143V134.936H75.5593L75.6553 136.312C75.9113 135.832 76.2739 135.453 76.7433 135.176C77.2126 134.888 77.7513 134.744 78.3593 134.744C78.9993 134.744 79.5486 134.872 80.0073 135.128C80.4659 135.384 80.8233 135.773 81.0793 136.296C81.3353 136.808 81.4633 137.453 81.4633 138.232V143H79.8633V138.392C79.8633 137.645 79.6979 137.08 79.3673 136.696C79.0366 136.312 78.5566 136.12 77.9273 136.12C77.5113 136.12 77.1379 136.221 76.8073 136.424C76.4766 136.616 76.2099 136.904 76.0073 137.288C75.8153 137.672 75.7193 138.141 75.7193 138.696V143H74.1193ZM86.8379 143C86.3259 143 85.8832 142.92 85.5099 142.76C85.1365 142.6 84.8485 142.333 84.6459 141.96C84.4432 141.587 84.3419 141.08 84.3419 140.44V136.296H82.9499V134.936H84.3419L84.5339 132.92H85.9419V134.936H88.2299V136.296H85.9419V140.456C85.9419 140.915 86.0379 141.229 86.2299 141.4C86.4219 141.56 86.7525 141.64 87.2219 141.64H88.1499V143H86.8379ZM93.4235 143.192C92.6555 143.192 91.9728 143.016 91.3755 142.664C90.7782 142.312 90.3088 141.821 89.9675 141.192C89.6368 140.563 89.4715 139.832 89.4715 139C89.4715 138.147 89.6368 137.405 89.9675 136.776C90.3088 136.136 90.7782 135.64 91.3755 135.288C91.9728 134.925 92.6662 134.744 93.4555 134.744C94.2448 134.744 94.9222 134.92 95.4875 135.272C96.0528 135.624 96.4902 136.093 96.7995 136.68C97.1088 137.256 97.2635 137.896 97.2635 138.6C97.2635 138.707 97.2582 138.824 97.2475 138.952C97.2475 139.069 97.2422 139.203 97.2315 139.352H90.6395V138.216H95.6635C95.6315 137.544 95.4075 137.021 94.9915 136.648C94.5755 136.264 94.0582 136.072 93.4395 136.072C93.0022 136.072 92.6022 136.173 92.2395 136.376C91.8768 136.568 91.5835 136.856 91.3595 137.24C91.1462 137.613 91.0395 138.088 91.0395 138.664V139.112C91.0395 139.709 91.1462 140.216 91.3595 140.632C91.5835 141.037 91.8768 141.347 92.2395 141.56C92.6022 141.763 92.9968 141.864 93.4235 141.864C93.9355 141.864 94.3568 141.752 94.6875 141.528C95.0182 141.304 95.2635 141 95.4235 140.616H97.0235C96.8848 141.107 96.6502 141.549 96.3195 141.944C95.9888 142.328 95.5782 142.632 95.0875 142.856C94.6075 143.08 94.0528 143.192 93.4235 143.192ZM99.0411 143V134.936H100.481L100.625 136.456C100.806 136.093 101.041 135.789 101.329 135.544C101.617 135.288 101.953 135.091 102.337 134.952C102.732 134.813 103.18 134.744 103.681 134.744V136.44H103.105C102.774 136.44 102.46 136.483 102.161 136.568C101.862 136.643 101.596 136.776 101.361 136.968C101.137 137.16 100.961 137.421 100.833 137.752C100.705 138.083 100.641 138.493 100.641 138.984V143H99.0411ZM105.263 143V134.936H106.863V143H105.263ZM106.079 133.416C105.769 133.416 105.513 133.32 105.311 133.128C105.119 132.936 105.023 132.691 105.023 132.392C105.023 132.104 105.119 131.869 105.311 131.688C105.513 131.496 105.769 131.4 106.079 131.4C106.377 131.4 106.628 131.496 106.831 131.688C107.033 131.869 107.135 132.104 107.135 132.392C107.135 132.691 107.033 132.936 106.831 133.128C106.628 133.32 106.377 133.416 106.079 133.416ZM112.831 143.192C112.073 143.192 111.391 143.016 110.783 142.664C110.185 142.312 109.711 141.821 109.359 141.192C109.017 140.552 108.847 139.816 108.847 138.984C108.847 138.131 109.023 137.389 109.375 136.76C109.727 136.12 110.207 135.624 110.815 135.272C111.423 134.92 112.105 134.744 112.863 134.744C113.631 134.744 114.313 134.92 114.911 135.272C115.508 135.624 115.977 136.115 116.319 136.744C116.671 137.373 116.847 138.115 116.847 138.968C116.847 139.821 116.671 140.563 116.319 141.192C115.977 141.821 115.503 142.312 114.895 142.664C114.287 143.016 113.599 143.192 112.831 143.192ZM112.831 141.816C113.268 141.816 113.663 141.709 114.015 141.496C114.377 141.283 114.665 140.968 114.879 140.552C115.103 140.125 115.215 139.597 115.215 138.968C115.215 138.339 115.108 137.816 114.895 137.4C114.681 136.973 114.393 136.653 114.031 136.44C113.679 136.227 113.289 136.12 112.863 136.12C112.436 136.12 112.041 136.227 111.679 136.44C111.316 136.653 111.023 136.973 110.799 137.4C110.585 137.816 110.479 138.339 110.479 138.968C110.479 139.597 110.585 140.125 110.799 140.552C111.023 140.968 111.311 141.283 111.663 141.496C112.025 141.709 112.415 141.816 112.831 141.816ZM118.729 143V134.936H120.169L120.313 136.456C120.494 136.093 120.729 135.789 121.017 135.544C121.305 135.288 121.641 135.091 122.025 134.952C122.419 134.813 122.867 134.744 123.369 134.744V136.44H122.793C122.462 136.44 122.147 136.483 121.849 136.568C121.55 136.643 121.283 136.776 121.049 136.968C120.825 137.16 120.649 137.421 120.521 137.752C120.393 138.083 120.329 138.493 120.329 138.984V143H118.729ZM127.958 143.192C127.275 143.192 126.678 143.08 126.166 142.856C125.654 142.632 125.249 142.317 124.95 141.912C124.651 141.507 124.47 141.032 124.406 140.488H126.038C126.091 140.744 126.193 140.979 126.342 141.192C126.502 141.405 126.715 141.576 126.982 141.704C127.259 141.832 127.585 141.896 127.958 141.896C128.31 141.896 128.598 141.848 128.822 141.752C129.057 141.645 129.227 141.507 129.334 141.336C129.441 141.155 129.494 140.963 129.494 140.76C129.494 140.461 129.419 140.237 129.27 140.088C129.131 139.928 128.918 139.805 128.63 139.72C128.353 139.624 128.017 139.539 127.622 139.464C127.249 139.4 126.886 139.315 126.534 139.208C126.193 139.091 125.883 138.947 125.606 138.776C125.339 138.605 125.126 138.392 124.966 138.136C124.806 137.869 124.726 137.544 124.726 137.16C124.726 136.701 124.849 136.291 125.094 135.928C125.339 135.555 125.686 135.267 126.134 135.064C126.593 134.851 127.131 134.744 127.75 134.744C128.646 134.744 129.366 134.957 129.91 135.384C130.454 135.811 130.774 136.413 130.87 137.192H129.318C129.275 136.829 129.115 136.552 128.838 136.36C128.561 136.157 128.193 136.056 127.734 136.056C127.275 136.056 126.923 136.147 126.678 136.328C126.433 136.509 126.31 136.749 126.31 137.048C126.31 137.24 126.379 137.411 126.518 137.56C126.657 137.709 126.859 137.837 127.126 137.944C127.403 138.04 127.739 138.131 128.134 138.216C128.699 138.323 129.206 138.456 129.654 138.616C130.102 138.776 130.459 139.011 130.726 139.32C130.993 139.629 131.126 140.072 131.126 140.648C131.137 141.149 131.009 141.592 130.742 141.976C130.486 142.36 130.118 142.659 129.638 142.872C129.169 143.085 128.609 143.192 127.958 143.192ZM132.354 144.616L136.354 130.696H137.922L133.922 144.616H132.354ZM142.345 143.192C141.577 143.192 140.895 143.016 140.297 142.664C139.7 142.312 139.231 141.821 138.889 141.192C138.559 140.563 138.393 139.832 138.393 139C138.393 138.147 138.559 137.405 138.889 136.776C139.231 136.136 139.7 135.64 140.297 135.288C140.895 134.925 141.588 134.744 142.377 134.744C143.167 134.744 143.844 134.92 144.409 135.272C144.975 135.624 145.412 136.093 145.721 136.68C146.031 137.256 146.185 137.896 146.185 138.6C146.185 138.707 146.18 138.824 146.169 138.952C146.169 139.069 146.164 139.203 146.153 139.352H139.561V138.216H144.585C144.553 137.544 144.329 137.021 143.913 136.648C143.497 136.264 142.98 136.072 142.361 136.072C141.924 136.072 141.524 136.173 141.161 136.376C140.799 136.568 140.505 136.856 140.281 137.24C140.068 137.613 139.961 138.088 139.961 138.664V139.112C139.961 139.709 140.068 140.216 140.281 140.632C140.505 141.037 140.799 141.347 141.161 141.56C141.524 141.763 141.919 141.864 142.345 141.864C142.857 141.864 143.279 141.752 143.609 141.528C143.94 141.304 144.185 141 144.345 140.616H145.945C145.807 141.107 145.572 141.549 145.241 141.944C144.911 142.328 144.5 142.632 144.009 142.856C143.529 143.08 142.975 143.192 142.345 143.192ZM146.758 143L149.542 138.968L146.758 134.936H148.486L150.598 138.072L152.726 134.936H154.438L151.654 138.968L154.438 143H152.726L150.598 139.848L148.486 143H146.758ZM159.166 143C158.654 143 158.211 142.92 157.838 142.76C157.465 142.6 157.177 142.333 156.974 141.96C156.771 141.587 156.67 141.08 156.67 140.44V136.296H155.278V134.936H156.67L156.862 132.92H158.27V134.936H160.558V136.296H158.27V140.456C158.27 140.915 158.366 141.229 158.558 141.4C158.75 141.56 159.081 141.64 159.55 141.64H160.478V143H159.166ZM165.752 143.192C164.984 143.192 164.301 143.016 163.704 142.664C163.106 142.312 162.637 141.821 162.296 141.192C161.965 140.563 161.8 139.832 161.8 139C161.8 138.147 161.965 137.405 162.296 136.776C162.637 136.136 163.106 135.64 163.704 135.288C164.301 134.925 164.994 134.744 165.784 134.744C166.573 134.744 167.25 134.92 167.816 135.272C168.381 135.624 168.818 136.093 169.128 136.68C169.437 137.256 169.592 137.896 169.592 138.6C169.592 138.707 169.586 138.824 169.576 138.952C169.576 139.069 169.57 139.203 169.56 139.352H162.968V138.216H167.992C167.96 137.544 167.736 137.021 167.32 136.648C166.904 136.264 166.386 136.072 165.768 136.072C165.33 136.072 164.93 136.173 164.568 136.376C164.205 136.568 163.912 136.856 163.688 137.24C163.474 137.613 163.368 138.088 163.368 138.664V139.112C163.368 139.709 163.474 140.216 163.688 140.632C163.912 141.037 164.205 141.347 164.568 141.56C164.93 141.763 165.325 141.864 165.752 141.864C166.264 141.864 166.685 141.752 167.016 141.528C167.346 141.304 167.592 141 167.752 140.616H169.352C169.213 141.107 168.978 141.549 168.648 141.944C168.317 142.328 167.906 142.632 167.416 142.856C166.936 143.08 166.381 143.192 165.752 143.192ZM171.369 143V134.936H172.809L172.953 136.456C173.135 136.093 173.369 135.789 173.657 135.544C173.945 135.288 174.281 135.091 174.665 134.952C175.06 134.813 175.508 134.744 176.009 134.744V136.44H175.433C175.103 136.44 174.788 136.483 174.489 136.568C174.191 136.643 173.924 136.776 173.689 136.968C173.465 137.16 173.289 137.421 173.161 137.752C173.033 138.083 172.969 138.493 172.969 138.984V143H171.369ZM177.591 143V134.936H179.191V143H177.591ZM178.407 133.416C178.097 133.416 177.841 133.32 177.639 133.128C177.447 132.936 177.351 132.691 177.351 132.392C177.351 132.104 177.447 131.869 177.639 131.688C177.841 131.496 178.097 131.4 178.407 131.4C178.705 131.4 178.956 131.496 179.159 131.688C179.361 131.869 179.463 132.104 179.463 132.392C179.463 132.691 179.361 132.936 179.159 133.128C178.956 133.32 178.705 133.416 178.407 133.416ZM185.159 143.192C184.401 143.192 183.719 143.016 183.111 142.664C182.513 142.312 182.039 141.821 181.687 141.192C181.345 140.552 181.175 139.816 181.175 138.984C181.175 138.131 181.351 137.389 181.703 136.76C182.055 136.12 182.535 135.624 183.143 135.272C183.751 134.92 184.433 134.744 185.191 134.744C185.959 134.744 186.641 134.92 187.239 135.272C187.836 135.624 188.305 136.115 188.647 136.744C188.999 137.373 189.175 138.115 189.175 138.968C189.175 139.821 188.999 140.563 188.647 141.192C188.305 141.821 187.831 142.312 187.223 142.664C186.615 143.016 185.927 143.192 185.159 143.192ZM185.159 141.816C185.596 141.816 185.991 141.709 186.343 141.496C186.705 141.283 186.993 140.968 187.207 140.552C187.431 140.125 187.543 139.597 187.543 138.968C187.543 138.339 187.436 137.816 187.223 137.4C187.009 136.973 186.721 136.653 186.359 136.44C186.007 136.227 185.617 136.12 185.191 136.12C184.764 136.12 184.369 136.227 184.007 136.44C183.644 136.653 183.351 136.973 183.127 137.4C182.913 137.816 182.807 138.339 182.807 138.968C182.807 139.597 182.913 140.125 183.127 140.552C183.351 140.968 183.639 141.283 183.991 141.496C184.353 141.709 184.743 141.816 185.159 141.816ZM191.057 143V134.936H192.497L192.641 136.456C192.822 136.093 193.057 135.789 193.345 135.544C193.633 135.288 193.969 135.091 194.353 134.952C194.747 134.813 195.195 134.744 195.697 134.744V136.44H195.121C194.79 136.44 194.475 136.483 194.177 136.568C193.878 136.643 193.611 136.776 193.377 136.968C193.153 137.16 192.977 137.421 192.849 137.752C192.721 138.083 192.657 138.493 192.657 138.984V143H191.057ZM200.286 143.192C199.603 143.192 199.006 143.08 198.494 142.856C197.982 142.632 197.577 142.317 197.278 141.912C196.979 141.507 196.798 141.032 196.734 140.488H198.366C198.419 140.744 198.521 140.979 198.67 141.192C198.83 141.405 199.043 141.576 199.31 141.704C199.587 141.832 199.913 141.896 200.286 141.896C200.638 141.896 200.926 141.848 201.15 141.752C201.385 141.645 201.555 141.507 201.662 141.336C201.769 141.155 201.822 140.963 201.822 140.76C201.822 140.461 201.747 140.237 201.598 140.088C201.459 139.928 201.246 139.805 200.958 139.72C200.681 139.624 200.345 139.539 199.95 139.464C199.577 139.4 199.214 139.315 198.862 139.208C198.521 139.091 198.211 138.947 197.934 138.776C197.667 138.605 197.454 138.392 197.294 138.136C197.134 137.869 197.054 137.544 197.054 137.16C197.054 136.701 197.177 136.291 197.422 135.928C197.667 135.555 198.014 135.267 198.462 135.064C198.921 134.851 199.459 134.744 200.078 134.744C200.974 134.744 201.694 134.957 202.238 135.384C202.782 135.811 203.102 136.413 203.198 137.192H201.646C201.603 136.829 201.443 136.552 201.166 136.36C200.889 136.157 200.521 136.056 200.062 136.056C199.603 136.056 199.251 136.147 199.006 136.328C198.761 136.509 198.638 136.749 198.638 137.048C198.638 137.24 198.707 137.411 198.846 137.56C198.985 137.709 199.187 137.837 199.454 137.944C199.731 138.04 200.067 138.131 200.462 138.216C201.027 138.323 201.534 138.456 201.982 138.616C202.43 138.776 202.787 139.011 203.054 139.32C203.321 139.629 203.454 140.072 203.454 140.648C203.465 141.149 203.337 141.592 203.07 141.976C202.814 142.36 202.446 142.659 201.966 142.872C201.497 143.085 200.937 143.192 200.286 143.192ZM204.41 144.968L205.322 141.272H206.938L205.482 144.968H204.41ZM49.0488 164C48.5368 164 48.0941 163.92 47.7208 163.76C47.3475 163.6 47.0595 163.333 46.8568 162.96C46.6541 162.587 46.5528 162.08 46.5528 161.44V157.296H45.1608V155.936H46.5528L46.7448 153.92H48.1528V155.936H50.4408V157.296H48.1528V161.456C48.1528 161.915 48.2488 162.229 48.4408 162.4C48.6328 162.56 48.9635 162.64 49.4328 162.64H50.3608V164H49.0488ZM55.6664 164.192C54.9091 164.192 54.2264 164.016 53.6184 163.664C53.0211 163.312 52.5464 162.821 52.1944 162.192C51.8531 161.552 51.6824 160.816 51.6824 159.984C51.6824 159.131 51.8584 158.389 52.2104 157.76C52.5624 157.12 53.0424 156.624 53.6504 156.272C54.2584 155.92 54.9411 155.744 55.6984 155.744C56.4664 155.744 57.1491 155.92 57.7464 156.272C58.3438 156.624 58.8131 157.115 59.1544 157.744C59.5064 158.373 59.6824 159.115 59.6824 159.968C59.6824 160.821 59.5064 161.563 59.1544 162.192C58.8131 162.821 58.3384 163.312 57.7304 163.664C57.1224 164.016 56.4344 164.192 55.6664 164.192ZM55.6664 162.816C56.1038 162.816 56.4984 162.709 56.8504 162.496C57.2131 162.283 57.5011 161.968 57.7144 161.552C57.9384 161.125 58.0504 160.597 58.0504 159.968C58.0504 159.339 57.9438 158.816 57.7304 158.4C57.5171 157.973 57.2291 157.653 56.8664 157.44C56.5144 157.227 56.1251 157.12 55.6984 157.12C55.2718 157.12 54.8771 157.227 54.5144 157.44C54.1518 157.653 53.8584 157.973 53.6344 158.4C53.4211 158.816 53.3144 159.339 53.3144 159.968C53.3144 160.597 53.4211 161.125 53.6344 161.552C53.8584 161.968 54.1464 162.283 54.4984 162.496C54.8611 162.709 55.2504 162.816 55.6664 162.816ZM64.5246 164.192C63.8952 164.192 63.3459 164.064 62.8766 163.808C62.4179 163.552 62.0606 163.168 61.8046 162.656C61.5592 162.144 61.4366 161.499 61.4366 160.72V155.936H63.0366V160.544C63.0366 161.301 63.2019 161.872 63.5326 162.256C63.8632 162.64 64.3379 162.832 64.9566 162.832C65.3726 162.832 65.7459 162.731 66.0766 162.528C66.4179 162.325 66.6846 162.032 66.8766 161.648C67.0686 161.264 67.1646 160.795 67.1646 160.24V155.936H68.7646V164H67.3406L67.2286 162.624C66.9832 163.115 66.6259 163.499 66.1566 163.776C65.6872 164.053 65.1432 164.192 64.5246 164.192ZM74.6832 164.192C73.9045 164.192 73.2112 164.016 72.6032 163.664C71.9952 163.301 71.5152 162.805 71.1632 162.176C70.8219 161.547 70.6512 160.816 70.6512 159.984C70.6512 159.141 70.8219 158.405 71.1632 157.776C71.5152 157.136 71.9952 156.64 72.6032 156.288C73.2112 155.925 73.9045 155.744 74.6832 155.744C75.6645 155.744 76.4859 156 77.1472 156.512C77.8085 157.024 78.2299 157.717 78.4112 158.592H76.7472C76.6405 158.123 76.3952 157.76 76.0112 157.504C75.6379 157.248 75.1899 157.12 74.6672 157.12C74.2405 157.12 73.8459 157.232 73.4832 157.456C73.1205 157.669 72.8272 157.989 72.6032 158.416C72.3899 158.832 72.2832 159.349 72.2832 159.968C72.2832 160.427 72.3472 160.837 72.4752 161.2C72.6032 161.552 72.7739 161.851 72.9872 162.096C73.2112 162.341 73.4672 162.528 73.7552 162.656C74.0432 162.773 74.3472 162.832 74.6672 162.832C75.0192 162.832 75.3339 162.779 75.6112 162.672C75.8992 162.555 76.1392 162.384 76.3312 162.16C76.5339 161.936 76.6725 161.669 76.7472 161.36H78.4112C78.2299 162.213 77.8085 162.901 77.1472 163.424C76.4859 163.936 75.6645 164.192 74.6832 164.192ZM80.2833 164V152.48H81.8833V157.248C82.15 156.779 82.518 156.411 82.9873 156.144C83.4673 155.877 83.9953 155.744 84.5713 155.744C85.2113 155.744 85.7606 155.877 86.2193 156.144C86.678 156.4 87.03 156.789 87.2753 157.312C87.5206 157.824 87.6433 158.469 87.6433 159.248V164H86.0593V159.408C86.0593 158.661 85.8993 158.096 85.5793 157.712C85.2593 157.317 84.7846 157.12 84.1553 157.12C83.7286 157.12 83.3446 157.221 83.0033 157.424C82.662 157.627 82.39 157.925 82.1873 158.32C81.9846 158.704 81.8833 159.173 81.8833 159.728V164H80.2833ZM89.7856 159.952V158.608H96.2496V159.952H89.7856ZM101.478 164.192C100.848 164.192 100.299 164.064 99.8297 163.808C99.371 163.552 99.0137 163.168 98.7577 162.656C98.5124 162.144 98.3897 161.499 98.3897 160.72V155.936H99.9897V160.544C99.9897 161.301 100.155 161.872 100.486 162.256C100.816 162.64 101.291 162.832 101.91 162.832C102.326 162.832 102.699 162.731 103.03 162.528C103.371 162.325 103.638 162.032 103.83 161.648C104.022 161.264 104.118 160.795 104.118 160.24V155.936H105.718V164H104.294L104.182 162.624C103.936 163.115 103.579 163.499 103.11 163.776C102.64 164.053 102.096 164.192 101.478 164.192ZM107.908 167.52V155.936H109.348L109.508 157.184C109.679 156.939 109.892 156.709 110.148 156.496C110.404 156.272 110.708 156.091 111.06 155.952C111.423 155.813 111.844 155.744 112.324 155.744C113.092 155.744 113.764 155.931 114.34 156.304C114.927 156.677 115.38 157.184 115.7 157.824C116.031 158.453 116.196 159.173 116.196 159.984C116.196 160.795 116.031 161.52 115.7 162.16C115.37 162.789 114.911 163.285 114.324 163.648C113.748 164.011 113.076 164.192 112.308 164.192C111.679 164.192 111.124 164.069 110.644 163.824C110.164 163.568 109.786 163.216 109.508 162.768V167.52H107.908ZM112.052 162.8C112.543 162.8 112.975 162.683 113.348 162.448C113.732 162.213 114.031 161.883 114.244 161.456C114.468 161.029 114.58 160.533 114.58 159.968C114.58 159.403 114.468 158.912 114.244 158.496C114.031 158.069 113.732 157.739 113.348 157.504C112.975 157.259 112.543 157.136 112.052 157.136C111.551 157.136 111.108 157.259 110.724 157.504C110.351 157.739 110.058 158.069 109.844 158.496C109.631 158.912 109.524 159.403 109.524 159.968C109.524 160.533 109.631 161.029 109.844 161.456C110.058 161.883 110.351 162.213 110.724 162.448C111.108 162.683 111.551 162.8 112.052 162.8ZM121.185 164.192C120.502 164.192 119.905 164.08 119.393 163.856C118.881 163.632 118.475 163.317 118.177 162.912C117.878 162.507 117.697 162.032 117.633 161.488H119.265C119.318 161.744 119.419 161.979 119.569 162.192C119.729 162.405 119.942 162.576 120.209 162.704C120.486 162.832 120.811 162.896 121.185 162.896C121.537 162.896 121.825 162.848 122.049 162.752C122.283 162.645 122.454 162.507 122.561 162.336C122.667 162.155 122.721 161.963 122.721 161.76C122.721 161.461 122.646 161.237 122.497 161.088C122.358 160.928 122.145 160.805 121.857 160.72C121.579 160.624 121.243 160.539 120.849 160.464C120.475 160.4 120.113 160.315 119.761 160.208C119.419 160.091 119.11 159.947 118.833 159.776C118.566 159.605 118.353 159.392 118.193 159.136C118.033 158.869 117.953 158.544 117.953 158.16C117.953 157.701 118.075 157.291 118.321 156.928C118.566 156.555 118.913 156.267 119.361 156.064C119.819 155.851 120.358 155.744 120.977 155.744C121.873 155.744 122.593 155.957 123.137 156.384C123.681 156.811 124.001 157.413 124.097 158.192H122.545C122.502 157.829 122.342 157.552 122.065 157.36C121.787 157.157 121.419 157.056 120.961 157.056C120.502 157.056 120.15 157.147 119.905 157.328C119.659 157.509 119.537 157.749 119.537 158.048C119.537 158.24 119.606 158.411 119.745 158.56C119.883 158.709 120.086 158.837 120.353 158.944C120.63 159.04 120.966 159.131 121.361 159.216C121.926 159.323 122.433 159.456 122.881 159.616C123.329 159.776 123.686 160.011 123.953 160.32C124.219 160.629 124.353 161.072 124.353 161.648C124.363 162.149 124.235 162.592 123.969 162.976C123.713 163.36 123.345 163.659 122.865 163.872C122.395 164.085 121.835 164.192 121.185 164.192ZM125.308 165.968L126.22 162.272H127.836L126.38 165.968H125.308ZM133.565 164V155.936H135.005L135.117 157.072C135.373 156.656 135.714 156.331 136.141 156.096C136.567 155.861 137.047 155.744 137.581 155.744C137.986 155.744 138.354 155.803 138.685 155.92C139.015 156.027 139.309 156.192 139.565 156.416C139.821 156.64 140.029 156.917 140.189 157.248C140.477 156.779 140.861 156.411 141.341 156.144C141.831 155.877 142.349 155.744 142.893 155.744C143.543 155.744 144.103 155.877 144.573 156.144C145.042 156.4 145.399 156.789 145.645 157.312C145.89 157.824 146.013 158.464 146.013 159.232V164H144.429V159.392C144.429 158.645 144.274 158.08 143.965 157.696C143.666 157.312 143.223 157.12 142.637 157.12C142.242 157.12 141.89 157.221 141.581 157.424C141.271 157.627 141.026 157.92 140.845 158.304C140.674 158.688 140.589 159.157 140.589 159.712V164H138.989V159.392C138.989 158.645 138.834 158.08 138.525 157.696C138.226 157.312 137.783 157.12 137.197 157.12C136.823 157.12 136.482 157.221 136.173 157.424C135.863 157.627 135.618 157.92 135.437 158.304C135.255 158.688 135.165 159.157 135.165 159.712V164H133.565ZM151.04 164.192C150.411 164.192 149.862 164.064 149.392 163.808C148.934 163.552 148.576 163.168 148.32 162.656C148.075 162.144 147.952 161.499 147.952 160.72V155.936H149.552V160.544C149.552 161.301 149.718 161.872 150.048 162.256C150.379 162.64 150.854 162.832 151.472 162.832C151.888 162.832 152.262 162.731 152.592 162.528C152.934 162.325 153.2 162.032 153.392 161.648C153.584 161.264 153.68 160.795 153.68 160.24V155.936H155.28V164H153.856L153.744 162.624C153.499 163.115 153.142 163.499 152.672 163.776C152.203 164.053 151.659 164.192 151.04 164.192ZM157.471 164V155.936H158.911L159.055 157.456C159.236 157.093 159.471 156.789 159.759 156.544C160.047 156.288 160.383 156.091 160.767 155.952C161.161 155.813 161.609 155.744 162.111 155.744V157.44H161.535C161.204 157.44 160.889 157.483 160.591 157.568C160.292 157.643 160.025 157.776 159.791 157.968C159.567 158.16 159.391 158.421 159.263 158.752C159.135 159.083 159.071 159.493 159.071 159.984V164H157.471ZM166.252 164.192C165.591 164.192 165.042 164.08 164.604 163.856C164.167 163.632 163.842 163.333 163.628 162.96C163.415 162.576 163.308 162.165 163.308 161.728C163.308 161.195 163.447 160.741 163.724 160.368C164.002 159.984 164.396 159.691 164.908 159.488C165.42 159.285 166.034 159.184 166.748 159.184H168.844C168.844 158.715 168.775 158.325 168.636 158.016C168.498 157.707 168.29 157.477 168.012 157.328C167.746 157.168 167.404 157.088 166.988 157.088C166.508 157.088 166.098 157.205 165.756 157.44C165.415 157.664 165.202 158 165.116 158.448H163.516C163.58 157.883 163.772 157.403 164.092 157.008C164.423 156.603 164.844 156.293 165.356 156.08C165.868 155.856 166.412 155.744 166.988 155.744C167.746 155.744 168.38 155.877 168.892 156.144C169.404 156.411 169.788 156.789 170.044 157.28C170.311 157.76 170.444 158.336 170.444 159.008V164H169.052L168.924 162.64C168.807 162.853 168.668 163.056 168.508 163.248C168.348 163.44 168.156 163.605 167.932 163.744C167.719 163.883 167.468 163.989 167.18 164.064C166.903 164.149 166.594 164.192 166.252 164.192ZM166.556 162.896C166.898 162.896 167.207 162.827 167.484 162.688C167.762 162.549 167.996 162.363 168.188 162.128C168.391 161.883 168.54 161.611 168.636 161.312C168.743 161.003 168.802 160.688 168.812 160.368V160.32H166.908C166.45 160.32 166.076 160.379 165.788 160.496C165.511 160.603 165.308 160.752 165.18 160.944C165.052 161.136 164.988 161.36 164.988 161.616C164.988 161.883 165.047 162.112 165.164 162.304C165.292 162.485 165.474 162.629 165.708 162.736C165.943 162.843 166.226 162.896 166.556 162.896ZM172.486 164V152.48H174.086V164H172.486ZM179.403 164.192C178.721 164.192 178.123 164.08 177.611 163.856C177.099 163.632 176.694 163.317 176.395 162.912C176.097 162.507 175.915 162.032 175.851 161.488H177.483C177.537 161.744 177.638 161.979 177.787 162.192C177.947 162.405 178.161 162.576 178.427 162.704C178.705 162.832 179.03 162.896 179.403 162.896C179.755 162.896 180.043 162.848 180.267 162.752C180.502 162.645 180.673 162.507 180.779 162.336C180.886 162.155 180.939 161.963 180.939 161.76C180.939 161.461 180.865 161.237 180.715 161.088C180.577 160.928 180.363 160.805 180.075 160.72C179.798 160.624 179.462 160.539 179.067 160.464C178.694 160.4 178.331 160.315 177.979 160.208C177.638 160.091 177.329 159.947 177.051 159.776C176.785 159.605 176.571 159.392 176.411 159.136C176.251 158.869 176.171 158.544 176.171 158.16C176.171 157.701 176.294 157.291 176.539 156.928C176.785 156.555 177.131 156.267 177.579 156.064C178.038 155.851 178.577 155.744 179.195 155.744C180.091 155.744 180.811 155.957 181.355 156.384C181.899 156.811 182.219 157.413 182.315 158.192H180.763C180.721 157.829 180.561 157.552 180.283 157.36C180.006 157.157 179.638 157.056 179.179 157.056C178.721 157.056 178.369 157.147 178.123 157.328C177.878 157.509 177.755 157.749 177.755 158.048C177.755 158.24 177.825 158.411 177.963 158.56C178.102 158.709 178.305 158.837 178.571 158.944C178.849 159.04 179.185 159.131 179.579 159.216C180.145 159.323 180.651 159.456 181.099 159.616C181.547 159.776 181.905 160.011 182.171 160.32C182.438 160.629 182.571 161.072 182.571 161.648C182.582 162.149 182.454 162.592 182.187 162.976C181.931 163.36 181.563 163.659 181.083 163.872C180.614 164.085 180.054 164.192 179.403 164.192Z" fill="#919292"/>
</svg>
