<svg width="229" height="227" viewBox="0 0 229 227" fill="none" xmlns="http://www.w3.org/2000/svg">
<rect width="229" height="227" rx="32" fill="white"/>
<path d="M116.377 55.2293L119.205 52.4013L127.2 60.396L124.372 63.224L116.377 55.2293ZM121.333 48.3333C123.907 48.3333 126 46.24 126 43.6667C126 42.8933 125.787 42.1733 125.453 41.5333L121.853 45.1333L119.867 43.1467L123.467 39.5467C122.827 39.2133 122.107 39 121.333 39C118.76 39 116.667 41.0933 116.667 43.6667C116.667 44.2133 116.773 44.7333 116.947 45.2133L114.48 47.68L112.107 45.3067L113.053 44.36L111.173 42.48L114 39.6533C113.25 38.9043 112.233 38.4835 111.173 38.4835C110.113 38.4835 109.097 38.9043 108.347 39.6533L103.627 44.3733L105.507 46.2533H101.747L100.8 47.2L105.52 51.92L106.467 50.9733V47.2L108.347 49.08L109.293 48.1333L111.667 50.5067L101.787 60.3867L104.613 63.2133L119.787 48.0533C120.267 48.2267 120.787 48.3333 121.333 48.3333Z" fill="#E88383"/>
<path d="M61.704 99V82.2H67.752C69.096 82.2 70.208 82.432 71.088 82.896C71.968 83.344 72.624 83.952 73.056 84.72C73.488 85.488 73.704 86.368 73.704 87.36C73.704 88.288 73.496 89.144 73.08 89.928C72.664 90.696 72.016 91.32 71.136 91.8C70.256 92.264 69.128 92.496 67.752 92.496H64.584V99H61.704ZM64.584 90.144H67.584C68.72 90.144 69.536 89.896 70.032 89.4C70.528 88.888 70.776 88.208 70.776 87.36C70.776 86.48 70.528 85.792 70.032 85.296C69.536 84.8 68.72 84.552 67.584 84.552H64.584V90.144ZM76.0924 99V81.72H78.9724V99H76.0924ZM86.6741 99.288C85.6981 99.288 84.8581 99.096 84.1541 98.712C83.4661 98.312 82.9381 97.72 82.5701 96.936C82.2021 96.136 82.0181 95.152 82.0181 93.984V86.904H84.8981V93.696C84.8981 94.736 85.1141 95.528 85.5461 96.072C85.9941 96.6 86.6661 96.864 87.5621 96.864C88.1381 96.864 88.6501 96.728 89.0981 96.456C89.5621 96.184 89.9221 95.792 90.1781 95.28C90.4501 94.752 90.5861 94.112 90.5861 93.36V86.904H93.4661V99H90.9221L90.7061 96.984C90.3381 97.688 89.8021 98.248 89.0981 98.664C88.4101 99.08 87.6021 99.288 86.6741 99.288ZM96.6705 99V86.904H99.2145L99.4545 88.56C99.8385 87.952 100.343 87.48 100.967 87.144C101.607 86.792 102.335 86.616 103.151 86.616C103.759 86.616 104.303 86.696 104.783 86.856C105.279 87.016 105.711 87.256 106.079 87.576C106.463 87.896 106.775 88.296 107.015 88.776C107.463 88.104 108.047 87.576 108.767 87.192C109.487 86.808 110.271 86.616 111.119 86.616C112.127 86.616 112.983 86.824 113.687 87.24C114.391 87.64 114.927 88.24 115.295 89.04C115.663 89.824 115.847 90.792 115.847 91.944V99H112.991V92.232C112.991 91.208 112.783 90.424 112.367 89.88C111.951 89.336 111.335 89.064 110.519 89.064C109.959 89.064 109.463 89.2 109.031 89.472C108.615 89.744 108.287 90.144 108.047 90.672C107.807 91.184 107.687 91.816 107.687 92.568V99H104.831V92.232C104.831 91.208 104.623 90.424 104.207 89.88C103.791 89.336 103.167 89.064 102.335 89.064C101.807 89.064 101.327 89.2 100.895 89.472C100.479 89.744 100.151 90.144 99.9105 90.672C99.6705 91.184 99.5505 91.816 99.5505 92.568V99H96.6705ZM125.801 99.288C125.161 99.288 124.585 99.2 124.073 99.024C123.561 98.864 123.113 98.64 122.729 98.352C122.345 98.048 122.025 97.704 121.769 97.32L121.457 99H118.889V81.72H121.769V88.68C122.153 88.088 122.673 87.6 123.329 87.216C123.985 86.816 124.801 86.616 125.777 86.616C126.913 86.616 127.913 86.896 128.777 87.456C129.657 88 130.345 88.752 130.841 89.712C131.353 90.656 131.609 91.744 131.609 92.976C131.609 94.176 131.361 95.256 130.865 96.216C130.369 97.176 129.681 97.928 128.801 98.472C127.937 99.016 126.937 99.288 125.801 99.288ZM125.201 96.792C125.873 96.792 126.473 96.632 127.001 96.312C127.529 95.976 127.937 95.528 128.225 94.968C128.529 94.392 128.681 93.72 128.681 92.952C128.681 92.2 128.529 91.536 128.225 90.96C127.937 90.384 127.529 89.936 127.001 89.616C126.473 89.296 125.873 89.136 125.201 89.136C124.513 89.136 123.905 89.296 123.377 89.616C122.865 89.936 122.457 90.384 122.153 90.96C121.865 91.536 121.721 92.2 121.721 92.952C121.721 93.72 121.865 94.392 122.153 94.968C122.457 95.528 122.865 95.976 123.377 96.312C123.905 96.632 124.513 96.792 125.201 96.792ZM134.525 99V86.904H137.405V99H134.525ZM135.965 84.984C135.437 84.984 134.997 84.824 134.645 84.504C134.309 84.168 134.141 83.76 134.141 83.28C134.141 82.784 134.309 82.384 134.645 82.08C134.997 81.76 135.437 81.6 135.965 81.6C136.493 81.6 136.925 81.76 137.261 82.08C137.613 82.384 137.789 82.784 137.789 83.28C137.789 83.76 137.613 84.168 137.261 84.504C136.925 84.824 136.493 84.984 135.965 84.984ZM140.733 99V86.904H143.277L143.493 88.92C143.861 88.216 144.389 87.656 145.077 87.24C145.765 86.824 146.581 86.616 147.525 86.616C148.501 86.616 149.333 86.824 150.021 87.24C150.709 87.64 151.237 88.232 151.605 89.016C151.989 89.8 152.181 90.776 152.181 91.944V99H149.301V92.208C149.301 91.2 149.077 90.424 148.629 89.88C148.181 89.336 147.517 89.064 146.637 89.064C146.061 89.064 145.541 89.2 145.077 89.472C144.629 89.744 144.269 90.144 143.997 90.672C143.741 91.184 143.613 91.808 143.613 92.544V99H140.733ZM160.305 104.568C159.169 104.568 158.169 104.424 157.305 104.136C156.457 103.864 155.793 103.44 155.313 102.864C154.849 102.304 154.617 101.6 154.617 100.752C154.617 100.256 154.737 99.768 154.977 99.288C155.233 98.824 155.609 98.392 156.105 97.992C156.617 97.576 157.265 97.216 158.049 96.912L159.321 98.304C158.553 98.576 158.017 98.904 157.713 99.288C157.409 99.672 157.257 100.064 157.257 100.464C157.257 100.88 157.385 101.224 157.641 101.496C157.913 101.784 158.273 102 158.721 102.144C159.185 102.288 159.705 102.36 160.281 102.36C160.841 102.36 161.329 102.28 161.745 102.12C162.161 101.976 162.481 101.768 162.705 101.496C162.945 101.224 163.065 100.896 163.065 100.512C163.065 100.032 162.897 99.64 162.561 99.336C162.225 99.048 161.561 98.872 160.569 98.808C159.721 98.744 158.977 98.656 158.337 98.544C157.697 98.416 157.145 98.272 156.681 98.112C156.233 97.952 155.849 97.776 155.529 97.584C155.209 97.376 154.945 97.168 154.737 96.96V96.408L157.257 93.768L159.393 94.464L156.561 97.224L157.305 95.832C157.465 95.944 157.625 96.048 157.785 96.144C157.961 96.24 158.177 96.328 158.433 96.408C158.705 96.472 159.057 96.536 159.489 96.6C159.921 96.664 160.481 96.728 161.169 96.792C162.241 96.872 163.113 97.064 163.785 97.368C164.457 97.672 164.953 98.08 165.273 98.592C165.593 99.104 165.753 99.72 165.753 100.44C165.753 101.144 165.553 101.808 165.153 102.432C164.769 103.056 164.177 103.568 163.377 103.968C162.577 104.368 161.553 104.568 160.305 104.568ZM160.305 95.376C159.297 95.376 158.425 95.184 157.689 94.8C156.969 94.4 156.417 93.872 156.033 93.216C155.649 92.544 155.457 91.808 155.457 91.008C155.457 90.192 155.649 89.456 156.033 88.8C156.417 88.144 156.969 87.616 157.689 87.216C158.425 86.816 159.297 86.616 160.305 86.616C161.313 86.616 162.177 86.816 162.897 87.216C163.617 87.616 164.169 88.144 164.553 88.8C164.937 89.456 165.129 90.192 165.129 91.008C165.129 91.808 164.937 92.544 164.553 93.216C164.169 93.872 163.617 94.4 162.897 94.8C162.177 95.184 161.313 95.376 160.305 95.376ZM160.305 93.144C160.993 93.144 161.545 92.96 161.961 92.592C162.377 92.224 162.585 91.696 162.585 91.008C162.585 90.32 162.377 89.8 161.961 89.448C161.545 89.08 160.993 88.896 160.305 88.896C159.617 88.896 159.057 89.08 158.625 89.448C158.193 89.8 157.977 90.32 157.977 91.008C157.977 91.696 158.193 92.224 158.625 92.592C159.057 92.96 159.617 93.144 160.305 93.144ZM162.297 89.016L161.745 86.904H166.713V88.704L162.297 89.016Z" fill="#4D4E4E"/>
<path d="M41.168 143V131.8H44.992C45.888 131.8 46.624 131.949 47.2 132.248C47.776 132.547 48.2027 132.947 48.48 133.448C48.7573 133.949 48.896 134.52 48.896 135.16C48.896 135.768 48.7573 136.328 48.48 136.84C48.2133 137.341 47.792 137.747 47.216 138.056C46.64 138.355 45.8987 138.504 44.992 138.504H42.768V143H41.168ZM42.768 137.176H44.928C45.7707 137.176 46.368 136.995 46.72 136.632C47.0827 136.259 47.264 135.768 47.264 135.16C47.264 134.509 47.0827 134.008 46.72 133.656C46.368 133.304 45.7707 133.128 44.928 133.128H42.768V137.176ZM50.6531 143V134.936H52.2531V143H50.6531ZM51.4691 133.416C51.1598 133.416 50.9038 133.32 50.7011 133.128C50.5091 132.936 50.4131 132.691 50.4131 132.392C50.4131 132.104 50.5091 131.869 50.7011 131.688C50.9038 131.496 51.1598 131.4 51.4691 131.4C51.7678 131.4 52.0185 131.496 52.2211 131.688C52.4238 131.869 52.5251 132.104 52.5251 132.392C52.5251 132.691 52.4238 132.936 52.2211 133.128C52.0185 133.32 51.7678 133.416 51.4691 133.416ZM54.5411 146.52V134.936H55.9811L56.1411 136.184C56.3118 135.939 56.5251 135.709 56.7811 135.496C57.0371 135.272 57.3411 135.091 57.6931 134.952C58.0558 134.813 58.4771 134.744 58.9571 134.744C59.7251 134.744 60.3971 134.931 60.9731 135.304C61.5598 135.677 62.0131 136.184 62.3331 136.824C62.6638 137.453 62.8291 138.173 62.8291 138.984C62.8291 139.795 62.6638 140.52 62.3331 141.16C62.0025 141.789 61.5438 142.285 60.9571 142.648C60.3811 143.011 59.7091 143.192 58.9411 143.192C58.3118 143.192 57.7571 143.069 57.2771 142.824C56.7971 142.568 56.4185 142.216 56.1411 141.768V146.52H54.5411ZM58.6851 141.8C59.1758 141.8 59.6078 141.683 59.9811 141.448C60.3651 141.213 60.6638 140.883 60.8771 140.456C61.1011 140.029 61.2131 139.533 61.2131 138.968C61.2131 138.403 61.1011 137.912 60.8771 137.496C60.6638 137.069 60.3651 136.739 59.9811 136.504C59.6078 136.259 59.1758 136.136 58.6851 136.136C58.1838 136.136 57.7411 136.259 57.3571 136.504C56.9838 136.739 56.6905 137.069 56.4771 137.496C56.2638 137.912 56.1571 138.403 56.1571 138.968C56.1571 139.533 56.2638 140.029 56.4771 140.456C56.6905 140.883 56.9838 141.213 57.3571 141.448C57.7411 141.683 58.1838 141.8 58.6851 141.8ZM68.3454 143.192C67.5774 143.192 66.8947 143.016 66.2974 142.664C65.7 142.312 65.2307 141.821 64.8894 141.192C64.5587 140.563 64.3934 139.832 64.3934 139C64.3934 138.147 64.5587 137.405 64.8894 136.776C65.2307 136.136 65.7 135.64 66.2974 135.288C66.8947 134.925 67.588 134.744 68.3774 134.744C69.1667 134.744 69.844 134.92 70.4094 135.272C70.9747 135.624 71.412 136.093 71.7214 136.68C72.0307 137.256 72.1854 137.896 72.1854 138.6C72.1854 138.707 72.18 138.824 72.1694 138.952C72.1694 139.069 72.164 139.203 72.1534 139.352H65.5614V138.216H70.5854C70.5534 137.544 70.3294 137.021 69.9134 136.648C69.4974 136.264 68.98 136.072 68.3614 136.072C67.924 136.072 67.524 136.173 67.1614 136.376C66.7987 136.568 66.5054 136.856 66.2814 137.24C66.068 137.613 65.9614 138.088 65.9614 138.664V139.112C65.9614 139.709 66.068 140.216 66.2814 140.632C66.5054 141.037 66.7987 141.347 67.1614 141.56C67.524 141.763 67.9187 141.864 68.3454 141.864C68.8574 141.864 69.2787 141.752 69.6094 141.528C69.94 141.304 70.1854 141 70.3454 140.616H71.9454C71.8067 141.107 71.572 141.549 71.2414 141.944C70.9107 142.328 70.5 142.632 70.0094 142.856C69.5294 143.08 68.9747 143.192 68.3454 143.192ZM78.0568 143V131.48H79.6568V143H78.0568ZM85.5016 143.192C84.7336 143.192 84.051 143.016 83.4536 142.664C82.8563 142.312 82.387 141.821 82.0456 141.192C81.715 140.563 81.5496 139.832 81.5496 139C81.5496 138.147 81.715 137.405 82.0456 136.776C82.387 136.136 82.8563 135.64 83.4536 135.288C84.051 134.925 84.7443 134.744 85.5336 134.744C86.323 134.744 87.0003 134.92 87.5656 135.272C88.131 135.624 88.5683 136.093 88.8776 136.68C89.187 137.256 89.3416 137.896 89.3416 138.6C89.3416 138.707 89.3363 138.824 89.3256 138.952C89.3256 139.069 89.3203 139.203 89.3096 139.352H82.7176V138.216H87.7416C87.7096 137.544 87.4856 137.021 87.0696 136.648C86.6536 136.264 86.1363 136.072 85.5176 136.072C85.0803 136.072 84.6803 136.173 84.3176 136.376C83.955 136.568 83.6616 136.856 83.4376 137.24C83.2243 137.613 83.1176 138.088 83.1176 138.664V139.112C83.1176 139.709 83.2243 140.216 83.4376 140.632C83.6616 141.037 83.955 141.347 84.3176 141.56C84.6803 141.763 85.075 141.864 85.5016 141.864C86.0136 141.864 86.435 141.752 86.7656 141.528C87.0963 141.304 87.3416 141 87.5016 140.616H89.1016C88.963 141.107 88.7283 141.549 88.3976 141.944C88.067 142.328 87.6563 142.632 87.1656 142.856C86.6856 143.08 86.131 143.192 85.5016 143.192ZM93.7913 143.192C93.1299 143.192 92.5806 143.08 92.1432 142.856C91.7059 142.632 91.3806 142.333 91.1673 141.96C90.9539 141.576 90.8473 141.165 90.8473 140.728C90.8473 140.195 90.9859 139.741 91.2633 139.368C91.5406 138.984 91.9353 138.691 92.4473 138.488C92.9593 138.285 93.5726 138.184 94.2873 138.184H96.3833C96.3833 137.715 96.3139 137.325 96.1753 137.016C96.0366 136.707 95.8286 136.477 95.5513 136.328C95.2846 136.168 94.9433 136.088 94.5273 136.088C94.0473 136.088 93.6366 136.205 93.2953 136.44C92.9539 136.664 92.7406 137 92.6553 137.448H91.0553C91.1193 136.883 91.3113 136.403 91.6313 136.008C91.9619 135.603 92.3833 135.293 92.8953 135.08C93.4073 134.856 93.9513 134.744 94.5273 134.744C95.2846 134.744 95.9193 134.877 96.4313 135.144C96.9433 135.411 97.3273 135.789 97.5833 136.28C97.8499 136.76 97.9833 137.336 97.9833 138.008V143H96.5913L96.4633 141.64C96.3459 141.853 96.2073 142.056 96.0473 142.248C95.8873 142.44 95.6953 142.605 95.4713 142.744C95.2579 142.883 95.0073 142.989 94.7193 143.064C94.4419 143.149 94.1326 143.192 93.7913 143.192ZM94.0953 141.896C94.4366 141.896 94.7459 141.827 95.0233 141.688C95.3006 141.549 95.5353 141.363 95.7273 141.128C95.9299 140.883 96.0793 140.611 96.1753 140.312C96.2819 140.003 96.3406 139.688 96.3513 139.368V139.32H94.4473C93.9886 139.32 93.6153 139.379 93.3273 139.496C93.0499 139.603 92.8473 139.752 92.7193 139.944C92.5913 140.136 92.5273 140.36 92.5273 140.616C92.5273 140.883 92.5859 141.112 92.7033 141.304C92.8313 141.485 93.0126 141.629 93.2473 141.736C93.4819 141.843 93.7646 141.896 94.0953 141.896ZM105.098 143L101.386 138.584L104.746 134.936H106.682L102.682 139.208V138.008L107.114 143H105.098ZM100.026 143V131.48H101.626V143H100.026ZM111.146 143.192C110.463 143.192 109.866 143.08 109.354 142.856C108.842 142.632 108.436 142.317 108.138 141.912C107.839 141.507 107.658 141.032 107.594 140.488H109.226C109.279 140.744 109.38 140.979 109.53 141.192C109.69 141.405 109.903 141.576 110.17 141.704C110.447 141.832 110.772 141.896 111.146 141.896C111.498 141.896 111.786 141.848 112.01 141.752C112.244 141.645 112.415 141.507 112.522 141.336C112.628 141.155 112.682 140.963 112.682 140.76C112.682 140.461 112.607 140.237 112.458 140.088C112.319 139.928 112.106 139.805 111.818 139.72C111.54 139.624 111.204 139.539 110.81 139.464C110.436 139.4 110.074 139.315 109.722 139.208C109.38 139.091 109.071 138.947 108.794 138.776C108.527 138.605 108.314 138.392 108.154 138.136C107.994 137.869 107.914 137.544 107.914 137.16C107.914 136.701 108.036 136.291 108.282 135.928C108.527 135.555 108.874 135.267 109.322 135.064C109.78 134.851 110.319 134.744 110.938 134.744C111.834 134.744 112.554 134.957 113.098 135.384C113.642 135.811 113.962 136.413 114.058 137.192H112.506C112.463 136.829 112.303 136.552 112.026 136.36C111.748 136.157 111.38 136.056 110.922 136.056C110.463 136.056 110.111 136.147 109.866 136.328C109.62 136.509 109.498 136.749 109.498 137.048C109.498 137.24 109.567 137.411 109.706 137.56C109.844 137.709 110.047 137.837 110.314 137.944C110.591 138.04 110.927 138.131 111.322 138.216C111.887 138.323 112.394 138.456 112.842 138.616C113.29 138.776 113.647 139.011 113.914 139.32C114.18 139.629 114.314 140.072 114.314 140.648C114.324 141.149 114.196 141.592 113.93 141.976C113.674 142.36 113.306 142.659 112.826 142.872C112.356 143.085 111.796 143.192 111.146 143.192ZM115.269 144.968L116.181 141.272H117.797L116.341 144.968H115.269ZM127.11 143.192C126.342 143.192 125.664 143.011 125.078 142.648C124.491 142.275 124.032 141.773 123.702 141.144C123.382 140.504 123.222 139.779 123.222 138.968C123.222 138.147 123.382 137.421 123.702 136.792C124.032 136.163 124.491 135.667 125.078 135.304C125.675 134.931 126.358 134.744 127.126 134.744C127.755 134.744 128.31 134.872 128.79 135.128C129.27 135.373 129.643 135.725 129.91 136.184V131.48H131.51V143H130.07L129.91 141.752C129.75 141.997 129.542 142.232 129.286 142.456C129.03 142.669 128.72 142.845 128.358 142.984C127.995 143.123 127.579 143.192 127.11 143.192ZM127.366 141.8C127.867 141.8 128.31 141.683 128.694 141.448C129.078 141.213 129.371 140.883 129.574 140.456C129.787 140.029 129.894 139.533 129.894 138.968C129.894 138.403 129.787 137.912 129.574 137.496C129.371 137.069 129.078 136.739 128.694 136.504C128.31 136.259 127.867 136.136 127.366 136.136C126.886 136.136 126.454 136.259 126.07 136.504C125.686 136.739 125.387 137.069 125.174 137.496C124.96 137.912 124.854 138.403 124.854 138.968C124.854 139.533 124.96 140.029 125.174 140.456C125.387 140.883 125.686 141.213 126.07 141.448C126.454 141.683 126.886 141.8 127.366 141.8ZM133.697 143V134.936H135.137L135.281 136.456C135.463 136.093 135.697 135.789 135.985 135.544C136.273 135.288 136.609 135.091 136.993 134.952C137.388 134.813 137.836 134.744 138.337 134.744V136.44H137.761C137.431 136.44 137.116 136.483 136.817 136.568C136.519 136.643 136.252 136.776 136.017 136.968C135.793 137.16 135.617 137.421 135.489 137.752C135.361 138.083 135.297 138.493 135.297 138.984V143H133.697ZM142.479 143.192C141.817 143.192 141.268 143.08 140.831 142.856C140.393 142.632 140.068 142.333 139.855 141.96C139.641 141.576 139.535 141.165 139.535 140.728C139.535 140.195 139.673 139.741 139.951 139.368C140.228 138.984 140.623 138.691 141.135 138.488C141.647 138.285 142.26 138.184 142.975 138.184H145.071C145.071 137.715 145.001 137.325 144.863 137.016C144.724 136.707 144.516 136.477 144.239 136.328C143.972 136.168 143.631 136.088 143.215 136.088C142.735 136.088 142.324 136.205 141.983 136.44C141.641 136.664 141.428 137 141.343 137.448H139.743C139.807 136.883 139.999 136.403 140.319 136.008C140.649 135.603 141.071 135.293 141.583 135.08C142.095 134.856 142.639 134.744 143.215 134.744C143.972 134.744 144.607 134.877 145.119 135.144C145.631 135.411 146.015 135.789 146.271 136.28C146.537 136.76 146.671 137.336 146.671 138.008V143H145.279L145.151 141.64C145.033 141.853 144.895 142.056 144.735 142.248C144.575 142.44 144.383 142.605 144.159 142.744C143.945 142.883 143.695 142.989 143.407 143.064C143.129 143.149 142.82 143.192 142.479 143.192ZM142.783 141.896C143.124 141.896 143.433 141.827 143.711 141.688C143.988 141.549 144.223 141.363 144.415 141.128C144.617 140.883 144.767 140.611 144.863 140.312C144.969 140.003 145.028 139.688 145.039 139.368V139.32H143.135C142.676 139.32 142.303 139.379 142.015 139.496C141.737 139.603 141.535 139.752 141.407 139.944C141.279 140.136 141.215 140.36 141.215 140.616C141.215 140.883 141.273 141.112 141.391 141.304C141.519 141.485 141.7 141.629 141.935 141.736C142.169 141.843 142.452 141.896 142.783 141.896ZM148.825 143V134.936H150.425V143H148.825ZM149.641 133.416C149.332 133.416 149.076 133.32 148.873 133.128C148.681 132.936 148.585 132.691 148.585 132.392C148.585 132.104 148.681 131.869 148.873 131.688C149.076 131.496 149.332 131.4 149.641 131.4C149.94 131.4 150.19 131.496 150.393 131.688C150.596 131.869 150.697 132.104 150.697 132.392C150.697 132.691 150.596 132.936 150.393 133.128C150.19 133.32 149.94 133.416 149.641 133.416ZM152.713 143V134.936H154.153L154.249 136.312C154.505 135.832 154.868 135.453 155.337 135.176C155.806 134.888 156.345 134.744 156.953 134.744C157.593 134.744 158.142 134.872 158.601 135.128C159.06 135.384 159.417 135.773 159.673 136.296C159.929 136.808 160.057 137.453 160.057 138.232V143H158.457V138.392C158.457 137.645 158.292 137.08 157.961 136.696C157.63 136.312 157.15 136.12 156.521 136.12C156.105 136.12 155.732 136.221 155.401 136.424C155.07 136.616 154.804 136.904 154.601 137.288C154.409 137.672 154.313 138.141 154.313 138.696V143H152.713ZM164.776 143.192C164.114 143.192 163.565 143.08 163.128 142.856C162.69 142.632 162.365 142.333 162.152 141.96C161.938 141.576 161.832 141.165 161.832 140.728C161.832 140.195 161.97 139.741 162.248 139.368C162.525 138.984 162.92 138.691 163.432 138.488C163.944 138.285 164.557 138.184 165.272 138.184H167.368C167.368 137.715 167.298 137.325 167.16 137.016C167.021 136.707 166.813 136.477 166.536 136.328C166.269 136.168 165.928 136.088 165.512 136.088C165.032 136.088 164.621 136.205 164.28 136.44C163.938 136.664 163.725 137 163.64 137.448H162.04C162.104 136.883 162.296 136.403 162.616 136.008C162.946 135.603 163.368 135.293 163.88 135.08C164.392 134.856 164.936 134.744 165.512 134.744C166.269 134.744 166.904 134.877 167.416 135.144C167.928 135.411 168.312 135.789 168.568 136.28C168.834 136.76 168.968 137.336 168.968 138.008V143H167.576L167.448 141.64C167.33 141.853 167.192 142.056 167.032 142.248C166.872 142.44 166.68 142.605 166.456 142.744C166.242 142.883 165.992 142.989 165.704 143.064C165.426 143.149 165.117 143.192 164.776 143.192ZM165.08 141.896C165.421 141.896 165.73 141.827 166.008 141.688C166.285 141.549 166.52 141.363 166.712 141.128C166.914 140.883 167.064 140.611 167.16 140.312C167.266 140.003 167.325 139.688 167.336 139.368V139.32H165.432C164.973 139.32 164.6 139.379 164.312 139.496C164.034 139.603 163.832 139.752 163.704 139.944C163.576 140.136 163.512 140.36 163.512 140.616C163.512 140.883 163.57 141.112 163.688 141.304C163.816 141.485 163.997 141.629 164.232 141.736C164.466 141.843 164.749 141.896 165.08 141.896ZM174.29 146.712C173.554 146.712 172.903 146.616 172.338 146.424C171.773 146.243 171.335 145.96 171.026 145.576C170.717 145.192 170.562 144.723 170.562 144.168C170.562 143.88 170.626 143.587 170.754 143.288C170.882 143 171.09 142.723 171.378 142.456C171.666 142.189 172.055 141.949 172.546 141.736L173.442 142.456C172.898 142.659 172.53 142.899 172.338 143.176C172.157 143.464 172.066 143.741 172.066 144.008C172.066 144.328 172.162 144.595 172.354 144.808C172.546 145.021 172.807 145.181 173.138 145.288C173.479 145.395 173.863 145.448 174.29 145.448C174.706 145.448 175.069 145.389 175.378 145.272C175.687 145.155 175.927 144.989 176.098 144.776C176.269 144.563 176.354 144.312 176.354 144.024C176.354 143.683 176.226 143.395 175.97 143.16C175.714 142.936 175.223 142.803 174.498 142.76C173.89 142.717 173.373 142.659 172.946 142.584C172.53 142.509 172.173 142.419 171.874 142.312C171.586 142.205 171.341 142.088 171.138 141.96C170.946 141.832 170.781 141.699 170.642 141.56V141.192L172.242 139.544L173.538 139.992L171.794 141.608L172.13 140.888C172.247 140.963 172.359 141.037 172.466 141.112C172.573 141.176 172.717 141.235 172.898 141.288C173.079 141.341 173.325 141.389 173.634 141.432C173.943 141.475 174.349 141.517 174.85 141.56C175.575 141.613 176.157 141.741 176.594 141.944C177.042 142.147 177.367 142.419 177.57 142.76C177.773 143.101 177.874 143.507 177.874 143.976C177.874 144.435 177.746 144.872 177.49 145.288C177.245 145.704 176.855 146.045 176.322 146.312C175.799 146.579 175.122 146.712 174.29 146.712ZM174.29 140.52C173.607 140.52 173.026 140.392 172.546 140.136C172.077 139.88 171.714 139.533 171.458 139.096C171.213 138.659 171.09 138.173 171.09 137.64C171.09 137.096 171.213 136.611 171.458 136.184C171.714 135.747 172.082 135.4 172.562 135.144C173.042 134.877 173.618 134.744 174.29 134.744C174.962 134.744 175.533 134.877 176.002 135.144C176.482 135.4 176.845 135.747 177.09 136.184C177.346 136.611 177.474 137.096 177.474 137.64C177.474 138.173 177.346 138.659 177.09 139.096C176.845 139.533 176.482 139.88 176.002 140.136C175.533 140.392 174.962 140.52 174.29 140.52ZM174.29 139.24C174.813 139.24 175.229 139.107 175.538 138.84C175.847 138.563 176.002 138.163 176.002 137.64C176.002 137.117 175.847 136.723 175.538 136.456C175.229 136.179 174.813 136.04 174.29 136.04C173.767 136.04 173.346 136.179 173.026 136.456C172.706 136.723 172.546 137.117 172.546 137.64C172.546 138.163 172.706 138.563 173.026 138.84C173.346 139.107 173.767 139.24 174.29 139.24ZM175.602 136.2L175.218 134.936H178.53V136.04L175.602 136.2ZM183.47 143.192C182.702 143.192 182.02 143.016 181.422 142.664C180.825 142.312 180.356 141.821 180.014 141.192C179.684 140.563 179.518 139.832 179.518 139C179.518 138.147 179.684 137.405 180.014 136.776C180.356 136.136 180.825 135.64 181.422 135.288C182.02 134.925 182.713 134.744 183.502 134.744C184.292 134.744 184.969 134.92 185.534 135.272C186.1 135.624 186.537 136.093 186.846 136.68C187.156 137.256 187.31 137.896 187.31 138.6C187.31 138.707 187.305 138.824 187.294 138.952C187.294 139.069 187.289 139.203 187.278 139.352H180.686V138.216H185.71C185.678 137.544 185.454 137.021 185.038 136.648C184.622 136.264 184.105 136.072 183.486 136.072C183.049 136.072 182.649 136.173 182.286 136.376C181.924 136.568 181.63 136.856 181.406 137.24C181.193 137.613 181.086 138.088 181.086 138.664V139.112C181.086 139.709 181.193 140.216 181.406 140.632C181.63 141.037 181.924 141.347 182.286 141.56C182.649 141.763 183.044 141.864 183.47 141.864C183.982 141.864 184.404 141.752 184.734 141.528C185.065 141.304 185.31 141 185.47 140.616H187.07C186.932 141.107 186.697 141.549 186.366 141.944C186.036 142.328 185.625 142.632 185.134 142.856C184.654 143.08 184.1 143.192 183.47 143.192ZM22.2859 164V155.936H23.8859V164H22.2859ZM23.1019 154.416C22.7926 154.416 22.5366 154.32 22.3339 154.128C22.1419 153.936 22.0459 153.691 22.0459 153.392C22.0459 153.104 22.1419 152.869 22.3339 152.688C22.5366 152.496 22.7926 152.4 23.1019 152.4C23.4006 152.4 23.6513 152.496 23.8539 152.688C24.0566 152.869 24.1579 153.104 24.1579 153.392C24.1579 153.691 24.0566 153.936 23.8539 154.128C23.6513 154.32 23.4006 154.416 23.1019 154.416ZM29.2939 164.192C28.6113 164.192 28.0139 164.08 27.5019 163.856C26.9899 163.632 26.5846 163.317 26.2859 162.912C25.9873 162.507 25.8059 162.032 25.7419 161.488H27.3739C27.4273 161.744 27.5286 161.979 27.6779 162.192C27.8379 162.405 28.0513 162.576 28.3179 162.704C28.5953 162.832 28.9206 162.896 29.2939 162.896C29.6459 162.896 29.9339 162.848 30.1579 162.752C30.3926 162.645 30.5633 162.507 30.6699 162.336C30.7766 162.155 30.8299 161.963 30.8299 161.76C30.8299 161.461 30.7553 161.237 30.6059 161.088C30.4673 160.928 30.2539 160.805 29.9659 160.72C29.6886 160.624 29.3526 160.539 28.9579 160.464C28.5846 160.4 28.2219 160.315 27.8699 160.208C27.5286 160.091 27.2193 159.947 26.9419 159.776C26.6753 159.605 26.4619 159.392 26.3019 159.136C26.1419 158.869 26.0619 158.544 26.0619 158.16C26.0619 157.701 26.1846 157.291 26.4299 156.928C26.6753 156.555 27.0219 156.267 27.4699 156.064C27.9286 155.851 28.4673 155.744 29.0859 155.744C29.9819 155.744 30.7019 155.957 31.2459 156.384C31.7899 156.811 32.1099 157.413 32.2059 158.192H30.6539C30.6113 157.829 30.4513 157.552 30.1739 157.36C29.8966 157.157 29.5286 157.056 29.0699 157.056C28.6113 157.056 28.2593 157.147 28.0139 157.328C27.7686 157.509 27.6459 157.749 27.6459 158.048C27.6459 158.24 27.7153 158.411 27.8539 158.56C27.9926 158.709 28.1953 158.837 28.4619 158.944C28.7393 159.04 29.0753 159.131 29.4699 159.216C30.0353 159.323 30.5419 159.456 30.9899 159.616C31.4379 159.776 31.7953 160.011 32.0619 160.32C32.3286 160.629 32.4619 161.072 32.4619 161.648C32.4726 162.149 32.3446 162.592 32.0779 162.976C31.8219 163.36 31.4539 163.659 30.9739 163.872C30.5046 164.085 29.9446 164.192 29.2939 164.192ZM37.4658 164.192C36.7831 164.192 36.1858 164.08 35.6738 163.856C35.1618 163.632 34.7565 163.317 34.4578 162.912C34.1591 162.507 33.9778 162.032 33.9138 161.488H35.5458C35.5991 161.744 35.7005 161.979 35.8498 162.192C36.0098 162.405 36.2231 162.576 36.4898 162.704C36.7671 162.832 37.0925 162.896 37.4658 162.896C37.8178 162.896 38.1058 162.848 38.3298 162.752C38.5645 162.645 38.7351 162.507 38.8418 162.336C38.9485 162.155 39.0018 161.963 39.0018 161.76C39.0018 161.461 38.9271 161.237 38.7778 161.088C38.6391 160.928 38.4258 160.805 38.1378 160.72C37.8605 160.624 37.5245 160.539 37.1298 160.464C36.7565 160.4 36.3938 160.315 36.0418 160.208C35.7005 160.091 35.3911 159.947 35.1138 159.776C34.8471 159.605 34.6338 159.392 34.4738 159.136C34.3138 158.869 34.2338 158.544 34.2338 158.16C34.2338 157.701 34.3565 157.291 34.6018 156.928C34.8471 156.555 35.1938 156.267 35.6418 156.064C36.1005 155.851 36.6391 155.744 37.2578 155.744C38.1538 155.744 38.8738 155.957 39.4178 156.384C39.9618 156.811 40.2818 157.413 40.3778 158.192H38.8258C38.7831 157.829 38.6231 157.552 38.3458 157.36C38.0685 157.157 37.7005 157.056 37.2418 157.056C36.7831 157.056 36.4311 157.147 36.1858 157.328C35.9405 157.509 35.8178 157.749 35.8178 158.048C35.8178 158.24 35.8871 158.411 36.0258 158.56C36.1645 158.709 36.3671 158.837 36.6338 158.944C36.9111 159.04 37.2471 159.131 37.6418 159.216C38.2071 159.323 38.7138 159.456 39.1618 159.616C39.6098 159.776 39.9671 160.011 40.2338 160.32C40.5005 160.629 40.6338 161.072 40.6338 161.648C40.6445 162.149 40.5165 162.592 40.2498 162.976C39.9938 163.36 39.6258 163.659 39.1458 163.872C38.6765 164.085 38.1165 164.192 37.4658 164.192ZM45.4777 164.192C44.8484 164.192 44.299 164.064 43.8297 163.808C43.371 163.552 43.0137 163.168 42.7577 162.656C42.5124 162.144 42.3897 161.499 42.3897 160.72V155.936H43.9897V160.544C43.9897 161.301 44.155 161.872 44.4857 162.256C44.8164 162.64 45.291 162.832 45.9097 162.832C46.3257 162.832 46.699 162.731 47.0297 162.528C47.371 162.325 47.6377 162.032 47.8297 161.648C48.0217 161.264 48.1177 160.795 48.1177 160.24V155.936H49.7177V164H48.2937L48.1817 162.624C47.9364 163.115 47.579 163.499 47.1097 163.776C46.6404 164.053 46.0964 164.192 45.4777 164.192ZM55.5563 164.192C54.7883 164.192 54.1056 164.016 53.5083 163.664C52.911 163.312 52.4416 162.821 52.1003 162.192C51.7696 161.563 51.6043 160.832 51.6043 160C51.6043 159.147 51.7696 158.405 52.1003 157.776C52.4416 157.136 52.911 156.64 53.5083 156.288C54.1056 155.925 54.799 155.744 55.5883 155.744C56.3776 155.744 57.055 155.92 57.6203 156.272C58.1856 156.624 58.623 157.093 58.9323 157.68C59.2416 158.256 59.3963 158.896 59.3963 159.6C59.3963 159.707 59.391 159.824 59.3803 159.952C59.3803 160.069 59.375 160.203 59.3643 160.352H52.7723V159.216H57.7963C57.7643 158.544 57.5403 158.021 57.1243 157.648C56.7083 157.264 56.191 157.072 55.5723 157.072C55.135 157.072 54.735 157.173 54.3723 157.376C54.0096 157.568 53.7163 157.856 53.4923 158.24C53.279 158.613 53.1723 159.088 53.1723 159.664V160.112C53.1723 160.709 53.279 161.216 53.4923 161.632C53.7163 162.037 54.0096 162.347 54.3723 162.56C54.735 162.763 55.1296 162.864 55.5563 162.864C56.0683 162.864 56.4896 162.752 56.8203 162.528C57.151 162.304 57.3963 162 57.5563 161.616H59.1563C59.0176 162.107 58.783 162.549 58.4523 162.944C58.1216 163.328 57.711 163.632 57.2203 163.856C56.7403 164.08 56.1856 164.192 55.5563 164.192ZM64.2939 164.192C63.6113 164.192 63.0139 164.08 62.5019 163.856C61.9899 163.632 61.5846 163.317 61.2859 162.912C60.9873 162.507 60.8059 162.032 60.7419 161.488H62.3739C62.4273 161.744 62.5286 161.979 62.6779 162.192C62.8379 162.405 63.0513 162.576 63.3179 162.704C63.5953 162.832 63.9206 162.896 64.2939 162.896C64.6459 162.896 64.9339 162.848 65.1579 162.752C65.3926 162.645 65.5633 162.507 65.6699 162.336C65.7766 162.155 65.8299 161.963 65.8299 161.76C65.8299 161.461 65.7553 161.237 65.6059 161.088C65.4673 160.928 65.2539 160.805 64.9659 160.72C64.6886 160.624 64.3526 160.539 63.9579 160.464C63.5846 160.4 63.2219 160.315 62.8699 160.208C62.5286 160.091 62.2193 159.947 61.9419 159.776C61.6753 159.605 61.4619 159.392 61.3019 159.136C61.1419 158.869 61.0619 158.544 61.0619 158.16C61.0619 157.701 61.1846 157.291 61.4299 156.928C61.6753 156.555 62.0219 156.267 62.4699 156.064C62.9286 155.851 63.4673 155.744 64.0859 155.744C64.9819 155.744 65.7019 155.957 66.2459 156.384C66.7899 156.811 67.1099 157.413 67.2059 158.192H65.6539C65.6113 157.829 65.4513 157.552 65.1739 157.36C64.8966 157.157 64.5286 157.056 64.0699 157.056C63.6113 157.056 63.2593 157.147 63.0139 157.328C62.7686 157.509 62.6459 157.749 62.6459 158.048C62.6459 158.24 62.7153 158.411 62.8539 158.56C62.9926 158.709 63.1953 158.837 63.4619 158.944C63.7393 159.04 64.0753 159.131 64.4699 159.216C65.0353 159.323 65.5419 159.456 65.9899 159.616C66.4379 159.776 66.7953 160.011 67.0619 160.32C67.3286 160.629 67.4619 161.072 67.4619 161.648C67.4726 162.149 67.3446 162.592 67.0779 162.976C66.8219 163.36 66.4539 163.659 65.9739 163.872C65.5046 164.085 64.9446 164.192 64.2939 164.192ZM68.4178 165.968L69.3298 162.272H70.9458L69.4898 165.968H68.4178ZM81.0739 164.192C80.6366 164.192 80.2366 164.128 79.8739 164C79.5219 163.883 79.2126 163.717 78.9459 163.504C78.6793 163.291 78.4553 163.045 78.2739 162.768L78.1139 164H76.6739V152.48H78.2739V157.2C78.5299 156.795 78.8873 156.453 79.3459 156.176C79.8153 155.888 80.3913 155.744 81.0739 155.744C81.8419 155.744 82.5193 155.931 83.1059 156.304C83.6926 156.667 84.1459 157.168 84.4659 157.808C84.7966 158.437 84.9619 159.163 84.9619 159.984C84.9619 160.784 84.7966 161.504 84.4659 162.144C84.1459 162.784 83.6926 163.285 83.1059 163.648C82.5193 164.011 81.8419 164.192 81.0739 164.192ZM80.8179 162.8C81.3086 162.8 81.7406 162.683 82.1139 162.448C82.4979 162.213 82.7966 161.883 83.0099 161.456C83.2339 161.029 83.3459 160.533 83.3459 159.968C83.3459 159.403 83.2339 158.912 83.0099 158.496C82.7966 158.069 82.4979 157.739 82.1139 157.504C81.7406 157.259 81.3086 157.136 80.8179 157.136C80.3166 157.136 79.8739 157.259 79.4899 157.504C79.1166 157.739 78.8233 158.069 78.6099 158.496C78.3966 158.912 78.2899 159.403 78.2899 159.968C78.2899 160.533 78.3966 161.029 78.6099 161.456C78.8233 161.883 79.1166 162.213 79.4899 162.448C79.8739 162.683 80.3166 162.8 80.8179 162.8ZM89.5022 164.192C88.8409 164.192 88.2915 164.08 87.8542 163.856C87.4169 163.632 87.0915 163.333 86.8782 162.96C86.6649 162.576 86.5582 162.165 86.5582 161.728C86.5582 161.195 86.6969 160.741 86.9742 160.368C87.2515 159.984 87.6462 159.691 88.1582 159.488C88.6702 159.285 89.2835 159.184 89.9982 159.184H92.0942C92.0942 158.715 92.0249 158.325 91.8862 158.016C91.7475 157.707 91.5395 157.477 91.2622 157.328C90.9955 157.168 90.6542 157.088 90.2382 157.088C89.7582 157.088 89.3475 157.205 89.0062 157.44C88.6649 157.664 88.4515 158 88.3662 158.448H86.7662C86.8302 157.883 87.0222 157.403 87.3422 157.008C87.6729 156.603 88.0942 156.293 88.6062 156.08C89.1182 155.856 89.6622 155.744 90.2382 155.744C90.9955 155.744 91.6302 155.877 92.1422 156.144C92.6542 156.411 93.0382 156.789 93.2942 157.28C93.5609 157.76 93.6942 158.336 93.6942 159.008V164H92.3022L92.1742 162.64C92.0569 162.853 91.9182 163.056 91.7582 163.248C91.5982 163.44 91.4062 163.605 91.1822 163.744C90.9689 163.883 90.7182 163.989 90.4302 164.064C90.1529 164.149 89.8435 164.192 89.5022 164.192ZM89.8062 162.896C90.1475 162.896 90.4569 162.827 90.7342 162.688C91.0115 162.549 91.2462 162.363 91.4382 162.128C91.6409 161.883 91.7902 161.611 91.8862 161.312C91.9929 161.003 92.0515 160.688 92.0622 160.368V160.32H90.1582C89.6995 160.32 89.3262 160.379 89.0382 160.496C88.7609 160.603 88.5582 160.752 88.4302 160.944C88.3022 161.136 88.2382 161.36 88.2382 161.616C88.2382 161.883 88.2969 162.112 88.4142 162.304C88.5422 162.485 88.7235 162.629 88.9582 162.736C89.1929 162.843 89.4755 162.896 89.8062 162.896ZM98.8926 164C98.3806 164 97.9379 163.92 97.5646 163.76C97.1912 163.6 96.9032 163.333 96.7006 162.96C96.4979 162.587 96.3966 162.08 96.3966 161.44V157.296H95.0046V155.936H96.3966L96.5886 153.92H97.9966V155.936H100.285V157.296H97.9966V161.456C97.9966 161.915 98.0926 162.229 98.2846 162.4C98.4766 162.56 98.8072 162.64 99.2766 162.64H100.205V164H98.8926ZM102.049 164V152.48H103.649V157.248C103.916 156.779 104.284 156.411 104.753 156.144C105.233 155.877 105.761 155.744 106.337 155.744C106.977 155.744 107.526 155.877 107.985 156.144C108.444 156.4 108.796 156.789 109.041 157.312C109.286 157.824 109.409 158.469 109.409 159.248V164H107.825V159.408C107.825 158.661 107.665 158.096 107.345 157.712C107.025 157.317 106.55 157.12 105.921 157.12C105.494 157.12 105.11 157.221 104.769 157.424C104.428 157.627 104.156 157.925 103.953 158.32C103.75 158.704 103.649 159.173 103.649 159.728V164H102.049ZM111.455 164V155.936H112.895L113.039 157.456C113.221 157.093 113.455 156.789 113.743 156.544C114.031 156.288 114.367 156.091 114.751 155.952C115.146 155.813 115.594 155.744 116.095 155.744V157.44H115.519C115.189 157.44 114.874 157.483 114.575 157.568C114.277 157.643 114.01 157.776 113.775 157.968C113.551 158.16 113.375 158.421 113.247 158.752C113.119 159.083 113.055 159.493 113.055 159.984V164H111.455ZM121.01 164.192C120.253 164.192 119.57 164.016 118.962 163.664C118.365 163.312 117.89 162.821 117.538 162.192C117.197 161.552 117.026 160.816 117.026 159.984C117.026 159.131 117.202 158.389 117.554 157.76C117.906 157.12 118.386 156.624 118.994 156.272C119.602 155.92 120.285 155.744 121.042 155.744C121.81 155.744 122.493 155.92 123.09 156.272C123.688 156.624 124.157 157.115 124.498 157.744C124.85 158.373 125.026 159.115 125.026 159.968C125.026 160.821 124.85 161.563 124.498 162.192C124.157 162.821 123.682 163.312 123.074 163.664C122.466 164.016 121.778 164.192 121.01 164.192ZM121.01 162.816C121.448 162.816 121.842 162.709 122.194 162.496C122.557 162.283 122.845 161.968 123.058 161.552C123.282 161.125 123.394 160.597 123.394 159.968C123.394 159.339 123.288 158.816 123.074 158.4C122.861 157.973 122.573 157.653 122.21 157.44C121.858 157.227 121.469 157.12 121.042 157.12C120.616 157.12 120.221 157.227 119.858 157.44C119.496 157.653 119.202 157.973 118.978 158.4C118.765 158.816 118.658 159.339 118.658 159.968C118.658 160.597 118.765 161.125 118.978 161.552C119.202 161.968 119.49 162.283 119.842 162.496C120.205 162.709 120.594 162.816 121.01 162.816ZM130.588 164.192C129.831 164.192 129.148 164.016 128.54 163.664C127.943 163.312 127.468 162.821 127.116 162.192C126.775 161.552 126.604 160.816 126.604 159.984C126.604 159.131 126.78 158.389 127.132 157.76C127.484 157.12 127.964 156.624 128.572 156.272C129.18 155.92 129.863 155.744 130.62 155.744C131.388 155.744 132.071 155.92 132.668 156.272C133.266 156.624 133.735 157.115 134.076 157.744C134.428 158.373 134.604 159.115 134.604 159.968C134.604 160.821 134.428 161.563 134.076 162.192C133.735 162.821 133.26 163.312 132.652 163.664C132.044 164.016 131.356 164.192 130.588 164.192ZM130.588 162.816C131.026 162.816 131.42 162.709 131.772 162.496C132.135 162.283 132.423 161.968 132.636 161.552C132.86 161.125 132.972 160.597 132.972 159.968C132.972 159.339 132.866 158.816 132.652 158.4C132.439 157.973 132.151 157.653 131.788 157.44C131.436 157.227 131.047 157.12 130.62 157.12C130.194 157.12 129.799 157.227 129.436 157.44C129.074 157.653 128.78 157.973 128.556 158.4C128.343 158.816 128.236 159.339 128.236 159.968C128.236 160.597 128.343 161.125 128.556 161.552C128.78 161.968 129.068 162.283 129.42 162.496C129.783 162.709 130.172 162.816 130.588 162.816ZM136.486 164V155.936H137.926L138.038 157.072C138.294 156.656 138.636 156.331 139.062 156.096C139.489 155.861 139.969 155.744 140.502 155.744C140.908 155.744 141.276 155.803 141.606 155.92C141.937 156.027 142.23 156.192 142.486 156.416C142.742 156.64 142.95 156.917 143.11 157.248C143.398 156.779 143.782 156.411 144.262 156.144C144.753 155.877 145.27 155.744 145.814 155.744C146.465 155.744 147.025 155.877 147.494 156.144C147.964 156.4 148.321 156.789 148.566 157.312C148.812 157.824 148.934 158.464 148.934 159.232V164H147.35V159.392C147.35 158.645 147.196 158.08 146.886 157.696C146.588 157.312 146.145 157.12 145.558 157.12C145.164 157.12 144.812 157.221 144.502 157.424C144.193 157.627 143.948 157.92 143.766 158.304C143.596 158.688 143.51 159.157 143.51 159.712V164H141.91V159.392C141.91 158.645 141.756 158.08 141.446 157.696C141.148 157.312 140.705 157.12 140.118 157.12C139.745 157.12 139.404 157.221 139.094 157.424C138.785 157.627 138.54 157.92 138.358 158.304C138.177 158.688 138.086 159.157 138.086 159.712V164H136.486ZM155.528 164V157.296H154.344V155.936H155.528V154.848C155.528 154.293 155.618 153.84 155.8 153.488C155.992 153.136 156.269 152.88 156.632 152.72C156.994 152.56 157.432 152.48 157.944 152.48H158.776V153.84H158.2C157.816 153.84 157.538 153.92 157.368 154.08C157.208 154.229 157.128 154.496 157.128 154.88V155.936H162.04V164H160.44V157.296H157.128V164H155.528ZM161.256 154.544C160.957 154.544 160.706 154.448 160.504 154.256C160.301 154.064 160.2 153.819 160.2 153.52C160.2 153.232 160.301 152.997 160.504 152.816C160.706 152.624 160.957 152.528 161.256 152.528C161.565 152.528 161.816 152.624 162.008 152.816C162.21 152.997 162.312 153.232 162.312 153.52C162.312 153.819 162.21 154.064 162.008 154.256C161.816 154.448 161.565 154.544 161.256 154.544ZM167.674 164C167.162 164 166.719 163.92 166.346 163.76C165.972 163.6 165.684 163.333 165.482 162.96C165.279 162.587 165.178 162.08 165.178 161.44V157.296H163.786V155.936H165.178L165.37 153.92H166.778V155.936H169.066V157.296H166.778V161.456C166.778 161.915 166.874 162.229 167.066 162.4C167.258 162.56 167.588 162.64 168.058 162.64H168.986V164H167.674ZM174.158 164C173.646 164 173.204 163.92 172.83 163.76C172.457 163.6 172.169 163.333 171.966 162.96C171.764 162.587 171.662 162.08 171.662 161.44V157.296H170.27V155.936H171.662L171.854 153.92H173.262V155.936H175.55V157.296H173.262V161.456C173.262 161.915 173.358 162.229 173.55 162.4C173.742 162.56 174.073 162.64 174.542 162.64H175.47V164H174.158ZM177.427 164V155.936H179.027V164H177.427ZM178.243 154.416C177.933 154.416 177.677 154.32 177.475 154.128C177.283 153.936 177.187 153.691 177.187 153.392C177.187 153.104 177.283 152.869 177.475 152.688C177.677 152.496 177.933 152.4 178.243 152.4C178.541 152.4 178.792 152.496 178.995 152.688C179.197 152.869 179.299 153.104 179.299 153.392C179.299 153.691 179.197 153.936 178.995 154.128C178.792 154.32 178.541 154.416 178.243 154.416ZM181.315 164V155.936H182.755L182.851 157.312C183.107 156.832 183.469 156.453 183.939 156.176C184.408 155.888 184.947 155.744 185.555 155.744C186.195 155.744 186.744 155.872 187.203 156.128C187.661 156.384 188.019 156.773 188.275 157.296C188.531 157.808 188.659 158.453 188.659 159.232V164H187.059V159.392C187.059 158.645 186.893 158.08 186.563 157.696C186.232 157.312 185.752 157.12 185.123 157.12C184.707 157.12 184.333 157.221 184.003 157.424C183.672 157.616 183.405 157.904 183.203 158.288C183.011 158.672 182.915 159.141 182.915 159.696V164H181.315ZM193.985 167.712C193.249 167.712 192.599 167.616 192.033 167.424C191.468 167.243 191.031 166.96 190.721 166.576C190.412 166.192 190.257 165.723 190.257 165.168C190.257 164.88 190.321 164.587 190.449 164.288C190.577 164 190.785 163.723 191.073 163.456C191.361 163.189 191.751 162.949 192.241 162.736L193.137 163.456C192.593 163.659 192.225 163.899 192.033 164.176C191.852 164.464 191.761 164.741 191.761 165.008C191.761 165.328 191.857 165.595 192.049 165.808C192.241 166.021 192.503 166.181 192.833 166.288C193.175 166.395 193.559 166.448 193.985 166.448C194.401 166.448 194.764 166.389 195.073 166.272C195.383 166.155 195.623 165.989 195.793 165.776C195.964 165.563 196.049 165.312 196.049 165.024C196.049 164.683 195.921 164.395 195.665 164.16C195.409 163.936 194.919 163.803 194.193 163.76C193.585 163.717 193.068 163.659 192.641 163.584C192.225 163.509 191.868 163.419 191.569 163.312C191.281 163.205 191.036 163.088 190.833 162.96C190.641 162.832 190.476 162.699 190.337 162.56V162.192L191.937 160.544L193.233 160.992L191.489 162.608L191.825 161.888C191.943 161.963 192.055 162.037 192.161 162.112C192.268 162.176 192.412 162.235 192.593 162.288C192.775 162.341 193.02 162.389 193.329 162.432C193.639 162.475 194.044 162.517 194.545 162.56C195.271 162.613 195.852 162.741 196.289 162.944C196.737 163.147 197.063 163.419 197.265 163.76C197.468 164.101 197.569 164.507 197.569 164.976C197.569 165.435 197.441 165.872 197.185 166.288C196.94 166.704 196.551 167.045 196.017 167.312C195.495 167.579 194.817 167.712 193.985 167.712ZM193.985 161.52C193.303 161.52 192.721 161.392 192.241 161.136C191.772 160.88 191.409 160.533 191.153 160.096C190.908 159.659 190.785 159.173 190.785 158.64C190.785 158.096 190.908 157.611 191.153 157.184C191.409 156.747 191.777 156.4 192.257 156.144C192.737 155.877 193.313 155.744 193.985 155.744C194.657 155.744 195.228 155.877 195.697 156.144C196.177 156.4 196.54 156.747 196.785 157.184C197.041 157.611 197.169 158.096 197.169 158.64C197.169 159.173 197.041 159.659 196.785 160.096C196.54 160.533 196.177 160.88 195.697 161.136C195.228 161.392 194.657 161.52 193.985 161.52ZM193.985 160.24C194.508 160.24 194.924 160.107 195.233 159.84C195.543 159.563 195.697 159.163 195.697 158.64C195.697 158.117 195.543 157.723 195.233 157.456C194.924 157.179 194.508 157.04 193.985 157.04C193.463 157.04 193.041 157.179 192.721 157.456C192.401 157.723 192.241 158.117 192.241 158.64C192.241 159.163 192.401 159.563 192.721 159.84C193.041 160.107 193.463 160.24 193.985 160.24ZM195.297 157.2L194.913 155.936H198.225V157.04L195.297 157.2ZM202.95 164.192C202.268 164.192 201.67 164.08 201.158 163.856C200.646 163.632 200.241 163.317 199.942 162.912C199.644 162.507 199.462 162.032 199.398 161.488H201.03C201.084 161.744 201.185 161.979 201.334 162.192C201.494 162.405 201.708 162.576 201.974 162.704C202.252 162.832 202.577 162.896 202.95 162.896C203.302 162.896 203.59 162.848 203.814 162.752C204.049 162.645 204.22 162.507 204.326 162.336C204.433 162.155 204.486 161.963 204.486 161.76C204.486 161.461 204.412 161.237 204.262 161.088C204.124 160.928 203.91 160.805 203.622 160.72C203.345 160.624 203.009 160.539 202.614 160.464C202.241 160.4 201.878 160.315 201.526 160.208C201.185 160.091 200.876 159.947 200.598 159.776C200.332 159.605 200.118 159.392 199.958 159.136C199.798 158.869 199.718 158.544 199.718 158.16C199.718 157.701 199.841 157.291 200.086 156.928C200.332 156.555 200.678 156.267 201.126 156.064C201.585 155.851 202.124 155.744 202.742 155.744C203.638 155.744 204.358 155.957 204.902 156.384C205.446 156.811 205.766 157.413 205.862 158.192H204.31C204.268 157.829 204.108 157.552 203.83 157.36C203.553 157.157 203.185 157.056 202.726 157.056C202.268 157.056 201.916 157.147 201.67 157.328C201.425 157.509 201.302 157.749 201.302 158.048C201.302 158.24 201.372 158.411 201.51 158.56C201.649 158.709 201.852 158.837 202.118 158.944C202.396 159.04 202.732 159.131 203.126 159.216C203.692 159.323 204.198 159.456 204.646 159.616C205.094 159.776 205.452 160.011 205.718 160.32C205.985 160.629 206.118 161.072 206.118 161.648C206.129 162.149 206.001 162.592 205.734 162.976C205.478 163.36 205.11 163.659 204.63 163.872C204.161 164.085 203.601 164.192 202.95 164.192Z" fill="#919292"/>
</svg>
