<svg width="229" height="227" viewBox="0 0 229 227" fill="none" xmlns="http://www.w3.org/2000/svg">
<rect width="229" height="227" rx="32" fill="white"/>
<path fill-rule="evenodd" clip-rule="evenodd" d="M114.586 40.256C114.716 40.1969 114.857 40.1663 115 40.1663C115.143 40.1663 115.284 40.1969 115.414 40.256L128.248 46.09C128.423 46.1694 128.571 46.2975 128.675 46.4588C128.779 46.6202 128.834 46.8081 128.834 47V59.834C128.834 60.0135 128.786 60.1898 128.694 60.3443C128.603 60.4988 128.471 60.6258 128.314 60.712L115.48 67.712C115.333 67.7925 115.168 67.8347 115 67.8347C114.832 67.8347 114.667 67.7925 114.52 67.712L101.688 60.712C101.53 60.6256 101.399 60.4983 101.307 60.3434C101.216 60.1886 101.167 60.0119 101.168 59.832V47C101.168 46.8081 101.223 46.6202 101.327 46.4588C101.431 46.2975 101.579 46.1694 101.754 46.09L114.586 40.256ZM116 53.476V65.148L126.834 59.24V48.554L116 53.476ZM125.42 47L115 51.734L111.212 50.014L121.132 45.054L125.42 47ZM118.79 43.988L108.87 48.948L104.582 47L115 42.266L118.79 43.988Z" fill="#659965"/>
<path d="M54.704 107V90.2H60.728C62.056 90.2 63.152 90.432 64.016 90.896C64.896 91.344 65.544 91.952 65.96 92.72C66.392 93.472 66.608 94.328 66.608 95.288C66.608 96.184 66.4 97.016 65.984 97.784C65.568 98.552 64.92 99.168 64.04 99.632C63.16 100.096 62.032 100.328 60.656 100.328H57.584V107H54.704ZM63.464 107L59.936 99.584H63.056L66.752 107H63.464ZM57.584 98.192H60.536C61.608 98.192 62.392 97.936 62.888 97.424C63.4 96.896 63.656 96.208 63.656 95.36C63.656 94.528 63.408 93.864 62.912 93.368C62.416 92.856 61.624 92.6 60.536 92.6H57.584V98.192ZM74.4283 107.288C73.2283 107.288 72.1723 107.032 71.2603 106.52C70.3483 105.992 69.6363 105.256 69.1243 104.312C68.6123 103.368 68.3563 102.28 68.3563 101.048C68.3563 99.768 68.6043 98.648 69.1003 97.688C69.6123 96.728 70.3243 95.976 71.2363 95.432C72.1643 94.888 73.2363 94.616 74.4523 94.616C75.6363 94.616 76.6683 94.88 77.5483 95.408C78.4283 95.936 79.1083 96.648 79.5883 97.544C80.0683 98.424 80.3083 99.416 80.3083 100.52C80.3083 100.68 80.3083 100.856 80.3083 101.048C80.3083 101.24 80.2923 101.44 80.2603 101.648H70.4203V99.8H77.4043C77.3723 98.92 77.0763 98.232 76.5163 97.736C75.9563 97.224 75.2603 96.968 74.4283 96.968C73.8363 96.968 73.2923 97.104 72.7963 97.376C72.3003 97.648 71.9083 98.056 71.6203 98.6C71.3323 99.128 71.1883 99.8 71.1883 100.616V101.312C71.1883 102.064 71.3243 102.712 71.5963 103.256C71.8843 103.8 72.2683 104.216 72.7483 104.504C73.2443 104.776 73.7963 104.912 74.4043 104.912C75.0763 104.912 75.6283 104.768 76.0603 104.48C76.5083 104.192 76.8363 103.808 77.0443 103.328H79.9723C79.7483 104.08 79.3803 104.76 78.8683 105.368C78.3563 105.96 77.7243 106.432 76.9723 106.784C76.2203 107.12 75.3723 107.288 74.4283 107.288ZM82.9674 107V89.72H85.8474V107H82.9674ZM94.7011 107.288C93.5491 107.288 92.5091 107.024 91.5811 106.496C90.6691 105.952 89.9491 105.208 89.4211 104.264C88.9091 103.304 88.6531 102.208 88.6531 100.976C88.6531 99.712 88.9171 98.608 89.4451 97.664C89.9731 96.704 90.6931 95.96 91.6051 95.432C92.5331 94.888 93.5731 94.616 94.7251 94.616C95.8771 94.616 96.9091 94.888 97.8211 95.432C98.7491 95.96 99.4691 96.696 99.9811 97.64C100.509 98.584 100.773 99.688 100.773 100.952C100.773 102.216 100.509 103.32 99.9811 104.264C99.4531 105.208 98.7251 105.952 97.7971 106.496C96.8851 107.024 95.8531 107.288 94.7011 107.288ZM94.7011 104.816C95.2771 104.816 95.7971 104.672 96.2611 104.384C96.7411 104.096 97.1251 103.664 97.4131 103.088C97.7011 102.512 97.8451 101.8 97.8451 100.952C97.8451 100.104 97.7011 99.4 97.4131 98.84C97.1411 98.264 96.7651 97.832 96.2851 97.544C95.8211 97.256 95.3011 97.112 94.7251 97.112C94.1651 97.112 93.6451 97.256 93.1651 97.544C92.6851 97.832 92.3011 98.264 92.0131 98.84C91.7251 99.4 91.5811 100.104 91.5811 100.952C91.5811 101.8 91.7251 102.512 92.0131 103.088C92.3011 103.664 92.6771 104.096 93.1411 104.384C93.6211 104.672 94.1411 104.816 94.7011 104.816ZM109.328 107.288C108.144 107.288 107.08 107.024 106.136 106.496C105.208 105.952 104.48 105.208 103.952 104.264C103.44 103.304 103.184 102.216 103.184 101C103.184 99.736 103.44 98.632 103.952 97.688C104.48 96.728 105.208 95.976 106.136 95.432C107.08 94.888 108.152 94.616 109.352 94.616C110.856 94.616 112.12 95.016 113.144 95.816C114.168 96.6 114.824 97.68 115.112 99.056H112.088C111.928 98.448 111.592 97.968 111.08 97.616C110.584 97.264 109.992 97.088 109.304 97.088C108.712 97.088 108.168 97.24 107.672 97.544C107.192 97.848 106.808 98.288 106.52 98.864C106.248 99.44 106.112 100.136 106.112 100.952C106.112 101.576 106.192 102.128 106.352 102.608C106.512 103.088 106.736 103.496 107.024 103.832C107.328 104.152 107.672 104.4 108.056 104.576C108.44 104.752 108.856 104.84 109.304 104.84C109.768 104.84 110.184 104.768 110.552 104.624C110.936 104.464 111.256 104.232 111.512 103.928C111.784 103.624 111.976 103.264 112.088 102.848H115.112C114.824 104.192 114.168 105.272 113.144 106.088C112.12 106.888 110.848 107.288 109.328 107.288ZM121.921 107.288C120.929 107.288 120.105 107.12 119.449 106.784C118.793 106.448 118.305 106 117.985 105.44C117.665 104.88 117.505 104.272 117.505 103.616C117.505 102.848 117.697 102.184 118.081 101.624C118.481 101.064 119.065 100.632 119.833 100.328C120.601 100.008 121.545 99.848 122.665 99.848H125.713C125.713 99.208 125.625 98.68 125.449 98.264C125.273 97.832 125.001 97.512 124.633 97.304C124.265 97.096 123.793 96.992 123.217 96.992C122.561 96.992 122.001 97.144 121.537 97.448C121.073 97.736 120.785 98.184 120.673 98.792H117.841C117.937 97.928 118.225 97.192 118.705 96.584C119.185 95.96 119.817 95.48 120.601 95.144C121.401 94.792 122.273 94.616 123.217 94.616C124.353 94.616 125.321 94.816 126.121 95.216C126.921 95.6 127.529 96.16 127.945 96.896C128.377 97.616 128.593 98.488 128.593 99.512V107H126.145L125.857 105.056C125.697 105.376 125.489 105.672 125.233 105.944C124.993 106.216 124.713 106.456 124.393 106.664C124.073 106.856 123.705 107.008 123.289 107.12C122.889 107.232 122.433 107.288 121.921 107.288ZM122.569 105.008C123.033 105.008 123.441 104.928 123.793 104.768C124.161 104.592 124.473 104.352 124.729 104.048C125.001 103.728 125.209 103.376 125.353 102.992C125.497 102.608 125.593 102.2 125.641 101.768V101.72H122.977C122.417 101.72 121.953 101.792 121.585 101.936C121.217 102.064 120.953 102.256 120.793 102.512C120.633 102.768 120.553 103.064 120.553 103.4C120.553 103.736 120.633 104.024 120.793 104.264C120.953 104.504 121.185 104.688 121.489 104.816C121.793 104.944 122.153 105.008 122.569 105.008ZM136.739 107C135.923 107 135.211 106.872 134.603 106.616C134.011 106.36 133.547 105.936 133.211 105.344C132.875 104.752 132.707 103.952 132.707 102.944V97.328H130.643V94.904H132.707L133.043 91.712H135.587V94.904H138.875V97.328H135.587V102.944C135.587 103.552 135.715 103.976 135.971 104.216C136.243 104.44 136.691 104.552 137.315 104.552H138.803V107H136.739ZM141.705 107V94.904H144.585V107H141.705ZM143.145 92.984C142.617 92.984 142.177 92.824 141.825 92.504C141.489 92.168 141.321 91.76 141.321 91.28C141.321 90.784 141.489 90.384 141.825 90.08C142.177 89.76 142.617 89.6 143.145 89.6C143.673 89.6 144.105 89.76 144.441 90.08C144.793 90.384 144.969 90.784 144.969 91.28C144.969 91.76 144.793 92.168 144.441 92.504C144.105 92.824 143.673 92.984 143.145 92.984ZM153.553 107.288C152.401 107.288 151.361 107.024 150.433 106.496C149.521 105.952 148.801 105.208 148.273 104.264C147.761 103.304 147.505 102.208 147.505 100.976C147.505 99.712 147.769 98.608 148.297 97.664C148.825 96.704 149.545 95.96 150.457 95.432C151.385 94.888 152.425 94.616 153.577 94.616C154.729 94.616 155.761 94.888 156.673 95.432C157.601 95.96 158.321 96.696 158.833 97.64C159.361 98.584 159.625 99.688 159.625 100.952C159.625 102.216 159.361 103.32 158.833 104.264C158.305 105.208 157.577 105.952 156.649 106.496C155.737 107.024 154.705 107.288 153.553 107.288ZM153.553 104.816C154.129 104.816 154.649 104.672 155.113 104.384C155.593 104.096 155.977 103.664 156.265 103.088C156.553 102.512 156.697 101.8 156.697 100.952C156.697 100.104 156.553 99.4 156.265 98.84C155.993 98.264 155.617 97.832 155.137 97.544C154.673 97.256 154.153 97.112 153.577 97.112C153.017 97.112 152.497 97.256 152.017 97.544C151.537 97.832 151.153 98.264 150.865 98.84C150.577 99.4 150.433 100.104 150.433 100.952C150.433 101.8 150.577 102.512 150.865 103.088C151.153 103.664 151.529 104.096 151.993 104.384C152.473 104.672 152.993 104.816 153.553 104.816ZM162.444 107V94.904H164.988L165.204 96.92C165.572 96.216 166.1 95.656 166.788 95.24C167.476 94.824 168.292 94.616 169.236 94.616C170.212 94.616 171.044 94.824 171.732 95.24C172.42 95.64 172.948 96.232 173.316 97.016C173.7 97.8 173.892 98.776 173.892 99.944V107H171.012V100.208C171.012 99.2 170.788 98.424 170.34 97.88C169.892 97.336 169.228 97.064 168.348 97.064C167.772 97.064 167.252 97.2 166.788 97.472C166.34 97.744 165.98 98.144 165.708 98.672C165.452 99.184 165.324 99.808 165.324 100.544V107H162.444Z" fill="#4D4E4E"/>
<path d="M20.4414 143V131.8H22.0414V143H20.4414ZM24.2989 143V134.936H25.7389L25.8349 136.312C26.0909 135.832 26.4536 135.453 26.9229 135.176C27.3923 134.888 27.9309 134.744 28.5389 134.744C29.1789 134.744 29.7283 134.872 30.1869 135.128C30.6456 135.384 31.0029 135.773 31.2589 136.296C31.5149 136.808 31.6429 137.453 31.6429 138.232V143H30.0429V138.392C30.0429 137.645 29.8776 137.08 29.5469 136.696C29.2163 136.312 28.7363 136.12 28.1069 136.12C27.6909 136.12 27.3176 136.221 26.9869 136.424C26.6563 136.616 26.3896 136.904 26.1869 137.288C25.9949 137.672 25.8989 138.141 25.8989 138.696V143H24.2989ZM35.8526 143L32.8286 134.936H34.5086L36.7966 141.464L39.1006 134.936H40.7486L37.7406 143H35.8526ZM45.4789 143.192C44.7216 143.192 44.0389 143.016 43.4309 142.664C42.8336 142.312 42.3589 141.821 42.0069 141.192C41.6656 140.552 41.4949 139.816 41.4949 138.984C41.4949 138.131 41.6709 137.389 42.0229 136.76C42.3749 136.12 42.8549 135.624 43.4629 135.272C44.0709 134.92 44.7536 134.744 45.5109 134.744C46.2789 134.744 46.9616 134.92 47.5589 135.272C48.1563 135.624 48.6256 136.115 48.9669 136.744C49.3189 137.373 49.4949 138.115 49.4949 138.968C49.4949 139.821 49.3189 140.563 48.9669 141.192C48.6256 141.821 48.1509 142.312 47.5429 142.664C46.9349 143.016 46.2469 143.192 45.4789 143.192ZM45.4789 141.816C45.9163 141.816 46.3109 141.709 46.6629 141.496C47.0256 141.283 47.3136 140.968 47.5269 140.552C47.7509 140.125 47.8629 139.597 47.8629 138.968C47.8629 138.339 47.7563 137.816 47.5429 137.4C47.3296 136.973 47.0416 136.653 46.6789 136.44C46.3269 136.227 45.9376 136.12 45.5109 136.12C45.0843 136.12 44.6896 136.227 44.3269 136.44C43.9643 136.653 43.6709 136.973 43.4469 137.4C43.2336 137.816 43.1269 138.339 43.1269 138.968C43.1269 139.597 43.2336 140.125 43.4469 140.552C43.6709 140.968 43.9589 141.283 44.3109 141.496C44.6736 141.709 45.0629 141.816 45.4789 141.816ZM51.3771 143V131.48H52.9771V143H51.3771ZM57.4619 143L54.4379 134.936H56.1179L58.4059 141.464L60.7099 134.936H62.3579L59.3499 143H57.4619ZM67.0563 143.192C66.2883 143.192 65.6056 143.016 65.0083 142.664C64.411 142.312 63.9416 141.821 63.6003 141.192C63.2696 140.563 63.1043 139.832 63.1043 139C63.1043 138.147 63.2696 137.405 63.6003 136.776C63.9416 136.136 64.411 135.64 65.0083 135.288C65.6056 134.925 66.299 134.744 67.0883 134.744C67.8776 134.744 68.555 134.92 69.1203 135.272C69.6856 135.624 70.123 136.093 70.4323 136.68C70.7416 137.256 70.8963 137.896 70.8963 138.6C70.8963 138.707 70.891 138.824 70.8803 138.952C70.8803 139.069 70.875 139.203 70.8643 139.352H64.2723V138.216H69.2963C69.2643 137.544 69.0403 137.021 68.6243 136.648C68.2083 136.264 67.691 136.072 67.0723 136.072C66.635 136.072 66.235 136.173 65.8723 136.376C65.5096 136.568 65.2163 136.856 64.9923 137.24C64.779 137.613 64.6723 138.088 64.6723 138.664V139.112C64.6723 139.709 64.779 140.216 64.9923 140.632C65.2163 141.037 65.5096 141.347 65.8723 141.56C66.235 141.763 66.6296 141.864 67.0563 141.864C67.5683 141.864 67.9896 141.752 68.3203 141.528C68.651 141.304 68.8963 141 69.0563 140.616H70.6563C70.5176 141.107 70.283 141.549 69.9523 141.944C69.6216 142.328 69.211 142.632 68.7203 142.856C68.2403 143.08 67.6856 143.192 67.0563 143.192ZM75.7939 143.192C75.1113 143.192 74.5139 143.08 74.0019 142.856C73.4899 142.632 73.0846 142.317 72.7859 141.912C72.4873 141.507 72.3059 141.032 72.2419 140.488H73.8739C73.9273 140.744 74.0286 140.979 74.1779 141.192C74.3379 141.405 74.5513 141.576 74.8179 141.704C75.0953 141.832 75.4206 141.896 75.7939 141.896C76.1459 141.896 76.4339 141.848 76.6579 141.752C76.8926 141.645 77.0633 141.507 77.1699 141.336C77.2766 141.155 77.3299 140.963 77.3299 140.76C77.3299 140.461 77.2553 140.237 77.1059 140.088C76.9673 139.928 76.7539 139.805 76.4659 139.72C76.1886 139.624 75.8526 139.539 75.4579 139.464C75.0846 139.4 74.7219 139.315 74.3699 139.208C74.0286 139.091 73.7193 138.947 73.4419 138.776C73.1753 138.605 72.9619 138.392 72.8019 138.136C72.6419 137.869 72.5619 137.544 72.5619 137.16C72.5619 136.701 72.6846 136.291 72.9299 135.928C73.1753 135.555 73.5219 135.267 73.9699 135.064C74.4286 134.851 74.9673 134.744 75.5859 134.744C76.4819 134.744 77.2019 134.957 77.7459 135.384C78.2899 135.811 78.6099 136.413 78.7059 137.192H77.1539C77.1113 136.829 76.9513 136.552 76.6739 136.36C76.3966 136.157 76.0286 136.056 75.5699 136.056C75.1113 136.056 74.7593 136.147 74.5139 136.328C74.2686 136.509 74.1459 136.749 74.1459 137.048C74.1459 137.24 74.2153 137.411 74.3539 137.56C74.4926 137.709 74.6953 137.837 74.9619 137.944C75.2393 138.04 75.5753 138.131 75.9699 138.216C76.5353 138.323 77.0419 138.456 77.4899 138.616C77.9379 138.776 78.2953 139.011 78.5619 139.32C78.8286 139.629 78.9619 140.072 78.9619 140.648C78.9726 141.149 78.8446 141.592 78.5779 141.976C78.3219 142.36 77.9539 142.659 77.4739 142.872C77.0046 143.085 76.4446 143.192 75.7939 143.192ZM84.9396 146.52V134.936H86.3796L86.5396 136.184C86.7102 135.939 86.9236 135.709 87.1796 135.496C87.4356 135.272 87.7396 135.091 88.0916 134.952C88.4542 134.813 88.8756 134.744 89.3556 134.744C90.1236 134.744 90.7956 134.931 91.3716 135.304C91.9582 135.677 92.4116 136.184 92.7316 136.824C93.0622 137.453 93.2276 138.173 93.2276 138.984C93.2276 139.795 93.0622 140.52 92.7316 141.16C92.4009 141.789 91.9422 142.285 91.3556 142.648C90.7796 143.011 90.1076 143.192 89.3396 143.192C88.7102 143.192 88.1556 143.069 87.6756 142.824C87.1956 142.568 86.8169 142.216 86.5396 141.768V146.52H84.9396ZM89.0836 141.8C89.5742 141.8 90.0062 141.683 90.3796 141.448C90.7636 141.213 91.0622 140.883 91.2756 140.456C91.4996 140.029 91.6116 139.533 91.6116 138.968C91.6116 138.403 91.4996 137.912 91.2756 137.496C91.0622 137.069 90.7636 136.739 90.3796 136.504C90.0062 136.259 89.5742 136.136 89.0836 136.136C88.5822 136.136 88.1396 136.259 87.7556 136.504C87.3822 136.739 87.0889 137.069 86.8756 137.496C86.6622 137.912 86.5556 138.403 86.5556 138.968C86.5556 139.533 86.6622 140.029 86.8756 140.456C87.0889 140.883 87.3822 141.213 87.7556 141.448C88.1396 141.683 88.5822 141.8 89.0836 141.8ZM97.7678 143.192C97.1065 143.192 96.5571 143.08 96.1198 142.856C95.6825 142.632 95.3571 142.333 95.1438 141.96C94.9305 141.576 94.8238 141.165 94.8238 140.728C94.8238 140.195 94.9625 139.741 95.2398 139.368C95.5171 138.984 95.9118 138.691 96.4238 138.488C96.9358 138.285 97.5491 138.184 98.2638 138.184H100.36C100.36 137.715 100.29 137.325 100.152 137.016C100.013 136.707 99.8051 136.477 99.5278 136.328C99.2611 136.168 98.9198 136.088 98.5038 136.088C98.0238 136.088 97.6131 136.205 97.2718 136.44C96.9305 136.664 96.7171 137 96.6318 137.448H95.0318C95.0958 136.883 95.2878 136.403 95.6078 136.008C95.9385 135.603 96.3598 135.293 96.8718 135.08C97.3838 134.856 97.9278 134.744 98.5038 134.744C99.2611 134.744 99.8958 134.877 100.408 135.144C100.92 135.411 101.304 135.789 101.56 136.28C101.826 136.76 101.96 137.336 101.96 138.008V143H100.568L100.44 141.64C100.322 141.853 100.184 142.056 100.024 142.248C99.8638 142.44 99.6718 142.605 99.4478 142.744C99.2345 142.883 98.9838 142.989 98.6958 143.064C98.4185 143.149 98.1091 143.192 97.7678 143.192ZM98.0718 141.896C98.4131 141.896 98.7225 141.827 98.9998 141.688C99.2771 141.549 99.5118 141.363 99.7038 141.128C99.9065 140.883 100.056 140.611 100.152 140.312C100.258 140.003 100.317 139.688 100.328 139.368V139.32H98.4238C97.9651 139.32 97.5918 139.379 97.3038 139.496C97.0265 139.603 96.8238 139.752 96.6958 139.944C96.5678 140.136 96.5038 140.36 96.5038 140.616C96.5038 140.883 96.5625 141.112 96.6798 141.304C96.8078 141.485 96.9891 141.629 97.2238 141.736C97.4585 141.843 97.7411 141.896 98.0718 141.896ZM107.73 143.192C106.951 143.192 106.258 143.016 105.65 142.664C105.042 142.301 104.562 141.805 104.21 141.176C103.869 140.547 103.698 139.816 103.698 138.984C103.698 138.141 103.869 137.405 104.21 136.776C104.562 136.136 105.042 135.64 105.65 135.288C106.258 134.925 106.951 134.744 107.73 134.744C108.711 134.744 109.533 135 110.194 135.512C110.855 136.024 111.277 136.717 111.458 137.592H109.794C109.687 137.123 109.442 136.76 109.058 136.504C108.685 136.248 108.237 136.12 107.714 136.12C107.287 136.12 106.893 136.232 106.53 136.456C106.167 136.669 105.874 136.989 105.65 137.416C105.437 137.832 105.33 138.349 105.33 138.968C105.33 139.427 105.394 139.837 105.522 140.2C105.65 140.552 105.821 140.851 106.034 141.096C106.258 141.341 106.514 141.528 106.802 141.656C107.09 141.773 107.394 141.832 107.714 141.832C108.066 141.832 108.381 141.779 108.658 141.672C108.946 141.555 109.186 141.384 109.378 141.16C109.581 140.936 109.719 140.669 109.794 140.36H111.458C111.277 141.213 110.855 141.901 110.194 142.424C109.533 142.936 108.711 143.192 107.73 143.192ZM118.402 143L114.69 138.584L118.05 134.936H119.986L115.986 139.208V138.008L120.418 143H118.402ZM113.33 143V131.48H114.93V143H113.33ZM121.88 143V134.936H123.48V143H121.88ZM122.696 133.416C122.386 133.416 122.13 133.32 121.928 133.128C121.736 132.936 121.64 132.691 121.64 132.392C121.64 132.104 121.736 131.869 121.928 131.688C122.13 131.496 122.386 131.4 122.696 131.4C122.994 131.4 123.245 131.496 123.448 131.688C123.65 131.869 123.752 132.104 123.752 132.392C123.752 132.691 123.65 132.936 123.448 133.128C123.245 133.32 122.994 133.416 122.696 133.416ZM125.768 143V134.936H127.208L127.304 136.312C127.56 135.832 127.922 135.453 128.392 135.176C128.861 134.888 129.4 134.744 130.008 134.744C130.648 134.744 131.197 134.872 131.656 135.128C132.114 135.384 132.472 135.773 132.728 136.296C132.984 136.808 133.112 137.453 133.112 138.232V143H131.512V138.392C131.512 137.645 131.346 137.08 131.016 136.696C130.685 136.312 130.205 136.12 129.576 136.12C129.16 136.12 128.786 136.221 128.456 136.424C128.125 136.616 127.858 136.904 127.656 137.288C127.464 137.672 127.368 138.141 127.368 138.696V143H125.768ZM138.438 146.712C137.702 146.712 137.052 146.616 136.486 146.424C135.921 146.243 135.484 145.96 135.174 145.576C134.865 145.192 134.71 144.723 134.71 144.168C134.71 143.88 134.774 143.587 134.902 143.288C135.03 143 135.238 142.723 135.526 142.456C135.814 142.189 136.204 141.949 136.694 141.736L137.59 142.456C137.046 142.659 136.678 142.899 136.486 143.176C136.305 143.464 136.214 143.741 136.214 144.008C136.214 144.328 136.31 144.595 136.502 144.808C136.694 145.021 136.956 145.181 137.286 145.288C137.628 145.395 138.012 145.448 138.438 145.448C138.854 145.448 139.217 145.389 139.526 145.272C139.836 145.155 140.076 144.989 140.246 144.776C140.417 144.563 140.502 144.312 140.502 144.024C140.502 143.683 140.374 143.395 140.118 143.16C139.862 142.936 139.372 142.803 138.646 142.76C138.038 142.717 137.521 142.659 137.094 142.584C136.678 142.509 136.321 142.419 136.022 142.312C135.734 142.205 135.489 142.088 135.286 141.96C135.094 141.832 134.929 141.699 134.79 141.56V141.192L136.39 139.544L137.686 139.992L135.942 141.608L136.278 140.888C136.396 140.963 136.508 141.037 136.614 141.112C136.721 141.176 136.865 141.235 137.046 141.288C137.228 141.341 137.473 141.389 137.782 141.432C138.092 141.475 138.497 141.517 138.998 141.56C139.724 141.613 140.305 141.741 140.742 141.944C141.19 142.147 141.516 142.419 141.718 142.76C141.921 143.101 142.022 143.507 142.022 143.976C142.022 144.435 141.894 144.872 141.638 145.288C141.393 145.704 141.004 146.045 140.47 146.312C139.948 146.579 139.27 146.712 138.438 146.712ZM138.438 140.52C137.756 140.52 137.174 140.392 136.694 140.136C136.225 139.88 135.862 139.533 135.606 139.096C135.361 138.659 135.238 138.173 135.238 137.64C135.238 137.096 135.361 136.611 135.606 136.184C135.862 135.747 136.23 135.4 136.71 135.144C137.19 134.877 137.766 134.744 138.438 134.744C139.11 134.744 139.681 134.877 140.15 135.144C140.63 135.4 140.993 135.747 141.238 136.184C141.494 136.611 141.622 137.096 141.622 137.64C141.622 138.173 141.494 138.659 141.238 139.096C140.993 139.533 140.63 139.88 140.15 140.136C139.681 140.392 139.11 140.52 138.438 140.52ZM138.438 139.24C138.961 139.24 139.377 139.107 139.686 138.84C139.996 138.563 140.15 138.163 140.15 137.64C140.15 137.117 139.996 136.723 139.686 136.456C139.377 136.179 138.961 136.04 138.438 136.04C137.916 136.04 137.494 136.179 137.174 136.456C136.854 136.723 136.694 137.117 136.694 137.64C136.694 138.163 136.854 138.563 137.174 138.84C137.494 139.107 137.916 139.24 138.438 139.24ZM139.75 136.2L139.366 134.936H142.678V136.04L139.75 136.2ZM143.355 144.968L144.267 141.272H145.883L144.427 144.968H143.355ZM151.611 143V131.48H153.211V143H151.611ZM159.088 143.192C158.331 143.192 157.648 143.016 157.04 142.664C156.443 142.312 155.968 141.821 155.616 141.192C155.275 140.552 155.104 139.816 155.104 138.984C155.104 138.131 155.28 137.389 155.632 136.76C155.984 136.12 156.464 135.624 157.072 135.272C157.68 134.92 158.363 134.744 159.12 134.744C159.888 134.744 160.571 134.92 161.168 135.272C161.766 135.624 162.235 136.115 162.576 136.744C162.928 137.373 163.104 138.115 163.104 138.968C163.104 139.821 162.928 140.563 162.576 141.192C162.235 141.821 161.76 142.312 161.152 142.664C160.544 143.016 159.856 143.192 159.088 143.192ZM159.088 141.816C159.526 141.816 159.92 141.709 160.272 141.496C160.635 141.283 160.923 140.968 161.136 140.552C161.36 140.125 161.472 139.597 161.472 138.968C161.472 138.339 161.366 137.816 161.152 137.4C160.939 136.973 160.651 136.653 160.288 136.44C159.936 136.227 159.547 136.12 159.12 136.12C158.694 136.12 158.299 136.227 157.936 136.44C157.574 136.653 157.28 136.973 157.056 137.4C156.843 137.816 156.736 138.339 156.736 138.968C156.736 139.597 156.843 140.125 157.056 140.552C157.28 140.968 157.568 141.283 157.92 141.496C158.283 141.709 158.672 141.816 159.088 141.816ZM167.658 143.192C166.997 143.192 166.448 143.08 166.01 142.856C165.573 142.632 165.248 142.333 165.034 141.96C164.821 141.576 164.714 141.165 164.714 140.728C164.714 140.195 164.853 139.741 165.13 139.368C165.408 138.984 165.802 138.691 166.314 138.488C166.826 138.285 167.44 138.184 168.154 138.184H170.25C170.25 137.715 170.181 137.325 170.042 137.016C169.904 136.707 169.696 136.477 169.418 136.328C169.152 136.168 168.81 136.088 168.394 136.088C167.914 136.088 167.504 136.205 167.162 136.44C166.821 136.664 166.608 137 166.522 137.448H164.922C164.986 136.883 165.178 136.403 165.498 136.008C165.829 135.603 166.25 135.293 166.762 135.08C167.274 134.856 167.818 134.744 168.394 134.744C169.152 134.744 169.786 134.877 170.298 135.144C170.81 135.411 171.194 135.789 171.45 136.28C171.717 136.76 171.85 137.336 171.85 138.008V143H170.458L170.33 141.64C170.213 141.853 170.074 142.056 169.914 142.248C169.754 142.44 169.562 142.605 169.338 142.744C169.125 142.883 168.874 142.989 168.586 143.064C168.309 143.149 168 143.192 167.658 143.192ZM167.962 141.896C168.304 141.896 168.613 141.827 168.89 141.688C169.168 141.549 169.402 141.363 169.594 141.128C169.797 140.883 169.946 140.611 170.042 140.312C170.149 140.003 170.208 139.688 170.218 139.368V139.32H168.314C167.856 139.32 167.482 139.379 167.194 139.496C166.917 139.603 166.714 139.752 166.586 139.944C166.458 140.136 166.394 140.36 166.394 140.616C166.394 140.883 166.453 141.112 166.57 141.304C166.698 141.485 166.88 141.629 167.114 141.736C167.349 141.843 167.632 141.896 167.962 141.896ZM177.477 143.192C176.709 143.192 176.031 143.011 175.445 142.648C174.858 142.275 174.399 141.773 174.069 141.144C173.749 140.504 173.589 139.779 173.589 138.968C173.589 138.147 173.749 137.421 174.069 136.792C174.399 136.163 174.858 135.667 175.445 135.304C176.042 134.931 176.725 134.744 177.493 134.744C178.122 134.744 178.677 134.872 179.157 135.128C179.637 135.373 180.01 135.725 180.277 136.184V131.48H181.877V143H180.437L180.277 141.752C180.117 141.997 179.909 142.232 179.653 142.456C179.397 142.669 179.087 142.845 178.725 142.984C178.362 143.123 177.946 143.192 177.477 143.192ZM177.733 141.8C178.234 141.8 178.677 141.683 179.061 141.448C179.445 141.213 179.738 140.883 179.941 140.456C180.154 140.029 180.261 139.533 180.261 138.968C180.261 138.403 180.154 137.912 179.941 137.496C179.738 137.069 179.445 136.739 179.061 136.504C178.677 136.259 178.234 136.136 177.733 136.136C177.253 136.136 176.821 136.259 176.437 136.504C176.053 136.739 175.754 137.069 175.541 137.496C175.327 137.912 175.221 138.403 175.221 138.968C175.221 139.533 175.327 140.029 175.541 140.456C175.754 140.883 176.053 141.213 176.437 141.448C176.821 141.683 177.253 141.8 177.733 141.8ZM184.177 143V134.936H185.777V143H184.177ZM184.993 133.416C184.683 133.416 184.427 133.32 184.225 133.128C184.033 132.936 183.937 132.691 183.937 132.392C183.937 132.104 184.033 131.869 184.225 131.688C184.427 131.496 184.683 131.4 184.993 131.4C185.291 131.4 185.542 131.496 185.745 131.688C185.947 131.869 186.049 132.104 186.049 132.392C186.049 132.691 185.947 132.936 185.745 133.128C185.542 133.32 185.291 133.416 184.993 133.416ZM188.065 143V134.936H189.505L189.601 136.312C189.857 135.832 190.219 135.453 190.689 135.176C191.158 134.888 191.697 134.744 192.305 134.744C192.945 134.744 193.494 134.872 193.953 135.128C194.411 135.384 194.769 135.773 195.025 136.296C195.281 136.808 195.409 137.453 195.409 138.232V143H193.809V138.392C193.809 137.645 193.643 137.08 193.313 136.696C192.982 136.312 192.502 136.12 191.873 136.12C191.457 136.12 191.083 136.221 190.753 136.424C190.422 136.616 190.155 136.904 189.953 137.288C189.761 137.672 189.665 138.141 189.665 138.696V143H188.065ZM200.735 146.712C199.999 146.712 199.349 146.616 198.783 146.424C198.218 146.243 197.781 145.96 197.471 145.576C197.162 145.192 197.007 144.723 197.007 144.168C197.007 143.88 197.071 143.587 197.199 143.288C197.327 143 197.535 142.723 197.823 142.456C198.111 142.189 198.501 141.949 198.991 141.736L199.887 142.456C199.343 142.659 198.975 142.899 198.783 143.176C198.602 143.464 198.511 143.741 198.511 144.008C198.511 144.328 198.607 144.595 198.799 144.808C198.991 145.021 199.253 145.181 199.583 145.288C199.925 145.395 200.309 145.448 200.735 145.448C201.151 145.448 201.514 145.389 201.823 145.272C202.133 145.155 202.373 144.989 202.543 144.776C202.714 144.563 202.799 144.312 202.799 144.024C202.799 143.683 202.671 143.395 202.415 143.16C202.159 142.936 201.669 142.803 200.943 142.76C200.335 142.717 199.818 142.659 199.391 142.584C198.975 142.509 198.618 142.419 198.319 142.312C198.031 142.205 197.786 142.088 197.583 141.96C197.391 141.832 197.226 141.699 197.087 141.56V141.192L198.687 139.544L199.983 139.992L198.239 141.608L198.575 140.888C198.693 140.963 198.805 141.037 198.911 141.112C199.018 141.176 199.162 141.235 199.343 141.288C199.525 141.341 199.77 141.389 200.079 141.432C200.389 141.475 200.794 141.517 201.295 141.56C202.021 141.613 202.602 141.741 203.039 141.944C203.487 142.147 203.813 142.419 204.015 142.76C204.218 143.101 204.319 143.507 204.319 143.976C204.319 144.435 204.191 144.872 203.935 145.288C203.69 145.704 203.301 146.045 202.767 146.312C202.245 146.579 201.567 146.712 200.735 146.712ZM200.735 140.52C200.053 140.52 199.471 140.392 198.991 140.136C198.522 139.88 198.159 139.533 197.903 139.096C197.658 138.659 197.535 138.173 197.535 137.64C197.535 137.096 197.658 136.611 197.903 136.184C198.159 135.747 198.527 135.4 199.007 135.144C199.487 134.877 200.063 134.744 200.735 134.744C201.407 134.744 201.978 134.877 202.447 135.144C202.927 135.4 203.29 135.747 203.535 136.184C203.791 136.611 203.919 137.096 203.919 137.64C203.919 138.173 203.791 138.659 203.535 139.096C203.29 139.533 202.927 139.88 202.447 140.136C201.978 140.392 201.407 140.52 200.735 140.52ZM200.735 139.24C201.258 139.24 201.674 139.107 201.983 138.84C202.293 138.563 202.447 138.163 202.447 137.64C202.447 137.117 202.293 136.723 201.983 136.456C201.674 136.179 201.258 136.04 200.735 136.04C200.213 136.04 199.791 136.179 199.471 136.456C199.151 136.723 198.991 137.117 198.991 137.64C198.991 138.163 199.151 138.563 199.471 138.84C199.791 139.107 200.213 139.24 200.735 139.24ZM202.047 136.2L201.663 134.936H204.975V136.04L202.047 136.2ZM205.652 144.968L206.564 141.272H208.18L206.724 144.968H205.652ZM53.5644 164C53.0524 164 52.6098 163.92 52.2364 163.76C51.8631 163.6 51.5751 163.333 51.3724 162.96C51.1698 162.587 51.0684 162.08 51.0684 161.44V157.296H49.6764V155.936H51.0684L51.2604 153.92H52.6684V155.936H54.9564V157.296H52.6684V161.456C52.6684 161.915 52.7644 162.229 52.9564 162.4C53.1484 162.56 53.4791 162.64 53.9484 162.64H54.8764V164H53.5644ZM56.7208 164V155.936H58.1608L58.3048 157.456C58.4861 157.093 58.7208 156.789 59.0088 156.544C59.2968 156.288 59.6328 156.091 60.0168 155.952C60.4115 155.813 60.8595 155.744 61.3608 155.744V157.44H60.7848C60.4541 157.44 60.1395 157.483 59.8408 157.568C59.5421 157.643 59.2755 157.776 59.0408 157.968C58.8168 158.16 58.6408 158.421 58.5128 158.752C58.3848 159.083 58.3208 159.493 58.3208 159.984V164H56.7208ZM65.5022 164.192C64.8409 164.192 64.2915 164.08 63.8542 163.856C63.4169 163.632 63.0915 163.333 62.8782 162.96C62.6649 162.576 62.5582 162.165 62.5582 161.728C62.5582 161.195 62.6969 160.741 62.9742 160.368C63.2515 159.984 63.6462 159.691 64.1582 159.488C64.6702 159.285 65.2835 159.184 65.9982 159.184H68.0942C68.0942 158.715 68.0249 158.325 67.8862 158.016C67.7475 157.707 67.5395 157.477 67.2622 157.328C66.9955 157.168 66.6542 157.088 66.2382 157.088C65.7582 157.088 65.3475 157.205 65.0062 157.44C64.6649 157.664 64.4515 158 64.3662 158.448H62.7662C62.8302 157.883 63.0222 157.403 63.3422 157.008C63.6729 156.603 64.0942 156.293 64.6062 156.08C65.1182 155.856 65.6622 155.744 66.2382 155.744C66.9955 155.744 67.6302 155.877 68.1422 156.144C68.6542 156.411 69.0382 156.789 69.2942 157.28C69.5609 157.76 69.6942 158.336 69.6942 159.008V164H68.3022L68.1742 162.64C68.0569 162.853 67.9182 163.056 67.7582 163.248C67.5982 163.44 67.4062 163.605 67.1822 163.744C66.9689 163.883 66.7182 163.989 66.4302 164.064C66.1529 164.149 65.8435 164.192 65.5022 164.192ZM65.8062 162.896C66.1475 162.896 66.4569 162.827 66.7342 162.688C67.0115 162.549 67.2462 162.363 67.4382 162.128C67.6409 161.883 67.7902 161.611 67.8862 161.312C67.9929 161.003 68.0515 160.688 68.0622 160.368V160.32H66.1582C65.6995 160.32 65.3262 160.379 65.0382 160.496C64.7609 160.603 64.5582 160.752 64.4302 160.944C64.3022 161.136 64.2382 161.36 64.2382 161.616C64.2382 161.883 64.2969 162.112 64.4142 162.304C64.5422 162.485 64.7235 162.629 64.9582 162.736C65.1929 162.843 65.4755 162.896 65.8062 162.896ZM71.7364 164V155.936H73.1764L73.2724 157.312C73.5284 156.832 73.8911 156.453 74.3604 156.176C74.8298 155.888 75.3684 155.744 75.9764 155.744C76.6164 155.744 77.1658 155.872 77.6244 156.128C78.0831 156.384 78.4404 156.773 78.6964 157.296C78.9524 157.808 79.0804 158.453 79.0804 159.232V164H77.4804V159.392C77.4804 158.645 77.3151 158.08 76.9844 157.696C76.6538 157.312 76.1738 157.12 75.5444 157.12C75.1284 157.12 74.7551 157.221 74.4244 157.424C74.0938 157.616 73.8271 157.904 73.6244 158.288C73.4324 158.672 73.3364 159.141 73.3364 159.696V164H71.7364ZM84.2471 164.192C83.5644 164.192 82.9671 164.08 82.4551 163.856C81.9431 163.632 81.5377 163.317 81.2391 162.912C80.9404 162.507 80.7591 162.032 80.6951 161.488H82.3271C82.3804 161.744 82.4817 161.979 82.6311 162.192C82.7911 162.405 83.0044 162.576 83.2711 162.704C83.5484 162.832 83.8737 162.896 84.2471 162.896C84.5991 162.896 84.8871 162.848 85.1111 162.752C85.3457 162.645 85.5164 162.507 85.6231 162.336C85.7297 162.155 85.7831 161.963 85.7831 161.76C85.7831 161.461 85.7084 161.237 85.5591 161.088C85.4204 160.928 85.2071 160.805 84.9191 160.72C84.6417 160.624 84.3057 160.539 83.9111 160.464C83.5377 160.4 83.1751 160.315 82.8231 160.208C82.4817 160.091 82.1724 159.947 81.8951 159.776C81.6284 159.605 81.4151 159.392 81.2551 159.136C81.0951 158.869 81.0151 158.544 81.0151 158.16C81.0151 157.701 81.1377 157.291 81.3831 156.928C81.6284 156.555 81.9751 156.267 82.4231 156.064C82.8817 155.851 83.4204 155.744 84.0391 155.744C84.9351 155.744 85.6551 155.957 86.1991 156.384C86.7431 156.811 87.0631 157.413 87.1591 158.192H85.6071C85.5644 157.829 85.4044 157.552 85.1271 157.36C84.8497 157.157 84.4817 157.056 84.0231 157.056C83.5644 157.056 83.2124 157.147 82.9671 157.328C82.7217 157.509 82.5991 157.749 82.5991 158.048C82.5991 158.24 82.6684 158.411 82.8071 158.56C82.9457 158.709 83.1484 158.837 83.4151 158.944C83.6924 159.04 84.0284 159.131 84.4231 159.216C84.9884 159.323 85.4951 159.456 85.9431 159.616C86.3911 159.776 86.7484 160.011 87.0151 160.32C87.2817 160.629 87.4151 161.072 87.4151 161.648C87.4257 162.149 87.2977 162.592 87.0311 162.976C86.7751 163.36 86.4071 163.659 85.9271 163.872C85.4577 164.085 84.8977 164.192 84.2471 164.192ZM89.2989 167.52V155.936H90.7389L90.8989 157.184C91.0696 156.939 91.2829 156.709 91.5389 156.496C91.7949 156.272 92.0989 156.091 92.4509 155.952C92.8136 155.813 93.2349 155.744 93.7149 155.744C94.4829 155.744 95.1549 155.931 95.7309 156.304C96.3176 156.677 96.7709 157.184 97.0909 157.824C97.4216 158.453 97.5869 159.173 97.5869 159.984C97.5869 160.795 97.4216 161.52 97.0909 162.16C96.7603 162.789 96.3016 163.285 95.7149 163.648C95.1389 164.011 94.4669 164.192 93.6989 164.192C93.0696 164.192 92.5149 164.069 92.0349 163.824C91.5549 163.568 91.1763 163.216 90.8989 162.768V167.52H89.2989ZM93.4429 162.8C93.9336 162.8 94.3656 162.683 94.7389 162.448C95.1229 162.213 95.4216 161.883 95.6349 161.456C95.8589 161.029 95.9709 160.533 95.9709 159.968C95.9709 159.403 95.8589 158.912 95.6349 158.496C95.4216 158.069 95.1229 157.739 94.7389 157.504C94.3656 157.259 93.9336 157.136 93.4429 157.136C92.9416 157.136 92.4989 157.259 92.1149 157.504C91.7416 157.739 91.4483 158.069 91.2349 158.496C91.0216 158.912 90.9149 159.403 90.9149 159.968C90.9149 160.533 91.0216 161.029 91.2349 161.456C91.4483 161.883 91.7416 162.213 92.1149 162.448C92.4989 162.683 92.9416 162.8 93.4429 162.8ZM103.135 164.192C102.378 164.192 101.695 164.016 101.087 163.664C100.49 163.312 100.015 162.821 99.6632 162.192C99.3219 161.552 99.1512 160.816 99.1512 159.984C99.1512 159.131 99.3272 158.389 99.6792 157.76C100.031 157.12 100.511 156.624 101.119 156.272C101.727 155.92 102.41 155.744 103.167 155.744C103.935 155.744 104.618 155.92 105.215 156.272C105.813 156.624 106.282 157.115 106.623 157.744C106.975 158.373 107.151 159.115 107.151 159.968C107.151 160.821 106.975 161.563 106.623 162.192C106.282 162.821 105.807 163.312 105.199 163.664C104.591 164.016 103.903 164.192 103.135 164.192ZM103.135 162.816C103.573 162.816 103.967 162.709 104.319 162.496C104.682 162.283 104.97 161.968 105.183 161.552C105.407 161.125 105.519 160.597 105.519 159.968C105.519 159.339 105.413 158.816 105.199 158.4C104.986 157.973 104.698 157.653 104.335 157.44C103.983 157.227 103.594 157.12 103.167 157.12C102.741 157.12 102.346 157.227 101.983 157.44C101.621 157.653 101.327 157.973 101.103 158.4C100.89 158.816 100.783 159.339 100.783 159.968C100.783 160.597 100.89 161.125 101.103 161.552C101.327 161.968 101.615 162.283 101.967 162.496C102.33 162.709 102.719 162.816 103.135 162.816ZM109.033 164V155.936H110.473L110.617 157.456C110.799 157.093 111.033 156.789 111.321 156.544C111.609 156.288 111.945 156.091 112.329 155.952C112.724 155.813 113.172 155.744 113.673 155.744V157.44H113.097C112.767 157.44 112.452 157.483 112.153 157.568C111.855 157.643 111.588 157.776 111.353 157.968C111.129 158.16 110.953 158.421 110.825 158.752C110.697 159.083 110.633 159.493 110.633 159.984V164H109.033ZM118.471 164C117.959 164 117.516 163.92 117.143 163.76C116.769 163.6 116.481 163.333 116.279 162.96C116.076 162.587 115.975 162.08 115.975 161.44V157.296H114.583V155.936H115.975L116.167 153.92H117.575V155.936H119.863V157.296H117.575V161.456C117.575 161.915 117.671 162.229 117.863 162.4C118.055 162.56 118.385 162.64 118.855 162.64H119.783V164H118.471ZM121.739 164V155.936H123.339V164H121.739ZM122.555 154.416C122.246 154.416 121.99 154.32 121.787 154.128C121.595 153.936 121.499 153.691 121.499 153.392C121.499 153.104 121.595 152.869 121.787 152.688C121.99 152.496 122.246 152.4 122.555 152.4C122.854 152.4 123.104 152.496 123.307 152.688C123.51 152.869 123.611 153.104 123.611 153.392C123.611 153.691 123.51 153.936 123.307 154.128C123.104 154.32 122.854 154.416 122.555 154.416ZM125.627 164V155.936H127.067L127.163 157.312C127.419 156.832 127.782 156.453 128.251 156.176C128.72 155.888 129.259 155.744 129.867 155.744C130.507 155.744 131.056 155.872 131.515 156.128C131.974 156.384 132.331 156.773 132.587 157.296C132.843 157.808 132.971 158.453 132.971 159.232V164H131.371V159.392C131.371 158.645 131.206 158.08 130.875 157.696C130.544 157.312 130.064 157.12 129.435 157.12C129.019 157.12 128.646 157.221 128.315 157.424C127.984 157.616 127.718 157.904 127.515 158.288C127.323 158.672 127.227 159.141 127.227 159.696V164H125.627ZM138.298 167.712C137.562 167.712 136.911 167.616 136.346 167.424C135.78 167.243 135.343 166.96 135.034 166.576C134.724 166.192 134.57 165.723 134.57 165.168C134.57 164.88 134.634 164.587 134.762 164.288C134.89 164 135.098 163.723 135.386 163.456C135.674 163.189 136.063 162.949 136.554 162.736L137.45 163.456C136.906 163.659 136.538 163.899 136.346 164.176C136.164 164.464 136.074 164.741 136.074 165.008C136.074 165.328 136.17 165.595 136.362 165.808C136.554 166.021 136.815 166.181 137.146 166.288C137.487 166.395 137.871 166.448 138.298 166.448C138.714 166.448 139.076 166.389 139.386 166.272C139.695 166.155 139.935 165.989 140.106 165.776C140.276 165.563 140.362 165.312 140.362 165.024C140.362 164.683 140.234 164.395 139.978 164.16C139.722 163.936 139.231 163.803 138.506 163.76C137.898 163.717 137.38 163.659 136.954 163.584C136.538 163.509 136.18 163.419 135.882 163.312C135.594 163.205 135.348 163.088 135.146 162.96C134.954 162.832 134.788 162.699 134.65 162.56V162.192L136.25 160.544L137.546 160.992L135.802 162.608L136.138 161.888C136.255 161.963 136.367 162.037 136.474 162.112C136.58 162.176 136.724 162.235 136.906 162.288C137.087 162.341 137.332 162.389 137.642 162.432C137.951 162.475 138.356 162.517 138.858 162.56C139.583 162.613 140.164 162.741 140.602 162.944C141.05 163.147 141.375 163.419 141.578 163.76C141.78 164.101 141.882 164.507 141.882 164.976C141.882 165.435 141.754 165.872 141.498 166.288C141.252 166.704 140.863 167.045 140.33 167.312C139.807 167.579 139.13 167.712 138.298 167.712ZM138.298 161.52C137.615 161.52 137.034 161.392 136.554 161.136C136.084 160.88 135.722 160.533 135.466 160.096C135.22 159.659 135.098 159.173 135.098 158.64C135.098 158.096 135.22 157.611 135.466 157.184C135.722 156.747 136.09 156.4 136.57 156.144C137.05 155.877 137.626 155.744 138.298 155.744C138.97 155.744 139.54 155.877 140.01 156.144C140.49 156.4 140.852 156.747 141.098 157.184C141.354 157.611 141.482 158.096 141.482 158.64C141.482 159.173 141.354 159.659 141.098 160.096C140.852 160.533 140.49 160.88 140.01 161.136C139.54 161.392 138.97 161.52 138.298 161.52ZM138.298 160.24C138.82 160.24 139.236 160.107 139.546 159.84C139.855 159.563 140.01 159.163 140.01 158.64C140.01 158.117 139.855 157.723 139.546 157.456C139.236 157.179 138.82 157.04 138.298 157.04C137.775 157.04 137.354 157.179 137.034 157.456C136.714 157.723 136.554 158.117 136.554 158.64C136.554 159.163 136.714 159.563 137.034 159.84C137.354 160.107 137.775 160.24 138.298 160.24ZM139.61 157.2L139.226 155.936H142.538V157.04L139.61 157.2ZM143.215 165.968L144.127 162.272H145.743L144.287 165.968H143.215ZM154.143 164.192C153.481 164.192 152.932 164.08 152.495 163.856C152.057 163.632 151.732 163.333 151.519 162.96C151.305 162.576 151.199 162.165 151.199 161.728C151.199 161.195 151.337 160.741 151.615 160.368C151.892 159.984 152.287 159.691 152.799 159.488C153.311 159.285 153.924 159.184 154.639 159.184H156.735C156.735 158.715 156.665 158.325 156.527 158.016C156.388 157.707 156.18 157.477 155.903 157.328C155.636 157.168 155.295 157.088 154.879 157.088C154.399 157.088 153.988 157.205 153.647 157.44C153.305 157.664 153.092 158 153.007 158.448H151.407C151.471 157.883 151.663 157.403 151.983 157.008C152.313 156.603 152.735 156.293 153.247 156.08C153.759 155.856 154.303 155.744 154.879 155.744C155.636 155.744 156.271 155.877 156.783 156.144C157.295 156.411 157.679 156.789 157.935 157.28C158.201 157.76 158.335 158.336 158.335 159.008V164H156.943L156.815 162.64C156.697 162.853 156.559 163.056 156.399 163.248C156.239 163.44 156.047 163.605 155.823 163.744C155.609 163.883 155.359 163.989 155.071 164.064C154.793 164.149 154.484 164.192 154.143 164.192ZM154.447 162.896C154.788 162.896 155.097 162.827 155.375 162.688C155.652 162.549 155.887 162.363 156.079 162.128C156.281 161.883 156.431 161.611 156.527 161.312C156.633 161.003 156.692 160.688 156.703 160.368V160.32H154.799C154.34 160.32 153.967 160.379 153.679 160.496C153.401 160.603 153.199 160.752 153.071 160.944C152.943 161.136 152.879 161.36 152.879 161.616C152.879 161.883 152.937 162.112 153.055 162.304C153.183 162.485 153.364 162.629 153.599 162.736C153.833 162.843 154.116 162.896 154.447 162.896ZM160.377 164V155.936H161.817L161.913 157.312C162.169 156.832 162.532 156.453 163.001 156.176C163.47 155.888 164.009 155.744 164.617 155.744C165.257 155.744 165.806 155.872 166.265 156.128C166.724 156.384 167.081 156.773 167.337 157.296C167.593 157.808 167.721 158.453 167.721 159.232V164H166.121V159.392C166.121 158.645 165.956 158.08 165.625 157.696C165.294 157.312 164.814 157.12 164.185 157.12C163.769 157.12 163.396 157.221 163.065 157.424C162.734 157.616 162.468 157.904 162.265 158.288C162.073 158.672 161.977 159.141 161.977 159.696V164H160.377ZM173.352 164.192C172.584 164.192 171.906 164.011 171.32 163.648C170.733 163.275 170.274 162.773 169.944 162.144C169.624 161.504 169.464 160.779 169.464 159.968C169.464 159.147 169.624 158.421 169.944 157.792C170.274 157.163 170.733 156.667 171.32 156.304C171.917 155.931 172.6 155.744 173.368 155.744C173.997 155.744 174.552 155.872 175.032 156.128C175.512 156.373 175.885 156.725 176.152 157.184V152.48H177.752V164H176.312L176.152 162.752C175.992 162.997 175.784 163.232 175.528 163.456C175.272 163.669 174.962 163.845 174.6 163.984C174.237 164.123 173.821 164.192 173.352 164.192ZM173.608 162.8C174.109 162.8 174.552 162.683 174.936 162.448C175.32 162.213 175.613 161.883 175.816 161.456C176.029 161.029 176.136 160.533 176.136 159.968C176.136 159.403 176.029 158.912 175.816 158.496C175.613 158.069 175.32 157.739 174.936 157.504C174.552 157.259 174.109 157.136 173.608 157.136C173.128 157.136 172.696 157.259 172.312 157.504C171.928 157.739 171.629 158.069 171.416 158.496C171.202 158.912 171.096 159.403 171.096 159.968C171.096 160.533 171.202 161.029 171.416 161.456C171.629 161.883 171.928 162.213 172.312 162.448C172.696 162.683 173.128 162.8 173.608 162.8ZM78.9855 185.192C78.3562 185.192 77.8068 185.064 77.3375 184.808C76.8788 184.552 76.5215 184.168 76.2655 183.656C76.0202 183.144 75.8975 182.499 75.8975 181.72V176.936H77.4975V181.544C77.4975 182.301 77.6628 182.872 77.9935 183.256C78.3242 183.64 78.7988 183.832 79.4175 183.832C79.8335 183.832 80.2068 183.731 80.5375 183.528C80.8788 183.325 81.1455 183.032 81.3375 182.648C81.5295 182.264 81.6255 181.795 81.6255 181.24V176.936H83.2255V185H81.8015L81.6895 183.624C81.4442 184.115 81.0868 184.499 80.6175 184.776C80.1482 185.053 79.6042 185.192 78.9855 185.192ZM85.4161 185V176.936H86.8561L86.9521 178.312C87.2081 177.832 87.5708 177.453 88.0401 177.176C88.5095 176.888 89.0481 176.744 89.6561 176.744C90.2961 176.744 90.8455 176.872 91.3041 177.128C91.7628 177.384 92.1201 177.773 92.3761 178.296C92.6321 178.808 92.7601 179.453 92.7601 180.232V185H91.1601V180.392C91.1601 179.645 90.9948 179.08 90.6641 178.696C90.3335 178.312 89.8535 178.12 89.2241 178.12C88.8081 178.12 88.4348 178.221 88.1041 178.424C87.7735 178.616 87.5068 178.904 87.3041 179.288C87.1121 179.672 87.0161 180.141 87.0161 180.696V185H85.4161ZM94.8068 188.52V176.936H96.2468L96.4068 178.184C96.5774 177.939 96.7908 177.709 97.0468 177.496C97.3028 177.272 97.6068 177.091 97.9588 176.952C98.3214 176.813 98.7428 176.744 99.2228 176.744C99.9908 176.744 100.663 176.931 101.239 177.304C101.825 177.677 102.279 178.184 102.599 178.824C102.929 179.453 103.095 180.173 103.095 180.984C103.095 181.795 102.929 182.52 102.599 183.16C102.268 183.789 101.809 184.285 101.223 184.648C100.647 185.011 99.9748 185.192 99.2068 185.192C98.5774 185.192 98.0228 185.069 97.5428 184.824C97.0628 184.568 96.6841 184.216 96.4068 183.768V188.52H94.8068ZM98.9508 183.8C99.4414 183.8 99.8734 183.683 100.247 183.448C100.631 183.213 100.929 182.883 101.143 182.456C101.367 182.029 101.479 181.533 101.479 180.968C101.479 180.403 101.367 179.912 101.143 179.496C100.929 179.069 100.631 178.739 100.247 178.504C99.8734 178.259 99.4414 178.136 98.9508 178.136C98.4494 178.136 98.0068 178.259 97.6228 178.504C97.2494 178.739 96.9561 179.069 96.7428 179.496C96.5294 179.912 96.4228 180.403 96.4228 180.968C96.4228 181.533 96.5294 182.029 96.7428 182.456C96.9561 182.883 97.2494 183.213 97.6228 183.448C98.0068 183.683 98.4494 183.8 98.9508 183.8ZM107.635 185.192C106.974 185.192 106.424 185.08 105.987 184.856C105.55 184.632 105.224 184.333 105.011 183.96C104.798 183.576 104.691 183.165 104.691 182.728C104.691 182.195 104.83 181.741 105.107 181.368C105.384 180.984 105.779 180.691 106.291 180.488C106.803 180.285 107.416 180.184 108.131 180.184H110.227C110.227 179.715 110.158 179.325 110.019 179.016C109.88 178.707 109.672 178.477 109.395 178.328C109.128 178.168 108.787 178.088 108.371 178.088C107.891 178.088 107.48 178.205 107.139 178.44C106.798 178.664 106.584 179 106.499 179.448H104.899C104.963 178.883 105.155 178.403 105.475 178.008C105.806 177.603 106.227 177.293 106.739 177.08C107.251 176.856 107.795 176.744 108.371 176.744C109.128 176.744 109.763 176.877 110.275 177.144C110.787 177.411 111.171 177.789 111.427 178.28C111.694 178.76 111.827 179.336 111.827 180.008V185H110.435L110.307 183.64C110.19 183.853 110.051 184.056 109.891 184.248C109.731 184.44 109.539 184.605 109.315 184.744C109.102 184.883 108.851 184.989 108.563 185.064C108.286 185.149 107.976 185.192 107.635 185.192ZM107.939 183.896C108.28 183.896 108.59 183.827 108.867 183.688C109.144 183.549 109.379 183.363 109.571 183.128C109.774 182.883 109.923 182.611 110.019 182.312C110.126 182.003 110.184 181.688 110.195 181.368V181.32H108.291C107.832 181.32 107.459 181.379 107.171 181.496C106.894 181.603 106.691 181.752 106.563 181.944C106.435 182.136 106.371 182.36 106.371 182.616C106.371 182.883 106.43 183.112 106.547 183.304C106.675 183.485 106.856 183.629 107.091 183.736C107.326 183.843 107.608 183.896 107.939 183.896ZM117.597 185.192C116.819 185.192 116.125 185.016 115.517 184.664C114.909 184.301 114.429 183.805 114.077 183.176C113.736 182.547 113.565 181.816 113.565 180.984C113.565 180.141 113.736 179.405 114.077 178.776C114.429 178.136 114.909 177.64 115.517 177.288C116.125 176.925 116.819 176.744 117.597 176.744C118.579 176.744 119.4 177 120.061 177.512C120.723 178.024 121.144 178.717 121.325 179.592H119.661C119.555 179.123 119.309 178.76 118.925 178.504C118.552 178.248 118.104 178.12 117.581 178.12C117.155 178.12 116.76 178.232 116.397 178.456C116.035 178.669 115.741 178.989 115.517 179.416C115.304 179.832 115.197 180.349 115.197 180.968C115.197 181.427 115.261 181.837 115.389 182.2C115.517 182.552 115.688 182.851 115.901 183.096C116.125 183.341 116.381 183.528 116.669 183.656C116.957 183.773 117.261 183.832 117.581 183.832C117.933 183.832 118.248 183.779 118.525 183.672C118.813 183.555 119.053 183.384 119.245 183.16C119.448 182.936 119.587 182.669 119.661 182.36H121.325C121.144 183.213 120.723 183.901 120.061 184.424C119.4 184.936 118.579 185.192 117.597 185.192ZM128.269 185L124.557 180.584L127.917 176.936H129.853L125.853 181.208V180.008L130.285 185H128.269ZM123.197 185V173.48H124.797V185H123.197ZM131.747 185V176.936H133.347V185H131.747ZM132.563 175.416C132.254 175.416 131.998 175.32 131.795 175.128C131.603 174.936 131.507 174.691 131.507 174.392C131.507 174.104 131.603 173.869 131.795 173.688C131.998 173.496 132.254 173.4 132.563 173.4C132.862 173.4 133.112 173.496 133.315 173.688C133.518 173.869 133.619 174.104 133.619 174.392C133.619 174.691 133.518 174.936 133.315 175.128C133.112 175.32 132.862 175.416 132.563 175.416ZM135.635 185V176.936H137.075L137.171 178.312C137.427 177.832 137.79 177.453 138.259 177.176C138.728 176.888 139.267 176.744 139.875 176.744C140.515 176.744 141.064 176.872 141.523 177.128C141.982 177.384 142.339 177.773 142.595 178.296C142.851 178.808 142.979 179.453 142.979 180.232V185H141.379V180.392C141.379 179.645 141.214 179.08 140.883 178.696C140.552 178.312 140.072 178.12 139.443 178.12C139.027 178.12 138.654 178.221 138.323 178.424C137.992 178.616 137.726 178.904 137.523 179.288C137.331 179.672 137.235 180.141 137.235 180.696V185H135.635ZM148.306 188.712C147.57 188.712 146.919 188.616 146.354 188.424C145.788 188.243 145.351 187.96 145.042 187.576C144.732 187.192 144.578 186.723 144.578 186.168C144.578 185.88 144.642 185.587 144.77 185.288C144.898 185 145.106 184.723 145.394 184.456C145.682 184.189 146.071 183.949 146.562 183.736L147.458 184.456C146.914 184.659 146.546 184.899 146.354 185.176C146.172 185.464 146.082 185.741 146.082 186.008C146.082 186.328 146.178 186.595 146.37 186.808C146.562 187.021 146.823 187.181 147.154 187.288C147.495 187.395 147.879 187.448 148.306 187.448C148.722 187.448 149.084 187.389 149.394 187.272C149.703 187.155 149.943 186.989 150.114 186.776C150.284 186.563 150.37 186.312 150.37 186.024C150.37 185.683 150.242 185.395 149.986 185.16C149.73 184.936 149.239 184.803 148.514 184.76C147.906 184.717 147.388 184.659 146.962 184.584C146.546 184.509 146.188 184.419 145.89 184.312C145.602 184.205 145.356 184.088 145.154 183.96C144.962 183.832 144.796 183.699 144.658 183.56V183.192L146.258 181.544L147.554 181.992L145.81 183.608L146.146 182.888C146.263 182.963 146.375 183.037 146.482 183.112C146.588 183.176 146.732 183.235 146.914 183.288C147.095 183.341 147.34 183.389 147.65 183.432C147.959 183.475 148.364 183.517 148.866 183.56C149.591 183.613 150.172 183.741 150.61 183.944C151.058 184.147 151.383 184.419 151.586 184.76C151.788 185.101 151.89 185.507 151.89 185.976C151.89 186.435 151.762 186.872 151.506 187.288C151.26 187.704 150.871 188.045 150.338 188.312C149.815 188.579 149.138 188.712 148.306 188.712ZM148.306 182.52C147.623 182.52 147.042 182.392 146.562 182.136C146.092 181.88 145.73 181.533 145.474 181.096C145.228 180.659 145.106 180.173 145.106 179.64C145.106 179.096 145.228 178.611 145.474 178.184C145.73 177.747 146.098 177.4 146.578 177.144C147.058 176.877 147.634 176.744 148.306 176.744C148.978 176.744 149.548 176.877 150.018 177.144C150.498 177.4 150.86 177.747 151.106 178.184C151.362 178.611 151.49 179.096 151.49 179.64C151.49 180.173 151.362 180.659 151.106 181.096C150.86 181.533 150.498 181.88 150.018 182.136C149.548 182.392 148.978 182.52 148.306 182.52ZM148.306 181.24C148.828 181.24 149.244 181.107 149.554 180.84C149.863 180.563 150.018 180.163 150.018 179.64C150.018 179.117 149.863 178.723 149.554 178.456C149.244 178.179 148.828 178.04 148.306 178.04C147.783 178.04 147.362 178.179 147.042 178.456C146.722 178.723 146.562 179.117 146.562 179.64C146.562 180.163 146.722 180.563 147.042 180.84C147.362 181.107 147.783 181.24 148.306 181.24ZM149.618 178.2L149.234 176.936H152.546V178.04L149.618 178.2Z" fill="#919292"/>
</svg>
