<svg width="229" height="227" viewBox="0 0 229 227" fill="none" xmlns="http://www.w3.org/2000/svg">
<rect width="229" height="227" rx="32" fill="white"/>
<g clip-path="url(#clip0_90_14)">
<path d="M111.718 39.9209L110.16 42.04H106.522C106.971 43.32 108.44 44.527 110.491 44.1264C111.099 44.0854 113.15 43.7596 114 43.96C115.132 44.2313 114.66 44.2326 116.689 45.8608L126.8 54.2C127.42 54.7472 128.212 54.5232 128.76 53.9049C129.309 53.2854 129.34 52.1872 128.72 51.64L115.92 41.4C115.119 40.7568 114.917 39.8659 114.64 38.84C114.103 37.0768 112.126 35.6624 110.185 35.6624C108.622 35.6624 106.939 37.0147 106.32 38.2H110.16L111.718 39.9209ZM120.499 55.48L116.542 48.6128C116.386 48.328 115.991 47.8 115.667 47.8H104.654C104.329 47.8 103.934 48.328 103.777 48.6128L99.9201 55.48H99.8216C99.172 55.48 98.6401 55.7161 98.6401 56.3664V62.2736C98.6401 62.9238 99.172 63.16 99.8216 63.16H101.2V65.2272C101.2 66.2025 101.8 67 102.775 67H103.366C104.341 67 105.04 66.2025 105.04 65.2272V63.16H115.28V65.2272C115.28 66.2019 115.979 67 116.954 67H117.544C118.52 67 119.12 66.2025 119.12 65.2272V63.16H120.499C121.148 63.16 121.68 62.9238 121.68 62.2736V56.3664C121.68 55.7161 121.148 55.48 120.499 55.48ZM101.889 59.9107C101.693 59.9148 101.498 59.8796 101.315 59.8072C101.132 59.7348 100.966 59.6267 100.825 59.4892C100.685 59.3516 100.573 59.1874 100.497 59.0062C100.421 58.825 100.382 58.6304 100.382 58.4339C100.382 58.2373 100.421 58.0427 100.497 57.8615C100.573 57.6803 100.685 57.5161 100.825 57.3786C100.966 57.241 101.132 57.1329 101.315 57.0605C101.498 56.9882 101.693 56.953 101.889 56.9571C102.276 56.9651 102.644 57.1242 102.914 57.4003C103.184 57.6764 103.336 58.0474 103.336 58.4339C103.336 58.8203 103.184 59.1914 102.914 59.4674C102.644 59.7435 102.276 59.9026 101.889 59.9107ZM103.071 55.48L105.465 50.47C105.61 50.1795 105.996 49.72 106.32 49.72H114C114.325 49.72 114.709 50.1795 114.855 50.47L117.249 55.48H103.071ZM118.431 59.9107C118.039 59.9107 117.663 59.755 117.386 59.478C117.109 59.201 116.954 58.8253 116.954 58.4336C116.954 58.0418 117.109 57.6661 117.386 57.3891C117.663 57.1121 118.039 56.9564 118.431 56.9564C118.823 56.9564 119.198 57.1121 119.475 57.3891C119.752 57.6661 119.908 58.0418 119.908 58.4336C119.908 58.8253 119.752 59.201 119.475 59.478C119.198 59.755 118.823 59.9107 118.431 59.9107Z" fill="#FDDD0D"/>
</g>
<path d="M62.168 105.288C60.504 105.288 59.064 104.928 57.848 104.208C56.648 103.472 55.72 102.456 55.064 101.16C54.424 99.848 54.104 98.336 54.104 96.624C54.104 94.896 54.424 93.384 55.064 92.088C55.72 90.776 56.648 89.752 57.848 89.016C59.064 88.28 60.504 87.912 62.168 87.912C64.168 87.912 65.8 88.408 67.064 89.4C68.328 90.376 69.128 91.76 69.464 93.552H66.296C66.072 92.608 65.616 91.864 64.928 91.32C64.24 90.776 63.312 90.504 62.144 90.504C61.088 90.504 60.176 90.752 59.408 91.248C58.656 91.728 58.072 92.432 57.656 93.36C57.256 94.272 57.056 95.36 57.056 96.624C57.056 97.888 57.256 98.976 57.656 99.888C58.072 100.784 58.656 101.48 59.408 101.976C60.176 102.456 61.088 102.696 62.144 102.696C63.312 102.696 64.24 102.448 64.928 101.952C65.616 101.44 66.072 100.736 66.296 99.84H69.464C69.144 101.536 68.344 102.872 67.064 103.848C65.8 104.808 64.168 105.288 62.168 105.288ZM76.2181 105.288C75.2261 105.288 74.4021 105.12 73.7461 104.784C73.0901 104.448 72.6021 104 72.2821 103.44C71.9621 102.88 71.8021 102.272 71.8021 101.616C71.8021 100.848 71.9941 100.184 72.3781 99.624C72.7781 99.064 73.3621 98.632 74.1301 98.328C74.8981 98.008 75.8421 97.848 76.9621 97.848H80.0101C80.0101 97.208 79.9221 96.68 79.7461 96.264C79.5701 95.832 79.2981 95.512 78.9301 95.304C78.5621 95.096 78.0901 94.992 77.5141 94.992C76.8581 94.992 76.2981 95.144 75.8341 95.448C75.3701 95.736 75.0821 96.184 74.9701 96.792H72.1381C72.2341 95.928 72.5221 95.192 73.0021 94.584C73.4821 93.96 74.1141 93.48 74.8981 93.144C75.6981 92.792 76.5701 92.616 77.5141 92.616C78.6501 92.616 79.6181 92.816 80.4181 93.216C81.2181 93.6 81.8261 94.16 82.2421 94.896C82.6741 95.616 82.8901 96.488 82.8901 97.512V105H80.4421L80.1541 103.056C79.9941 103.376 79.7861 103.672 79.5301 103.944C79.2901 104.216 79.0101 104.456 78.6901 104.664C78.3701 104.856 78.0021 105.008 77.5861 105.12C77.1861 105.232 76.7301 105.288 76.2181 105.288ZM76.8661 103.008C77.3301 103.008 77.7381 102.928 78.0901 102.768C78.4581 102.592 78.7701 102.352 79.0261 102.048C79.2981 101.728 79.5061 101.376 79.6501 100.992C79.7941 100.608 79.8901 100.2 79.9381 99.768V99.72H77.2741C76.7141 99.72 76.2501 99.792 75.8821 99.936C75.5141 100.064 75.2501 100.256 75.0901 100.512C74.9301 100.768 74.8501 101.064 74.8501 101.4C74.8501 101.736 74.9301 102.024 75.0901 102.264C75.2501 102.504 75.4821 102.688 75.7861 102.816C76.0901 102.944 76.4501 103.008 76.8661 103.008ZM85.9674 105V92.904H88.5354L88.7994 95.16C89.0874 94.632 89.4474 94.184 89.8794 93.816C90.3114 93.432 90.8154 93.136 91.3914 92.928C91.9834 92.72 92.6314 92.616 93.3354 92.616V95.664H92.3274C91.8474 95.664 91.3914 95.728 90.9594 95.856C90.5274 95.968 90.1514 96.16 89.8314 96.432C89.5274 96.688 89.2874 97.048 89.1114 97.512C88.9354 97.96 88.8474 98.528 88.8474 99.216V105H85.9674ZM101.462 105V88.2H107.486C108.814 88.2 109.91 88.432 110.774 88.896C111.654 89.344 112.302 89.952 112.718 90.72C113.15 91.472 113.366 92.328 113.366 93.288C113.366 94.184 113.158 95.016 112.742 95.784C112.326 96.552 111.678 97.168 110.798 97.632C109.918 98.096 108.79 98.328 107.414 98.328H104.342V105H101.462ZM110.222 105L106.694 97.584H109.814L113.51 105H110.222ZM104.342 96.192H107.294C108.366 96.192 109.15 95.936 109.646 95.424C110.158 94.896 110.414 94.208 110.414 93.36C110.414 92.528 110.166 91.864 109.67 91.368C109.174 90.856 108.382 90.6 107.294 90.6H104.342V96.192ZM121.186 105.288C119.986 105.288 118.93 105.032 118.018 104.52C117.106 103.992 116.394 103.256 115.882 102.312C115.37 101.368 115.114 100.28 115.114 99.048C115.114 97.768 115.362 96.648 115.858 95.688C116.37 94.728 117.082 93.976 117.994 93.432C118.922 92.888 119.994 92.616 121.21 92.616C122.394 92.616 123.426 92.88 124.306 93.408C125.186 93.936 125.866 94.648 126.346 95.544C126.826 96.424 127.066 97.416 127.066 98.52C127.066 98.68 127.066 98.856 127.066 99.048C127.066 99.24 127.05 99.44 127.018 99.648H117.178V97.8H124.162C124.13 96.92 123.834 96.232 123.274 95.736C122.714 95.224 122.018 94.968 121.186 94.968C120.594 94.968 120.05 95.104 119.554 95.376C119.058 95.648 118.666 96.056 118.378 96.6C118.09 97.128 117.946 97.8 117.946 98.616V99.312C117.946 100.064 118.082 100.712 118.354 101.256C118.642 101.8 119.026 102.216 119.506 102.504C120.002 102.776 120.554 102.912 121.162 102.912C121.834 102.912 122.386 102.768 122.818 102.48C123.266 102.192 123.594 101.808 123.802 101.328H126.73C126.506 102.08 126.138 102.76 125.626 103.368C125.114 103.96 124.482 104.432 123.73 104.784C122.978 105.12 122.13 105.288 121.186 105.288ZM129.725 110.28V92.904H132.293L132.605 94.656C132.861 94.304 133.165 93.976 133.517 93.672C133.885 93.352 134.325 93.096 134.837 92.904C135.365 92.712 135.965 92.616 136.637 92.616C137.773 92.616 138.773 92.896 139.637 93.456C140.517 94.016 141.205 94.776 141.701 95.736C142.197 96.68 142.445 97.76 142.445 98.976C142.445 100.192 142.189 101.28 141.677 102.24C141.181 103.184 140.493 103.928 139.613 104.472C138.749 105.016 137.757 105.288 136.637 105.288C135.725 105.288 134.925 105.12 134.237 104.784C133.565 104.432 133.021 103.936 132.605 103.296V110.28H129.725ZM136.037 102.792C136.709 102.792 137.309 102.632 137.837 102.312C138.365 101.992 138.773 101.544 139.061 100.968C139.365 100.392 139.517 99.728 139.517 98.976C139.517 98.208 139.365 97.536 139.061 96.96C138.773 96.384 138.365 95.936 137.837 95.616C137.309 95.296 136.709 95.136 136.037 95.136C135.349 95.136 134.741 95.296 134.213 95.616C133.701 95.936 133.293 96.384 132.989 96.96C132.701 97.536 132.557 98.2 132.557 98.952C132.557 99.72 132.701 100.392 132.989 100.968C133.293 101.528 133.701 101.976 134.213 102.312C134.741 102.632 135.349 102.792 136.037 102.792ZM149.273 105.288C148.281 105.288 147.457 105.12 146.801 104.784C146.145 104.448 145.657 104 145.337 103.44C145.017 102.88 144.857 102.272 144.857 101.616C144.857 100.848 145.049 100.184 145.433 99.624C145.833 99.064 146.417 98.632 147.185 98.328C147.953 98.008 148.897 97.848 150.017 97.848H153.065C153.065 97.208 152.977 96.68 152.801 96.264C152.625 95.832 152.353 95.512 151.985 95.304C151.617 95.096 151.145 94.992 150.569 94.992C149.913 94.992 149.353 95.144 148.889 95.448C148.425 95.736 148.137 96.184 148.025 96.792H145.193C145.289 95.928 145.577 95.192 146.057 94.584C146.537 93.96 147.169 93.48 147.953 93.144C148.753 92.792 149.625 92.616 150.569 92.616C151.705 92.616 152.673 92.816 153.473 93.216C154.273 93.6 154.881 94.16 155.297 94.896C155.729 95.616 155.945 96.488 155.945 97.512V105H153.497L153.209 103.056C153.049 103.376 152.841 103.672 152.585 103.944C152.345 104.216 152.065 104.456 151.745 104.664C151.425 104.856 151.057 105.008 150.641 105.12C150.241 105.232 149.785 105.288 149.273 105.288ZM149.921 103.008C150.385 103.008 150.793 102.928 151.145 102.768C151.513 102.592 151.825 102.352 152.081 102.048C152.353 101.728 152.561 101.376 152.705 100.992C152.849 100.608 152.945 100.2 152.993 99.768V99.72H150.329C149.769 99.72 149.305 99.792 148.937 99.936C148.569 100.064 148.305 100.256 148.145 100.512C147.985 100.768 147.905 101.064 147.905 101.4C147.905 101.736 147.985 102.024 148.145 102.264C148.305 102.504 148.537 102.688 148.841 102.816C149.145 102.944 149.505 103.008 149.921 103.008ZM159.142 105V92.904H162.022V105H159.142ZM160.582 90.984C160.054 90.984 159.614 90.824 159.262 90.504C158.926 90.168 158.758 89.76 158.758 89.28C158.758 88.784 158.926 88.384 159.262 88.08C159.614 87.76 160.054 87.6 160.582 87.6C161.11 87.6 161.542 87.76 161.878 88.08C162.23 88.384 162.406 88.784 162.406 89.28C162.406 89.76 162.23 90.168 161.878 90.504C161.542 90.824 161.11 90.984 160.582 90.984ZM165.35 105V92.904H167.918L168.182 95.16C168.47 94.632 168.83 94.184 169.262 93.816C169.694 93.432 170.198 93.136 170.774 92.928C171.366 92.72 172.014 92.616 172.718 92.616V95.664H171.71C171.23 95.664 170.774 95.728 170.342 95.856C169.91 95.968 169.534 96.16 169.214 96.432C168.91 96.688 168.67 97.048 168.494 97.512C168.318 97.96 168.23 98.528 168.23 99.216V105H165.35Z" fill="#4D4E4E"/>
<path d="M38.0425 143L33.8825 131.8H35.6105L39.0025 141.336L42.4265 131.8H44.1225L39.9625 143H38.0425ZM48.1579 143.192C47.3899 143.192 46.7072 143.016 46.1099 142.664C45.5125 142.312 45.0432 141.821 44.7019 141.192C44.3712 140.563 44.2059 139.832 44.2059 139C44.2059 138.147 44.3712 137.405 44.7019 136.776C45.0432 136.136 45.5125 135.64 46.1099 135.288C46.7072 134.925 47.4005 134.744 48.1899 134.744C48.9792 134.744 49.6565 134.92 50.2219 135.272C50.7872 135.624 51.2245 136.093 51.5339 136.68C51.8432 137.256 51.9979 137.896 51.9979 138.6C51.9979 138.707 51.9925 138.824 51.9819 138.952C51.9819 139.069 51.9765 139.203 51.9659 139.352H45.3739V138.216H50.3979C50.3659 137.544 50.1419 137.021 49.7259 136.648C49.3099 136.264 48.7925 136.072 48.1739 136.072C47.7365 136.072 47.3365 136.173 46.9739 136.376C46.6112 136.568 46.3179 136.856 46.0939 137.24C45.8805 137.613 45.7739 138.088 45.7739 138.664V139.112C45.7739 139.709 45.8805 140.216 46.0939 140.632C46.3179 141.037 46.6112 141.347 46.9739 141.56C47.3365 141.763 47.7312 141.864 48.1579 141.864C48.6699 141.864 49.0912 141.752 49.4219 141.528C49.7525 141.304 49.9979 141 50.1579 140.616H51.7579C51.6192 141.107 51.3845 141.549 51.0539 141.944C50.7232 142.328 50.3125 142.632 49.8219 142.856C49.3419 143.08 48.7872 143.192 48.1579 143.192ZM53.7755 143V131.48H55.3755V136.248C55.6422 135.779 56.0102 135.411 56.4795 135.144C56.9595 134.877 57.4875 134.744 58.0635 134.744C58.7035 134.744 59.2528 134.877 59.7115 135.144C60.1702 135.4 60.5222 135.789 60.7675 136.312C61.0128 136.824 61.1355 137.469 61.1355 138.248V143H59.5515V138.408C59.5515 137.661 59.3915 137.096 59.0715 136.712C58.7515 136.317 58.2768 136.12 57.6475 136.12C57.2208 136.12 56.8368 136.221 56.4955 136.424C56.1542 136.627 55.8822 136.925 55.6795 137.32C55.4768 137.704 55.3755 138.173 55.3755 138.728V143H53.7755ZM63.2938 143V134.936H64.8938V143H63.2938ZM64.1098 133.416C63.8004 133.416 63.5444 133.32 63.3418 133.128C63.1498 132.936 63.0538 132.691 63.0538 132.392C63.0538 132.104 63.1498 131.869 63.3418 131.688C63.5444 131.496 63.8004 131.4 64.1098 131.4C64.4084 131.4 64.6591 131.496 64.8618 131.688C65.0644 131.869 65.1658 132.104 65.1658 132.392C65.1658 132.691 65.0644 132.936 64.8618 133.128C64.6591 133.32 64.4084 133.416 64.1098 133.416ZM70.9098 143.192C70.1311 143.192 69.4378 143.016 68.8298 142.664C68.2218 142.301 67.7418 141.805 67.3898 141.176C67.0484 140.547 66.8778 139.816 66.8778 138.984C66.8778 138.141 67.0484 137.405 67.3898 136.776C67.7418 136.136 68.2218 135.64 68.8298 135.288C69.4378 134.925 70.1311 134.744 70.9098 134.744C71.8911 134.744 72.7124 135 73.3738 135.512C74.0351 136.024 74.4564 136.717 74.6378 137.592H72.9738C72.8671 137.123 72.6218 136.76 72.2378 136.504C71.8644 136.248 71.4164 136.12 70.8938 136.12C70.4671 136.12 70.0724 136.232 69.7098 136.456C69.3471 136.669 69.0538 136.989 68.8298 137.416C68.6164 137.832 68.5098 138.349 68.5098 138.968C68.5098 139.427 68.5738 139.837 68.7018 140.2C68.8298 140.552 69.0004 140.851 69.2138 141.096C69.4378 141.341 69.6938 141.528 69.9818 141.656C70.2698 141.773 70.5738 141.832 70.8938 141.832C71.2458 141.832 71.5604 141.779 71.8378 141.672C72.1258 141.555 72.3658 141.384 72.5578 141.16C72.7604 140.936 72.8991 140.669 72.9738 140.36H74.6378C74.4564 141.213 74.0351 141.901 73.3738 142.424C72.7124 142.936 71.8911 143.192 70.9098 143.192ZM76.5099 143V131.48H78.1099V143H76.5099ZM83.9548 143.192C83.1868 143.192 82.5041 143.016 81.9068 142.664C81.3094 142.312 80.8401 141.821 80.4988 141.192C80.1681 140.563 80.0028 139.832 80.0028 139C80.0028 138.147 80.1681 137.405 80.4988 136.776C80.8401 136.136 81.3094 135.64 81.9068 135.288C82.5041 134.925 83.1974 134.744 83.9868 134.744C84.7761 134.744 85.4534 134.92 86.0188 135.272C86.5841 135.624 87.0214 136.093 87.3308 136.68C87.6401 137.256 87.7948 137.896 87.7948 138.6C87.7948 138.707 87.7894 138.824 87.7788 138.952C87.7788 139.069 87.7734 139.203 87.7628 139.352H81.1708V138.216H86.1948C86.1628 137.544 85.9388 137.021 85.5228 136.648C85.1068 136.264 84.5894 136.072 83.9708 136.072C83.5334 136.072 83.1334 136.173 82.7708 136.376C82.4081 136.568 82.1148 136.856 81.8908 137.24C81.6774 137.613 81.5707 138.088 81.5707 138.664V139.112C81.5707 139.709 81.6774 140.216 81.8908 140.632C82.1148 141.037 82.4081 141.347 82.7708 141.56C83.1334 141.763 83.5281 141.864 83.9548 141.864C84.4668 141.864 84.8881 141.752 85.2188 141.528C85.5494 141.304 85.7948 141 85.9548 140.616H87.5548C87.4161 141.107 87.1814 141.549 86.8508 141.944C86.5201 142.328 86.1094 142.632 85.6188 142.856C85.1388 143.08 84.5841 143.192 83.9548 143.192ZM93.6661 143V134.936H95.1061L95.2181 136.072C95.4741 135.656 95.8155 135.331 96.2421 135.096C96.6688 134.861 97.1488 134.744 97.6821 134.744C98.0875 134.744 98.4555 134.803 98.7861 134.92C99.1168 135.027 99.4101 135.192 99.6661 135.416C99.9221 135.64 100.13 135.917 100.29 136.248C100.578 135.779 100.962 135.411 101.442 135.144C101.933 134.877 102.45 134.744 102.994 134.744C103.645 134.744 104.205 134.877 104.674 135.144C105.143 135.4 105.501 135.789 105.746 136.312C105.991 136.824 106.114 137.464 106.114 138.232V143H104.53V138.392C104.53 137.645 104.375 137.08 104.066 136.696C103.767 136.312 103.325 136.12 102.738 136.12C102.343 136.12 101.991 136.221 101.682 136.424C101.373 136.627 101.127 136.92 100.946 137.304C100.775 137.688 100.69 138.157 100.69 138.712V143H99.0901V138.392C99.0901 137.645 98.9355 137.08 98.6261 136.696C98.3275 136.312 97.8848 136.12 97.2981 136.12C96.9248 136.12 96.5835 136.221 96.2741 136.424C95.9648 136.627 95.7195 136.92 95.5381 137.304C95.3568 137.688 95.2661 138.157 95.2661 138.712V143H93.6661ZM110.854 143.192C110.192 143.192 109.643 143.08 109.206 142.856C108.768 142.632 108.443 142.333 108.23 141.96C108.016 141.576 107.91 141.165 107.91 140.728C107.91 140.195 108.048 139.741 108.326 139.368C108.603 138.984 108.998 138.691 109.51 138.488C110.022 138.285 110.635 138.184 111.35 138.184H113.446C113.446 137.715 113.376 137.325 113.238 137.016C113.099 136.707 112.891 136.477 112.614 136.328C112.347 136.168 112.006 136.088 111.59 136.088C111.11 136.088 110.699 136.205 110.358 136.44C110.016 136.664 109.803 137 109.718 137.448H108.118C108.182 136.883 108.374 136.403 108.694 136.008C109.024 135.603 109.446 135.293 109.958 135.08C110.47 134.856 111.014 134.744 111.59 134.744C112.347 134.744 112.982 134.877 113.494 135.144C114.006 135.411 114.39 135.789 114.646 136.28C114.912 136.76 115.046 137.336 115.046 138.008V143H113.654L113.526 141.64C113.408 141.853 113.27 142.056 113.11 142.248C112.95 142.44 112.758 142.605 112.534 142.744C112.32 142.883 112.07 142.989 111.782 143.064C111.504 143.149 111.195 143.192 110.854 143.192ZM111.158 141.896C111.499 141.896 111.808 141.827 112.086 141.688C112.363 141.549 112.598 141.363 112.79 141.128C112.992 140.883 113.142 140.611 113.238 140.312C113.344 140.003 113.403 139.688 113.414 139.368V139.32H111.51C111.051 139.32 110.678 139.379 110.39 139.496C110.112 139.603 109.91 139.752 109.782 139.944C109.654 140.136 109.59 140.36 109.59 140.616C109.59 140.883 109.648 141.112 109.766 141.304C109.894 141.485 110.075 141.629 110.31 141.736C110.544 141.843 110.827 141.896 111.158 141.896ZM117.2 143V134.936H118.8V143H117.2ZM118.016 133.416C117.707 133.416 117.451 133.32 117.248 133.128C117.056 132.936 116.96 132.691 116.96 132.392C116.96 132.104 117.056 131.869 117.248 131.688C117.451 131.496 117.707 131.4 118.016 131.4C118.315 131.4 118.565 131.496 118.768 131.688C118.971 131.869 119.072 132.104 119.072 132.392C119.072 132.691 118.971 132.936 118.768 133.128C118.565 133.32 118.315 133.416 118.016 133.416ZM121.088 143V134.936H122.528L122.624 136.312C122.88 135.832 123.243 135.453 123.712 135.176C124.181 134.888 124.72 134.744 125.328 134.744C125.968 134.744 126.517 134.872 126.976 135.128C127.435 135.384 127.792 135.773 128.048 136.296C128.304 136.808 128.432 137.453 128.432 138.232V143H126.832V138.392C126.832 137.645 126.667 137.08 126.336 136.696C126.005 136.312 125.525 136.12 124.896 136.12C124.48 136.12 124.107 136.221 123.776 136.424C123.445 136.616 123.179 136.904 122.976 137.288C122.784 137.672 122.688 138.141 122.688 138.696V143H121.088ZM133.807 143C133.295 143 132.852 142.92 132.479 142.76C132.105 142.6 131.817 142.333 131.615 141.96C131.412 141.587 131.311 141.08 131.311 140.44V136.296H129.919V134.936H131.311L131.503 132.92H132.911V134.936H135.199V136.296H132.911V140.456C132.911 140.915 133.007 141.229 133.199 141.4C133.391 141.56 133.721 141.64 134.191 141.64H135.119V143H133.807ZM140.392 143.192C139.624 143.192 138.942 143.016 138.344 142.664C137.747 142.312 137.278 141.821 136.936 141.192C136.606 140.563 136.44 139.832 136.44 139C136.44 138.147 136.606 137.405 136.936 136.776C137.278 136.136 137.747 135.64 138.344 135.288C138.942 134.925 139.635 134.744 140.424 134.744C141.214 134.744 141.891 134.92 142.456 135.272C143.022 135.624 143.459 136.093 143.768 136.68C144.078 137.256 144.232 137.896 144.232 138.6C144.232 138.707 144.227 138.824 144.216 138.952C144.216 139.069 144.211 139.203 144.2 139.352H137.608V138.216H142.632C142.6 137.544 142.376 137.021 141.96 136.648C141.544 136.264 141.027 136.072 140.408 136.072C139.971 136.072 139.571 136.173 139.208 136.376C138.846 136.568 138.552 136.856 138.328 137.24C138.115 137.613 138.008 138.088 138.008 138.664V139.112C138.008 139.709 138.115 140.216 138.328 140.632C138.552 141.037 138.846 141.347 139.208 141.56C139.571 141.763 139.966 141.864 140.392 141.864C140.904 141.864 141.326 141.752 141.656 141.528C141.987 141.304 142.232 141 142.392 140.616H143.992C143.854 141.107 143.619 141.549 143.288 141.944C142.958 142.328 142.547 142.632 142.056 142.856C141.576 143.08 141.022 143.192 140.392 143.192ZM146.01 143V134.936H147.45L147.546 136.312C147.802 135.832 148.165 135.453 148.634 135.176C149.103 134.888 149.642 134.744 150.25 134.744C150.89 134.744 151.439 134.872 151.898 135.128C152.357 135.384 152.714 135.773 152.97 136.296C153.226 136.808 153.354 137.453 153.354 138.232V143H151.754V138.392C151.754 137.645 151.589 137.08 151.258 136.696C150.927 136.312 150.447 136.12 149.818 136.12C149.402 136.12 149.029 136.221 148.698 136.424C148.367 136.616 148.101 136.904 147.898 137.288C147.706 137.672 147.61 138.141 147.61 138.696V143H146.01ZM158.073 143.192C157.411 143.192 156.862 143.08 156.424 142.856C155.987 142.632 155.662 142.333 155.449 141.96C155.235 141.576 155.129 141.165 155.129 140.728C155.129 140.195 155.267 139.741 155.545 139.368C155.822 138.984 156.217 138.691 156.729 138.488C157.241 138.285 157.854 138.184 158.569 138.184H160.665C160.665 137.715 160.595 137.325 160.457 137.016C160.318 136.707 160.11 136.477 159.833 136.328C159.566 136.168 159.225 136.088 158.809 136.088C158.329 136.088 157.918 136.205 157.577 136.44C157.235 136.664 157.022 137 156.937 137.448H155.337C155.401 136.883 155.593 136.403 155.913 136.008C156.243 135.603 156.665 135.293 157.177 135.08C157.689 134.856 158.233 134.744 158.809 134.744C159.566 134.744 160.201 134.877 160.713 135.144C161.225 135.411 161.609 135.789 161.865 136.28C162.131 136.76 162.265 137.336 162.265 138.008V143H160.873L160.745 141.64C160.627 141.853 160.489 142.056 160.329 142.248C160.169 142.44 159.977 142.605 159.753 142.744C159.539 142.883 159.289 142.989 159.001 143.064C158.723 143.149 158.414 143.192 158.073 143.192ZM158.377 141.896C158.718 141.896 159.027 141.827 159.305 141.688C159.582 141.549 159.817 141.363 160.009 141.128C160.211 140.883 160.361 140.611 160.457 140.312C160.563 140.003 160.622 139.688 160.633 139.368V139.32H158.729C158.27 139.32 157.897 139.379 157.609 139.496C157.331 139.603 157.129 139.752 157.001 139.944C156.873 140.136 156.809 140.36 156.809 140.616C156.809 140.883 156.867 141.112 156.985 141.304C157.113 141.485 157.294 141.629 157.529 141.736C157.763 141.843 158.046 141.896 158.377 141.896ZM164.307 143V134.936H165.747L165.843 136.312C166.099 135.832 166.461 135.453 166.931 135.176C167.4 134.888 167.939 134.744 168.547 134.744C169.187 134.744 169.736 134.872 170.195 135.128C170.653 135.384 171.011 135.773 171.267 136.296C171.523 136.808 171.651 137.453 171.651 138.232V143H170.051V138.392C170.051 137.645 169.885 137.08 169.555 136.696C169.224 136.312 168.744 136.12 168.115 136.12C167.699 136.12 167.325 136.221 166.995 136.424C166.664 136.616 166.397 136.904 166.195 137.288C166.003 137.672 165.907 138.141 165.907 138.696V143H164.307ZM177.425 143.192C176.647 143.192 175.953 143.016 175.345 142.664C174.737 142.301 174.257 141.805 173.905 141.176C173.564 140.547 173.393 139.816 173.393 138.984C173.393 138.141 173.564 137.405 173.905 136.776C174.257 136.136 174.737 135.64 175.345 135.288C175.953 134.925 176.647 134.744 177.425 134.744C178.407 134.744 179.228 135 179.889 135.512C180.551 136.024 180.972 136.717 181.153 137.592H179.489C179.383 137.123 179.137 136.76 178.753 136.504C178.38 136.248 177.932 136.12 177.409 136.12C176.983 136.12 176.588 136.232 176.225 136.456C175.863 136.669 175.569 136.989 175.345 137.416C175.132 137.832 175.025 138.349 175.025 138.968C175.025 139.427 175.089 139.837 175.217 140.2C175.345 140.552 175.516 140.851 175.729 141.096C175.953 141.341 176.209 141.528 176.497 141.656C176.785 141.773 177.089 141.832 177.409 141.832C177.761 141.832 178.076 141.779 178.353 141.672C178.641 141.555 178.881 141.384 179.073 141.16C179.276 140.936 179.415 140.669 179.489 140.36H181.153C180.972 141.213 180.551 141.901 179.889 142.424C179.228 142.936 178.407 143.192 177.425 143.192ZM186.674 143.192C185.906 143.192 185.223 143.016 184.626 142.664C184.028 142.312 183.559 141.821 183.218 141.192C182.887 140.563 182.722 139.832 182.722 139C182.722 138.147 182.887 137.405 183.218 136.776C183.559 136.136 184.028 135.64 184.626 135.288C185.223 134.925 185.916 134.744 186.706 134.744C187.495 134.744 188.172 134.92 188.738 135.272C189.303 135.624 189.74 136.093 190.05 136.68C190.359 137.256 190.514 137.896 190.514 138.6C190.514 138.707 190.508 138.824 190.498 138.952C190.498 139.069 190.492 139.203 190.482 139.352H183.89V138.216H188.914C188.882 137.544 188.658 137.021 188.242 136.648C187.826 136.264 187.308 136.072 186.69 136.072C186.252 136.072 185.852 136.173 185.49 136.376C185.127 136.568 184.834 136.856 184.61 137.24C184.396 137.613 184.289 138.088 184.289 138.664V139.112C184.289 139.709 184.396 140.216 184.61 140.632C184.834 141.037 185.127 141.347 185.49 141.56C185.852 141.763 186.247 141.864 186.674 141.864C187.186 141.864 187.607 141.752 187.938 141.528C188.268 141.304 188.514 141 188.674 140.616H190.274C190.135 141.107 189.9 141.549 189.57 141.944C189.239 142.328 188.828 142.632 188.338 142.856C187.858 143.08 187.303 143.192 186.674 143.192ZM191.363 144.968L192.275 141.272H193.891L192.435 144.968H191.363ZM35.8302 164V155.936H37.2702L37.4142 157.456C37.5955 157.093 37.8302 156.789 38.1182 156.544C38.4062 156.288 38.7422 156.091 39.1262 155.952C39.5209 155.813 39.9689 155.744 40.4702 155.744V157.44H39.8942C39.5635 157.44 39.2489 157.483 38.9502 157.568C38.6515 157.643 38.3849 157.776 38.1502 157.968C37.9262 158.16 37.7502 158.421 37.6222 158.752C37.4942 159.083 37.4302 159.493 37.4302 159.984V164H35.8302ZM45.3532 164.192C44.5852 164.192 43.9025 164.016 43.3052 163.664C42.7079 163.312 42.2385 162.821 41.8972 162.192C41.5665 161.563 41.4012 160.832 41.4012 160C41.4012 159.147 41.5665 158.405 41.8972 157.776C42.2385 157.136 42.7079 156.64 43.3052 156.288C43.9025 155.925 44.5959 155.744 45.3852 155.744C46.1745 155.744 46.8519 155.92 47.4172 156.272C47.9825 156.624 48.4199 157.093 48.7292 157.68C49.0385 158.256 49.1932 158.896 49.1932 159.6C49.1932 159.707 49.1879 159.824 49.1772 159.952C49.1772 160.069 49.1719 160.203 49.1612 160.352H42.5692V159.216H47.5932C47.5612 158.544 47.3372 158.021 46.9212 157.648C46.5052 157.264 45.9879 157.072 45.3692 157.072C44.9319 157.072 44.5319 157.173 44.1692 157.376C43.8065 157.568 43.5132 157.856 43.2892 158.24C43.0759 158.613 42.9692 159.088 42.9692 159.664V160.112C42.9692 160.709 43.0759 161.216 43.2892 161.632C43.5132 162.037 43.8065 162.347 44.1692 162.56C44.5319 162.763 44.9265 162.864 45.3532 162.864C45.8652 162.864 46.2865 162.752 46.6172 162.528C46.9479 162.304 47.1932 162 47.3532 161.616H48.9532C48.8145 162.107 48.5799 162.549 48.2492 162.944C47.9185 163.328 47.5079 163.632 47.0172 163.856C46.5372 164.08 45.9825 164.192 45.3532 164.192ZM50.9708 167.52V155.936H52.4108L52.5708 157.184C52.7415 156.939 52.9548 156.709 53.2108 156.496C53.4668 156.272 53.7708 156.091 54.1228 155.952C54.4855 155.813 54.9068 155.744 55.3868 155.744C56.1548 155.744 56.8268 155.931 57.4028 156.304C57.9895 156.677 58.4428 157.184 58.7628 157.824C59.0935 158.453 59.2588 159.173 59.2588 159.984C59.2588 160.795 59.0935 161.52 58.7628 162.16C58.4321 162.789 57.9735 163.285 57.3868 163.648C56.8108 164.011 56.1388 164.192 55.3708 164.192C54.7415 164.192 54.1868 164.069 53.7068 163.824C53.2268 163.568 52.8481 163.216 52.5708 162.768V167.52H50.9708ZM55.1148 162.8C55.6055 162.8 56.0375 162.683 56.4108 162.448C56.7948 162.213 57.0935 161.883 57.3068 161.456C57.5308 161.029 57.6428 160.533 57.6428 159.968C57.6428 159.403 57.5308 158.912 57.3068 158.496C57.0935 158.069 56.7948 157.739 56.4108 157.504C56.0375 157.259 55.6055 157.136 55.1148 157.136C54.6135 157.136 54.1708 157.259 53.7868 157.504C53.4135 157.739 53.1201 158.069 52.9068 158.496C52.6935 158.912 52.5868 159.403 52.5868 159.968C52.5868 160.533 52.6935 161.029 52.9068 161.456C53.1201 161.883 53.4135 162.213 53.7868 162.448C54.1708 162.683 54.6135 162.8 55.1148 162.8ZM63.7991 164.192C63.1377 164.192 62.5884 164.08 62.1511 163.856C61.7137 163.632 61.3884 163.333 61.1751 162.96C60.9617 162.576 60.8551 162.165 60.8551 161.728C60.8551 161.195 60.9937 160.741 61.2711 160.368C61.5484 159.984 61.9431 159.691 62.4551 159.488C62.9671 159.285 63.5804 159.184 64.2951 159.184H66.3911C66.3911 158.715 66.3217 158.325 66.1831 158.016C66.0444 157.707 65.8364 157.477 65.5591 157.328C65.2924 157.168 64.9511 157.088 64.5351 157.088C64.0551 157.088 63.6444 157.205 63.3031 157.44C62.9617 157.664 62.7484 158 62.6631 158.448H61.0631C61.1271 157.883 61.3191 157.403 61.6391 157.008C61.9697 156.603 62.3911 156.293 62.9031 156.08C63.4151 155.856 63.9591 155.744 64.5351 155.744C65.2924 155.744 65.9271 155.877 66.4391 156.144C66.9511 156.411 67.3351 156.789 67.5911 157.28C67.8577 157.76 67.9911 158.336 67.9911 159.008V164H66.5991L66.4711 162.64C66.3537 162.853 66.2151 163.056 66.0551 163.248C65.8951 163.44 65.7031 163.605 65.4791 163.744C65.2657 163.883 65.0151 163.989 64.7271 164.064C64.4497 164.149 64.1404 164.192 63.7991 164.192ZM64.1031 162.896C64.4444 162.896 64.7537 162.827 65.0311 162.688C65.3084 162.549 65.5431 162.363 65.7351 162.128C65.9377 161.883 66.0871 161.611 66.1831 161.312C66.2897 161.003 66.3484 160.688 66.3591 160.368V160.32H64.4551C63.9964 160.32 63.6231 160.379 63.3351 160.496C63.0577 160.603 62.8551 160.752 62.7271 160.944C62.5991 161.136 62.5351 161.36 62.5351 161.616C62.5351 161.883 62.5937 162.112 62.7111 162.304C62.8391 162.485 63.0204 162.629 63.2551 162.736C63.4897 162.843 63.7724 162.896 64.1031 162.896ZM70.1453 164V155.936H71.7453V164H70.1453ZM70.9613 154.416C70.652 154.416 70.396 154.32 70.1933 154.128C70.0013 153.936 69.9053 153.691 69.9053 153.392C69.9053 153.104 70.0013 152.869 70.1933 152.688C70.396 152.496 70.652 152.4 70.9613 152.4C71.26 152.4 71.5106 152.496 71.7133 152.688C71.916 152.869 72.0173 153.104 72.0173 153.392C72.0173 153.691 71.916 153.936 71.7133 154.128C71.5106 154.32 71.26 154.416 70.9613 154.416ZM74.0333 164V155.936H75.4733L75.6173 157.456C75.7986 157.093 76.0333 156.789 76.3213 156.544C76.6093 156.288 76.9453 156.091 77.3293 155.952C77.724 155.813 78.172 155.744 78.6733 155.744V157.44H78.0973C77.7666 157.44 77.452 157.483 77.1533 157.568C76.8546 157.643 76.588 157.776 76.3533 157.968C76.1293 158.16 75.9533 158.421 75.8253 158.752C75.6973 159.083 75.6333 159.493 75.6333 159.984V164H74.0333ZM83.2627 164.192C82.58 164.192 81.9827 164.08 81.4707 163.856C80.9587 163.632 80.5534 163.317 80.2547 162.912C79.956 162.507 79.7747 162.032 79.7107 161.488H81.3427C81.396 161.744 81.4974 161.979 81.6467 162.192C81.8067 162.405 82.02 162.576 82.2867 162.704C82.564 162.832 82.8894 162.896 83.2627 162.896C83.6147 162.896 83.9027 162.848 84.1267 162.752C84.3614 162.645 84.532 162.507 84.6387 162.336C84.7454 162.155 84.7987 161.963 84.7987 161.76C84.7987 161.461 84.724 161.237 84.5747 161.088C84.436 160.928 84.2227 160.805 83.9347 160.72C83.6574 160.624 83.3214 160.539 82.9267 160.464C82.5534 160.4 82.1907 160.315 81.8387 160.208C81.4974 160.091 81.188 159.947 80.9107 159.776C80.644 159.605 80.4307 159.392 80.2707 159.136C80.1107 158.869 80.0307 158.544 80.0307 158.16C80.0307 157.701 80.1534 157.291 80.3987 156.928C80.644 156.555 80.9907 156.267 81.4387 156.064C81.8974 155.851 82.436 155.744 83.0547 155.744C83.9507 155.744 84.6707 155.957 85.2147 156.384C85.7587 156.811 86.0787 157.413 86.1747 158.192H84.6227C84.58 157.829 84.42 157.552 84.1427 157.36C83.8654 157.157 83.4974 157.056 83.0387 157.056C82.58 157.056 82.228 157.147 81.9827 157.328C81.7374 157.509 81.6147 157.749 81.6147 158.048C81.6147 158.24 81.684 158.411 81.8227 158.56C81.9614 158.709 82.164 158.837 82.4307 158.944C82.708 159.04 83.044 159.131 83.4387 159.216C84.004 159.323 84.5107 159.456 84.9587 159.616C85.4067 159.776 85.764 160.011 86.0307 160.32C86.2974 160.629 86.4307 161.072 86.4307 161.648C86.4414 162.149 86.3134 162.592 86.0467 162.976C85.7907 163.36 85.4227 163.659 84.9427 163.872C84.4734 164.085 83.9134 164.192 83.2627 164.192ZM87.3866 165.968L88.2986 162.272H89.9146L88.4586 165.968H87.3866ZM98.3147 164.192C97.6534 164.192 97.104 164.08 96.6667 163.856C96.2294 163.632 95.904 163.333 95.6907 162.96C95.4774 162.576 95.3707 162.165 95.3707 161.728C95.3707 161.195 95.5094 160.741 95.7867 160.368C96.064 159.984 96.4587 159.691 96.9707 159.488C97.4827 159.285 98.096 159.184 98.8107 159.184H100.907C100.907 158.715 100.837 158.325 100.699 158.016C100.56 157.707 100.352 157.477 100.075 157.328C99.808 157.168 99.4667 157.088 99.0507 157.088C98.5707 157.088 98.16 157.205 97.8187 157.44C97.4774 157.664 97.264 158 97.1787 158.448H95.5787C95.6427 157.883 95.8347 157.403 96.1547 157.008C96.4854 156.603 96.9067 156.293 97.4187 156.08C97.9307 155.856 98.4747 155.744 99.0507 155.744C99.808 155.744 100.443 155.877 100.955 156.144C101.467 156.411 101.851 156.789 102.107 157.28C102.373 157.76 102.507 158.336 102.507 159.008V164H101.115L100.987 162.64C100.869 162.853 100.731 163.056 100.571 163.248C100.411 163.44 100.219 163.605 99.9947 163.744C99.7814 163.883 99.5307 163.989 99.2427 164.064C98.9654 164.149 98.656 164.192 98.3147 164.192ZM98.6187 162.896C98.96 162.896 99.2694 162.827 99.5467 162.688C99.824 162.549 100.059 162.363 100.251 162.128C100.453 161.883 100.603 161.611 100.699 161.312C100.805 161.003 100.864 160.688 100.875 160.368V160.32H98.9707C98.512 160.32 98.1387 160.379 97.8507 160.496C97.5734 160.603 97.3707 160.752 97.2427 160.944C97.1147 161.136 97.0507 161.36 97.0507 161.616C97.0507 161.883 97.1094 162.112 97.2267 162.304C97.3547 162.485 97.536 162.629 97.7707 162.736C98.0054 162.843 98.288 162.896 98.6187 162.896ZM104.549 164V155.936H105.989L106.085 157.312C106.341 156.832 106.704 156.453 107.173 156.176C107.642 155.888 108.181 155.744 108.789 155.744C109.429 155.744 109.978 155.872 110.437 156.128C110.896 156.384 111.253 156.773 111.509 157.296C111.765 157.808 111.893 158.453 111.893 159.232V164H110.293V159.392C110.293 158.645 110.128 158.08 109.797 157.696C109.466 157.312 108.986 157.12 108.357 157.12C107.941 157.12 107.568 157.221 107.237 157.424C106.906 157.616 106.64 157.904 106.437 158.288C106.245 158.672 106.149 159.141 106.149 159.696V164H104.549ZM117.524 164.192C116.756 164.192 116.078 164.011 115.492 163.648C114.905 163.275 114.446 162.773 114.116 162.144C113.796 161.504 113.636 160.779 113.636 159.968C113.636 159.147 113.796 158.421 114.116 157.792C114.446 157.163 114.905 156.667 115.492 156.304C116.089 155.931 116.772 155.744 117.54 155.744C118.169 155.744 118.724 155.872 119.204 156.128C119.684 156.373 120.057 156.725 120.324 157.184V152.48H121.924V164H120.484L120.324 162.752C120.164 162.997 119.956 163.232 119.7 163.456C119.444 163.669 119.134 163.845 118.772 163.984C118.409 164.123 117.993 164.192 117.524 164.192ZM117.78 162.8C118.281 162.8 118.724 162.683 119.108 162.448C119.492 162.213 119.785 161.883 119.988 161.456C120.201 161.029 120.308 160.533 120.308 159.968C120.308 159.403 120.201 158.912 119.988 158.496C119.785 158.069 119.492 157.739 119.108 157.504C118.724 157.259 118.281 157.136 117.78 157.136C117.3 157.136 116.868 157.259 116.484 157.504C116.1 157.739 115.801 158.069 115.588 158.496C115.374 158.912 115.268 159.403 115.268 159.968C115.268 160.533 115.374 161.029 115.588 161.456C115.801 161.883 116.1 162.213 116.484 162.448C116.868 162.683 117.3 162.8 117.78 162.8ZM128.205 164V155.936H129.645L129.789 157.456C129.971 157.093 130.205 156.789 130.493 156.544C130.781 156.288 131.117 156.091 131.501 155.952C131.896 155.813 132.344 155.744 132.845 155.744V157.44H132.269C131.939 157.44 131.624 157.483 131.325 157.568C131.027 157.643 130.76 157.776 130.525 157.968C130.301 158.16 130.125 158.421 129.997 158.752C129.869 159.083 129.805 159.493 129.805 159.984V164H128.205ZM137.76 164.192C137.003 164.192 136.32 164.016 135.712 163.664C135.115 163.312 134.64 162.821 134.288 162.192C133.947 161.552 133.776 160.816 133.776 159.984C133.776 159.131 133.952 158.389 134.304 157.76C134.656 157.12 135.136 156.624 135.744 156.272C136.352 155.92 137.035 155.744 137.792 155.744C138.56 155.744 139.243 155.92 139.84 156.272C140.438 156.624 140.907 157.115 141.248 157.744C141.6 158.373 141.776 159.115 141.776 159.968C141.776 160.821 141.6 161.563 141.248 162.192C140.907 162.821 140.432 163.312 139.824 163.664C139.216 164.016 138.528 164.192 137.76 164.192ZM137.76 162.816C138.198 162.816 138.592 162.709 138.944 162.496C139.307 162.283 139.595 161.968 139.808 161.552C140.032 161.125 140.144 160.597 140.144 159.968C140.144 159.339 140.038 158.816 139.824 158.4C139.611 157.973 139.323 157.653 138.96 157.44C138.608 157.227 138.219 157.12 137.792 157.12C137.366 157.12 136.971 157.227 136.608 157.44C136.246 157.653 135.952 157.973 135.728 158.4C135.515 158.816 135.408 159.339 135.408 159.968C135.408 160.597 135.515 161.125 135.728 161.552C135.952 161.968 136.24 162.283 136.592 162.496C136.955 162.709 137.344 162.816 137.76 162.816ZM146.33 164.192C145.669 164.192 145.12 164.08 144.682 163.856C144.245 163.632 143.92 163.333 143.706 162.96C143.493 162.576 143.386 162.165 143.386 161.728C143.386 161.195 143.525 160.741 143.802 160.368C144.08 159.984 144.474 159.691 144.986 159.488C145.498 159.285 146.112 159.184 146.826 159.184H148.922C148.922 158.715 148.853 158.325 148.714 158.016C148.576 157.707 148.368 157.477 148.09 157.328C147.824 157.168 147.482 157.088 147.066 157.088C146.586 157.088 146.176 157.205 145.834 157.44C145.493 157.664 145.28 158 145.194 158.448H143.594C143.658 157.883 143.85 157.403 144.17 157.008C144.501 156.603 144.922 156.293 145.434 156.08C145.946 155.856 146.49 155.744 147.066 155.744C147.824 155.744 148.458 155.877 148.97 156.144C149.482 156.411 149.866 156.789 150.122 157.28C150.389 157.76 150.522 158.336 150.522 159.008V164H149.13L149.002 162.64C148.885 162.853 148.746 163.056 148.586 163.248C148.426 163.44 148.234 163.605 148.01 163.744C147.797 163.883 147.546 163.989 147.258 164.064C146.981 164.149 146.672 164.192 146.33 164.192ZM146.634 162.896C146.976 162.896 147.285 162.827 147.562 162.688C147.84 162.549 148.074 162.363 148.266 162.128C148.469 161.883 148.618 161.611 148.714 161.312C148.821 161.003 148.88 160.688 148.89 160.368V160.32H146.986C146.528 160.32 146.154 160.379 145.866 160.496C145.589 160.603 145.386 160.752 145.258 160.944C145.13 161.136 145.066 161.36 145.066 161.616C145.066 161.883 145.125 162.112 145.242 162.304C145.37 162.485 145.552 162.629 145.786 162.736C146.021 162.843 146.304 162.896 146.634 162.896ZM156.149 164.192C155.381 164.192 154.703 164.011 154.117 163.648C153.53 163.275 153.071 162.773 152.741 162.144C152.421 161.504 152.261 160.779 152.261 159.968C152.261 159.147 152.421 158.421 152.741 157.792C153.071 157.163 153.53 156.667 154.117 156.304C154.714 155.931 155.397 155.744 156.165 155.744C156.794 155.744 157.349 155.872 157.829 156.128C158.309 156.373 158.682 156.725 158.949 157.184V152.48H160.549V164H159.109L158.949 162.752C158.789 162.997 158.581 163.232 158.325 163.456C158.069 163.669 157.759 163.845 157.397 163.984C157.034 164.123 156.618 164.192 156.149 164.192ZM156.405 162.8C156.906 162.8 157.349 162.683 157.733 162.448C158.117 162.213 158.41 161.883 158.613 161.456C158.826 161.029 158.933 160.533 158.933 159.968C158.933 159.403 158.826 158.912 158.613 158.496C158.41 158.069 158.117 157.739 157.733 157.504C157.349 157.259 156.906 157.136 156.405 157.136C155.925 157.136 155.493 157.259 155.109 157.504C154.725 157.739 154.426 158.069 154.213 158.496C153.999 158.912 153.893 159.403 153.893 159.968C153.893 160.533 153.999 161.029 154.213 161.456C154.426 161.883 154.725 162.213 155.109 162.448C155.493 162.683 155.925 162.8 156.405 162.8ZM165.856 164.192C165.174 164.192 164.576 164.08 164.064 163.856C163.552 163.632 163.147 163.317 162.848 162.912C162.55 162.507 162.368 162.032 162.304 161.488H163.936C163.99 161.744 164.091 161.979 164.24 162.192C164.4 162.405 164.614 162.576 164.88 162.704C165.158 162.832 165.483 162.896 165.856 162.896C166.208 162.896 166.496 162.848 166.72 162.752C166.955 162.645 167.126 162.507 167.232 162.336C167.339 162.155 167.392 161.963 167.392 161.76C167.392 161.461 167.318 161.237 167.168 161.088C167.03 160.928 166.816 160.805 166.528 160.72C166.251 160.624 165.915 160.539 165.52 160.464C165.147 160.4 164.784 160.315 164.432 160.208C164.091 160.091 163.782 159.947 163.504 159.776C163.238 159.605 163.024 159.392 162.864 159.136C162.704 158.869 162.624 158.544 162.624 158.16C162.624 157.701 162.747 157.291 162.992 156.928C163.238 156.555 163.584 156.267 164.032 156.064C164.491 155.851 165.03 155.744 165.648 155.744C166.544 155.744 167.264 155.957 167.808 156.384C168.352 156.811 168.672 157.413 168.768 158.192H167.216C167.174 157.829 167.014 157.552 166.736 157.36C166.459 157.157 166.091 157.056 165.632 157.056C165.174 157.056 164.822 157.147 164.576 157.328C164.331 157.509 164.208 157.749 164.208 158.048C164.208 158.24 164.278 158.411 164.416 158.56C164.555 158.709 164.758 158.837 165.024 158.944C165.302 159.04 165.638 159.131 166.032 159.216C166.598 159.323 167.104 159.456 167.552 159.616C168 159.776 168.358 160.011 168.624 160.32C168.891 160.629 169.024 161.072 169.024 161.648C169.035 162.149 168.907 162.592 168.64 162.976C168.384 163.36 168.016 163.659 167.536 163.872C167.067 164.085 166.507 164.192 165.856 164.192ZM171.02 164V155.936H172.62V164H171.02ZM171.836 154.416C171.527 154.416 171.271 154.32 171.068 154.128C170.876 153.936 170.78 153.691 170.78 153.392C170.78 153.104 170.876 152.869 171.068 152.688C171.271 152.496 171.527 152.4 171.836 152.4C172.135 152.4 172.386 152.496 172.588 152.688C172.791 152.869 172.892 153.104 172.892 153.392C172.892 153.691 172.791 153.936 172.588 154.128C172.386 154.32 172.135 154.416 171.836 154.416ZM178.492 164.192C177.724 164.192 177.047 164.011 176.46 163.648C175.874 163.275 175.415 162.773 175.084 162.144C174.764 161.504 174.604 160.779 174.604 159.968C174.604 159.147 174.764 158.421 175.084 157.792C175.415 157.163 175.874 156.667 176.46 156.304C177.058 155.931 177.74 155.744 178.508 155.744C179.138 155.744 179.692 155.872 180.172 156.128C180.652 156.373 181.026 156.725 181.292 157.184V152.48H182.892V164H181.452L181.292 162.752C181.132 162.997 180.924 163.232 180.668 163.456C180.412 163.669 180.103 163.845 179.74 163.984C179.378 164.123 178.962 164.192 178.492 164.192ZM178.748 162.8C179.25 162.8 179.692 162.683 180.076 162.448C180.46 162.213 180.754 161.883 180.956 161.456C181.17 161.029 181.276 160.533 181.276 159.968C181.276 159.403 181.17 158.912 180.956 158.496C180.754 158.069 180.46 157.739 180.076 157.504C179.692 157.259 179.25 157.136 178.748 157.136C178.268 157.136 177.836 157.259 177.452 157.504C177.068 157.739 176.77 158.069 176.556 158.496C176.343 158.912 176.236 159.403 176.236 159.968C176.236 160.533 176.343 161.029 176.556 161.456C176.77 161.883 177.068 162.213 177.452 162.448C177.836 162.683 178.268 162.8 178.748 162.8ZM188.728 164.192C187.96 164.192 187.278 164.016 186.68 163.664C186.083 163.312 185.614 162.821 185.272 162.192C184.942 161.563 184.776 160.832 184.776 160C184.776 159.147 184.942 158.405 185.272 157.776C185.614 157.136 186.083 156.64 186.68 156.288C187.278 155.925 187.971 155.744 188.76 155.744C189.55 155.744 190.227 155.92 190.792 156.272C191.358 156.624 191.795 157.093 192.104 157.68C192.414 158.256 192.568 158.896 192.568 159.6C192.568 159.707 192.563 159.824 192.552 159.952C192.552 160.069 192.547 160.203 192.536 160.352H185.944V159.216H190.968C190.936 158.544 190.712 158.021 190.296 157.648C189.88 157.264 189.363 157.072 188.744 157.072C188.307 157.072 187.907 157.173 187.544 157.376C187.182 157.568 186.888 157.856 186.664 158.24C186.451 158.613 186.344 159.088 186.344 159.664V160.112C186.344 160.709 186.451 161.216 186.664 161.632C186.888 162.037 187.182 162.347 187.544 162.56C187.907 162.763 188.302 162.864 188.728 162.864C189.24 162.864 189.662 162.752 189.992 162.528C190.323 162.304 190.568 162 190.728 161.616H192.328C192.19 162.107 191.955 162.549 191.624 162.944C191.294 163.328 190.883 163.632 190.392 163.856C189.912 164.08 189.358 164.192 188.728 164.192ZM77.5256 185.192C76.8643 185.192 76.315 185.08 75.8776 184.856C75.4403 184.632 75.115 184.333 74.9016 183.96C74.6883 183.576 74.5816 183.165 74.5816 182.728C74.5816 182.195 74.7203 181.741 74.9976 181.368C75.275 180.984 75.6696 180.691 76.1816 180.488C76.6936 180.285 77.307 180.184 78.0216 180.184H80.1176C80.1176 179.715 80.0483 179.325 79.9096 179.016C79.771 178.707 79.563 178.477 79.2856 178.328C79.019 178.168 78.6776 178.088 78.2616 178.088C77.7816 178.088 77.371 178.205 77.0296 178.44C76.6883 178.664 76.475 179 76.3896 179.448H74.7896C74.8536 178.883 75.0456 178.403 75.3656 178.008C75.6963 177.603 76.1176 177.293 76.6296 177.08C77.1416 176.856 77.6856 176.744 78.2616 176.744C79.019 176.744 79.6536 176.877 80.1656 177.144C80.6776 177.411 81.0616 177.789 81.3176 178.28C81.5843 178.76 81.7176 179.336 81.7176 180.008V185H80.3256L80.1976 183.64C80.0803 183.853 79.9416 184.056 79.7816 184.248C79.6216 184.44 79.4296 184.605 79.2056 184.744C78.9923 184.883 78.7416 184.989 78.4536 185.064C78.1763 185.149 77.867 185.192 77.5256 185.192ZM77.8296 183.896C78.171 183.896 78.4803 183.827 78.7576 183.688C79.035 183.549 79.2696 183.363 79.4616 183.128C79.6643 182.883 79.8136 182.611 79.9096 182.312C80.0163 182.003 80.075 181.688 80.0856 181.368V181.32H78.1816C77.723 181.32 77.3496 181.379 77.0616 181.496C76.7843 181.603 76.5816 181.752 76.4536 181.944C76.3256 182.136 76.2616 182.36 76.2616 182.616C76.2616 182.883 76.3203 183.112 76.4376 183.304C76.5656 183.485 76.747 183.629 76.9816 183.736C77.2163 183.843 77.499 183.896 77.8296 183.896ZM86.8799 185.192C86.1972 185.192 85.5999 185.08 85.0879 184.856C84.5759 184.632 84.1705 184.317 83.8719 183.912C83.5732 183.507 83.3919 183.032 83.3279 182.488H84.9599C85.0132 182.744 85.1145 182.979 85.2639 183.192C85.4239 183.405 85.6372 183.576 85.9039 183.704C86.1812 183.832 86.5065 183.896 86.8799 183.896C87.2319 183.896 87.5199 183.848 87.7439 183.752C87.9785 183.645 88.1492 183.507 88.2559 183.336C88.3625 183.155 88.4159 182.963 88.4159 182.76C88.4159 182.461 88.3412 182.237 88.1919 182.088C88.0532 181.928 87.8399 181.805 87.5519 181.72C87.2745 181.624 86.9385 181.539 86.5439 181.464C86.1705 181.4 85.8079 181.315 85.4559 181.208C85.1145 181.091 84.8052 180.947 84.5279 180.776C84.2612 180.605 84.0479 180.392 83.8879 180.136C83.7279 179.869 83.6479 179.544 83.6479 179.16C83.6479 178.701 83.7705 178.291 84.0159 177.928C84.2612 177.555 84.6079 177.267 85.0559 177.064C85.5145 176.851 86.0532 176.744 86.6719 176.744C87.5679 176.744 88.2879 176.957 88.8319 177.384C89.3759 177.811 89.6959 178.413 89.7919 179.192H88.2399C88.1972 178.829 88.0372 178.552 87.7599 178.36C87.4825 178.157 87.1145 178.056 86.6559 178.056C86.1972 178.056 85.8452 178.147 85.5999 178.328C85.3545 178.509 85.2319 178.749 85.2319 179.048C85.2319 179.24 85.3012 179.411 85.4399 179.56C85.5785 179.709 85.7812 179.837 86.0479 179.944C86.3252 180.04 86.6612 180.131 87.0559 180.216C87.6212 180.323 88.1279 180.456 88.5759 180.616C89.0239 180.776 89.3812 181.011 89.6479 181.32C89.9145 181.629 90.0479 182.072 90.0479 182.648C90.0585 183.149 89.9305 183.592 89.6639 183.976C89.4079 184.36 89.0399 184.659 88.5599 184.872C88.0905 185.085 87.5305 185.192 86.8799 185.192ZM95.0518 185.192C94.3691 185.192 93.7718 185.08 93.2598 184.856C92.7478 184.632 92.3424 184.317 92.0438 183.912C91.7451 183.507 91.5638 183.032 91.4998 182.488H93.1318C93.1851 182.744 93.2864 182.979 93.4358 183.192C93.5958 183.405 93.8091 183.576 94.0758 183.704C94.3531 183.832 94.6784 183.896 95.0518 183.896C95.4038 183.896 95.6918 183.848 95.9158 183.752C96.1504 183.645 96.3211 183.507 96.4278 183.336C96.5344 183.155 96.5878 182.963 96.5878 182.76C96.5878 182.461 96.5131 182.237 96.3638 182.088C96.2251 181.928 96.0118 181.805 95.7238 181.72C95.4464 181.624 95.1104 181.539 94.7158 181.464C94.3424 181.4 93.9798 181.315 93.6278 181.208C93.2864 181.091 92.9771 180.947 92.6998 180.776C92.4331 180.605 92.2198 180.392 92.0598 180.136C91.8998 179.869 91.8198 179.544 91.8198 179.16C91.8198 178.701 91.9424 178.291 92.1878 177.928C92.4331 177.555 92.7798 177.267 93.2278 177.064C93.6864 176.851 94.2251 176.744 94.8438 176.744C95.7398 176.744 96.4598 176.957 97.0038 177.384C97.5478 177.811 97.8678 178.413 97.9638 179.192H96.4118C96.3691 178.829 96.2091 178.552 95.9318 178.36C95.6544 178.157 95.2864 178.056 94.8278 178.056C94.3691 178.056 94.0171 178.147 93.7718 178.328C93.5264 178.509 93.4038 178.749 93.4038 179.048C93.4038 179.24 93.4731 179.411 93.6118 179.56C93.7504 179.709 93.9531 179.837 94.2198 179.944C94.4971 180.04 94.8331 180.131 95.2278 180.216C95.7931 180.323 96.2998 180.456 96.7478 180.616C97.1958 180.776 97.5531 181.011 97.8198 181.32C98.0864 181.629 98.2198 182.072 98.2198 182.648C98.2304 183.149 98.1024 183.592 97.8358 183.976C97.5798 184.36 97.2118 184.659 96.7318 184.872C96.2624 185.085 95.7024 185.192 95.0518 185.192ZM100.216 185V176.936H101.816V185H100.216ZM101.032 175.416C100.722 175.416 100.466 175.32 100.264 175.128C100.072 174.936 99.9756 174.691 99.9756 174.392C99.9756 174.104 100.072 173.869 100.264 173.688C100.466 173.496 100.722 173.4 101.032 173.4C101.33 173.4 101.581 173.496 101.784 173.688C101.986 173.869 102.088 174.104 102.088 174.392C102.088 174.691 101.986 174.936 101.784 175.128C101.581 175.32 101.33 175.416 101.032 175.416ZM107.224 185.192C106.541 185.192 105.944 185.08 105.432 184.856C104.92 184.632 104.514 184.317 104.216 183.912C103.917 183.507 103.736 183.032 103.672 182.488H105.304C105.357 182.744 105.458 182.979 105.608 183.192C105.768 183.405 105.981 183.576 106.248 183.704C106.525 183.832 106.85 183.896 107.224 183.896C107.576 183.896 107.864 183.848 108.088 183.752C108.322 183.645 108.493 183.507 108.6 183.336C108.706 183.155 108.76 182.963 108.76 182.76C108.76 182.461 108.685 182.237 108.536 182.088C108.397 181.928 108.184 181.805 107.896 181.72C107.618 181.624 107.282 181.539 106.888 181.464C106.514 181.4 106.152 181.315 105.8 181.208C105.458 181.091 105.149 180.947 104.872 180.776C104.605 180.605 104.392 180.392 104.232 180.136C104.072 179.869 103.992 179.544 103.992 179.16C103.992 178.701 104.114 178.291 104.36 177.928C104.605 177.555 104.952 177.267 105.4 177.064C105.858 176.851 106.397 176.744 107.016 176.744C107.912 176.744 108.632 176.957 109.176 177.384C109.72 177.811 110.04 178.413 110.136 179.192H108.584C108.541 178.829 108.381 178.552 108.104 178.36C107.826 178.157 107.458 178.056 107 178.056C106.541 178.056 106.189 178.147 105.944 178.328C105.698 178.509 105.576 178.749 105.576 179.048C105.576 179.24 105.645 179.411 105.784 179.56C105.922 179.709 106.125 179.837 106.392 179.944C106.669 180.04 107.005 180.131 107.4 180.216C107.965 180.323 108.472 180.456 108.92 180.616C109.368 180.776 109.725 181.011 109.992 181.32C110.258 181.629 110.392 182.072 110.392 182.648C110.402 183.149 110.274 183.592 110.008 183.976C109.752 184.36 109.384 184.659 108.904 184.872C108.434 185.085 107.874 185.192 107.224 185.192ZM115.275 185C114.763 185 114.321 184.92 113.947 184.76C113.574 184.6 113.286 184.333 113.083 183.96C112.881 183.587 112.779 183.08 112.779 182.44V178.296H111.387V176.936H112.779L112.971 174.92H114.379V176.936H116.667V178.296H114.379V182.456C114.379 182.915 114.475 183.229 114.667 183.4C114.859 183.56 115.19 183.64 115.659 183.64H116.587V185H115.275ZM121.104 185.192C120.442 185.192 119.893 185.08 119.456 184.856C119.018 184.632 118.693 184.333 118.48 183.96C118.266 183.576 118.16 183.165 118.16 182.728C118.16 182.195 118.298 181.741 118.576 181.368C118.853 180.984 119.248 180.691 119.76 180.488C120.272 180.285 120.885 180.184 121.6 180.184H123.696C123.696 179.715 123.626 179.325 123.488 179.016C123.349 178.707 123.141 178.477 122.864 178.328C122.597 178.168 122.256 178.088 121.84 178.088C121.36 178.088 120.949 178.205 120.608 178.44C120.266 178.664 120.053 179 119.968 179.448H118.368C118.432 178.883 118.624 178.403 118.944 178.008C119.274 177.603 119.696 177.293 120.208 177.08C120.72 176.856 121.264 176.744 121.84 176.744C122.597 176.744 123.232 176.877 123.744 177.144C124.256 177.411 124.64 177.789 124.896 178.28C125.162 178.76 125.296 179.336 125.296 180.008V185H123.904L123.776 183.64C123.658 183.853 123.52 184.056 123.36 184.248C123.2 184.44 123.008 184.605 122.784 184.744C122.57 184.883 122.32 184.989 122.032 185.064C121.754 185.149 121.445 185.192 121.104 185.192ZM121.408 183.896C121.749 183.896 122.058 183.827 122.336 183.688C122.613 183.549 122.848 183.363 123.04 183.128C123.242 182.883 123.392 182.611 123.488 182.312C123.594 182.003 123.653 181.688 123.664 181.368V181.32H121.76C121.301 181.32 120.928 181.379 120.64 181.496C120.362 181.603 120.16 181.752 120.032 181.944C119.904 182.136 119.84 182.36 119.84 182.616C119.84 182.883 119.898 183.112 120.016 183.304C120.144 183.485 120.325 183.629 120.56 183.736C120.794 183.843 121.077 183.896 121.408 183.896ZM127.338 185V176.936H128.778L128.874 178.312C129.13 177.832 129.493 177.453 129.962 177.176C130.431 176.888 130.97 176.744 131.578 176.744C132.218 176.744 132.767 176.872 133.226 177.128C133.685 177.384 134.042 177.773 134.298 178.296C134.554 178.808 134.682 179.453 134.682 180.232V185H133.082V180.392C133.082 179.645 132.917 179.08 132.586 178.696C132.255 178.312 131.775 178.12 131.146 178.12C130.73 178.12 130.357 178.221 130.026 178.424C129.695 178.616 129.429 178.904 129.226 179.288C129.034 179.672 128.938 180.141 128.938 180.696V185H127.338ZM140.457 185.192C139.678 185.192 138.985 185.016 138.377 184.664C137.769 184.301 137.289 183.805 136.937 183.176C136.595 182.547 136.425 181.816 136.425 180.984C136.425 180.141 136.595 179.405 136.937 178.776C137.289 178.136 137.769 177.64 138.377 177.288C138.985 176.925 139.678 176.744 140.457 176.744C141.438 176.744 142.259 177 142.921 177.512C143.582 178.024 144.003 178.717 144.185 179.592H142.521C142.414 179.123 142.169 178.76 141.785 178.504C141.411 178.248 140.963 178.12 140.441 178.12C140.014 178.12 139.619 178.232 139.257 178.456C138.894 178.669 138.601 178.989 138.377 179.416C138.163 179.832 138.057 180.349 138.057 180.968C138.057 181.427 138.121 181.837 138.249 182.2C138.377 182.552 138.547 182.851 138.761 183.096C138.985 183.341 139.241 183.528 139.529 183.656C139.817 183.773 140.121 183.832 140.441 183.832C140.793 183.832 141.107 183.779 141.385 183.672C141.673 183.555 141.913 183.384 142.105 183.16C142.307 182.936 142.446 182.669 142.521 182.36H144.185C144.003 183.213 143.582 183.901 142.921 184.424C142.259 184.936 141.438 185.192 140.457 185.192ZM149.705 185.192C148.937 185.192 148.254 185.016 147.657 184.664C147.059 184.312 146.59 183.821 146.249 183.192C145.918 182.563 145.753 181.832 145.753 181C145.753 180.147 145.918 179.405 146.249 178.776C146.59 178.136 147.059 177.64 147.657 177.288C148.254 176.925 148.947 176.744 149.737 176.744C150.526 176.744 151.203 176.92 151.769 177.272C152.334 177.624 152.771 178.093 153.081 178.68C153.39 179.256 153.545 179.896 153.545 180.6C153.545 180.707 153.539 180.824 153.529 180.952C153.529 181.069 153.523 181.203 153.513 181.352H146.921V180.216H151.945C151.913 179.544 151.689 179.021 151.273 178.648C150.857 178.264 150.339 178.072 149.721 178.072C149.283 178.072 148.883 178.173 148.521 178.376C148.158 178.568 147.865 178.856 147.641 179.24C147.427 179.613 147.321 180.088 147.321 180.664V181.112C147.321 181.709 147.427 182.216 147.641 182.632C147.865 183.037 148.158 183.347 148.521 183.56C148.883 183.763 149.278 183.864 149.705 183.864C150.217 183.864 150.638 183.752 150.969 183.528C151.299 183.304 151.545 183 151.705 182.616H153.305C153.166 183.107 152.931 183.549 152.601 183.944C152.27 184.328 151.859 184.632 151.369 184.856C150.889 185.08 150.334 185.192 149.705 185.192Z" fill="#919292"/>
<defs>
<clipPath id="clip0_90_14">
<rect width="32" height="32" fill="white" transform="translate(98 35)"/>
</clipPath>
</defs>
</svg>
